<svg xmlns="http://www.w3.org/2000/svg" xmlns:xlink="http://www.w3.org/1999/xlink" viewBox="0 0 611 324.5"><defs><style>.cls-1,.cls-10,.cls-6,.cls-7,.cls-9{fill:#2a4d69;}.cls-2{fill:url(#radial-gradient);}.cls-3{fill:url(#radial-gradient-2);}.cls-11,.cls-12,.cls-13,.cls-14,.cls-15,.cls-4,.cls-5,.cls-8{fill:none;}.cls-10,.cls-11,.cls-12,.cls-13,.cls-14,.cls-15,.cls-4,.cls-6,.cls-7,.cls-8,.cls-9{stroke:#2a4d69;stroke-miterlimit:10;}.cls-10,.cls-4{stroke-width:0.5px;}.cls-11,.cls-6{stroke-width:0.75px;}.cls-8,.cls-9{stroke-width:0.25px;}.cls-12{stroke-width:0.6px;}.cls-14{stroke-width:0.3px;}.cls-15{stroke-width:0.4px;}.cls-16{fill:#fff;}</style><radialGradient id="radial-gradient" cx="305.5" cy="162.25" r="244.6" gradientUnits="userSpaceOnUse"><stop offset="0" stop-color="#fff"/><stop offset="0" stop-color="#a7bed1"/><stop offset="0" stop-color="#3f719b"/><stop offset="0" stop-color="#155285"/><stop offset="0.05" stop-color="#0f4e82"/></radialGradient><radialGradient id="radial-gradient-2" cx="448.24" cy="162.54" r="139.26" gradientUnits="userSpaceOnUse"><stop offset="0.1" stop-color="#27e8ef"/><stop offset="0.19" stop-color="#28c8e8"/><stop offset="0.28" stop-color="#29b3e4"/><stop offset="0.34" stop-color="#29abe2"/><stop offset="0.72" stop-color="#4878a0"/><stop offset="0.78" stop-color="#366a96"/><stop offset="0.81" stop-color="#28608f"/><stop offset="0.85" stop-color="#1a5688"/><stop offset="0.91" stop-color="#125083"/><stop offset="1" stop-color="#0f4e82"/></radialGradient></defs><title>Banner</title><g id="Layer_2" data-name="Layer 2"><g id="Layer_1-2" data-name="Layer 1"><path class="cls-1" d="M244.34,232.05v.28h0A2.53,2.53,0,0,0,244.34,232.05Z"/><rect class="cls-2" width="611" height="324.5"/><rect class="cls-3" x="308.99" y="23.28" width="278.51" height="278.51"/><circle class="cls-1" cx="405.74" cy="142.98" r="11.92"/><circle class="cls-1" cx="424.65" cy="120.48" r="11.92"/><circle class="cls-1" cx="429.53" cy="168.1" r="14.04"/><path class="cls-1" d="M435.07,197.48a11.92,11.92,0,0,1-23.84,0,11.8,11.8,0,0,1,2-6.61,10.31,10.31,0,0,1,.67-.92,11.92,11.92,0,0,1,21.16,7.53Z"/><circle class="cls-1" cx="487.49" cy="178.35" r="11.92"/><path class="cls-1" d="M486.07,199.44a9.17,9.17,0,1,1-.48-2.93,7.66,7.66,0,0,1,.23.82A8.64,8.64,0,0,1,486.07,199.44Z"/><circle class="cls-1" cx="490.82" cy="132.39" r="7.54"/><circle class="cls-1" cx="442.02" cy="185.06" r="3.98"/><path class="cls-1" d="M477.9,163a8.12,8.12,0,0,1-7.75,8.12h-.75a8.12,8.12,0,1,1,8.5-8.12Z"/><circle class="cls-1" cx="501.74" cy="157.93" r="7.54"/><circle class="cls-1" cx="403" cy="165.48" r="5.39"/><circle class="cls-1" cx="450.32" cy="112.39" r="7.54"/><circle class="cls-1" cx="473.72" cy="117.33" r="8.77"/><path class="cls-1" d="M496.16,149.8v20.34h-.75V149.86l-.38-.35-3.84-3.5-.61-.56a.43.43,0,0,1-.14-.32V132.77h.75V145l.16.15,4.06,3.69.57.53a.5.5,0,0,1,.16.28A.59.59,0,0,1,496.16,149.8Z"/><polygon class="cls-1" points="452.15 190.51 452.15 199.71 450.65 201.85 450.65 190.51 452.15 190.51"/><polygon class="cls-1" points="452.15 202.32 452.15 205.97 450.65 205.97 450.65 204.47 452.15 202.32"/><polygon class="cls-1" points="452.15 220.21 452.15 221.26 451.56 221.85 451.03 221.32 452.15 220.21"/><path class="cls-1" d="M413.91,189.95a10.31,10.31,0,0,0-.67.92l-.88-1.15a.31.31,0,0,1-.07-.09.4.4,0,0,1,0-.09l0,0a.57.57,0,0,1,0-.18v-1l-8.82-11.4-.62-.81a.44.44,0,0,1-.13-.31V168.1h.75v7.57l.11.14,8.71,11.28V181.3l-.5-.64L405.76,173l-.42-.54-.06-.08a.63.63,0,0,1-.09-.33V144.94h1.09v26.94l.22.28h0l5.69,7.36.82,1.07a.75.75,0,0,1,.11.14.92.92,0,0,1,.15.5v7.88l.06.08Z"/><path class="cls-1" d="M442,199.06l-.57.5-12.07-13.62h0l0,0,0,0a.53.53,0,0,1-.13-.23.58.58,0,0,1,0-.19V172h.75v13.4l.38.43Z"/><path class="cls-1" d="M470.15,165.48v5.66h-.75v-5.66Z"/><path class="cls-1" d="M477.65,195.74v15a1.24,1.24,0,0,1-.35.85l-1.15,1.15-24,24-.26.26-1.06-1.06,1.32-1.32,23.26-23.25.74-.74V197.37l1.26-1.36Z"/><path class="cls-1" d="M467.77,256.88v1.54l-1.5-.35-1.38-.32-7.5-1.77h0l-3.08-.72h0l-2.49-.59h0a1.2,1.2,0,0,1-.49-.21,1.44,1.44,0,0,1-.62-1.17v-8.66l.31.35,1.12-1-1.43-1.61V206h1.5v14.23L451,221.33l.53.53.59-.59V234.6l-1.32,1.32,1.06,1.06.26-.26v16.49l1.31.31,3.92.92,3.1.73,5.79,1.36Z"/><polygon class="cls-1" points="452.15 220.21 452.15 221.26 451.56 221.85 451.03 221.32 452.15 220.21"/><polygon class="cls-1" points="452.15 234.59 452.15 236.72 451.89 236.97 450.83 235.91 452.15 234.59"/><polygon class="cls-1" points="429.15 185.68 429.15 185.69 429.14 185.69 429.15 185.68"/><polygon class="cls-1" points="452.08 243.97 450.96 244.97 450.65 244.62 450.65 242.35 452.08 243.97"/><polygon class="cls-1" points="452.15 234.59 452.15 236.72 451.89 236.97 450.83 235.91 452.15 234.59"/><polygon class="cls-1" points="452.08 243.97 450.96 244.97 450.65 244.62 450.65 242.35 452.08 243.97"/><path class="cls-1" d="M474.26,116.56v21.59a.72.72,0,0,1-.06.29.76.76,0,0,1-.15.23l-.15.11-.74.52-13.43,9.35V191.3a.55.55,0,0,1,0,.22s0,0,0,0l-.15.21s0,0,0,0l-1.28,1.84-6.08,8.72-1.5,2.15-7.87,11.29v2.58l.85.61,22.69,16,1.5,1.06v1.84L466.6,237l-.28-.19L442.38,219.9l-.53-.38-.07,0a1.22,1.22,0,0,1-.5-1V183.73h1.5v29.42l7.87-11.29,1.5-2.15,6.08-8.72V133l-.21-.17-7-5.5-.91-.72-.21-.17a1.36,1.36,0,0,1-.38-.87V112.59h1.5v12.79l1,.78,7.29,5.78h0a1.28,1.28,0,0,1,.12.1.89.89,0,0,1,.25.61v14.66l13.06-9.1.37-.25v-21.4Z"/><circle class="cls-1" cx="451.4" cy="191.75" r="3.98"/><path class="cls-1" d="M502.11,154.9v13.64a.58.58,0,0,1-.11.28s0,0,0,0l-3.76,4.81-.59-.46,3.6-4.59.13-.18V154.9Z"/><path class="cls-1" d="M487.86,178.17V195a.61.61,0,0,1-.11.35l-.07.07-1.86,1.86a7.66,7.66,0,0,0-.23-.82l1.15-1.16.37-.37V178.17Z"/><polygon class="cls-1" points="480.79 192.62 477.65 195.75 477.41 196 451.56 221.85 451.03 221.32 452.15 220.21 480.26 192.09 480.79 192.62"/><path class="cls-1" d="M485.59,196.51a7.66,7.66,0,0,1,.23.82L475.19,208l-.53-.53Z"/><path class="cls-1" d="M419.51,197.2l-.86.67-5.41-7a10.31,10.31,0,0,1,.67-.92Z"/><path class="cls-1" d="M459.65,175.89l-1,1.11L425.4,146.73l-1.15-1a1.15,1.15,0,0,1-.35-.83v-23h1.5v22.85l.73.66Z"/><polygon class="cls-1" points="467.77 251.69 467.77 251.72 467.7 251.71 467.77 251.69"/><polygon class="cls-1" points="467.82 258.44 467.77 258.44 467.77 258.42 467.82 258.44"/><polygon class="cls-1" points="439.81 260.62 439.78 260.63 439.78 260.61 439.81 260.62"/><polygon class="cls-1" points="467.77 251.72 467.77 253.24 467.72 253.25 466.27 252.91 464.62 252.53 452.95 249.78 452.15 249.59 450.65 249.24 449.87 249.06 441.28 247.03 439.79 246.69 439.78 246.69 439.78 245.15 441.28 245.5 442.66 245.82 450.65 247.71 452.15 248.06 452.95 248.25 456.02 248.97 466.27 251.38 467.7 251.71 467.77 251.72"/><polygon class="cls-1" points="467.77 253.24 467.77 253.26 467.72 253.25 467.77 253.24"/><polygon class="cls-1" points="467.82 237.87 467.82 238.19 466.32 238.66 442.66 245.82 441.28 245.5 439.78 245.15 439.78 245.12 441.28 244.66 466.32 237.09 466.6 237 467.82 237.87"/><polygon class="cls-1" points="439.78 245.15 439.73 245.13 439.78 245.12 439.78 245.15"/><polygon class="cls-1" points="439.79 246.69 439.78 246.69 439.78 246.69 439.79 246.69"/><path class="cls-1" d="M467.77,258.42v0l-1.5.45-1.9.58-.51.15-7.38,2.24v1a2.53,2.53,0,0,1,0,.28,4.47,4.47,0,0,1-1,2.52,4.12,4.12,0,0,1-1.26,1.09,4.39,4.39,0,0,1-2.3.64,4.53,4.53,0,0,1-4.41-3.5l-6.25-2.67-1.47-.63h0v-1.53l.15,0,1.35.58.9.38,5.28,2.25,1.28.55a.28.28,0,0,0,0,.09,3.23,3.23,0,0,0,3.21,3.21,2.69,2.69,0,0,0,.57-.06,3.14,3.14,0,0,0,1.72-.89,3.22,3.22,0,0,0,.93-2.26V260.7l.63-.19.69-.21,4.64-1.41h0l2.68-.81,1.08-.33,1.38.32Z"/><polygon class="cls-1" points="439.81 260.62 439.78 260.63 439.78 260.61 439.81 260.62"/><polygon class="cls-1" points="453.82 256.92 442.18 260 441.28 259.62 439.93 259.04 441.28 258.69 450.93 256.13 453.82 256.92"/><polygon class="cls-1" points="467.72 253.25 466.27 253.63 460.48 255.16 457.39 255.97 457.38 255.97 456.69 256.15 453.81 255.38 454.29 255.25 454.3 255.25 457.38 254.44 464.62 252.53 466.27 252.91 467.72 253.25"/><polygon class="cls-1" points="467.77 253.24 467.77 253.26 467.72 253.25 467.77 253.24"/><polygon class="cls-1" points="467.77 251.69 467.77 251.72 467.7 251.71 467.77 251.69"/><polygon class="cls-1" points="467.77 244.35 467.77 245.87 467.72 245.88 466.27 245.53 464.62 245.16 441.28 239.66 439.79 239.31 439.78 239.31 439.78 237.78 441.28 238.13 442.66 238.46 466.27 244 467.7 244.34 467.77 244.35"/><polygon class="cls-1" points="456.69 256.15 453.82 256.92 450.93 256.13 441.29 253.53 439.99 253.19 439.98 253.19 439.98 251.66 440 251.66 441.33 251.31 449.87 249.06 450.65 249.24 450.65 250.38 442.9 252.44 453.81 255.38 456.69 256.15"/><polygon class="cls-1" points="467.77 245.88 466.32 246.25 460.53 247.78 457.44 248.59 457.43 248.59 456.02 248.97 452.95 249.78 452.15 250 450.65 250.38 450.65 249.24 449.87 249.06 450.65 248.84 452.15 248.46 452.95 248.25 454.34 247.88 454.35 247.88 457.43 247.06 464.67 245.15 466.32 245.53 467.77 245.88"/><path class="cls-1" d="M441.05,227.93v11h-1.28V228l-.86-.61-15.12-10.74-.78-.55a1.12,1.12,0,0,1-.5-.93V202.58h1.28v12.51l.84.6,15.14,10.74.75.54.08,0a1.13,1.13,0,0,1,.35.46A1,1,0,0,1,441.05,227.93Z"/><path class="cls-1" d="M477.09,182.23l-.5.56L470.15,177l-.44-.4-.12-.1a.68.68,0,0,1-.19-.44v-4.92h.75V176l.51.46Z"/><path class="cls-1" d="M470.15,170.73v.41h-.75v-.41Z"/><circle class="cls-1" cx="441.28" cy="124.31" r="4.08"/><path class="cls-1" d="M441.66,124.71v6.63a.65.65,0,0,1-.26.53.71.71,0,0,1-.15.08l-.35.2L425,141.32l-.38-.65,15.73-9.09.52-.3v-6.57Z"/><polygon class="cls-1" points="439.98 251.65 440 251.66 439.98 251.66 439.98 251.65"/><rect class="cls-1" x="393.52" y="165.69" width="0.49" height="14.69" transform="translate(280.08 -241.77) rotate(50.95)"/><circle class="cls-1" cx="387.11" cy="178.32" r="1.75"/><rect class="cls-1" x="399.65" y="173.23" width="0.6" height="29.54" transform="translate(792.12 -15.73) rotate(127.37)"/><circle class="cls-1" cx="398.28" cy="205.48" r="1.75"/><circle class="cls-1" cx="420.78" cy="220.9" r="1.75"/><circle class="cls-1" cx="419.84" cy="242.56" r="1.75"/><circle class="cls-1" cx="384.19" cy="221.4" r="2.08"/><circle class="cls-1" cx="358.33" cy="158.74" r="1"/><circle class="cls-1" cx="379.99" cy="161.82" r="1.75"/><circle class="cls-1" cx="386.61" cy="135.69" r="1.75"/><circle class="cls-1" cx="373.36" cy="143.82" r="1.75"/><circle class="cls-1" cx="376.74" cy="104.69" r="1.75"/><circle class="cls-1" cx="407.24" cy="98.32" r="1.75"/><circle class="cls-1" cx="415.99" cy="77.69" r="1.75"/><circle class="cls-1" cx="437.74" cy="104.44" r="1.75"/><circle class="cls-1" cx="432.61" cy="83.76" r="1.75"/><rect class="cls-1" x="390.52" y="204.06" width="0.9" height="19.24" transform="translate(239.3 -205.26) rotate(41.44)"/><rect class="cls-1" x="405.63" y="196.16" width="0.69" height="13.43" transform="translate(476.11 -245.52) rotate(72.34)"/><rect class="cls-1" x="392.32" y="178.15" width="0.37" height="26.96" transform="translate(828.41 219.4) rotate(157.62)"/><circle class="cls-1" cx="361.31" cy="191.66" r="0.86"/><rect class="cls-1" x="372.21" y="188.43" width="0.17" height="36.15" transform="translate(793.74 146.23) rotate(142.84)"/><rect class="cls-1" x="409.45" y="200.74" width="0.4" height="25.07" transform="translate(818.69 -1.16) rotate(124.83)"/><rect class="cls-1" x="420.1" y="221.74" width="0.57" height="20.01" transform="translate(829.61 482.68) rotate(-177.35)"/><rect class="cls-1" x="401.45" y="212.3" width="0.38" height="39.69" transform="translate(807.39 7.25) rotate(120.97)"/><rect class="cls-1" x="359.65" y="159.49" width="0.27" height="31.51" transform="translate(733.67 317.97) rotate(174.92)"/><rect class="cls-1" x="383.24" y="162.56" width="0.49" height="14.96" transform="translate(802.9 177.63) rotate(157.12)"/><rect class="cls-1" x="368.54" y="150.42" width="0.33" height="19.58" transform="translate(579.88 -181.87) rotate(98.2)"/><line class="cls-4" x1="373.86" y1="144.69" x2="379.99" y2="161.82"/><line class="cls-4" x1="358.33" y1="158.74" x2="373.36" y2="143.82"/><line class="cls-4" x1="386.61" y1="135.69" x2="373.36" y2="143.82"/><line class="cls-4" x1="405.8" y1="142.94" x2="386.61" y2="135.69"/><line class="cls-4" x1="376.74" y1="104.69" x2="386.53" y2="135.07"/><line class="cls-4" x1="373.36" y1="143.82" x2="376.74" y2="104.69"/><line class="cls-5" x1="386.61" y1="135.69" x2="376.74" y2="104.69"/><line class="cls-4" x1="407.24" y1="98.32" x2="405.74" y2="142.98"/><line class="cls-4" x1="386.86" y1="135.32" x2="407.24" y2="98.32"/><line class="cls-4" x1="376.74" y1="104.69" x2="415.99" y2="77.69"/><line class="cls-4" x1="432.61" y1="83.76" x2="415.99" y2="77.69"/><line class="cls-4" x1="437.74" y1="104.44" x2="432.61" y2="83.76"/><line class="cls-4" x1="441.28" y1="124.31" x2="437.74" y2="104.44"/><line class="cls-4" x1="424.49" y1="120.69" x2="437.74" y2="104.44"/><line class="cls-4" x1="407.24" y1="98.32" x2="437.74" y2="104.44"/><line class="cls-4" x1="432.61" y1="83.76" x2="407.05" y2="98.32"/><line class="cls-4" x1="376.74" y1="104.69" x2="407.05" y2="98.32"/><line class="cls-4" x1="379.99" y1="161.82" x2="405.11" y2="141.94"/><circle class="cls-1" cx="452.49" cy="64.19" r="1.75"/><circle class="cls-1" cx="472.24" cy="86.82" r="1.75"/><circle class="cls-1" cx="495.11" cy="108.32" r="1.75"/><circle class="cls-1" cx="495.66" cy="80.94" r="1.75"/><circle class="cls-1" cx="519.49" cy="141.44" r="1.75"/><circle class="cls-1" cx="527.86" cy="117.07" r="1.75"/><circle class="cls-1" cx="477.24" cy="147.57" r="1.75"/><circle class="cls-1" cx="444.74" cy="141.32" r="1.75"/><circle class="cls-1" cx="507.38" cy="176.41" r="1.31"/><circle class="cls-1" cx="526.61" cy="161.44" r="1.75"/><circle class="cls-1" cx="545.24" cy="148.44" r="1.75"/><circle class="cls-1" cx="538.74" cy="194.19" r="1.75"/><circle class="cls-1" cx="482.31" cy="227.72" r="1.26"/><circle class="cls-1" cx="500.99" cy="231.57" r="1.75"/><circle class="cls-1" cx="498.86" cy="206.57" r="1.75"/><circle class="cls-1" cx="450.99" cy="176.82" r="1.75"/><line class="cls-6" x1="472.43" y1="87.01" x2="450.32" y2="112.39"/><line class="cls-7" x1="452.55" y1="63.94" x2="472.36" y2="87.19"/><line class="cls-8" x1="495.8" y1="81.07" x2="472.43" y2="87.01"/><line class="cls-9" x1="452.49" y1="64.19" x2="495.8" y2="80.82"/><line class="cls-10" x1="415.99" y1="77.69" x2="452.49" y2="64.19"/><line class="cls-8" x1="432.61" y1="83.76" x2="452.49" y2="64.19"/><line class="cls-11" x1="495.36" y1="108.23" x2="472.24" y2="86.82"/><line class="cls-7" x1="473.53" y1="117.4" x2="495.11" y2="108.32"/><line class="cls-7" x1="527.86" y1="117.07" x2="519.86" y2="93.07"/><line class="cls-8" x1="495.11" y1="108.32" x2="495.66" y2="80.94"/><line class="cls-6" x1="527.86" y1="117.07" x2="495.11" y2="108.32"/><line class="cls-7" x1="519.53" y1="92.9" x2="495.11" y2="108.32"/><line class="cls-10" x1="495.61" y1="81.23" x2="519.53" y2="92.9"/><circle class="cls-1" cx="519.66" cy="93.03" r="1.75"/><line class="cls-4" x1="444.74" y1="141.32" x2="441.28" y2="124.57"/><line class="cls-4" x1="429.53" y1="167.9" x2="444.95" y2="141.4"/><line class="cls-4" x1="477.24" y1="147.57" x2="469.95" y2="162.48"/><line class="cls-4" x1="501.74" y1="157.93" x2="477.24" y2="147.57"/><line class="cls-8" x1="450.99" y1="176.82" x2="442.03" y2="184.82"/><line class="cls-8" x1="429.53" y1="167.9" x2="450.99" y2="176.82"/><line class="cls-8" x1="451.7" y1="191.48" x2="451.03" y2="177.23"/><line class="cls-4" x1="472.24" y1="86.82" x2="432.61" y2="83.76"/><line class="cls-4" x1="490.82" y1="132.39" x2="527.61" y2="117.07"/><line class="cls-12" x1="519.28" y1="141.57" x2="527.86" y2="117.07"/><line class="cls-8" x1="545.24" y1="148.44" x2="527.86" y2="117.07"/><line class="cls-8" x1="526.61" y1="161.44" x2="545.24" y2="148.44"/><line class="cls-11" x1="501.74" y1="157.93" x2="519.49" y2="141.44"/><line class="cls-8" x1="526.61" y1="161.44" x2="519.28" y2="141.57"/><line class="cls-11" x1="507.36" y1="176.44" x2="526.61" y2="161.44"/><line class="cls-4" x1="538.74" y1="194.19" x2="526.61" y2="161.44"/><line class="cls-8" x1="545.24" y1="148.44" x2="538.86" y2="194.4"/><line class="cls-11" x1="498.53" y1="206.57" x2="507.36" y2="176.44"/><line class="cls-13" x1="476.95" y1="199.9" x2="498.53" y2="206.57"/><line class="cls-14" x1="538.74" y1="194.19" x2="498.86" y2="206.57"/><line class="cls-4" x1="500.99" y1="231.57" x2="498.86" y2="206.57"/><line class="cls-15" x1="482.11" y1="227.82" x2="498.7" y2="206.15"/><line class="cls-12" x1="500.99" y1="231.57" x2="482.36" y2="228.07"/><line class="cls-8" x1="538.74" y1="194.19" x2="501.2" y2="231.4"/><line class="cls-4" x1="361.31" y1="191.66" x2="387.11" y2="178.32"/><line class="cls-4" x1="384.24" y1="221.07" x2="386.86" y2="178.69"/><line class="cls-4" x1="379.99" y1="161.82" x2="360.99" y2="191.57"/><line class="cls-4" x1="420.99" y1="220.69" x2="384.19" y2="221.4"/><line class="cls-4" x1="507.36" y1="176.44" x2="538.86" y2="194.4"/><line class="cls-4" x1="501.74" y1="157.93" x2="507.36" y2="176.44"/><line class="cls-8" x1="376.74" y1="104.69" x2="358.33" y2="158.74"/><path class="cls-16" d="M451.07,109.6a.15.15,0,1,0,.15.15A.15.15,0,0,0,451.07,109.6Z"/><path class="cls-16" d="M449.54,109.6a.15.15,0,1,0,.15.15A.15.15,0,0,0,449.54,109.6Z"/><path class="cls-16" d="M453.61,112.89a1.22,1.22,0,0,0,.2-.65,1.06,1.06,0,0,0-.39-.82,1,1,0,0,0,.08-.4,1.13,1.13,0,0,0-.62-1,.91.91,0,0,0-.69-1,1.1,1.1,0,0,0-1-.68,1,1,0,0,1-1.83,0,1.1,1.1,0,0,0-1,.68.91.91,0,0,0-.69,1,1.13,1.13,0,0,0-.62,1,1,1,0,0,0,.08.4,1.06,1.06,0,0,0-.39.82,1.22,1.22,0,0,0,.2.65,1.05,1.05,0,0,0,.12,1.36,1.1,1.1,0,0,0,1.05,1.27h0a3,3,0,0,1,3.18.61,1.22,1.22,0,0,0,1.05-.61h0a1.1,1.1,0,0,0,1.07-1.11,1,1,0,0,0,0-.16,1.05,1.05,0,0,0,.12-1.36Zm-3.46-2.24a.6.6,0,0,0-.3-.08.15.15,0,0,0,0,.3.3.3,0,0,1,.3.3v2.89a1.21,1.21,0,0,0-.91-.41.15.15,0,0,0,0,.3.91.91,0,0,1,.91.91,1,1,0,0,1-.91,1,.92.92,0,0,1-.83-.53.15.15,0,0,0-.16-.09h0a.79.79,0,0,1-.79-1,.15.15,0,0,0-.05-.15.76.76,0,0,1-.28-.58.75.75,0,0,1,.11-.39,1,1,0,0,0,.65.24.15.15,0,1,0,0-.3.8.8,0,0,1-.76-.81.76.76,0,0,1,.36-.64.15.15,0,0,0,.05-.2.75.75,0,0,1-.1-.37.76.76,0,1,1,1.52,0,.15.15,0,1,0,.3,0,1.1,1.1,0,0,0-1.07-1.11H448a.61.61,0,0,1,1-.43.15.15,0,1,0,.22-.22.91.91,0,0,0-.5-.26.77.77,0,0,1,.62-.36.81.81,0,0,1,.76.81Zm2.59,2.7a1,1,0,0,0,.65-.24.75.75,0,0,1,.11.39.76.76,0,0,1-.28.58.15.15,0,0,0-.05.15.75.75,0,0,1,0,.18.79.79,0,0,1-.81.8h0a.15.15,0,0,0-.16.09.92.92,0,0,1-.83.53,1,1,0,0,1-.91-1,.91.91,0,0,1,.91-.91.15.15,0,1,0,0-.3,1.21,1.21,0,0,0-.91.41v-2.89a.3.3,0,0,1,.3-.3.15.15,0,1,0,0-.3.6.6,0,0,0-.3.08v-1.19a.81.81,0,0,1,.76-.81.77.77,0,0,1,.62.36.91.91,0,0,0-.5.26.15.15,0,1,0,.22.22.61.61,0,0,1,1,.43h-.15a1.1,1.1,0,0,0-1.07,1.11.15.15,0,1,0,.3,0,.76.76,0,1,1,1.52,0,.75.75,0,0,1-.1.37.15.15,0,0,0,.05.2.76.76,0,0,1,.36.64.8.8,0,0,1-.76.81.15.15,0,1,0,0,.3Z"/><path class="cls-16" d="M449.81,111.6a.15.15,0,0,0-.21,0,.76.76,0,0,1-1.27-.57.15.15,0,0,0-.3,0,1.07,1.07,0,0,0,.89,1.05.46.46,0,0,1-.44.32.15.15,0,0,0,0,.3.76.76,0,0,0,.75-.62,1.06,1.06,0,0,0,.57-.26A.15.15,0,0,0,449.81,111.6Z"/><path class="cls-16" d="M448.17,114.26a.15.15,0,0,0,0,.3.81.81,0,0,1,.76.81.15.15,0,1,0,.3,0A1.1,1.1,0,0,0,448.17,114.26Z"/><path class="cls-16" d="M449.39,113a1.37,1.37,0,0,0-1.19.69.15.15,0,1,0,.26.15,1.06,1.06,0,0,1,.93-.54.15.15,0,1,0,0-.3Z"/><path class="cls-16" d="M452.13,112.39a.46.46,0,0,1-.44-.32,1.07,1.07,0,0,0,.89-1.05.15.15,0,0,0-.3,0,.76.76,0,0,1-1.27.57.15.15,0,1,0-.2.23,1.06,1.06,0,0,0,.57.26.76.76,0,0,0,.75.62.15.15,0,0,0,0-.3Z"/><path class="cls-16" d="M452.43,114.26a1.1,1.1,0,0,0-1.07,1.11.15.15,0,1,0,.3,0,.81.81,0,0,1,.76-.81.15.15,0,1,0,0-.3Z"/><path class="cls-16" d="M452.41,113.74a1.37,1.37,0,0,0-1.19-.69.15.15,0,0,0,0,.3,1.06,1.06,0,0,1,.93.54.15.15,0,0,0,.26-.15Z"/><path class="cls-16" d="M503.6,159.52a.17.17,0,1,0-.17-.17A.17.17,0,0,0,503.6,159.52Z"/><path class="cls-16" d="M498.94,159.42a5.08,5.08,0,0,0,1.35,2.43h0v.73a.17.17,0,0,0,.17.17h3.13a.17.17,0,0,0,.17-.17v-.75a4.32,4.32,0,0,0,.7-2.35v-1.35a8,8,0,0,1-1.74-1,.7.7,0,0,1-1-.35.69.69,0,0,0-.35.09v-1.59a.7.7,0,0,0-1.39,0v2.5l-.48.32A1.28,1.28,0,0,0,498.94,159.42Zm.73-1.07.28-.19v1.18a.17.17,0,1,0,.35,0v-4.11a.35.35,0,1,1,.7,0v3.41a.17.17,0,1,0,.35,0v-1.22a.35.35,0,1,1,.7,0v1.22a.17.17,0,1,0,.35,0v-.87a.35.35,0,0,1,.7,0v.87a.17.17,0,1,0,.35,0v-.52a.35.35,0,1,1,.7,0v1.35a4,4,0,0,1-.67,2.2.17.17,0,0,0,0,.1v.63h-2.78v-.63a.17.17,0,0,0-.05-.12,4.74,4.74,0,0,1-1.32-2.32A.93.93,0,0,1,499.67,158.35Z"/><path class="cls-16" d="M502.93,161.54a.17.17,0,0,0,.24,0,3.59,3.59,0,0,0,.56-1.42.17.17,0,0,0-.34-.06,3.24,3.24,0,0,1-.51,1.29A.17.17,0,0,0,502.93,161.54Z"/><path class="cls-16" d="M499.43,155.42a.17.17,0,0,0,.17-.17,1,1,0,1,1,2.09,0,.17.17,0,1,0,.35,0,1.39,1.39,0,1,0-2.78,0A.17.17,0,0,0,499.43,155.42Z"/><g id="outline"><path class="cls-16" d="M406.09,163.88h-.32a0,0,0,0,1,0-.06l.28-.16a.11.11,0,0,0,0-.15h0l-.32-.56a.11.11,0,0,0-.15,0l-.28.16a0,0,0,0,1,0,0,0,0,0,0,1,0,0l.16-.28a.11.11,0,0,0,0-.15l-.56-.32a.11.11,0,0,0-.15,0h0l-.16.28h0a0,0,0,0,1-.06,0v-.32a.11.11,0,0,0-.11-.11h-.64a.11.11,0,0,0-.11.11v.32a0,0,0,0,1,0,0l0,0-.16-.28a.11.11,0,0,0-.15,0h0l-.56.32a.11.11,0,0,0,0,.15l.16.28a0,0,0,0,1,0,0h0l-.28-.16a.11.11,0,0,0-.15,0l-.32.56a.11.11,0,0,0,0,.15h0l.28.16a0,0,0,0,1,0,0l0,0H402a.11.11,0,0,0-.11.11v.64a.11.11,0,0,0,.11.11h.32a0,0,0,0,1,0,.06l-.28.16a.11.11,0,0,0,0,.15h0l.32.56a.11.11,0,0,0,.15,0l.28-.16a0,0,0,0,1,0,0,0,0,0,0,1,0,0l-.16.28a.11.11,0,0,0,0,.15l.56.32a.11.11,0,0,0,.15,0h0l.16-.28a0,0,0,0,1,.06,0v.32a.11.11,0,0,0,.11.11h.64a.11.11,0,0,0,.11-.11V166a0,0,0,0,1,0,0l0,0,.16.28a.11.11,0,0,0,.15,0l.56-.32a.11.11,0,0,0,0-.15l-.16-.28a0,0,0,0,1,0,0h0l.28.16a.11.11,0,0,0,.15,0l.32-.56a.11.11,0,0,0,0-.15h0l-.28-.16a0,0,0,0,1,0,0v0h.35a.11.11,0,0,0,.11-.11V164A.11.11,0,0,0,406.09,163.88Zm-.11.64h-.32a.11.11,0,0,0-.1.08l0,.1a.25.25,0,0,0,.11.28l.19.11-.21.37-.19-.11a.24.24,0,0,0-.33.33l.11.19-.37.21-.11-.19a.24.24,0,0,0-.46.12v.22h-.43V166a.24.24,0,0,0-.46-.12l-.11.19-.37-.21.11-.19a.24.24,0,0,0-.33-.33l-.19.11-.21-.37.19-.11a.24.24,0,0,0-.12-.46h-.22v-.43h.22a.24.24,0,0,0,.12-.46l-.19-.11.21-.37.19.11a.24.24,0,0,0,.33-.33l-.11-.19.37-.21.11.19a.24.24,0,0,0,.46-.12v-.22h.43v.22a.24.24,0,0,0,.46.12l.11-.19.37.21-.11.19a.24.24,0,0,0,.33.33l.19-.11.21.37-.19.11a.24.24,0,0,0,.12.46H406Z"/><path class="cls-16" d="M404,165.06a.75.75,0,1,0-.75-.75A.75.75,0,0,0,404,165.06Zm0-1.29a.54.54,0,1,1-.54.54A.54.54,0,0,1,404,163.77Z"/><path class="cls-16" d="M404,163v.21a1.07,1.07,0,1,1-1,1.52l-.19.09A1.29,1.29,0,1,0,404,163Z"/><path class="cls-16" d="M403,164.31h-.21a1.3,1.3,0,0,0,0,.23l.21,0A1.08,1.08,0,0,1,403,164.31Z"/><path class="cls-16" d="M399.86,166.56h.19a.09.09,0,0,1,.06.15l-.14.14a.11.11,0,0,0,0,.15l.3.3a.11.11,0,0,0,.15,0l.14-.14a.09.09,0,0,1,.15.06v.19a.11.11,0,0,0,.11.11h.43a.11.11,0,0,0,.11-.11v-.19a.09.09,0,0,1,.09-.09l.06,0,.14.14a.11.11,0,0,0,.15,0l.3-.3a.11.11,0,0,0,0-.15l-.14-.14a.09.09,0,0,1,0-.12l.06,0h.19a.11.11,0,0,0,.11-.11V166a.11.11,0,0,0-.11-.11H402a.09.09,0,0,1-.06-.15l.14-.14a.11.11,0,0,0,0-.15l-.3-.3a.11.11,0,0,0-.15,0l-.14.14a.09.09,0,0,1-.15-.06v-.19a.11.11,0,0,0-.11-.11h-.43a.11.11,0,0,0-.11.11v.19a.09.09,0,0,1-.09.09l-.06,0-.14-.14a.11.11,0,0,0-.15,0l-.3.3a.11.11,0,0,0,0,.15l.14.14h0a.09.09,0,0,1,0,.12l-.06,0h-.19a.11.11,0,0,0-.11.11v.43A.11.11,0,0,0,399.86,166.56Zm.11-.43h.08a.3.3,0,0,0,.21-.52l-.06-.06.15-.15.06.06a.3.3,0,0,0,.52-.21v-.08h.21v.08a.3.3,0,0,0,.52.21l.06-.06.15.15-.06.06a.3.3,0,0,0,.21.52h.08v.21H402a.3.3,0,0,0-.21.52l.06.06-.15.15-.06-.06a.3.3,0,0,0-.52.21v.08h-.21v-.08a.3.3,0,0,0-.52-.21l-.06.06-.15-.15.06-.06a.3.3,0,0,0-.21-.52H400Z"/><path class="cls-16" d="M401,166.67a.43.43,0,1,0-.43-.43A.43.43,0,0,0,401,166.67Zm0-.64a.21.21,0,1,1-.21.21A.21.21,0,0,1,401,166Z"/><path class="cls-16" d="M403.4,166.45H403a.11.11,0,0,0-.11.11v.19l-.13-.13a.11.11,0,0,0-.15,0l-.3.3a.11.11,0,0,0,0,.15l.13.13h-.19a.11.11,0,0,0-.11.11v.43a.11.11,0,0,0,.11.11h.19l-.13.13a.11.11,0,0,0,0,.15l.3.3a.11.11,0,0,0,.15,0l.13-.13v.19a.11.11,0,0,0,.11.11h.43a.11.11,0,0,0,.11-.11v-.19l.13.13a.11.11,0,0,0,.15,0l.3-.3a.11.11,0,0,0,0-.15l-.13-.13h.19a.11.11,0,0,0,.11-.11v-.43a.11.11,0,0,0-.11-.11H404l.13-.13a.11.11,0,0,0,0-.15l-.3-.3a.11.11,0,0,0-.15,0l-.13.13v-.19A.11.11,0,0,0,403.4,166.45Zm.16.54.15-.15.15.15-.15.15a.11.11,0,0,0,0,.12l0,.09a.11.11,0,0,0,.1.07H404v.21h-.21a.11.11,0,0,0-.1.07l0,.09a.11.11,0,0,0,0,.12l.15.15-.15.15-.15-.15a.11.11,0,0,0-.12,0l-.09,0a.11.11,0,0,0-.07.1v.21h-.21v-.21a.11.11,0,0,0-.07-.1l-.09,0a.11.11,0,0,0-.12,0l-.15.15-.15-.15.15-.15a.11.11,0,0,0,0-.12l0-.09a.11.11,0,0,0-.1-.07h-.21v-.21h.21a.11.11,0,0,0,.1-.07l0-.09a.11.11,0,0,0,0-.12l-.15-.15.15-.15.15.15a.11.11,0,0,0,.12,0l.09,0a.11.11,0,0,0,.07-.1v-.21h.21v.21a.11.11,0,0,0,.07.1l.09,0A.11.11,0,0,0,403.57,167Z"/><circle class="cls-16" cx="403.19" cy="167.53" r="0.21"/></g><rect class="cls-16" x="473" y="196" width="2.15" height="0.33"/><rect class="cls-16" x="473" y="196.66" width="2.15" height="0.33"/><rect class="cls-16" x="473" y="197.32" width="1.49" height="0.33"/><rect class="cls-16" x="473" y="197.99" width="1.49" height="0.33"/><rect class="cls-16" x="472.18" y="204.61" width="9.94" height="0.33"/><path class="cls-16" d="M481.77,196.42l-.66-1.33a.17.17,0,0,0-.22-.07h0l-1.32.66a.17.17,0,1,0,.15.3l1-.48-.26.75a8.84,8.84,0,0,1-7.58,5.88l0,.33a9.17,9.17,0,0,0,7.86-6.1l.27-.76.49,1a.17.17,0,0,0,.3-.15Z"/><path class="cls-16" d="M474.16,203H473a.17.17,0,0,0-.17.17v1a.17.17,0,0,0,.17.17h1.16a.17.17,0,0,0,.17-.17v-1A.17.17,0,0,0,474.16,203Zm-.17,1h-.83v-.66H474Z"/><path class="cls-16" d="M476,202.46h-1.16a.17.17,0,0,0-.17.17v1.49a.17.17,0,0,0,.17.17H476a.17.17,0,0,0,.17-.17v-1.49A.17.17,0,0,0,476,202.46Zm-.17,1.49H475v-1.16h.83Z"/><path class="cls-16" d="M477.81,201.63h-1.16a.17.17,0,0,0-.17.17v2.32a.17.17,0,0,0,.17.17h1.16a.17.17,0,0,0,.17-.17V201.8A.17.17,0,0,0,477.81,201.63Zm-.17,2.32h-.83v-2h.83Z"/><path class="cls-16" d="M479.63,200.47h-1.16a.17.17,0,0,0-.17.17v3.48a.17.17,0,0,0,.17.17h1.16a.17.17,0,0,0,.17-.17v-3.48A.17.17,0,0,0,479.63,200.47Zm-.17,3.48h-.83V200.8h.83Z"/><path class="cls-16" d="M481.45,198.15h-1.16a.17.17,0,0,0-.17.17v5.8a.17.17,0,0,0,.17.17h1.16a.17.17,0,0,0,.17-.17v-5.8A.17.17,0,0,0,481.45,198.15Zm-.17,5.8h-.83v-5.47h.83Z"/><path class="cls-16" d="M413.51,142l-2.57-3.34a.3.3,0,0,0-.4-.07l-1.66,1.06h-2.25l-1.68.48-1.74-.48-1.69-1.08a.3.3,0,0,0-.4.06l-2.84,3.52a.3.3,0,0,0,0,.42l1.49,1.28,1.34,1.8a2.44,2.44,0,0,1,.66,2,1.06,1.06,0,0,0,1.06,1.06h0v0a1.06,1.06,0,0,0,1.06,1.06h.17a1.06,1.06,0,0,0,1.81.65l.16-.16.07.06a56.59,56.59,0,0,1,2.57-1.09,1.06,1.06,0,0,1,1.08-1.08,1.06,1.06,0,0,1,1.08-1.08,1.07,1.07,0,0,0,.14-1.33l1-2,1.47-1.26A.3.3,0,0,0,413.51,142Zm-12.09-2.76,1.22.77L400,143.22l-1.06-.91Zm.17,6.84.37-.37,0,0a.46.46,0,0,1,.25-.1h0a.46.46,0,0,1,.33.14.47.47,0,0,1,0,.66l-.36.36a.46.46,0,0,1-.65-.65Zm.95,1.88a.46.46,0,0,1,0-.65l.71-.71a.47.47,0,0,1,.53-.09.46.46,0,0,1,.25.48.49.49,0,0,1-.14.28l-.7.7a.46.46,0,0,1-.65,0Zm1.08,1.09a.46.46,0,0,1,0-.65l.71-.71a.47.47,0,0,1,.56-.07.46.46,0,0,1,.22.47.49.49,0,0,1-.14.27l-.7.7a.46.46,0,0,1-.65,0Zm1.23.95a.46.46,0,0,1,0-.65l.37-.37,0,0h0a.46.46,0,0,1,.2-.1h.09a.46.46,0,0,1,.33.14l0,0a.48.48,0,0,1-.05.62l-.35.35A.46.46,0,0,1,404.84,150Zm5.62-3.36a.46.46,0,0,1-.65,0l0,0-1.94-2a.3.3,0,0,0-.43.42l2,2h0a.46.46,0,1,1-.65.65l-1.31-1.32a.3.3,0,1,0-.43.42l1.29,1.3,0,0a.46.46,0,1,1-.65.65l-.72-.72a.3.3,0,0,0-.43.42l.7.7,0,0a.46.46,0,1,1-.65.65l-.07-.05s0,0,0,0l0-.07,0-.08a1.09,1.09,0,0,0,0-.46,1.05,1.05,0,0,0-.9-.91,1.07,1.07,0,0,0-.26-1,1.06,1.06,0,0,0-.76-.33h0a1.05,1.05,0,0,0-1-1.09,1.08,1.08,0,0,0-.26,0,1.06,1.06,0,0,0-1.76-.63l-1.16-1.57,2.79-3.39.89.24-1.16,2a1.07,1.07,0,0,0,.4,1.45l0,0h0l.13.05a1.06,1.06,0,0,0,1.27-.48l.75-1.33,1.35.1,3.58,3.58A.46.46,0,0,1,410.46,146.6Zm.12-1.38-3.36-3.36,0,0a.3.3,0,0,0-.17-.07l-1.65-.12a.31.31,0,0,0-.28.15l-.85,1.5a.46.46,0,1,1-.8-.46l1.13-2,.46-.13h0l1.71-.49h2.07l2.58,3.28ZM411.8,143l-2.39-3,1.22-.77,2.23,2.9Z"/><path class="cls-16" d="M407.52,139.05a.3.3,0,0,0,.21-.09l2.06-2.06a.3.3,0,0,0-.43-.43l-2.06,2.06a.3.3,0,0,0,.21.51Z"/><path class="cls-16" d="M404,139a.3.3,0,1,0,.43-.43l-2.06-2.06a.3.3,0,0,0-.43.43Z"/><path class="cls-16" d="M405.89,139.05a.3.3,0,0,0,.3-.3V137a.3.3,0,1,0-.6,0v1.7A.3.3,0,0,0,405.89,139.05Z"/><path class="cls-16" d="M405.61,136a.3.3,0,1,0,.11-.37A.3.3,0,0,0,405.61,136Z"/><path class="cls-16" d="M428.16,197.28a.69.69,0,0,0-1.29,0h-1.42v-.92h.92a.23.23,0,0,0,.23-.23h0v-1a.69.69,0,1,0-.46,0v.73h-.69v-.46a.23.23,0,0,0-.23-.23h-.46V194a.69.69,0,1,0-.46,0v1.19h-.92v-3.66a.23.23,0,0,0-.23-.23h0a4.82,4.82,0,0,0-5,4.67,9.48,9.48,0,0,0,1.29,4.29c.14.25.33.52.53.8a4.47,4.47,0,0,1,.93,1.84.65.65,0,0,0-.28.54.68.68,0,0,0,.15.43.71.71,0,0,0-.21.51.69.69,0,0,0,.69.69h3.9a.69.69,0,0,0,.69-.7h0a.69.69,0,0,0-.21-.49.71.71,0,0,0,.15-.44.66.66,0,0,0-.66-.66h-1.69v-4.37h.46v.69a.23.23,0,0,0,.23.23h.69v.27a.69.69,0,1,0,.46,0v-.5a.23.23,0,0,0-.23-.23h-.69v-.46h.92a.23.23,0,0,0,.23-.23h0v-.46h1.42a.69.69,0,0,0,1.29-.46Zm-1.8-3a.23.23,0,1,1-.23.23A.23.23,0,0,1,426.37,194.3Zm-6.07,6.52c-.19-.27-.37-.53-.5-.76a9.14,9.14,0,0,1-1.23-4.07,4.34,4.34,0,0,1,4.36-4.2v1.6l-.19,0a.23.23,0,0,0-.2.18l-.07.33-.17,0-.23-.26a.23.23,0,0,0-.26-.06,3.45,3.45,0,0,0-.72.42.23.23,0,0,0-.08.25l.11.32-.13.13-.32-.11a.23.23,0,0,0-.25.08,3.44,3.44,0,0,0-.42.72.23.23,0,0,0,.06.26l.26.23,0,.17-.36.07a.23.23,0,0,0-.18.23v.78a.23.23,0,0,0,.18.23l.36.07,0,.17-.26.23a.23.23,0,0,0-.06.26,3.45,3.45,0,0,0,.42.72.23.23,0,0,0,.25.08l.32-.11.13.13-.11.32a.23.23,0,0,0,.08.25,3.45,3.45,0,0,0,.72.42.23.23,0,0,0,.26-.06l.23-.26.17,0,.07.33a.23.23,0,0,0,.2.18l.19,0v2.54H421.3A5.05,5.05,0,0,0,420.3,200.82Zm.79-4a2.07,2.07,0,0,0,1.84,2.05v.79l0-.18a.23.23,0,0,0-.18-.18,2.49,2.49,0,0,1-.4-.11h-.08a.23.23,0,0,0-.17.08l-.22.24a3,3,0,0,1-.35-.2l.1-.3a.23.23,0,0,0-.07-.25,2.51,2.51,0,0,1-.29-.29.23.23,0,0,0-.25-.07l-.3.1a3,3,0,0,1-.2-.35l.24-.22a.23.23,0,0,0,.06-.25,2.5,2.5,0,0,1-.11-.4.23.23,0,0,0-.18-.18l-.32-.06v-.41l.32-.06a.23.23,0,0,0,.18-.18,2.51,2.51,0,0,1,.11-.4.23.23,0,0,0-.06-.25l-.24-.22a3,3,0,0,1,.2-.35l.3.1a.23.23,0,0,0,.25-.07,2.57,2.57,0,0,1,.29-.29.23.23,0,0,0,.07-.25l-.1-.3a3,3,0,0,1,.35-.2l.22.24a.23.23,0,0,0,.25.06,2.48,2.48,0,0,1,.4-.11.23.23,0,0,0,.18-.18l0-.18v.79A2.07,2.07,0,0,0,421.09,196.83Zm1.84-1.59v3.18a1.6,1.6,0,0,1,0-3.18Zm2.41,9.17a.23.23,0,0,1-.23.23h-3.9a.23.23,0,0,1-.23-.24h0a.23.23,0,0,1,.23-.23h3.9a.23.23,0,0,1,.23.24Zm-.29-1.15a.21.21,0,0,1,.23.21.23.23,0,0,1-.23.23h-3.78a.23.23,0,0,1-.23-.24h0a.21.21,0,0,1,.22-.2H425ZM425,200a.23.23,0,1,1-.23.23A.23.23,0,0,1,425,200Zm-.46-6.89a.23.23,0,1,1-.23.23A.23.23,0,0,1,424.53,193.15ZM425,198h-1.61v-2.3H425Zm2.52-.23a.23.23,0,1,1,.23-.23A.23.23,0,0,1,427.52,197.74Z"/><path class="cls-16" d="M425.37,201.82a3.89,3.89,0,0,0-.21.45l.43.17a3.43,3.43,0,0,1,.19-.4Z"/><path class="cls-16" d="M425.89,201l-.27.39.39.25.26-.38Z"/><path class="cls-16" d="M426.41,200.24l-.25.38.38.26.27-.4Z"/><path class="cls-16" d="M426.84,199.44l-.21.41.4.22.22-.43Z"/><path class="cls-16" d="M427.2,198.6,427,199l.42.18.18-.44Z"/><path class="cls-16" d="M428.2,195.95h-.46v0c0,.13,0,.26,0,.4l.46,0c0-.15,0-.3,0-.44Z"/><path class="cls-16" d="M428.09,195l-.45.1a4,4,0,0,1,.08.44l.46-.05A4.45,4.45,0,0,0,428.09,195Z"/><path class="cls-16" d="M427.76,194l-.41.2a4,4,0,0,1,.17.41l.43-.15A4.42,4.42,0,0,0,427.76,194Z"/><path class="cls-16" d="M427.23,193.21l-.36.29a4.18,4.18,0,0,1,.26.36l.39-.25A4.63,4.63,0,0,0,427.23,193.21Z"/><path class="cls-16" d="M426.54,192.51l-.29.35a4.33,4.33,0,0,1,.33.3l.33-.32A4.82,4.82,0,0,0,426.54,192.51Z"/><path class="cls-16" d="M425.73,192l-.22.4.38.23.26-.38Z"/><path class="cls-16" d="M424.83,191.58l-.14.44.42.15.18-.42Z"/><path class="cls-16" d="M423.88,191.37l-.06.46.44.08.1-.45Z"/><rect class="cls-16" x="416.73" y="203.71" width="0.46" height="0.46"/><rect class="cls-16" x="416.73" y="204.63" width="0.46" height="0.46"/><rect class="cls-16" x="417.19" y="204.17" width="0.46" height="0.46"/><rect class="cls-16" x="416.27" y="204.17" width="0.46" height="0.46"/><rect class="cls-16" x="429.35" y="191.32" width="0.46" height="0.46"/><rect class="cls-16" x="429.35" y="192.24" width="0.46" height="0.46"/><rect class="cls-16" x="429.81" y="191.78" width="0.46" height="0.46"/><rect class="cls-16" x="428.89" y="191.78" width="0.46" height="0.46"/><path class="cls-16" d="M453.72,191.49h-.09a2.22,2.22,0,0,0-4.38,0h-.09a.18.18,0,0,0-.18.18v.65a.18.18,0,0,0,.18.18h.14a2.22,2.22,0,0,0,.69,1.07.07.07,0,0,0,.09-.11,2.08,2.08,0,0,1-.24-.24l.34-.12a2.39,2.39,0,0,0,.18.27,2.81,2.81,0,0,0,.49.5,2.06,2.06,0,0,1-.42-.18.07.07,0,0,0-.07.13,2.22,2.22,0,0,0,3.21-1.33h.14a.18.18,0,0,0,.18-.18v-.66A.18.18,0,0,0,453.72,191.49Zm-.23,0H453l0-.11a2.54,2.54,0,0,0-.2-.59h0l.32-.11A2.06,2.06,0,0,1,453.48,191.49Zm-.64,0h-.74v-.11c0-.16,0-.32-.06-.47a4.66,4.66,0,0,0,.6-.1,2.39,2.39,0,0,1,.2.58Zm.07-1.08.12.13-.27.09-.07,0-.15-.24a2.47,2.47,0,0,0-.51-.53A2.07,2.07,0,0,1,452.91,190.41Zm-1.25-.6a2.34,2.34,0,0,1,.76.68l.12.19a4.55,4.55,0,0,1-.55.09,3,3,0,0,0-.37-1Zm-.22,0h0a2.58,2.58,0,0,1,.4,1H451a2.58,2.58,0,0,1,.4-1Zm-.19,0a3,3,0,0,0-.37,1,4.13,4.13,0,0,1-.56-.08l.13-.2a2.34,2.34,0,0,1,.76-.68Zm-.4,1.11c0,.15,0,.3-.06.46v.11H450l0-.09a2.39,2.39,0,0,1,.2-.57A4.19,4.19,0,0,0,450.86,190.93Zm-.89-.51a2.07,2.07,0,0,1,.87-.52,2.47,2.47,0,0,0-.51.53,2.52,2.52,0,0,0-.15.24l-.33-.12Zm-.21.25.36.13a2.54,2.54,0,0,0-.2.58l0,.12h-.5A2.06,2.06,0,0,1,449.76,190.66Zm-.59,1.69a0,0,0,0,1,0,0v-.65a0,0,0,0,1,0,0h2.08a.07.07,0,0,0,0-.14h-.31v-.1c0-.16,0-.32.06-.46h.46l.42,0c0,.15,0,.3.06.47v.1h-.26a.07.07,0,1,0,0,.14h1.12v.72h-3.64Zm3.62.14a2.29,2.29,0,0,1-.17.45,4.66,4.66,0,0,0-.6-.1c0-.11,0-.23.05-.35h.72Zm-.86,0c0,.11,0,.23,0,.33l-.5,0H451c0-.11,0-.22,0-.33Zm-2.17.61a2.08,2.08,0,0,1-.3-.61h.49a2.44,2.44,0,0,0,.17.48Zm.33-.61h.72c0,.12,0,.23.05.34a4.18,4.18,0,0,0-.6.1A2.29,2.29,0,0,1,450.09,192.5Zm1.13,1.45a2.49,2.49,0,0,1-.74-.66l-.15-.22a4.13,4.13,0,0,1,.56-.08,3.7,3.7,0,0,0,.1.37,2.81,2.81,0,0,0,.27.6Zm.22,0h0a2.32,2.32,0,0,1-.31-.65c0-.11-.07-.22-.09-.34h.82c0,.12-.06.23-.09.34a2.32,2.32,0,0,1-.31.65Zm.19,0a2.81,2.81,0,0,0,.27-.6,3.68,3.68,0,0,0,.1-.37,4.55,4.55,0,0,1,.55.09l-.15.21a2.49,2.49,0,0,1-.74.66Zm1.28-.6a2.07,2.07,0,0,1-.89.53,2.8,2.8,0,0,0,.49-.5,2.38,2.38,0,0,0,.18-.27l.07,0,.27.09Zm.21-.25-.32-.11h0a2.44,2.44,0,0,0,.18-.48h.49A2.06,2.06,0,0,1,453.13,193.11Zm.63-.78a0,0,0,0,1,0,0H453v-.72h.76a0,0,0,0,1,0,0Z"/><path class="cls-16" d="M449.53,192.14s0,0,0,0,0,0,0,0v-.36s0,0,0,0,0,0,0,0v.16a.07.07,0,0,1,.07,0,.1.1,0,0,1,.09.11v.13s0,0,0,0,0,0,0,0V192a0,0,0,0,0,0,0,0,0,0,0,0,0,0v.13Z"/><path class="cls-16" d="M449.84,192.07s0,0,0,0h0a0,0,0,1,1,0,.06h0c-.06,0-.1,0-.1-.09v-.26s0,0,0,0,0,0,0,0v.09h.06s0,0,0,0,0,0,0,0h-.06v.12Z"/><path class="cls-16" d="M450.06,192.07s0,0,0,0h0a0,0,0,1,1,0,.06h0c-.06,0-.1,0-.1-.09v-.26s0,0,0,0,0,0,0,0v.09h.06s0,0,0,0,0,0,0,0h-.06Z"/><path class="cls-16" d="M450.27,191.93v0a.08.08,0,0,1,.07,0,.1.1,0,0,1,.1.11v0a.11.11,0,0,1-.09.11.08.08,0,0,1-.07,0v.13s0,0,0,0,0,0,0,0v-.33s0,0,0,0S450.27,191.91,450.27,191.93Zm.1.08a0,0,0,0,0,0,0,0,0,0,0,0,0,0v.05a.05.05,0,0,0,0,0,.05.05,0,0,0,0,0Z"/><path class="cls-16" d="M450.63,192.09s-.13,0-.13-.11,0-.08.1-.08.08,0,.08,0,0,0,0,0l-.06,0s0,0,0,0,.13,0,.13.11,0,.08-.1.08-.1,0-.1,0,0,0,0,0,0,0,.07,0S450.63,192.1,450.63,192.09Z"/><path class="cls-16" d="M450.84,192a0,0,0,0,1,0,0,0,0,0,1,1,0-.07A0,0,0,0,1,450.8,192Zm0,.16a0,0,0,0,1,0,0,0,0,0,1,1,0-.07A0,0,0,0,1,450.8,192.16Z"/><path class="cls-16" d="M451.14,191.77h0l-.19.39h0a0,0,0,0,1,0,0h0l.19-.39h0A0,0,0,0,1,451.14,191.77Z"/><path class="cls-16" d="M451.3,191.77h0l-.19.39h0a0,0,0,0,1,0,0h0l.19-.39h0A0,0,0,0,1,451.3,191.77Z"/><path class="cls-16" d="M451.61,192.15h-.06l0-.12,0,.12h-.06l-.08-.21h0s0,0,0,0h0l.05.15,0-.13h0s0,0,0,0l0,.13.05-.15h0s0,0,0,0h0Z"/><path class="cls-16" d="M452,192.15H452l0-.12,0,.12h-.06l-.08-.21h0s0,0,0,0h0l.05.15,0-.13s0,0,0,0,0,0,0,0l0,.13.05-.15h0s0,0,0,0h0Z"/><path class="cls-16" d="M452.41,192.15h-.06l0-.12,0,.12h-.06l-.08-.21h0s0,0,0,0h0l.05.15,0-.13s0,0,0,0,0,0,0,0l0,.13.05-.15h0s0,0,0,0h0Z"/><path class="cls-16" d="M453.56,191.84h-.08l0-.07a.11.11,0,0,0-.19,0l0,.07h-.08a.11.11,0,0,0-.06.18l.06.05v.08a.11.11,0,0,0,.16.11l.07,0,.07,0h.05l.06,0a.11.11,0,0,0,0-.11v-.08l.06-.05a.11.11,0,0,0-.06-.18Zm-.11.15a.11.11,0,0,0,0,.1v0h0a.11.11,0,0,0-.1,0h0v0a.11.11,0,0,0,0-.1l0,0h0a.11.11,0,0,0,.08-.06v0a.11.11,0,0,0,.08.06h0Z"/><g id="_Group_" data-name="&lt;Group&gt;"><g id="_Group_2" data-name="&lt;Group&gt;"><path id="_Path_" data-name="&lt;Path&gt;" class="cls-16" d="M488.94,131.41a.16.16,0,1,0,.11,0A.16.16,0,0,0,488.94,131.41Z"/><path id="_Path_2" data-name="&lt;Path&gt;" class="cls-16" d="M493.49,133.07a.16.16,0,1,0,.11,0A.16.16,0,0,0,493.49,133.07Z"/><path id="_Path_3" data-name="&lt;Path&gt;" class="cls-16" d="M490.79,136a.16.16,0,0,0,.16.16h0a.16.16,0,1,0-.16-.16Z"/><path id="_Compound_Path_" data-name="&lt;Compound Path&gt;" class="cls-16" d="M494.72,130h-1v-1a.65.65,0,0,0-.65-.65h-4.34a.65.65,0,0,0-.65.65v3.06h-.93a.4.4,0,0,0-.4.4v1.86a.4.4,0,0,0,.4.4h.93V136a.65.65,0,0,0,.65.65h4.34a.65.65,0,0,0,.65-.65v-2.16a.16.16,0,0,0-.32,0V136a.32.32,0,0,1-.32.32h-4.34a.32.32,0,0,1-.32-.32v-1.29h.32v.74a.16.16,0,0,0,.16.16h4a.16.16,0,0,0,.16-.16V132.7h1.6a.38.38,0,0,0,.38-.38v-1.95A.38.38,0,0,0,494.72,130Zm-7.19,4.38.71-.71a.66.66,0,0,0,.67,0l.71.71Zm.47-.93-.87.87v-1.75Zm2,.85v0l-.87-.87.88-.88Zm-1.22-1h0a.33.33,0,0,1-.47,0h0l-1-1h2.41Zm4,1.94H489.1v-.57H490a.4.4,0,0,0,.4-.4v-1.86a.4.4,0,0,0-.4-.4h-1.51V129a.32.32,0,0,1,.32-.32h4.34a.32.32,0,0,1,.32.32v1h-.32v-.62a.16.16,0,0,0-.16-.16h-4a.16.16,0,0,0-.16.16v1.53a.16.16,0,0,0,.32,0v-1.37h3.69V130h-.89a.38.38,0,0,0-.38.38v2.48a.16.16,0,0,0,.08.14l.09,0,.07,0,.64-.3h.4Zm2-3a.05.05,0,0,1-.05.05h-2.36l-.07,0-.44.21v-2.22a.05.05,0,0,1,.05-.05h2.81a.05.05,0,0,1,.05.05v1.95Z"/><path id="_Path_4" data-name="&lt;Path&gt;" class="cls-16" d="M493.65,131.49h-1.23a.16.16,0,0,0,0,.32h1.23a.16.16,0,1,0,0-.32Z"/><path id="_Path_5" data-name="&lt;Path&gt;" class="cls-16" d="M494.2,130.84h-1.78a.16.16,0,0,0,0,.32h1.78a.16.16,0,1,0,0-.32Z"/></g></g><path class="cls-16" d="M435.71,165.42H421.3a.25.25,0,0,0-.25.25h0v6.92a.25.25,0,0,0,.25.25h9.8a.25.25,0,0,0,0-.49h-9.55v-6.42h13.92v.62a.25.25,0,0,0,.25.25h0a.25.25,0,0,0,.25-.25h0v-.86A.25.25,0,0,0,435.71,165.42Z"/><path class="cls-16" d="M434,164.27l-11.53-2.59a.25.25,0,0,0-.3.19l-.58,2.59a.25.25,0,1,0,.48.11l.52-2.35,11.29,2.54H434a.25.25,0,0,0,.05-.49Z"/><path class="cls-16" d="M432.63,162.84,425.72,160a.25.25,0,0,0-.32.12l-.58,1.15a.25.25,0,1,0,.44.24h0l.47-.95,6.7,2.79a.25.25,0,1,0,.19-.46Z"/><path class="cls-16" d="M432.81,166.57h-2.29a.25.25,0,1,0,0,.49h2.29a.25.25,0,0,0,0-.49Z"/><path class="cls-16" d="M428.22,166.59a2.54,2.54,0,1,0,2.54,2.54A2.54,2.54,0,0,0,428.22,166.59Zm0,4.61a2.07,2.07,0,1,1,2.07-2.07A2.07,2.07,0,0,1,428.22,171.2Z"/><path class="cls-16" d="M435.13,167.4c-1.53,0-3.17.36-3.17,1.15v6.92c0,.79,1.64,1.15,3.17,1.15s3.17-.36,3.17-1.15v-6.92C438.3,167.76,436.66,167.4,435.13,167.4Zm2.59,8.06c0,.16-.91.58-2.59.58s-2.55-.42-2.59-.58V175a7.65,7.65,0,0,0,5.19,0Zm0-1.15c0,.16-.91.58-2.59.58s-2.55-.42-2.59-.58v-.45a7.65,7.65,0,0,0,5.19,0Zm0-1.15c0,.16-.91.58-2.59.58s-2.55-.42-2.59-.58v-.45a7.65,7.65,0,0,0,5.19,0Zm0-1.15c0,.16-.91.58-2.59.58s-2.55-.42-2.59-.58v-.45a7.65,7.65,0,0,0,5.19,0Zm0-1.15c0,.16-.91.58-2.59.58s-2.55-.42-2.59-.58v-.45a7.65,7.65,0,0,0,5.19,0Zm0-1.15c0,.16-.91.58-2.59.58s-2.55-.42-2.59-.58v-.45a7.65,7.65,0,0,0,5.19,0Zm-2.59-.57c-1.68,0-2.55-.42-2.59-.57h0c0-.16.91-.58,2.59-.58s2.54.41,2.59.58S436.8,169.12,435.13,169.12Z"/><path class="cls-16" d="M425.91,171.18h-2.18l-1-1.13v-1.87l1.14-1.11h2.07a.25.25,0,0,0,0-.49h-2.17a.25.25,0,0,0-.17.07l-1.29,1.26a.31.31,0,0,0-.07.2v2a.25.25,0,0,0,.06.17l1.17,1.28a.25.25,0,0,0,.18.08h2.29a.25.25,0,1,0,0-.49Z"/><path class="cls-16" d="M428.36,168.84h-.29c-.09,0-.14-.05-.14-.07s.05-.07.14-.07h.72a.29.29,0,0,0,0-.58h-.29a.29.29,0,0,0-.58,0h0a.67.67,0,0,0-.58.63.69.69,0,0,0,.72.65h.29c.09,0,.14.05.14.07s-.05.07-.14.07h-.72a.29.29,0,0,0,0,.58h.29a.29.29,0,1,0,.58,0h0a.67.67,0,0,0,.58-.63A.69.69,0,0,0,428.36,168.84Z"/><path class="cls-16" d="M430.65,116.6a.94.94,0,1,0,.94.94A.94.94,0,0,0,430.65,116.6Zm0,1.41a.47.47,0,1,1,.47-.47A.47.47,0,0,1,430.65,118Z"/><path class="cls-16" d="M418.4,124.37a.94.94,0,1,0,.94.94A.94.94,0,0,0,418.4,124.37Zm0,1.41a.47.47,0,1,1,.47-.47A.47.47,0,0,1,418.4,125.78Z"/><path class="cls-16" d="M430.19,116.9l-2-1a.24.24,0,0,0-.2.42l2,1,.1,0a.24.24,0,0,0,.1-.45Z"/><path class="cls-16" d="M428.06,126a.94.94,0,1,0,.94.94A.94.94,0,0,0,428.06,126Zm0,1.41a.47.47,0,1,1,.47-.47A.47.47,0,0,1,428.06,127.43Z"/><path class="cls-16" d="M427.6,126.31l-2-1a.24.24,0,1,0-.2.42l2,1,.1,0a.24.24,0,0,0,.1-.45Z"/><path class="cls-16" d="M424.52,120.13a.94.94,0,1,0,.94.94A.94.94,0,0,0,424.52,120.13Zm0,1.41a.47.47,0,1,1,.47-.47A.47.47,0,0,1,424.52,121.54Z"/><path class="cls-16" d="M424.11,120.45l-1.56-1.22a.24.24,0,1,0-.29.37l1.56,1.22a.24.24,0,1,0,.29-.37Z"/><path class="cls-16" d="M428.76,119.89a2.59,2.59,0,1,0,2.59,2.59A2.59,2.59,0,0,0,428.76,119.89Zm0,4.71a2.12,2.12,0,1,1,2.12-2.12A2.12,2.12,0,0,1,428.76,124.6Z"/><path class="cls-16" d="M428.76,120.84a.94.94,0,1,0,.94.94A.94.94,0,0,0,428.76,120.84Zm0,1.41a.47.47,0,1,1,.47-.47A.47.47,0,0,1,428.76,122.25Z"/><path class="cls-16" d="M429.45,123.19h-1.37a.72.72,0,0,0-.73.71v.62a.24.24,0,0,0,.12.2,2.58,2.58,0,0,0,2.59,0,.24.24,0,0,0,.12-.2v-.62A.72.72,0,0,0,429.45,123.19Zm.26,1.19a2.13,2.13,0,0,1-1.88,0v-.48a.25.25,0,0,1,.26-.24h1.37a.25.25,0,0,1,.26.24v.48Z"/><path class="cls-16" d="M423.11,122.72a2.59,2.59,0,1,0,2.59,2.59A2.59,2.59,0,0,0,423.11,122.72Zm0,4.71a2.12,2.12,0,1,1,2.12-2.12A2.12,2.12,0,0,1,423.11,127.43Z"/><path class="cls-16" d="M423.11,123.66a.94.94,0,1,0,.94.94A.94.94,0,0,0,423.11,123.66Zm0,1.41a.47.47,0,1,1,.47-.47A.47.47,0,0,1,423.11,125.07Z"/><path class="cls-16" d="M423.8,126h-1.37a.72.72,0,0,0-.73.71v.62a.24.24,0,0,0,.12.2,2.58,2.58,0,0,0,2.59,0,.24.24,0,0,0,.12-.2v-.62A.72.72,0,0,0,423.8,126Zm.26,1.19a2.13,2.13,0,0,1-1.88,0v-.48a.25.25,0,0,1,.26-.24h1.37a.25.25,0,0,1,.26.24v.48Z"/><path class="cls-16" d="M420.05,116.83a2.59,2.59,0,1,0,2.59,2.59A2.59,2.59,0,0,0,420.05,116.83Zm0,4.71a2.12,2.12,0,1,1,2.12-2.12A2.12,2.12,0,0,1,420.05,121.54Z"/><path class="cls-16" d="M420.05,117.77a.94.94,0,1,0,.94.94A.94.94,0,0,0,420.05,117.77Zm0,1.41a.47.47,0,1,1,.47-.47A.47.47,0,0,1,420.05,119.19Z"/><path class="cls-16" d="M420.73,120.13h-1.37a.72.72,0,0,0-.73.71v.62a.24.24,0,0,0,.12.2,2.58,2.58,0,0,0,2.59,0,.24.24,0,0,0,.12-.2v-.62A.72.72,0,0,0,420.73,120.13Zm.26,1.19a2.13,2.13,0,0,1-1.88,0v-.48a.25.25,0,0,1,.26-.24h1.37a.25.25,0,0,1,.26.24v.48Z"/><path class="cls-16" d="M425.7,113.77a2.59,2.59,0,1,0,2.59,2.59A2.59,2.59,0,0,0,425.7,113.77Zm0,4.71a2.12,2.12,0,1,1,2.12-2.12A2.12,2.12,0,0,1,425.7,118.48Z"/><path class="cls-16" d="M425.7,114.71a.94.94,0,1,0,.94.94A.94.94,0,0,0,425.7,114.71Zm0,1.41a.47.47,0,1,1,.47-.47A.47.47,0,0,1,425.7,116.13Z"/><path class="cls-16" d="M426.38,117.07H425a.72.72,0,0,0-.73.71v.62a.24.24,0,0,0,.12.2,2.58,2.58,0,0,0,2.59,0,.24.24,0,0,0,.12-.2v-.62A.72.72,0,0,0,426.38,117.07Zm.26,1.19a2.13,2.13,0,0,1-1.88,0v-.48a.25.25,0,0,1,.26-.24h1.37a.25.25,0,0,1,.26.24v.48Z"/><path class="cls-16" d="M423.53,116.21a.24.24,0,0,0-.33,0l-1.63,1.4a.24.24,0,1,0,.31.36l1.63-1.4A.24.24,0,0,0,423.53,116.21Z"/><path class="cls-16" d="M428.72,120l-1.41-1.88a.24.24,0,0,0-.38.28l1.41,1.88a.24.24,0,0,0,.38-.28Z"/><path class="cls-16" d="M426.78,123.26a.24.24,0,0,0-.33,0l-1.32,1a.24.24,0,0,0,.28.38l1.32-1A.24.24,0,0,0,426.78,123.26Z"/><path class="cls-16" d="M420.76,125.07h-1.65a.24.24,0,1,0,0,.47h1.65a.24.24,0,0,0,0-.47Z"/><path class="cls-16" d="M420.05,113.77a.94.94,0,1,0,.94.94A.94.94,0,0,0,420.05,113.77Zm0,1.41a.47.47,0,1,1,.47-.47A.47.47,0,0,1,420.05,115.19Z"/><path class="cls-16" d="M420.05,115.19a.24.24,0,0,0-.24.24v1.65a.24.24,0,1,0,.47,0v-1.65A.24.24,0,0,0,420.05,115.19Z"/><path class="cls-16" d="M442.89,184.33a.09.09,0,1,0,.09.09A.09.09,0,0,0,442.89,184.33Z"/><path class="cls-16" d="M441.22,186a.09.09,0,1,0,.09.09A.09.09,0,0,0,441.22,186Z"/><path class="cls-16" d="M444.31,183.47a.09.09,0,0,0-.09,0l-.38.39h-.18l-.2-.21v-.19l.38-.38a.09.09,0,0,0,0-.15.92.92,0,0,0-1.19,1.11l-.68.68-1.13-1.14v-.22a.09.09,0,0,0,0-.08l-.65-.39a.09.09,0,0,0-.11,0l-.26.26a.09.09,0,0,0,0,.11l.39.65a.09.09,0,0,0,.08,0h.22l1.13,1.14-.68.68a.92.92,0,0,0-1.11,1.19.09.09,0,0,0,.15,0l.38-.39h.18l.21.21V187l-.39.38a.09.09,0,0,0,0,.15.92.92,0,0,0,1.19-1.11l.54-.54.12.14-.06.06a.09.09,0,0,0,.13.13l.05-.05,1.17,1.27h0a.55.55,0,0,0,.78-.78h0L443,185.51l.05-.05a.09.09,0,0,0-.13-.13l-.06.06-.14-.12.55-.55a.92.92,0,0,0,1.11-1.19A.09.09,0,0,0,444.31,183.47Zm-3.8.37a.09.09,0,0,0-.07,0h-.21l-.33-.55.16-.16.55.33v.21a.09.09,0,0,0,0,.07l1.16,1.16-.13.13Zm2.35,1.8,1.28,1.17a.37.37,0,0,1-.52.52l-1.17-1.28Zm-.14-.13-.41.41-.12-.14.4-.4Zm.78-1a.74.74,0,0,1-.24,0,.09.09,0,0,0-.09,0l-1.83,1.83a.09.09,0,0,0,0,.09.74.74,0,0,1-.7,1h-.08l.29-.29a.09.09,0,0,0,0-.07v-.26a.09.09,0,0,0,0-.07l-.26-.26a.09.09,0,0,0-.07,0h-.26a.09.09,0,0,0-.07,0l-.29.29a.75.75,0,0,1,0-.08.74.74,0,0,1,1-.7.09.09,0,0,0,.09,0l1.83-1.83a.09.09,0,0,0,0-.09.74.74,0,0,1,.7-1h.08l-.29.29a.09.09,0,0,0,0,.06v.26a.09.09,0,0,0,0,.06l.26.26a.09.09,0,0,0,.07,0h.26a.09.09,0,0,0,.07,0l.29-.29a.75.75,0,0,1,0,.08A.74.74,0,0,1,443.5,184.56Z"/><path class="cls-16" d="M442.57,184.62l-1.16,1.16a.09.09,0,0,0,.13.13l1.16-1.16a.09.09,0,0,0-.13-.13Z"/><path class="cls-16" d="M443.74,187.07a.09.09,0,1,0,.13-.13l-.83-.83a.09.09,0,0,0-.13.13Z"/><path class="cls-16" d="M475.15,159.4a.18.18,0,0,0-.13-.12l-1.08-.24-.24-1.08a.18.18,0,0,0-.3-.09l-1.24,1.24a5,5,0,1,0,1.71,1.71l1.24-1.24a.18.18,0,0,0,0-.17Zm-.92,4a4.67,4.67,0,1,1-2.33-4l-.57.57v0a3.88,3.88,0,1,0,1.7,1.7l0,0,.57-.57a4.66,4.66,0,0,1,.63,2.34Zm-1.63-1.78a3.52,3.52,0,1,1-1.26-1.26l.19.82-.18.18a2.72,2.72,0,1,0,.25.25l.18-.18Zm-2.28,1.78a.76.76,0,1,1-.36-.65l-.52.52a.18.18,0,1,0,.24.25h0l.52-.52A.75.75,0,0,1,470.32,163.42Zm-.11-.9a1.11,1.11,0,1,0,.25.25l.89-.89a2.37,2.37,0,1,1-.25-.25Zm3.31-1.85-.66.66-.1,0h0l-.88-.2-.22-1,1.78-1.78.2.88a.18.18,0,0,0,.13.13l.88.2Z"/><circle class="cls-16" cx="473.71" cy="113.97" r="1.21"/><path class="cls-16" d="M475.52,118.47l-.27-2.14a.6.6,0,0,0-.6-.54h-.33a.3.3,0,0,0-.21.09l-.39.39-.39-.39a.3.3,0,0,0-.21-.09h-.33a.6.6,0,0,0-.6.54l-.28,2.15a.3.3,0,0,0,.3.34h.33l.25,3.09a.6.6,0,0,0,.6.54H474a.61.61,0,0,0,.6-.55l.25-3.08h.33a.3.3,0,0,0,.23-.1A.3.3,0,0,0,475.52,118.47Z"/><circle class="cls-16" cx="476.74" cy="113.97" r="1.21"/><path class="cls-16" d="M470.68,112.76a1.21,1.21,0,1,0,1.21,1.21A1.21,1.21,0,0,0,470.68,112.76Z"/><path class="cls-16" d="M478.55,118.47l-.27-2.14a.6.6,0,0,0-.6-.55h-.33a.3.3,0,0,0-.21.09l-.39.39-.39-.39a.3.3,0,0,0-.21-.09h-.33l-.11,0a1.18,1.18,0,0,1,.16.46l.27,2.13a.91.91,0,0,1-.22.72.88.88,0,0,1-.3.21l.2,2a.6.6,0,0,0,.6.54h.66a.61.61,0,0,0,.6-.55l.25-2.48h.33a.3.3,0,0,0,.23-.1A.3.3,0,0,0,478.55,118.47Z"/><path class="cls-16" d="M471.51,119.11a.91.91,0,0,1-.22-.71l.28-2.15a1.12,1.12,0,0,1,.15-.44l-.1,0h-.33a.3.3,0,0,0-.21.09l-.39.39-.39-.39a.3.3,0,0,0-.21-.09h-.33a.6.6,0,0,0-.6.54l-.28,2.15a.3.3,0,0,0,.3.34h.33l.25,2.48a.6.6,0,0,0,.6.54H471a.61.61,0,0,0,.6-.55l.2-2A.91.91,0,0,1,471.51,119.11Z"/><circle class="cls-16" cx="441.24" cy="126.3" r="0.35"/><path class="cls-16" d="M443.95,123.31a3.67,3.67,0,0,0-5.38,0,.21.21,0,0,0,.31.29,3.24,3.24,0,0,1,4.76,0,.21.21,0,0,0,.31-.29Z"/><path class="cls-16" d="M443.16,124.19a2.63,2.63,0,0,0-3.81,0,.21.21,0,0,0,.31.3,2.2,2.2,0,0,1,3.2,0,.21.21,0,1,0,.3-.3Z"/><path class="cls-16" d="M442.3,125.08a1.55,1.55,0,0,0-1-.45h0a1.55,1.55,0,0,0-1,.45.21.21,0,0,0,.3.31,1.12,1.12,0,0,1,.74-.32h0a1.12,1.12,0,0,1,.74.32.21.21,0,0,0,.3-.31Z"/><path class="cls-16" d="M486.49,172.39a4.93,4.93,0,1,0,4.93,4.93A4.93,4.93,0,0,0,486.49,172.39Zm0,.47a4.45,4.45,0,0,1,3.64,1.89l-.59.59a.93.93,0,0,0-.47-.13.94.94,0,0,0-.94.94.93.93,0,0,0,.13.47l-1.54,1.54a.91.91,0,0,0-.95,0l-1.07-1.07a.93.93,0,0,0,.13-.47.94.94,0,0,0-1.84-.23h-.87A4.46,4.46,0,0,1,486.49,172.86Zm3.05,3.28a.47.47,0,1,1-.47-.47A.47.47,0,0,1,489.54,176.15ZM486.72,179a.47.47,0,1,1-.47-.47A.47.47,0,0,1,486.72,179Zm-2.35-2.35a.47.47,0,1,1-.47-.47A.47.47,0,0,1,484.37,176.62Zm4.28,4.6a4.46,4.46,0,0,1-6.6-4.37H483a.94.94,0,0,0,.91.7.93.93,0,0,0,.47-.13l1.07,1.07a.93.93,0,0,0-.13.47.94.94,0,0,0,1.88,0,.93.93,0,0,0-.13-.47l1.54-1.54a.93.93,0,0,0,.47.13.94.94,0,0,0,.94-.94.93.93,0,0,0-.13-.47l.51-.51A4.45,4.45,0,0,1,488.65,181.22Z"/><path class="cls-16" d="M492.35,173.8a.94.94,0,0,0,.91-.7h1.44v-.47h-1.44a.94.94,0,0,0-1.84.23.93.93,0,0,0,.13.47l-.41.41a5.87,5.87,0,1,0-1.46,8.5l.71.71.33.33,1.89,1.89a1.23,1.23,0,1,0,1.74-1.74l-1.89-1.89-.33-.33-.71-.71a5.85,5.85,0,0,0,0-6.37l.47-.47A.93.93,0,0,0,492.35,173.8Zm0-1.41a.47.47,0,1,1-.47.47A.47.47,0,0,1,492.35,172.39ZM494,183.76a.76.76,0,0,1-1.06,1.09h0L491,183l1.08-1.08Zm-2.22-2.22-1.08,1.08-.65-.65.1-.08.11-.09.15-.13.08-.07.28-.28.07-.08.13-.15.09-.11.08-.1Zm-.91-1.09-.23.3-.07.08-.22.24-.1.1-.24.22-.08.07-.3.23a5.41,5.41,0,1,1,1.26-1.26Z"/></g></g></svg>