<svg width="453" height="305" viewBox="0 0 453 305" fill="none" xmlns="http://www.w3.org/2000/svg">
<path d="M92.6507 304.95H39.8775C39.4404 304.95 39.0205 304.779 38.7076 304.474C38.3947 304.169 38.2137 303.754 38.2032 303.317V302.309C38.2018 302.089 38.2442 301.87 38.3277 301.666C38.4113 301.462 38.5344 301.276 38.69 301.12C38.8456 300.963 39.0306 300.839 39.2344 300.754C39.4382 300.67 39.6568 300.626 39.8775 300.626H92.6507C93.0975 300.626 93.5259 300.803 93.8418 301.119C94.1577 301.435 94.3352 301.863 94.3352 302.309V303.317C94.3352 303.763 94.1577 304.191 93.8418 304.507C93.5259 304.823 93.0975 305 92.6507 305V304.95Z" fill="#6DAB96"/>
<path d="M427.051 304.95H412.617C412.396 304.95 412.177 304.906 411.972 304.821C411.768 304.737 411.582 304.613 411.426 304.457C411.27 304.3 411.145 304.115 411.061 303.911C410.976 303.706 410.933 303.488 410.933 303.266V302.309C410.933 302.088 410.976 301.869 411.061 301.665C411.145 301.461 411.27 301.275 411.426 301.119C411.582 300.963 411.768 300.839 411.972 300.754C412.177 300.67 412.396 300.626 412.617 300.626H427.051C427.272 300.626 427.49 300.67 427.694 300.754C427.898 300.839 428.083 300.963 428.239 301.12C428.394 301.276 428.517 301.462 428.601 301.666C428.684 301.87 428.727 302.089 428.725 302.309V303.317C428.727 303.537 428.684 303.756 428.601 303.96C428.517 304.164 428.394 304.35 428.239 304.506C428.083 304.663 427.898 304.787 427.694 304.872C427.49 304.956 427.272 305 427.051 305V304.95Z" fill="#6DAB96"/>
<path d="M191.964 304.95H139.151C138.93 304.95 138.712 304.906 138.508 304.821C138.304 304.737 138.119 304.612 137.963 304.456C137.808 304.3 137.685 304.114 137.601 303.91C137.518 303.706 137.475 303.487 137.477 303.267V302.309C137.475 302.089 137.518 301.87 137.601 301.666C137.685 301.462 137.808 301.276 137.963 301.12C138.119 300.963 138.304 300.839 138.508 300.754C138.712 300.67 138.93 300.626 139.151 300.626H191.924C192.146 300.625 192.366 300.667 192.572 300.751C192.777 300.835 192.964 300.959 193.122 301.115C193.279 301.272 193.404 301.458 193.489 301.663C193.575 301.868 193.619 302.087 193.619 302.309V303.317C193.619 303.763 193.441 304.191 193.125 304.507C192.809 304.823 192.381 305 191.934 305L191.964 304.95Z" fill="#6DAB96"/>
<path d="M269.459 304.95H216.685C216.247 304.95 215.826 304.779 215.512 304.475C215.197 304.17 215.014 303.754 215.001 303.317V302.309C215.001 301.863 215.178 301.435 215.494 301.119C215.81 300.803 216.239 300.626 216.685 300.626H269.459C269.679 300.626 269.898 300.67 270.102 300.754C270.306 300.839 270.491 300.963 270.646 301.12C270.802 301.276 270.925 301.462 271.008 301.666C271.092 301.87 271.134 302.089 271.133 302.309V303.317C271.134 303.537 271.092 303.756 271.008 303.96C270.925 304.164 270.802 304.35 270.646 304.506C270.491 304.663 270.306 304.787 270.102 304.872C269.898 304.956 269.679 305 269.459 305V304.95Z" fill="#6DAB96"/>
<path d="M364.354 304.95H292.466C292.246 304.95 292.027 304.906 291.823 304.821C291.62 304.737 291.434 304.612 291.279 304.456C291.123 304.3 291 304.114 290.917 303.91C290.833 303.706 290.791 303.487 290.792 303.266V302.309C290.791 302.089 290.833 301.87 290.917 301.666C291 301.462 291.123 301.276 291.279 301.12C291.434 300.963 291.62 300.839 291.823 300.754C292.027 300.67 292.246 300.626 292.466 300.626H364.404C364.625 300.626 364.844 300.67 365.049 300.754C365.253 300.839 365.439 300.963 365.595 301.119C365.752 301.275 365.876 301.461 365.96 301.665C366.045 301.869 366.089 302.088 366.089 302.309V303.317C366.089 303.538 366.045 303.757 365.96 303.961C365.876 304.165 365.752 304.351 365.595 304.507C365.439 304.663 365.253 304.787 365.049 304.872C364.844 304.956 364.625 305 364.404 305L364.354 304.95Z" fill="#6DAB96"/>
<path d="M110.341 65.4711C110.341 65.4711 104.763 61.6817 96.6134 64.5943C88.4634 67.5069 86.6276 78.4821 88.6449 87.3912C90.6623 96.3004 79.4258 126.696 79.4258 126.696C79.4258 126.696 85.2558 134.89 105.651 131.735C105.651 131.735 120.862 104.131 119.772 84.3174C118.683 64.5036 110.341 65.4711 110.341 65.4711Z" fill="#0E1D2A"/>
<path d="M116.777 99.7371C124.443 97.2982 129.133 103.668 133.52 115.53C137.908 127.392 139.381 128.581 139.381 128.581L156.326 139.465L154.924 145.805C154.924 145.805 138.786 139.496 134.892 135.484C130.999 131.473 119.762 111.146 119.762 111.146L116.736 99.7371H116.777Z" fill="#F1AB87"/>
<path d="M79.4377 176.331C79.4377 176.331 76.1091 193.162 76.6134 218.478C76.6134 218.478 63.5008 237.778 74.3237 292.855H80.0428C80.0428 292.855 84.6726 246.002 88.213 233.303C91.7534 220.605 104.846 216.714 105.562 178.105L79.4377 176.331Z" fill="#EFAB87"/>
<path d="M53.514 225.806C50.2157 214.951 41.753 196.78 20.0264 172.139C19.5279 171.952 18.9907 171.89 18.4627 171.961C17.9347 172.031 17.4324 172.231 17.0004 172.542C15.084 173.671 15.084 175.001 15.084 175.001C15.084 175.001 25.9775 198.725 32.9272 216.11C34.0684 218.97 36.041 221.422 38.5905 223.15C41.1399 224.878 44.1492 225.803 47.23 225.806H53.514Z" fill="#EFAB87"/>
<path d="M93.0746 246.789C93.0746 246.789 93.1452 254.851 87.8296 255.022C80.3251 255.224 80.0427 247.051 71.5397 247.313C63.0367 247.575 45.486 249.701 39.9081 236.428C37.0233 229.565 40.9167 220.756 31.6673 214.115C22.4179 207.473 26.8761 200.005 31.6673 196.055C36.4584 192.104 29.5995 187.72 34.5924 185.694C35.6924 185.255 36.9148 185.23 38.0319 185.624C38.6684 185.856 39.2746 186.164 39.8375 186.541C41.63 187.842 43.1569 189.474 44.3361 191.348C58.4573 152.789 83.5125 147.699 83.5125 147.699L108.315 156.256C108.911 216.241 93.0847 246.789 93.0847 246.789H93.0746Z" fill="#112437"/>
<path d="M116.777 99.7372C112.211 100.992 107.426 101.233 102.757 100.443C94.526 99.193 91.8531 94.033 86.0633 97.3588C77.3788 102.398 81.4437 119.531 83.6224 128.45C84.4293 131.786 85.4682 140.544 83.5013 147.75C83.5013 147.75 95.0707 156.74 108.314 156.296L115.536 140.604C115.536 140.604 131.241 121.819 116.777 99.7372Z" fill="#D2D8D5"/>
<path d="M102.08 85.2847C102.569 90.5437 101.88 95.8456 100.062 100.805C100.063 100.805 104.359 107.134 108.455 102.972C109.009 97.3956 110.705 91.9926 113.437 87.0988C116.463 81.455 102.11 85.2847 102.11 85.2847H102.08Z" fill="#CB876E"/>
<path d="M95.4961 85.557C95.4961 85.557 91.875 83.2693 92.2784 86.8067C92.7525 90.8985 96.7872 91.6745 97.1805 90.2635C97.5739 88.8526 95.4961 85.557 95.4961 85.557Z" fill="#CB876E"/>
<path d="M116.282 81.1329C116.282 81.1329 118.582 77.5148 119.721 80.8809C121.033 84.7913 117.765 87.21 116.766 86.1014C115.767 84.9928 116.282 81.1329 116.282 81.1329Z" fill="#CB876E"/>
<path d="M108.798 97.792C102.232 99.2634 97.5616 95.7763 94.6768 82.9468C93.184 76.3052 95.6855 71.4778 103.018 69.8451C110.351 68.2124 114.386 71.5785 115.879 78.21C118.975 92.0373 115.586 96.2903 108.818 97.8021L108.798 97.792Z" fill="#F1AB87"/>
<path d="M114.731 83.279C114.92 83.5487 115.022 83.8707 115.02 84.2004C115.019 84.5302 114.916 84.8514 114.724 85.1198C114.532 85.3882 114.262 85.5905 113.95 85.6987C113.638 85.807 113.301 85.8159 112.984 85.7242C112.667 85.6325 112.386 85.4448 112.18 85.1869C111.975 84.929 111.854 84.6136 111.836 84.2844C111.817 83.9552 111.901 83.6283 112.076 83.3489C112.252 83.0696 112.509 82.8514 112.814 82.7247C113.143 82.5499 113.527 82.5101 113.885 82.6136C114.243 82.717 114.546 82.9557 114.731 83.279Z" fill="#E23C2B"/>
<path d="M101.295 86.6354C101.412 86.9431 101.431 87.2794 101.349 87.5981C101.267 87.9168 101.088 88.2022 100.837 88.4152C100.586 88.6281 100.275 88.758 99.9465 88.7871C99.6184 88.8162 99.2893 88.743 99.0046 88.5776C98.7198 88.4122 98.4934 88.1627 98.3564 87.8634C98.2193 87.5641 98.1785 87.2298 98.2394 86.9064C98.3004 86.5829 98.4601 86.2863 98.6967 86.0573C98.9332 85.8283 99.235 85.6782 99.5605 85.6276C99.9241 85.535 100.31 85.5887 100.634 85.7772C100.959 85.9656 101.196 86.2738 101.295 86.6354Z" fill="#E23C2B"/>
<path d="M110.151 77.283C110.085 77.283 110.021 77.2618 109.969 77.2225C109.13 76.7792 108.158 76.6574 107.236 76.8798C107.192 76.8919 107.147 76.8952 107.103 76.8895C107.059 76.8838 107.016 76.8693 106.977 76.8467C106.939 76.8241 106.905 76.794 106.878 76.7581C106.852 76.7223 106.833 76.6814 106.822 76.638C106.81 76.5949 106.807 76.5499 106.812 76.5056C106.818 76.4613 106.833 76.4185 106.855 76.38C106.878 76.3414 106.908 76.3078 106.944 76.2811C106.98 76.2544 107.021 76.2353 107.064 76.2247C108.174 75.9522 109.345 76.1107 110.342 76.6682C110.405 76.7071 110.453 76.7656 110.479 76.8346C110.504 76.9037 110.506 76.9793 110.484 77.0497C110.463 77.12 110.418 77.1811 110.357 77.2233C110.297 77.2656 110.224 77.2865 110.151 77.283Z" fill="#0E1D2A"/>
<path d="M97.7951 80.0543C97.7386 80.0663 97.6802 80.0663 97.6236 80.0543C97.5824 80.0334 97.5459 80.0041 97.5166 79.9683C97.4873 79.9325 97.4658 79.891 97.4535 79.8464C97.4411 79.8018 97.4382 79.7552 97.4449 79.7094C97.4517 79.6636 97.4679 79.6198 97.4925 79.5806C98.1573 78.6542 99.1482 78.0134 100.266 77.7867C100.313 77.7699 100.363 77.7635 100.413 77.768C100.462 77.7724 100.51 77.7876 100.553 77.8125C100.597 77.8373 100.634 77.8713 100.662 77.9119C100.691 77.9526 100.711 77.999 100.72 78.048C100.728 78.0969 100.727 78.1472 100.714 78.1954C100.702 78.2435 100.679 78.2884 100.647 78.3268C100.615 78.3652 100.576 78.3963 100.531 78.4179C100.486 78.4395 100.437 78.4511 100.387 78.4519C99.4597 78.6417 98.6341 79.1653 98.0674 79.9233C98.0394 79.9762 97.9972 80.0202 97.9455 80.0504C97.8939 80.0807 97.8348 80.096 97.7749 80.0946L97.7951 80.0543Z" fill="#0E1D2A"/>
<path d="M110.444 80.8808C110.626 81.6972 110.444 82.4429 109.95 82.5437C109.456 82.6445 108.941 82.07 108.8 81.2537C108.659 80.4374 108.8 79.6916 109.284 79.5908C109.768 79.49 110.293 80.0645 110.444 80.8808Z" fill="#152A34"/>
<path d="M101.304 82.8457C101.496 83.662 101.304 84.4078 100.82 84.5086C100.336 84.6094 99.8114 84.0349 99.6702 83.2186C99.529 82.4022 99.6702 81.6564 100.154 81.5557C100.639 81.4549 101.163 82.0293 101.304 82.8457Z" fill="#152A34"/>
<path d="M104.261 90.5657C104.261 90.5657 108.487 90.223 110.313 88.6609C110.313 88.6609 109.798 91.9565 107.509 92.1782C106.865 92.2542 106.213 92.1424 105.631 91.8563C105.049 91.5701 104.563 91.1219 104.23 90.5657H104.261Z" fill="#152A34"/>
<path d="M108.143 80.9713C108.143 80.9713 108.284 78.8347 109.152 78.7944C110.019 78.7541 110.907 80.3565 110.907 80.3565L111.916 79.4697L110.776 79.8829C110.776 79.8829 109.767 78.23 108.99 78.4014C107.881 78.6432 108.113 80.9713 108.113 80.9713H108.143Z" fill="#152A34"/>
<path d="M101.828 82.6041C101.828 82.6041 100.82 80.7295 100.023 81.052C99.2259 81.3745 99.0141 83.2289 99.0141 83.2289L97.7129 82.8762L98.9132 82.7653C98.9132 82.7653 99.1149 80.8303 99.9219 80.659C101.031 80.4373 101.828 82.6041 101.828 82.6041Z" fill="#152A34"/>
<path d="M96.0189 87.8753C96.0189 87.8753 94.0016 80.4275 95.1918 75.1566C95.1918 75.1566 100.911 67.2049 111.946 71.1253C114.211 75.0609 115.861 79.3195 116.838 83.7533C116.838 83.7533 117.251 81.1128 116.152 75.2171C115.052 69.3213 109.817 65.6629 102.646 66.8421C95.4743 68.0213 87.7782 75.1566 96.0189 87.8653V87.8753Z" fill="#0E1D2A"/>
<path d="M107.59 69.5024C107.59 69.5024 108.024 71.4475 106.127 76.4564C105.938 76.2534 105.71 76.0915 105.456 75.9807C105.201 75.87 104.927 75.8129 104.65 75.8129C104.372 75.8129 104.098 75.87 103.844 75.9807C103.589 76.0915 103.361 76.2534 103.172 76.4564C101.578 77.8774 98.3404 77.4037 97.2309 78.1696C96.8818 78.4918 96.6037 78.8831 96.4144 79.3187C96.2251 79.7542 96.1287 80.2244 96.1314 80.6993C95.5596 79.1443 95.5596 77.4369 96.1314 75.8819C94.829 77.6447 94.1704 79.8002 94.2654 81.9893C94.2654 81.9893 91.3403 81.5156 91.4815 76.7083C91.6227 71.901 98.4514 64.1206 106.127 64.6145C113.803 65.1083 115.639 77.2626 115.639 77.2626C115.378 77.0882 115.083 76.9711 114.774 76.919C114.464 76.8669 114.147 76.8809 113.844 76.9603C113.585 74.9122 112.931 72.9338 111.917 71.1351C112.385 72.7205 112.385 74.4073 111.917 75.9928C110.742 75.3777 109.416 75.1119 108.094 75.2268C108.094 75.2268 109.103 73.2112 107.56 69.4822L107.59 69.5024Z" fill="#0E1D2A"/>
<path d="M84.1174 98.8403C87.8495 95.8975 90.7544 99.6365 91.4706 104.817C92.1867 109.997 85.4186 140.544 80.2139 139.415C78.1966 138.982 77.3896 130.98 77.3896 130.98C78.9334 123.88 80.055 116.695 80.7485 109.463C81.3537 103.527 82.1606 100.392 84.1174 98.8403Z" fill="#F1AB87"/>
<path d="M73.2436 135.101C68.2003 130.304 59.193 114.421 56.9033 106.318L60.7161 104.776C60.7161 104.776 72.2148 121.204 77.4498 125.346C82.6847 129.488 84.5104 134.104 82.2006 138.054C79.8907 142.005 74.3027 136.089 73.2436 135.091V135.101Z" fill="#F1AB87"/>
<path d="M58.4564 95.7057C58.1942 100.896 62.4306 102.125 60.5545 106.116C60.4035 106.459 60.1843 106.767 59.9103 107.021C59.6363 107.276 59.3132 107.472 58.9608 107.598C58.3815 107.783 57.7618 107.801 57.1729 107.649C56.584 107.498 56.0499 107.183 55.6322 106.741C53.5762 104.771 51.2982 103.046 48.8439 101.601C46.9577 100.523 48.0269 100.221 48.0269 100.221L47.4923 99.9889C46.1508 99.4346 45.0715 99.2129 46.0499 98.6183C47.0283 98.0237 51.0327 99.354 51.0327 99.354C45.9894 95.9879 44.5974 96.8143 45.5254 96.0987C46.7862 95.0909 51.5774 97.3686 51.7388 97.4391C49.0658 94.9095 47.1292 94.335 48.1883 93.9521C49.2474 93.5691 54.5529 97.3988 56.4895 98.84L57.1855 99.3641C57.1351 95.1413 58.4564 95.7057 58.4564 95.7057Z" fill="#EFAB87"/>
<path d="M56.4998 98.8599L57.1958 99.384C56.933 99.9403 56.8199 100.555 56.8676 101.169C56.9154 101.782 57.1224 102.372 57.4681 102.881C56.8363 102.448 56.3849 101.799 56.1991 101.057C56.0133 100.314 56.1059 99.529 56.4595 98.8499L56.4998 98.8599Z" fill="#CB876E"/>
<path d="M52.0614 101.843C51.6075 101.591 49.0354 100.16 48.0268 100.241L47.4922 100.009C48.1781 99.112 51.5268 101.47 52.0513 101.843H52.0614Z" fill="#CB876E"/>
<path d="M72.1345 178.941C72.1345 179.141 72.0754 179.336 71.9645 179.501C71.8537 179.667 71.6962 179.796 71.5118 179.873C71.3275 179.949 71.1247 179.969 70.9291 179.93C70.7334 179.891 70.5537 179.795 70.4126 179.654C70.2715 179.513 70.1755 179.334 70.1366 179.138C70.0976 178.943 70.1176 178.74 70.194 178.556C70.2703 178.372 70.3996 178.214 70.5655 178.103C70.7313 177.993 70.9264 177.934 71.1258 177.934C71.3934 177.934 71.6499 178.04 71.8391 178.229C72.0282 178.418 72.1345 178.674 72.1345 178.941Z" fill="#5C869B"/>
<path d="M90.3718 185.976C90.3718 186.176 90.3127 186.37 90.2018 186.536C90.091 186.702 89.9335 186.831 89.7491 186.907C89.5648 186.984 89.362 187.004 89.1664 186.965C88.9707 186.926 88.791 186.83 88.6499 186.689C88.5089 186.548 88.4128 186.368 88.3739 186.173C88.335 185.977 88.3549 185.775 88.4313 185.591C88.5076 185.406 88.6369 185.249 88.8028 185.138C88.9686 185.028 89.1637 184.969 89.3632 184.969C89.6307 184.969 89.8872 185.075 90.0764 185.264C90.2655 185.453 90.3718 185.709 90.3718 185.976Z" fill="#5C869B"/>
<path d="M105.915 189.745C105.915 189.945 105.856 190.14 105.745 190.305C105.634 190.471 105.476 190.6 105.292 190.676C105.108 190.753 104.905 190.773 104.709 190.734C104.514 190.695 104.334 190.599 104.193 190.458C104.052 190.317 103.956 190.137 103.917 189.942C103.878 189.746 103.898 189.544 103.974 189.36C104.051 189.176 104.18 189.018 104.346 188.907C104.512 188.797 104.707 188.738 104.906 188.738C105.174 188.738 105.43 188.844 105.619 189.033C105.809 189.222 105.915 189.478 105.915 189.745Z" fill="#5C869B"/>
<path d="M82.0388 165.608C82.0388 165.875 81.9325 166.132 81.7434 166.321C81.5542 166.51 81.2977 166.616 81.0301 166.616C80.7626 166.616 80.5061 166.51 80.3169 166.321C80.1278 166.132 80.0215 165.875 80.0215 165.608C80.0215 165.341 80.1278 165.085 80.3169 164.896C80.5061 164.707 80.7626 164.6 81.0301 164.6C81.2977 164.6 81.5542 164.707 81.7434 164.896C81.9325 165.085 82.0388 165.341 82.0388 165.608Z" fill="#5C869B"/>
<path d="M85.4783 175.324C85.4783 175.523 85.4191 175.718 85.3083 175.884C85.1974 176.049 85.0399 176.179 84.8556 176.255C84.6713 176.331 84.4685 176.351 84.2728 176.312C84.0772 176.273 83.8974 176.177 83.7564 176.036C83.6153 175.895 83.5192 175.716 83.4803 175.52C83.4414 175.325 83.4614 175.122 83.5377 174.938C83.6141 174.754 83.7433 174.597 83.9092 174.486C84.0751 174.375 84.2701 174.316 84.4696 174.316C84.7371 174.316 84.9937 174.422 85.1828 174.611C85.372 174.8 85.4783 175.056 85.4783 175.324Z" fill="#5C869B"/>
<path d="M101.649 180.847C101.649 181.046 101.59 181.241 101.479 181.407C101.368 181.572 101.211 181.702 101.026 181.778C100.842 181.854 100.639 181.874 100.444 181.835C100.248 181.796 100.068 181.7 99.9273 181.559C99.7862 181.418 99.6901 181.239 99.6512 181.043C99.6123 180.848 99.6323 180.645 99.7086 180.461C99.785 180.277 99.9142 180.119 100.08 180.009C100.246 179.898 100.441 179.839 100.64 179.839C100.908 179.839 101.165 179.945 101.354 180.134C101.543 180.323 101.649 180.579 101.649 180.847Z" fill="#5C869B"/>
<path d="M103.846 164.107C103.846 164.306 103.787 164.501 103.676 164.667C103.566 164.832 103.408 164.962 103.224 165.038C103.039 165.114 102.837 165.134 102.641 165.095C102.445 165.056 102.266 164.96 102.125 164.819C101.983 164.678 101.887 164.499 101.848 164.303C101.81 164.108 101.83 163.905 101.906 163.721C101.982 163.537 102.112 163.379 102.277 163.269C102.443 163.158 102.638 163.099 102.838 163.099C103.105 163.099 103.362 163.205 103.551 163.394C103.74 163.583 103.846 163.839 103.846 164.107Z" fill="#5C869B"/>
<path d="M93.2751 160.619C93.2751 160.887 93.1689 161.143 92.9797 161.332C92.7905 161.521 92.534 161.627 92.2665 161.627C91.999 161.627 91.7424 161.521 91.5532 161.332C91.3641 161.143 91.2578 160.887 91.2578 160.619C91.2578 160.352 91.3641 160.096 91.5532 159.907C91.7424 159.718 91.999 159.612 92.2665 159.612C92.534 159.612 92.7905 159.718 92.9797 159.907C93.1689 160.096 93.2751 160.352 93.2751 160.619Z" fill="#5C869B"/>
<path d="M63.0974 198.866C63.0974 199.134 62.9911 199.39 62.802 199.579C62.6128 199.768 62.3563 199.874 62.0887 199.874C61.8212 199.874 61.5647 199.768 61.3755 199.579C61.1864 199.39 61.0801 199.134 61.0801 198.866C61.0801 198.599 61.1864 198.343 61.3755 198.154C61.5647 197.965 61.8212 197.859 62.0887 197.859C62.3563 197.859 62.6128 197.965 62.802 198.154C62.9911 198.343 63.0974 198.599 63.0974 198.866Z" fill="#5C869B"/>
<path d="M48.5222 194.533C48.5222 194.732 48.463 194.927 48.3522 195.093C48.2414 195.258 48.0839 195.388 47.8995 195.464C47.7152 195.54 47.5124 195.56 47.3168 195.521C47.1211 195.482 46.9414 195.386 46.8003 195.245C46.6592 195.104 46.5632 194.925 46.5243 194.729C46.4853 194.534 46.5053 194.331 46.5817 194.147C46.658 193.963 46.7873 193.805 46.9532 193.695C47.119 193.584 47.3141 193.525 47.5135 193.525C47.7811 193.525 48.0376 193.631 48.2268 193.82C48.4159 194.009 48.5222 194.265 48.5222 194.533Z" fill="#5C869B"/>
<path d="M39.8368 186.541C39.7436 186.682 39.6162 186.798 39.4663 186.877C39.3165 186.957 39.149 186.997 38.9795 186.994C38.712 186.994 38.4554 186.888 38.2663 186.699C38.0771 186.51 37.9708 186.254 37.9708 185.987C37.9688 185.865 37.9929 185.745 38.0414 185.634C38.6779 185.866 39.2841 186.174 39.8469 186.551L39.8368 186.541Z" fill="#5C869B"/>
<path d="M68.3112 212.19C68.3112 212.389 68.2521 212.584 68.1413 212.75C68.0304 212.916 67.8729 213.045 67.6886 213.121C67.5043 213.197 67.3015 213.217 67.1058 213.178C66.9102 213.14 66.7304 213.044 66.5894 212.903C66.4483 212.762 66.3522 212.582 66.3133 212.387C66.2744 212.191 66.2944 211.988 66.3707 211.804C66.4471 211.62 66.5764 211.463 66.7422 211.352C66.9081 211.241 67.1031 211.182 67.3026 211.182C67.5701 211.182 67.8267 211.288 68.0158 211.477C68.205 211.666 68.3112 211.923 68.3112 212.19Z" fill="#5C869B"/>
<path d="M42.1667 226.662C42.1667 226.862 42.1076 227.057 41.9967 227.222C41.8859 227.388 41.7284 227.517 41.5441 227.593C41.3598 227.67 41.157 227.69 40.9613 227.651C40.7656 227.612 40.5859 227.516 40.4448 227.375C40.3038 227.234 40.2077 227.054 40.1688 226.859C40.1299 226.663 40.1499 226.461 40.2262 226.277C40.3025 226.093 40.4318 225.935 40.5977 225.824C40.7636 225.714 40.9586 225.655 41.1581 225.655C41.4256 225.655 41.6821 225.761 41.8713 225.95C42.0605 226.139 42.1667 226.395 42.1667 226.662Z" fill="#5C869B"/>
<path d="M52.8484 217.894C52.8484 218.094 52.7892 218.288 52.6784 218.454C52.5676 218.62 52.41 218.749 52.2257 218.825C52.0414 218.902 51.8386 218.922 51.6429 218.883C51.4473 218.844 51.2676 218.748 51.1265 218.607C50.9854 218.466 50.8894 218.286 50.8504 218.091C50.8115 217.895 50.8315 217.693 50.9078 217.509C50.9842 217.324 51.1135 217.167 51.2793 217.056C51.4452 216.946 51.6402 216.886 51.8397 216.886C52.1072 216.886 52.3638 216.993 52.5529 217.182C52.7421 217.371 52.8484 217.627 52.8484 217.894Z" fill="#5C869B"/>
<path d="M36.9421 210.124C36.9421 210.391 36.8359 210.648 36.6467 210.837C36.4575 211.026 36.201 211.132 35.9335 211.132C35.666 211.132 35.4094 211.026 35.2202 210.837C35.0311 210.648 34.9248 210.391 34.9248 210.124C34.9248 209.857 35.0311 209.6 35.2202 209.411C35.4094 209.222 35.666 209.116 35.9335 209.116C36.201 209.116 36.4575 209.222 36.6467 209.411C36.8359 209.6 36.9421 209.857 36.9421 210.124Z" fill="#5C869B"/>
<path d="M49.7839 240.701C49.7839 240.901 49.7248 241.095 49.6139 241.261C49.5031 241.427 49.3456 241.556 49.1613 241.632C48.977 241.709 48.7741 241.729 48.5785 241.69C48.3828 241.651 48.2031 241.555 48.062 241.414C47.921 241.273 47.8249 241.093 47.786 240.898C47.7471 240.702 47.767 240.5 47.8434 240.316C47.9197 240.131 48.049 239.974 48.2149 239.863C48.3808 239.752 48.5758 239.693 48.7753 239.693C49.0428 239.693 49.2993 239.8 49.4885 239.989C49.6777 240.178 49.7839 240.434 49.7839 240.701Z" fill="#5C869B"/>
<path d="M59.5154 186.994C59.5154 187.261 59.4091 187.518 59.2199 187.707C59.0308 187.896 58.7742 188.002 58.5067 188.002C58.2392 188.002 57.9826 187.896 57.7935 187.707C57.6043 187.518 57.498 187.261 57.498 186.994C57.498 186.727 57.6043 186.471 57.7935 186.282C57.9826 186.093 58.2392 185.986 58.5067 185.986C58.7742 185.986 59.0308 186.093 59.2199 186.282C59.4091 186.471 59.5154 186.727 59.5154 186.994Z" fill="#5C869B"/>
<path d="M69.3308 169.801C69.3308 170 69.2717 170.195 69.1608 170.361C69.05 170.526 68.8925 170.656 68.7081 170.732C68.5238 170.808 68.321 170.828 68.1254 170.789C67.9297 170.75 67.75 170.654 67.6089 170.513C67.4678 170.372 67.3718 170.193 67.3329 169.997C67.2939 169.802 67.3139 169.599 67.3903 169.415C67.4666 169.231 67.5959 169.074 67.7618 168.963C67.9276 168.852 68.1226 168.793 68.3221 168.793C68.5897 168.793 68.8462 168.899 69.0354 169.088C69.2245 169.277 69.3308 169.533 69.3308 169.801Z" fill="#5C869B"/>
<path d="M80.446 155.479C80.446 155.679 80.3869 155.874 80.276 156.039C80.1652 156.205 80.0077 156.334 79.8234 156.411C79.6391 156.487 79.4363 156.507 79.2406 156.468C79.0449 156.429 78.8652 156.333 78.7241 156.192C78.5831 156.051 78.487 155.872 78.4481 155.676C78.4092 155.481 78.4291 155.278 78.5055 155.094C78.5818 154.91 78.7111 154.752 78.877 154.642C79.0429 154.531 79.2379 154.472 79.4374 154.472C79.7049 154.472 79.9614 154.578 80.1506 154.767C80.3398 154.956 80.446 155.212 80.446 155.479Z" fill="#5C869B"/>
<path d="M57.9226 176.332C57.9226 176.599 57.8163 176.855 57.6272 177.044C57.438 177.233 57.1814 177.339 56.9139 177.339C56.6464 177.339 56.3899 177.233 56.2007 177.044C56.0115 176.855 55.9053 176.599 55.9053 176.332C55.9053 176.064 56.0115 175.808 56.2007 175.619C56.3899 175.43 56.6464 175.324 56.9139 175.324C57.1814 175.324 57.438 175.43 57.6272 175.619C57.8163 175.808 57.9226 176.064 57.9226 176.332Z" fill="#5C869B"/>
<path d="M70.3591 159.602C70.3591 159.801 70.3 159.996 70.1891 160.161C70.0783 160.327 69.9208 160.456 69.7365 160.533C69.5522 160.609 69.3493 160.629 69.1537 160.59C68.958 160.551 68.7783 160.455 68.6372 160.314C68.4962 160.173 68.4001 159.994 68.3612 159.798C68.3223 159.603 68.3422 159.4 68.4186 159.216C68.4949 159.032 68.6242 158.874 68.7901 158.764C68.956 158.653 69.151 158.594 69.3505 158.594C69.618 158.594 69.8745 158.7 70.0637 158.889C70.2529 159.078 70.3591 159.334 70.3591 159.602Z" fill="#5C869B"/>
<path d="M50.8005 205.558C50.8005 205.757 50.7414 205.952 50.6305 206.118C50.5197 206.284 50.3622 206.413 50.1779 206.489C49.9936 206.565 49.7907 206.585 49.5951 206.547C49.3994 206.508 49.2197 206.412 49.0786 206.271C48.9376 206.13 48.8415 205.95 48.8026 205.755C48.7637 205.559 48.7836 205.357 48.86 205.172C48.9363 204.988 49.0656 204.831 49.2315 204.72C49.3974 204.609 49.5924 204.55 49.7919 204.55C50.0594 204.55 50.3159 204.656 50.5051 204.845C50.6943 205.034 50.8005 205.291 50.8005 205.558Z" fill="#5C869B"/>
<path d="M37.9607 196.569C37.9607 196.768 37.9015 196.963 37.7907 197.129C37.6799 197.294 37.5223 197.423 37.338 197.5C37.1537 197.576 36.9509 197.596 36.7552 197.557C36.5596 197.518 36.3799 197.422 36.2388 197.281C36.0977 197.14 36.0017 196.961 35.9627 196.765C35.9238 196.57 35.9438 196.367 36.0201 196.183C36.0965 195.999 36.2258 195.841 36.3916 195.731C36.5575 195.62 36.7525 195.561 36.952 195.561C37.2195 195.561 37.4761 195.667 37.6653 195.856C37.8544 196.045 37.9607 196.301 37.9607 196.569Z" fill="#5C869B"/>
<path d="M75.2019 193.465C75.2019 193.664 75.1427 193.859 75.0319 194.025C74.9211 194.19 74.7635 194.319 74.5792 194.396C74.3949 194.472 74.1921 194.492 73.9964 194.453C73.8008 194.414 73.6211 194.318 73.48 194.177C73.3389 194.036 73.2429 193.857 73.204 193.661C73.165 193.466 73.185 193.263 73.2613 193.079C73.3377 192.895 73.467 192.737 73.6328 192.627C73.7987 192.516 73.9937 192.457 74.1932 192.457C74.4607 192.457 74.7173 192.563 74.9065 192.752C75.0956 192.941 75.2019 193.197 75.2019 193.465Z" fill="#5C869B"/>
<path d="M96.3415 198.866C96.3415 199.134 96.2353 199.39 96.0461 199.579C95.857 199.768 95.6004 199.874 95.3329 199.874C95.0654 199.874 94.8088 199.768 94.6196 199.579C94.4305 199.39 94.3242 199.134 94.3242 198.866C94.3242 198.599 94.4305 198.343 94.6196 198.154C94.8088 197.965 95.0654 197.859 95.3329 197.859C95.6004 197.859 95.857 197.965 96.0461 198.154C96.2353 198.343 96.3415 198.599 96.3415 198.866Z" fill="#5C869B"/>
<path d="M95.3132 169.801C95.3132 170 95.2541 170.195 95.1432 170.361C95.0324 170.526 94.8749 170.656 94.6906 170.732C94.5063 170.808 94.3034 170.828 94.1078 170.789C93.9121 170.75 93.7324 170.654 93.5913 170.513C93.4503 170.372 93.3542 170.193 93.3153 169.997C93.2764 169.802 93.2963 169.599 93.3727 169.415C93.449 169.231 93.5783 169.074 93.7442 168.963C93.9101 168.852 94.1051 168.793 94.3046 168.793C94.5721 168.793 94.8286 168.899 95.0178 169.088C95.207 169.277 95.3132 169.533 95.3132 169.801Z" fill="#5C869B"/>
<path d="M107.599 171.938C107.599 172.137 107.54 172.332 107.429 172.497C107.319 172.663 107.161 172.792 106.977 172.869C106.792 172.945 106.59 172.965 106.394 172.926C106.198 172.887 106.019 172.791 105.877 172.65C105.736 172.509 105.64 172.33 105.601 172.134C105.562 171.939 105.582 171.736 105.659 171.552C105.735 171.368 105.864 171.21 106.03 171.1C106.196 170.989 106.391 170.93 106.591 170.93C106.858 170.93 107.115 171.036 107.304 171.225C107.493 171.414 107.599 171.67 107.599 171.938Z" fill="#5C869B"/>
<path d="M83.0583 206.616C83.0583 206.884 82.9521 207.14 82.7629 207.329C82.5737 207.518 82.3172 207.624 82.0497 207.624C81.7822 207.624 81.5256 207.518 81.3364 207.329C81.1473 207.14 81.041 206.884 81.041 206.616C81.041 206.349 81.1473 206.093 81.3364 205.904C81.5256 205.715 81.7822 205.608 82.0497 205.608C82.3172 205.608 82.5737 205.715 82.7629 205.904C82.9521 206.093 83.0583 206.349 83.0583 206.616Z" fill="#5C869B"/>
<path d="M74.1824 224.777C74.1824 224.977 74.1232 225.172 74.0124 225.337C73.9015 225.503 73.744 225.632 73.5597 225.708C73.3754 225.785 73.1726 225.805 72.9769 225.766C72.7813 225.727 72.6015 225.631 72.4605 225.49C72.3194 225.349 72.2233 225.169 72.1844 224.974C72.1455 224.778 72.1655 224.576 72.2418 224.392C72.3182 224.208 72.4474 224.05 72.6133 223.939C72.7792 223.829 72.9742 223.77 73.1737 223.77C73.4412 223.77 73.6978 223.876 73.8869 224.065C74.0761 224.254 74.1824 224.51 74.1824 224.777Z" fill="#5C869B"/>
<path d="M58.4578 227.73C58.4578 227.93 58.3986 228.125 58.2878 228.29C58.1769 228.456 58.0194 228.585 57.8351 228.662C57.6508 228.738 57.448 228.758 57.2523 228.719C57.0567 228.68 56.8769 228.584 56.7359 228.443C56.5948 228.302 56.4987 228.123 56.4598 227.927C56.4209 227.732 56.4409 227.529 56.5172 227.345C56.5936 227.161 56.7228 227.003 56.8887 226.893C57.0546 226.782 57.2496 226.723 57.4491 226.723C57.7166 226.723 57.9732 226.829 58.1623 227.018C58.3515 227.207 58.4578 227.463 58.4578 227.73Z" fill="#5C869B"/>
<path d="M101.649 212.19C101.649 212.389 101.59 212.584 101.479 212.75C101.368 212.916 101.211 213.045 101.026 213.121C100.842 213.197 100.639 213.217 100.444 213.178C100.248 213.14 100.068 213.044 99.9273 212.903C99.7862 212.762 99.6901 212.582 99.6512 212.387C99.6123 212.191 99.6323 211.988 99.7086 211.804C99.785 211.62 99.9142 211.463 100.08 211.352C100.246 211.241 100.441 211.182 100.64 211.182C100.908 211.182 101.165 211.288 101.354 211.477C101.543 211.666 101.649 211.923 101.649 212.19Z" fill="#5C869B"/>
<path d="M87.5261 219.929C87.5261 220.197 87.4198 220.453 87.2307 220.642C87.0415 220.831 86.785 220.937 86.5174 220.937C86.2499 220.937 85.9934 220.831 85.8042 220.642C85.6151 220.453 85.5088 220.197 85.5088 219.929C85.5088 219.662 85.6151 219.406 85.8042 219.217C85.9934 219.028 86.2499 218.922 86.5174 218.922C86.785 218.922 87.0415 219.028 87.2307 219.217C87.4198 219.406 87.5261 219.662 87.5261 219.929Z" fill="#5C869B"/>
<path d="M66.2634 242.737C66.2634 242.936 66.2043 243.131 66.0934 243.297C65.9826 243.463 65.8251 243.592 65.6407 243.668C65.4564 243.744 65.2536 243.764 65.058 243.726C64.8623 243.687 64.6826 243.591 64.5415 243.45C64.4005 243.309 64.3044 243.129 64.2655 242.934C64.2266 242.738 64.2465 242.536 64.3229 242.351C64.3992 242.167 64.5285 242.01 64.6944 241.899C64.8602 241.788 65.0553 241.729 65.2548 241.729C65.5223 241.729 65.7788 241.835 65.968 242.024C66.1571 242.213 66.2634 242.47 66.2634 242.737Z" fill="#5C869B"/>
<path d="M82.0388 237.426C82.0388 237.625 81.9796 237.82 81.8688 237.986C81.758 238.152 81.6004 238.281 81.4161 238.357C81.2318 238.433 81.029 238.453 80.8334 238.414C80.6377 238.375 80.458 238.279 80.3169 238.138C80.1758 237.998 80.0798 237.818 80.0409 237.622C80.0019 237.427 80.0219 237.224 80.0983 237.04C80.1746 236.856 80.3039 236.699 80.4698 236.588C80.6356 236.477 80.8306 236.418 81.0301 236.418C81.2977 236.418 81.5542 236.524 81.7434 236.713C81.9325 236.902 82.0388 237.159 82.0388 237.426Z" fill="#5C869B"/>
<path d="M97.2283 231.409C97.2283 231.608 97.1691 231.803 97.0583 231.969C96.9474 232.135 96.7899 232.264 96.6056 232.34C96.4213 232.417 96.2185 232.436 96.0228 232.398C95.8272 232.359 95.6474 232.263 95.5064 232.122C95.3653 231.981 95.2692 231.801 95.2303 231.606C95.1914 231.41 95.2114 231.208 95.2877 231.024C95.3641 230.839 95.4933 230.682 95.6592 230.571C95.8251 230.46 96.0201 230.401 96.2196 230.401C96.4871 230.401 96.7437 230.508 96.9328 230.697C97.122 230.886 97.2283 231.142 97.2283 231.409Z" fill="#5C869B"/>
<path d="M90.3718 248.975C90.3718 249.174 90.3127 249.369 90.2018 249.535C90.091 249.701 89.9335 249.83 89.7491 249.906C89.5648 249.982 89.362 250.002 89.1664 249.964C88.9707 249.925 88.791 249.829 88.6499 249.688C88.5089 249.547 88.4128 249.367 88.3739 249.172C88.335 248.976 88.3549 248.774 88.4313 248.589C88.5076 248.405 88.6369 248.248 88.8028 248.137C88.9686 248.026 89.1637 247.967 89.3632 247.967C89.6307 247.967 89.8872 248.073 90.0764 248.262C90.2655 248.451 90.3718 248.708 90.3718 248.975Z" fill="#5C869B"/>
<path d="M89.2522 302.762H72.468C71.3686 299.638 73.3859 296.504 73.0531 293.753C72.468 289.096 75.1813 291.676 75.1813 291.676C75.6554 286.637 82.6959 285.72 82.6152 287.958C82.5042 291.233 83.1397 293.269 84.0777 294.629C85.974 297.361 89.0706 297.33 89.6052 299.285C89.6556 299.477 89.7061 299.668 89.7363 299.84C90.2507 302.289 89.2522 302.762 89.2522 302.762Z" fill="#112437"/>
<path d="M89.7252 299.84C86.2453 300.646 78.2265 299.598 77.9037 297.583C77.5809 295.567 81.9384 294.71 84.0666 294.63C85.9629 297.361 89.0595 297.331 89.5941 299.286C89.6445 299.477 89.695 299.669 89.7252 299.84Z" fill="#193343"/>
<path d="M20.2285 172.814C18.4431 171.191 15.5483 173.882 15.5483 173.882C15.5483 173.882 17.1016 176.19 16.0929 177.127C15.0843 178.065 13.9142 175.928 11.9272 176.865C11.7584 176.942 11.5964 177.033 11.443 177.138C9.77755 178.379 8.28801 179.84 7.01499 181.481L6.2585 182.298C4.73542 183.9 0.811725 184.827 0.0754017 180.584C-0.660921 176.341 4.11005 171.353 9.38535 166.767C14.6606 162.181 18.0296 164.913 18.0296 164.913C18.6349 165.862 19.0399 166.925 19.2198 168.037C19.2198 169.226 20.2789 169.821 20.874 170.96C21.0249 171.287 21.0475 171.659 20.9373 172.002C20.8272 172.346 20.5922 172.635 20.2789 172.814H20.2285Z" fill="#112437"/>
<path d="M11.4436 177.138C9.77809 178.379 8.28855 179.84 7.01553 181.481C5.04864 181.955 3.28349 181.814 2.98089 179.97C2.31517 175.505 11.2217 169.831 10.5156 172.915C10.3971 173.642 10.4253 174.386 10.5985 175.103C10.7717 175.819 11.0864 176.494 11.5243 177.087L11.4436 177.138Z" fill="#193343"/>
<path d="M322.354 295.507C321.375 294.863 320.588 293.968 320.074 292.917C319.731 290.486 319.731 288.02 320.074 285.59C320.669 281.831 319.066 278.767 313.72 277.618C308.374 276.469 305.479 278.989 306.659 289.369C305.872 293.683 305.701 298.601 307.496 302.753H323.433C323.433 302.753 325.935 297.381 322.354 295.497V295.507Z" fill="#D2D8D5"/>
<path d="M336.312 239.552C335.988 246.9 333.987 254.078 330.462 260.535C324.511 271.349 317.147 286.204 317.147 286.204C317.147 286.204 312.235 290.981 309.078 283.06C309.078 283.06 311.277 255.486 316.33 245.387C321.384 235.289 336.272 239.552 336.272 239.552H336.312Z" fill="#EFAB87"/>
<path d="M412.609 205.81C412.609 205.81 422.08 245.629 428.112 256.141C428.112 256.141 426.72 260.535 420.194 261.855C420.194 261.855 399.577 231.62 398.256 218.831C396.934 206.042 412.609 205.81 412.609 205.81Z" fill="#EFAB87"/>
<path d="M417.187 215.173C414.666 221.22 395.198 221.573 395.198 221.573L393.706 219.386L393.312 218.811L390.286 214.326C390.286 214.326 358.029 182.711 351.725 185.402C351.539 185.487 351.363 185.591 351.201 185.714C346.884 188.738 346.48 205.679 341.366 234.009C340.796 236.736 339.996 239.409 338.976 242.001L338.713 242.666C338.249 243.866 337.917 244.632 337.917 244.632C318.217 252.604 311.691 236.861 311.691 236.861C311.691 236.861 311.933 236.398 312.266 235.672L312.519 235.138C313.527 232.86 315.191 228.92 315.171 226.844C315.171 224.553 315.171 222.352 315.171 220.242C315.171 220.051 315.171 219.87 315.171 219.688C315.171 212.875 315.171 206.959 315.171 201.819V201.275C315.171 199.038 315.202 196.942 315.262 194.986V194.432C315.434 185.473 315.726 179.496 316.029 175.515C316.029 175.334 316.029 175.142 316.029 174.971C316.573 168.269 317.148 167.604 317.148 167.604L313.204 140.201H356.254C356.254 140.201 362.709 146.681 371.102 155.218L371.626 155.742C374.652 158.836 377.95 162.192 381.249 165.598L381.632 165.991L385.515 170.023C385.677 170.174 385.818 170.345 385.979 170.506C390.296 174.981 394.482 179.385 398.083 183.245L398.446 183.628C403.348 188.929 407.081 193.172 408.362 195.148C411.477 200.246 414.007 205.679 415.906 211.343L416.108 211.888C416.794 213.903 417.177 215.223 417.177 215.223L417.187 215.173Z" fill="#7E1923"/>
<path d="M323.614 171.665C321.649 173.846 318.933 175.206 316.009 175.475C316.009 175.293 316.009 175.102 316.009 174.931C318.766 174.666 321.323 173.375 323.17 171.312C324.983 168.967 325.863 166.034 325.642 163.079L326.166 163.018C326.421 166.124 325.496 169.211 323.574 171.665H323.614Z" fill="#53141D"/>
<path d="M371.645 155.702H371.141C366.36 155.702 361.357 150.471 361.104 150.209L361.488 149.836C361.548 149.907 366.531 155.117 371.121 155.157L371.645 155.682V155.702Z" fill="#53141D"/>
<path d="M338.965 241.961L338.703 242.626C335.896 243.692 332.921 244.252 329.918 244.279C321.415 244.279 315.524 239.361 312.286 235.632L312.538 235.098C316.674 239.945 325.51 247.091 338.965 241.961Z" fill="#53141D"/>
<path d="M350.525 175.495C351.29 178.729 351.689 182.038 351.715 185.361C351.529 185.446 351.353 185.551 351.19 185.674C351.19 169.629 341.87 157.112 341.77 156.971L342.193 156.659C346.015 162.203 348.791 168.399 350.384 174.941C351.465 174.253 352.23 173.166 352.512 171.917C353.853 166.293 347.761 157.092 347.711 156.991L348.144 156.699C348.396 157.092 354.418 166.183 353.036 172.038C352.879 172.76 352.575 173.442 352.143 174.042C351.711 174.642 351.16 175.147 350.525 175.525V175.495Z" fill="#53141D"/>
<path d="M398.456 183.568C396.872 185.291 395.379 186.753 395.238 186.884L394.956 187.166L394.815 186.783C392.727 181.341 379.332 169.519 379.19 169.408L379.039 169.257L381.268 165.558L381.652 165.951L379.775 169.055C381.603 169.786 383.571 170.096 385.535 169.962C385.696 170.113 385.837 170.285 385.999 170.446C385.539 170.524 385.073 170.564 384.607 170.567C383.208 170.527 381.822 170.286 380.492 169.851C383.518 172.593 392.989 181.351 395.157 186.229C395.995 185.392 397.054 184.304 398.093 183.205L398.456 183.588V183.568Z" fill="#53141D"/>
<path d="M324.936 220.101H324.724C322.947 220.457 321.14 220.64 319.328 220.645C317.916 220.669 316.508 220.503 315.142 220.152C315.142 219.96 315.142 219.779 315.142 219.597C318.652 220.605 323.342 219.829 324.401 219.597L323.503 197.486C322.891 199.114 321.703 200.461 320.165 201.275C319.245 201.724 318.232 201.949 317.209 201.93C316.53 201.926 315.854 201.848 315.192 201.698V201.154C316.771 201.605 318.46 201.476 319.953 200.791C320.791 200.315 321.526 199.677 322.115 198.914C322.704 198.151 323.135 197.278 323.382 196.347C321.607 196.609 318.016 195.702 315.313 194.865V194.311C318.258 195.208 322.253 196.236 323.685 195.732L324.028 195.621L325.037 220.021L324.936 220.101Z" fill="#53141D"/>
<path d="M416.12 211.837C413.59 214.319 410.595 216.278 407.306 217.603C404.018 218.927 400.5 219.591 396.955 219.557C395.946 219.557 394.847 219.496 393.727 219.386L393.334 218.811C397.427 219.385 401.597 219.005 405.518 217.701C409.44 216.396 413.006 214.203 415.938 211.293L416.14 211.837H416.12Z" fill="#53141D"/>
<path d="M364.223 23.6667C364.223 23.6667 363.043 20.9456 358.04 20.9456C354.197 20.9456 352.714 23.0721 352.714 23.0721C350.414 29.8043 347.943 55.5642 347.055 56.4813C346.601 56.945 318.036 76.1742 318.036 76.1742C333.539 76.4665 343.253 95.5546 343.253 95.5546C343.747 89.2759 361.257 64.423 361.409 62.2058C361.762 58.0233 369.165 39.3383 364.223 23.6667Z" fill="#D4142C"/>
<path d="M314.656 158.382C314.656 158.382 314.515 163.764 316.26 164.117C327.008 166.818 338.356 165.795 348.446 161.214C364.756 153.817 367.611 148.324 362.81 144.253C358.009 140.181 314.626 158.362 314.626 158.362L314.656 158.382Z" fill="#D4142C"/>
<path d="M308.1 79.8929C308.1 79.8929 293.263 78.1393 284.76 81.8179C284.76 81.8179 282.39 92.3295 294.07 115.872C305.75 139.415 303.047 154.24 316.261 159.823C327.941 164.762 362.397 150.037 363.476 145.159C366.199 132.864 345.128 111.287 343.807 98.7997C342.486 86.3128 330.21 67.4867 308.1 79.8929Z" fill="#FA1C34"/>
<path d="M284.759 81.8181C274.39 85.4967 262.73 97.1269 262.71 102.761C262.69 108.394 272.434 110.521 272.434 110.521L288.431 102.761C288.431 102.761 293 99.5658 290.095 90.2838C287.19 81.0018 284.78 81.8483 284.78 81.8483L284.759 81.8181Z" fill="#D4142C"/>
<path d="M327.356 92.1787C324.044 92.1337 320.811 91.1593 318.026 89.3668C316.906 88.6914 316.092 87.6072 315.756 86.3434C315.171 82.6648 318.782 80.8004 318.914 80.7197L319.398 81.6671C319.267 81.7276 316.372 83.2695 316.805 86.1821C317.114 87.1676 317.789 87.9973 318.692 88.5001C321.733 90.4952 325.372 91.375 328.99 90.9894C329.511 90.9596 330.019 90.8138 330.476 90.5627C330.933 90.3116 331.328 89.9616 331.633 89.5382C331.773 89.2454 331.851 88.9267 331.862 88.6022C331.872 88.2777 331.815 87.9547 331.693 87.6535L332.702 87.2302C332.885 87.6777 332.971 88.1589 332.953 88.642C332.936 89.125 332.816 89.5989 332.601 90.032C332.228 90.6047 331.729 91.0842 331.141 91.4336C330.554 91.7831 329.894 91.9932 329.212 92.0476C328.622 92.1427 328.025 92.1898 327.427 92.1887L327.356 92.1787Z" fill="#D2D8D5"/>
<path d="M314.214 103.386C311.914 103.386 308.111 102.438 307.577 98.6691C307.361 97.0368 307.361 95.3833 307.577 93.751C307.809 91.6749 307.99 90.0422 306.78 88.0769C304.762 84.8318 302.059 84.61 301.948 84.61L302.009 83.5417C303.197 83.719 304.328 84.1701 305.312 84.8592C306.296 85.5484 307.105 86.4568 307.677 87.5126C309.079 89.7902 308.868 91.7656 308.636 93.8618C308.411 95.4045 308.39 96.97 308.575 98.518C309.15 102.549 314.335 102.328 314.546 102.317L314.617 103.325L314.214 103.386Z" fill="#D2D8D5"/>
<path d="M317.441 84.3173C317.441 84.3173 325.278 78.986 323.422 73.2313C321.566 67.4766 296.299 67.8495 289.793 74.7531C283.288 81.6567 303.915 86.2423 303.915 86.2423C305.518 83.0374 315.706 82.6746 317.481 84.3375L317.441 84.3173Z" fill="#D4142C"/>
<path d="M303.339 83.4206C299.617 82.1507 297.408 79.4699 298.205 76.3658C299.002 73.2617 314.999 73.1811 318.035 75.6603C321.071 78.1396 316.795 87.9759 303.339 83.4105V83.4206Z" fill="#980F27"/>
<path d="M301.544 74.7028C301.544 74.7028 304.832 80.3264 303.319 83.4204C303.319 83.4204 314.606 87.3106 314.606 81.0017C314.606 81.0017 312.478 76.2649 313.285 73.2112L301.544 74.7028Z" fill="#CD876E"/>
<path d="M297.801 69.8048C297.801 69.8048 292.254 60.9158 292.758 52.4401C293.01 48.1971 295.199 46.5342 295.199 46.5342C295.199 46.5342 293.434 44.0852 295.32 40.3462C295.32 40.3462 297.932 43.3697 307.111 42.3618C315.957 41.4447 316.835 47.7436 316.835 47.7436C323.159 48.6809 318.852 67.7993 314.485 69.7544L297.801 69.8048Z" fill="#41382F"/>
<path d="M295.491 61.6011C295.491 61.6011 292.304 58.4163 291.911 62.1352C291.457 66.4487 295.37 68.1821 296.137 66.8115C296.903 65.4409 295.491 61.6011 295.491 61.6011Z" fill="#CD876E"/>
<path d="M317.783 61.8228C317.783 61.8228 320.97 58.6482 321.363 62.3671C321.817 66.6705 317.904 68.414 317.137 67.0333C316.371 65.6526 317.783 61.8228 317.783 61.8228Z" fill="#CD876E"/>
<path d="M306.275 77.2023C299.214 77.2023 295.18 72.5865 295.18 58.7289C295.18 51.5835 298.811 47.1995 306.739 47.1995C314.667 47.1995 318.006 51.5835 318.006 58.7289C318.006 73.6145 313.557 77.2023 306.245 77.2023H306.275Z" fill="#F1AB87"/>
<path d="M315.666 63.6671C315.802 63.9892 315.833 64.3454 315.757 64.6862C315.681 65.0271 315.5 65.3358 315.24 65.5695C314.98 65.8031 314.654 65.9503 314.307 65.9904C313.96 66.0306 313.608 65.9618 313.302 65.7936C312.996 65.6254 312.749 65.3661 312.597 65.0517C312.445 64.7373 312.394 64.3833 312.452 64.0389C312.51 63.6944 312.674 63.3766 312.921 63.1294C313.168 62.8822 313.486 62.7179 313.831 62.6593C314.208 62.5556 314.61 62.6029 314.953 62.791C315.296 62.9792 315.552 63.2935 315.666 63.6671Z" fill="#E23C2B"/>
<path d="M301.131 64.0601C301.185 64.4027 301.131 64.7533 300.976 65.0637C300.822 65.3741 300.574 65.6289 300.269 65.7927C299.963 65.9566 299.614 66.0216 299.269 65.9786C298.925 65.9356 298.603 65.7868 298.347 65.5527C298.091 65.3187 297.914 65.011 297.841 64.6722C297.767 64.3333 297.801 63.9801 297.937 63.6613C298.074 63.3425 298.306 63.0739 298.601 62.8925C298.897 62.7112 299.242 62.6262 299.588 62.6492C299.978 62.638 300.358 62.779 300.646 63.0424C300.934 63.3057 301.108 63.6707 301.131 64.0601Z" fill="#E23C2B"/>
<path d="M312.578 56.2395C312.531 56.2504 312.482 56.2506 312.435 56.2402C312.388 56.2297 312.343 56.2088 312.306 56.179C311.458 55.6505 310.446 55.4498 309.461 55.6146C309.413 55.6314 309.362 55.6377 309.312 55.633C309.261 55.6283 309.212 55.6128 309.168 55.5875C309.124 55.5622 309.086 55.5277 309.057 55.4863C309.027 55.445 309.007 55.3978 308.997 55.348C308.988 55.2982 308.989 55.2469 309.001 55.1976C309.014 55.1484 309.036 55.1023 309.068 55.0625C309.099 55.0228 309.139 54.9903 309.184 54.9673C309.23 54.9443 309.279 54.9314 309.33 54.9293C310.512 54.7128 311.733 54.9581 312.739 55.6146C312.813 55.6723 312.86 55.7565 312.871 55.8491C312.883 55.9416 312.857 56.0349 312.8 56.1085C312.774 56.1444 312.741 56.1745 312.702 56.1971C312.664 56.2196 312.622 56.2341 312.578 56.2395Z" fill="#40382F"/>
<path d="M299.034 56.2898C298.944 56.2807 298.861 56.2374 298.802 56.1689C298.743 56.0949 298.715 56.0008 298.724 55.9067C298.734 55.8126 298.78 55.7258 298.852 55.665C299.837 54.983 301.046 54.7018 302.231 54.8789C302.277 54.8849 302.322 54.9003 302.362 54.9242C302.402 54.948 302.437 54.9798 302.464 55.0175C302.492 55.0552 302.511 55.0982 302.521 55.1436C302.532 55.1891 302.532 55.2362 302.524 55.282C302.506 55.373 302.455 55.4539 302.38 55.5082C302.305 55.5625 302.212 55.5862 302.12 55.5743C301.132 55.4383 300.127 55.6676 299.296 56.2193C299.259 56.2478 299.217 56.2687 299.172 56.2808C299.127 56.2929 299.08 56.296 299.034 56.2898Z" fill="#40382F"/>
<path d="M311.843 60.2305C311.843 61.1174 311.45 61.8228 310.966 61.8228C310.482 61.8228 310.078 61.1174 310.078 60.2305C310.078 59.3436 310.472 58.6482 310.966 58.6482C311.46 58.6482 311.843 59.3537 311.843 60.2305Z" fill="#152A34"/>
<path d="M302.39 60.2305C302.39 61.1174 301.997 61.8228 301.513 61.8228C301.028 61.8228 300.625 61.1174 300.625 60.2305C300.625 59.3436 301.018 58.6482 301.513 58.6482C302.007 58.6482 302.39 59.3537 302.39 60.2305Z" fill="#152A34"/>
<path d="M297.378 48.7311C303.306 50.5791 309.537 51.2636 315.725 50.7468C315.725 50.7468 318.035 53.6191 317.743 63.7477C317.743 63.7477 324.077 45.5061 305.639 45.5061C287.201 45.5061 295.492 63.3143 295.492 63.3143C295.492 63.3143 293.979 52.1577 297.418 48.7311H297.378Z" fill="#40382F"/>
<path d="M302.028 67.2651C302.028 67.2651 308.988 67.5674 312.508 66.6301C312.604 67.3036 312.552 67.99 312.354 68.641C312.156 69.2919 311.818 69.8916 311.363 70.3979C310.908 70.9042 310.348 71.3048 309.722 71.5715C309.095 71.8381 308.418 71.9644 307.737 71.9413C302.028 72.2134 302.028 67.2651 302.028 67.2651Z" fill="#152A34"/>
<path d="M331.805 86.404C333.136 86.152 332.995 89.629 331.805 88.6212C330.615 87.6134 330.473 86.6055 331.805 86.404Z" fill="#D2D8D5"/>
<path d="M315.767 103.244C315.555 104.574 312.317 103.315 313.659 102.518C315 101.722 315.968 101.904 315.767 103.244Z" fill="#D2D8D5"/>
<path d="M301.543 110.49C301.543 110.49 299.435 115.902 299.526 118.956C299.617 122.01 300.646 121.617 300.646 121.617C300.158 121.831 299.73 122.16 299.398 122.576C299.066 122.992 298.84 123.483 298.739 124.005C298.437 125.769 302.885 127.029 303.198 127.029C303.51 127.029 306.637 125.84 306.637 125.84L307.303 115.842L304.519 114.098L301.493 110.46L301.543 110.49Z" fill="#CD876E"/>
<path d="M303.18 109.815C305.05 110.961 306.831 112.248 308.505 113.665C309.998 115.126 309.141 126.414 308.505 126.948C307.87 127.482 302.968 128.571 302.03 127.956C301.092 127.341 302.393 124.025 302.393 124.025C302.393 124.025 304.854 123.491 304.501 124.429C304.291 124.984 304.291 125.597 304.501 126.152L305.51 125.749C305.235 124.304 305.235 122.82 305.51 121.375C306.004 119.51 302.05 117.545 301.566 114.149C301.082 110.752 303.18 109.815 303.18 109.815Z" fill="#F1AB87"/>
<path d="M263.346 104.292C262.115 98.9912 267.38 97.1065 274.723 98.0136C283.226 99.0214 300.696 101.289 304.499 110.49C304.499 110.49 305.74 114.129 302.532 115.872C293.555 120.75 265.656 114.27 263.346 104.292Z" fill="#D4142C"/>
<path d="M289.955 100.745C289.955 100.745 279.818 96.5425 274.775 96.1092C269.731 95.6758 281.754 100.14 289.955 100.745Z" fill="#980F27"/>
<path d="M365.957 9.5773C365.139 10.925 364.463 12.3537 363.939 13.8404C363.405 16.6824 363.092 18.2647 362.094 19.5648C361.095 20.8649 361.63 23.1829 361.63 23.1829C361.63 23.1829 357.756 25.1985 354.498 22.7092C354.675 21.7396 354.675 20.7461 354.498 19.7765C353.833 18.4864 351.684 17.7608 350.948 15.1808C350.264 13.1886 349.274 11.3151 348.013 9.6277C348.013 9.6277 348.648 8.27721 349.788 9.10363C350.928 9.93004 351.684 12.0364 352.31 12.248C352.434 12.2883 352.563 12.3154 352.693 12.3287C352.916 12.3823 353.149 12.3858 353.374 12.3387C353.599 12.2916 353.811 12.1953 353.994 12.0565C354.022 12.0384 354.047 12.0144 354.065 11.986C355.124 10.7665 355.366 7.17869 355.325 5.57625C355.255 3.33889 355.325 0.254954 356.707 0.779021C358.089 1.30309 356.818 2.54271 357.877 7.46088L358.382 7.53143C358.483 7.87408 359.39 4.50796 359.643 1.40387C359.794 -0.752868 361.216 0.0433113 361.519 0.72863C361.821 1.41395 361.357 3.55053 361.266 5.11265C361.196 6.12048 361.105 7.219 361.055 7.85393L361.65 8.18651C363.798 4.44749 363.062 2.89545 364.323 2.8249C365.584 2.75435 365.12 5.89875 364.444 7.09806C364.08 7.95538 363.816 8.85146 363.657 9.76879C365.856 7.22908 365.614 5.89875 366.622 6.06001C367.631 6.22126 366.733 8.75089 365.967 9.61762L365.957 9.5773Z" fill="#F5AB87"/>
<path d="M356.446 15.4328C355.71 13.4172 353.047 12.4094 352.714 12.3388C352.935 12.388 353.164 12.3882 353.386 12.3395C353.607 12.2907 353.815 12.1942 353.995 12.0566C354.703 12.311 355.316 12.7736 355.756 13.3835C356.195 13.9934 356.439 14.7219 356.456 15.4732L356.446 15.4328Z" fill="#CD876E"/>
<path d="M310.259 287.192C310.259 287.192 308.786 284.168 310.097 282.899C311.409 281.629 312.952 284.007 315.141 283.473C317.33 282.939 317.904 281.347 318.489 283.473C319.074 285.6 318.358 292.463 310.208 287.152L310.259 287.192Z" fill="#D2D8D5"/>
<path d="M318.691 287.05C318.691 287.05 312.639 289.177 309.553 287.05L310.35 289.651C310.35 289.651 316.886 290.346 317.793 288.693L318.691 287.05Z" fill="#ACB9B5"/>
<path d="M318.61 290.286C318.61 290.286 313.102 289.52 310.439 290.881V292.171C310.439 292.171 317.621 290.498 319.951 292.171L318.61 290.286Z" fill="#ACB9B5"/>
<path d="M310.177 294.851C310.589 294.029 311.219 293.335 311.997 292.845C312.776 292.354 313.674 292.086 314.595 292.07C316.602 291.957 318.587 292.541 320.213 293.722C320.213 293.722 314.897 291.535 310.177 294.851Z" fill="#ACB9B5"/>
<path d="M452.016 258.701C445.885 267.026 437.056 272.97 427.032 275.522C422.856 272.186 422.745 268.235 422.745 268.235C422.745 268.235 418.71 264.647 418.186 262.924C417.661 261.2 421.645 256.02 424.036 256.544C424.684 256.721 425.287 257.032 425.808 257.455C426.329 257.879 426.756 258.406 427.062 259.003C425.045 254.549 426.669 252.956 429.483 253.38C432.297 253.803 429.644 254.468 431.732 256.816C431.883 256.979 432.052 257.125 432.236 257.25C432.648 257.523 433.111 257.708 433.598 257.794C434.091 257.874 434.592 257.898 435.091 257.864C435.378 257.852 435.664 257.825 435.948 257.784C436.512 257.689 437.068 257.554 437.612 257.381C438.544 257.078 439.446 256.69 440.306 256.222C443.967 254.206 445.5 253.541 448.294 254.206C451.088 254.871 451.028 257.008 451.028 257.008L452.036 258.651L452.016 258.701Z" fill="#D2D8D5"/>
<path d="M452.016 258.701C445.885 267.026 437.056 272.97 427.031 275.521C434.384 272.367 441.153 268.235 445.752 263.145C450.352 258.056 452.016 258.701 452.016 258.701Z" fill="#ACB9B5"/>
<path d="M432.247 257.249C432.658 257.523 433.122 257.708 433.609 257.793C432.846 257.906 432.141 258.261 431.596 258.806C431.051 259.35 430.696 260.055 430.583 260.817L429.393 260.434C429.373 259.64 429.654 258.868 430.18 258.272C430.705 257.676 431.436 257.3 432.227 257.219L432.247 257.249Z" fill="#ACB9B5"/>
<path d="M434.123 261.15H432.882C432.675 260.572 432.633 259.948 432.761 259.348C432.89 258.748 433.183 258.196 433.608 257.753C434.102 257.834 434.603 257.858 435.101 257.824C434.67 258.242 434.351 258.763 434.175 259.337C433.999 259.912 433.97 260.521 434.093 261.109L434.123 261.15Z" fill="#ACB9B5"/>
<path d="M437.199 260.464L435.968 260.626C435.762 260.18 435.655 259.695 435.655 259.205C435.655 258.714 435.762 258.229 435.968 257.784C436.532 257.689 437.088 257.554 437.632 257.38C437.335 257.83 437.143 258.34 437.07 258.874C436.996 259.408 437.044 259.951 437.209 260.464H437.199Z" fill="#ACB9B5"/>
<path d="M318.803 129.448C318.803 129.448 321.536 144.172 316.009 150.037C310.482 155.903 314.143 151.045 315.787 143.527C317.431 136.008 316.18 127.986 318.813 129.417L318.803 129.448Z" fill="#D4142C"/>
<path d="M344.282 122.917C344.282 122.917 352.987 125.779 357.546 133.812C357.546 133.812 351.494 120.71 344.282 122.917Z" fill="#D4142C"/>
<path d="M118.21 13.4876C119.762 13.7845 121.28 14.2404 122.739 14.8481C125.2 16.3599 126.582 17.1863 128.216 17.3274C129.85 17.4685 130.525 20.2803 130.525 20.2803C130.525 20.2803 136.961 21.6812 137.324 17.6297C137.324 17.6297 133.723 12.5402 133.471 11.8448C132.956 10.4843 133.894 8.42832 132.462 6.13049C131.444 4.28756 130.716 2.29902 130.304 0.234732C130.304 0.234732 128.871 -0.218788 128.71 1.24255C128.548 2.7039 129.618 4.60868 129.355 5.27384C129.308 5.39319 129.243 5.50517 129.164 5.60642C129.045 5.79744 128.886 5.96036 128.698 6.08391C128.51 6.20746 128.297 6.28869 128.074 6.32197H127.974C126.36 6.32197 123.535 4.0443 122.375 2.93569C120.762 1.39373 118.421 -0.611838 117.897 0.748721C117.372 2.10928 119.097 1.97826 122.002 6.00955L121.71 6.43284C121.901 6.73518 118.805 5.19321 116.323 3.24812C114.619 1.91779 114.306 3.50007 114.558 4.18539C114.81 4.87071 116.798 6.00955 118.028 7.01737L120.197 8.70043L120.045 9.35552C115.829 8.4384 115.174 6.85612 114.276 7.73293C113.378 8.60973 116.021 10.3936 117.362 10.7564C118.247 11.0533 119.091 11.4596 119.874 11.9658C116.505 11.8851 115.688 10.8169 115.133 11.6735C114.579 12.5302 117.05 13.5481 118.159 13.5682L118.21 13.4876Z" fill="#F1AB87"/>
<path d="M128.932 10.3834C127.923 8.44842 129.002 5.85832 129.143 5.5459C129.025 5.73691 128.866 5.89984 128.678 6.02339C128.489 6.14694 128.277 6.22817 128.054 6.26145C127.769 6.95703 127.7 7.72242 127.856 8.45774C128.013 9.19306 128.388 9.86415 128.932 10.3834Z" fill="#CD876E"/>
<path d="M307.707 13.4876C306.155 13.7845 304.637 14.2404 303.178 14.8481C300.717 16.3599 299.335 17.1863 297.701 17.3274C296.067 17.4685 295.401 20.2803 295.401 20.2803C295.401 20.2803 288.956 21.6812 288.593 17.6297C288.593 17.6297 292.194 12.5402 292.446 11.8448C292.96 10.4843 292.032 8.42832 293.455 6.13049C294.473 4.28756 295.201 2.29902 295.613 0.234732C295.613 0.234732 297.045 -0.218788 297.207 1.24255C297.368 2.7039 296.299 4.60868 296.561 5.27384C296.613 5.39126 296.677 5.50277 296.753 5.60642C296.872 5.79744 297.031 5.96036 297.219 6.08391C297.407 6.20746 297.62 6.28869 297.842 6.32197H297.943C299.557 6.32197 302.381 4.0443 303.541 2.93569C305.155 1.39373 307.495 -0.611838 308.03 0.748721C308.564 2.10928 306.819 1.97826 303.874 6.00955L304.167 6.43284C303.975 6.73518 307.071 5.19321 309.553 3.24812C311.257 1.91779 311.621 3.50007 311.318 4.18539C311.015 4.87071 309.119 6.00955 307.888 7.01737L305.72 8.70043L305.871 9.35552C310.087 8.4384 310.743 6.85612 311.641 7.73293C312.538 8.60973 309.896 10.3936 308.554 10.7564C307.671 11.0552 306.827 11.4614 306.043 11.9658C309.412 11.8851 310.229 10.8169 310.793 11.6735C311.358 12.5302 308.867 13.5481 307.707 13.5682V13.4876Z" fill="#F5AB87"/>
<path d="M296.985 10.3834C297.994 8.44842 296.915 5.85832 296.773 5.5459C296.892 5.73691 297.051 5.89984 297.239 6.02339C297.427 6.14694 297.64 6.22817 297.863 6.26145C298.148 6.95703 298.217 7.72242 298.061 8.45774C297.904 9.19306 297.529 9.86415 296.985 10.3834Z" fill="#CD876E"/>
<path d="M251.11 208.582L238.744 131.987L213.961 134.759L189.179 131.987L176.812 208.582L170.861 282.818C170.861 282.818 172.758 288.975 185.114 284.722C185.114 284.722 194.282 215.858 195.705 214.346C197.127 212.835 211.682 167.855 211.682 167.855H216.231C216.231 167.855 230.796 212.824 232.208 214.346C233.62 215.868 242.799 284.722 242.799 284.722C255.155 288.975 257.051 282.818 257.051 282.818L251.11 208.582Z" fill="#0E1D2A"/>
<path d="M206.155 57.8821C207.718 59.4039 215.415 62.1552 219.479 57.8821L222.243 60.5931C222.243 60.5931 219.096 67.9804 213.579 68.2324C208.061 68.4844 204.077 61.6614 204.077 61.6614L206.155 57.8821Z" fill="#0C224E"/>
<path d="M227.962 57.0556C237.171 53.0848 266.947 42.5531 266.947 42.5531C266.947 42.5531 286.958 17.4986 291.044 13.7798C291.044 13.7798 295.472 14.576 296.773 20.0887C296.773 20.0887 283.882 47.6627 276.872 55.554C269.862 63.4452 234.387 80.5177 234.387 80.5177L227.962 57.0556Z" fill="#0C224E"/>
<path d="M195.706 56.4814C198.439 54.7479 212.207 63.9493 212.207 63.9493C212.207 63.9493 230.101 54.4556 234.307 56.3C234.307 56.3 238.09 61.3391 239.613 74.3601C241.136 87.3812 241.226 140.876 241.226 140.876C232.067 143.738 222.52 145.172 212.923 145.129C194.374 145.129 184.388 139.808 184.388 139.808C184.388 139.808 181.08 65.6928 195.706 56.4511V56.4814Z" fill="#FDAD5B"/>
<path d="M206.881 55.0903C206.881 55.0903 208.898 61.3187 206.881 63.7173C206.881 63.7173 208.898 68.0408 212.64 68.2223C216.907 68.444 218.39 63.7173 218.39 63.7173C218.39 63.7173 216.13 57.6704 218.39 55.5942L206.881 55.0903Z" fill="#CD876E"/>
<path d="M201.94 48.9627C201.94 48.9627 197.764 40.9002 198.591 32.3639C199.418 23.8277 212.349 21.8322 221.054 26.0449C221.054 26.0449 218.472 23.5152 219.48 22.8098C220.489 22.1043 222.244 26.5992 222.244 26.5992C222.244 26.5992 224.988 25.7627 225.411 26.5992C225.835 27.4357 222.597 27.9093 222.597 27.9093C222.597 27.9093 228.215 31.0235 222.96 47.6022L201.94 48.9627Z" fill="#7E1923"/>
<path d="M201.313 43.8835C201.313 43.8835 198.196 40.7794 197.813 44.4075C197.379 48.6102 201.192 50.2932 201.938 48.9629C202.684 47.6326 201.313 43.9238 201.313 43.9238V43.8835Z" fill="#CE876E"/>
<path d="M223.09 44.1053C223.09 44.1053 226.197 41.0012 226.58 44.6192C227.024 48.8219 223.211 50.515 222.465 49.1847C221.718 47.8544 223.09 44.1456 223.09 44.1456V44.1053Z" fill="#CE876E"/>
<path d="M211.875 59.092C204.975 59.092 201.082 54.587 201.082 41.0822C201.082 34.1181 204.622 29.845 212.359 29.845C220.095 29.845 223.343 34.1181 223.343 41.0822C223.343 55.5948 219.006 59.092 211.875 59.092Z" fill="#F5AB87"/>
<path d="M217.896 38.8949C217.801 38.8925 217.71 38.8527 217.644 38.7841C216.916 38.13 215.97 37.7707 214.991 37.7763C214.946 37.7776 214.901 37.7701 214.859 37.7541C214.817 37.7381 214.779 37.7139 214.746 37.6831C214.713 37.6522 214.687 37.6151 214.668 37.5741C214.65 37.533 214.64 37.4887 214.638 37.4437C214.636 37.3983 214.642 37.3529 214.658 37.3102C214.673 37.2675 214.697 37.2284 214.728 37.1954C214.76 37.1623 214.797 37.136 214.839 37.118C214.881 37.1001 214.926 37.0909 214.971 37.0909C216.141 37.0628 217.277 37.4808 218.148 38.26C218.213 38.3242 218.248 38.4112 218.248 38.5019C218.248 38.5926 218.213 38.6795 218.148 38.7438C218.117 38.7761 218.079 38.8017 218.038 38.819C217.996 38.8363 217.951 38.845 217.906 38.8445L217.896 38.8949Z" fill="#7E1923"/>
<path d="M204.905 38.8948C204.838 38.8923 204.774 38.8709 204.719 38.8332C204.664 38.7956 204.621 38.7431 204.594 38.682C204.568 38.6208 204.559 38.5535 204.57 38.4877C204.58 38.422 204.609 38.3604 204.653 38.3103C205.524 37.5311 206.661 37.1131 207.83 37.1412C207.875 37.1411 207.92 37.1504 207.962 37.1683C208.004 37.1863 208.041 37.2126 208.073 37.2457C208.104 37.2787 208.128 37.3178 208.143 37.3605C208.159 37.4032 208.165 37.4486 208.163 37.494C208.161 37.539 208.151 37.5833 208.133 37.6244C208.114 37.6654 208.088 37.7025 208.055 37.7334C208.022 37.7642 207.984 37.7884 207.942 37.8044C207.9 37.8203 207.855 37.8279 207.81 37.8265C206.832 37.8304 205.89 38.1885 205.157 38.8344C205.091 38.903 205 38.9428 204.905 38.9452V38.8948Z" fill="#7E1923"/>
<path d="M217.301 42.5533C217.301 43.4099 216.918 44.1053 216.444 44.1053C215.97 44.1053 215.576 43.4099 215.576 42.5533C215.576 41.6966 215.959 41.0012 216.444 41.0012C216.928 41.0012 217.301 41.6966 217.301 42.5533Z" fill="#121115"/>
<path d="M208.081 42.5533C208.081 43.4099 207.698 44.1053 207.224 44.1053C206.75 44.1053 206.366 43.4099 206.366 42.5533C206.366 41.6966 206.75 41.0012 207.224 41.0012C207.698 41.0012 208.081 41.6966 208.081 42.5533Z" fill="#121115"/>
<path d="M208.08 51.7142C208.08 51.7142 214.132 52.4902 217.299 50.9885C217.299 50.9885 215.534 55.1307 212.256 54.7578C211.351 54.6996 210.482 54.3841 209.751 53.8483C209.02 53.3126 208.458 52.579 208.131 51.7343L208.08 51.7142Z" fill="#152A34"/>
<path d="M222.617 45.6273C222.617 45.6273 222.405 38.1291 219.48 32.3643C219.48 32.3643 214.335 34.7428 213.196 34.1885C212.056 33.6342 214.275 32.3643 214.275 32.3643C214.275 32.3643 205.782 35.1661 205.268 34.6118C204.753 34.0575 208.082 32.3643 208.082 32.3643L202.796 34.2288C202.796 34.2288 201.162 40.9711 201.838 45.6676C201.838 45.6676 199.559 41.7471 199.276 39.0361C198.994 36.3251 200.184 28.6051 208.162 28.0508C216.141 27.4965 220.619 29.2905 222.596 32.9489C224.573 36.6073 224.321 41.1122 222.596 45.6676L222.617 45.6273Z" fill="#7E1923"/>
<path d="M220.709 59.8578C220.709 59.8578 233.196 98.5985 234.386 130.113C234.386 130.113 238.895 131.353 243.969 124.449C249.042 117.546 245.986 62.841 236.303 53.7303C236.303 53.7303 231.895 52.7225 220.709 59.8578Z" fill="#1A3782"/>
<path d="M222.747 66.6301C222.747 66.6301 224.976 61.4398 223.987 57.8822C222.999 54.3246 219.479 57.8822 219.479 57.8822C219.479 57.8822 220.901 63.7074 222.747 66.6301Z" fill="#0C224E"/>
<path d="M197.653 57.0554C188.434 53.0846 158.658 42.5528 158.658 42.5528C158.658 42.5528 138.626 16.7627 134.541 13.064C133.019 14.0037 131.739 15.2861 130.802 16.8085C129.865 18.3309 129.297 20.0513 129.145 21.832C129.145 21.832 141.753 47.6826 148.763 55.5739C155.773 63.4651 191.248 80.5376 191.248 80.5376L197.653 57.0554Z" fill="#0C224E"/>
<path d="M204.923 59.8578C204.923 59.8578 192.436 98.5985 191.246 130.113C191.246 130.113 186.737 131.353 181.664 124.449C176.59 117.546 179.646 62.841 189.329 53.7303C189.329 53.7303 193.737 52.7225 204.923 59.8578Z" fill="#1A3782"/>
<path d="M202.888 66.6301C202.888 66.6301 200.679 61.4398 201.688 57.8822C202.696 54.3246 206.196 57.8822 206.196 57.8822C206.196 57.8822 204.774 63.7074 202.928 66.6301H202.888Z" fill="#0C224E"/>
<path d="M268.065 302.763H243.262C241.537 292.916 244.271 283.06 244.271 283.06L255.639 281.145C256.647 287.363 257.908 289.822 259.673 291.082C260.924 291.999 262.427 292.301 264.303 292.946C265.168 293.211 265.962 293.669 266.624 294.285C267.287 294.902 267.8 295.66 268.126 296.504C268.768 298.551 268.768 300.746 268.126 302.793L268.065 302.763Z" fill="#53141D"/>
<path d="M268.096 296.474C261.984 297.24 248.548 298.55 249.375 295.012C250.051 292.06 255.72 291.253 259.634 291.052C260.884 291.969 262.387 292.271 264.263 292.916C265.129 293.181 265.922 293.639 266.585 294.255C267.247 294.871 267.76 295.63 268.086 296.474H268.096Z" fill="#7E1923"/>
<path d="M185.012 302.763H160.219C159.744 301.221 159.6 299.597 159.796 297.996C159.938 296.839 160.411 295.748 161.159 294.854C161.907 293.96 162.898 293.301 164.012 292.957C166.16 292.211 167.815 291.949 169.166 290.669C170.518 289.389 171.728 286.738 172.646 281.155L183.983 283.1C183.983 283.1 186.737 292.957 184.992 302.803L185.012 302.763Z" fill="#53141D"/>
<path d="M159.798 297.996C159.94 296.839 160.414 295.748 161.162 294.854C161.91 293.96 162.9 293.301 164.014 292.957C166.162 292.211 167.817 291.949 169.168 290.669C172.305 291.677 176.693 293.41 178.055 296.101C179.951 299.79 165.456 299.205 159.798 298.036V297.996Z" fill="#7E1923"/>
<path d="M363.073 300.989C363.076 301.582 363.039 302.174 362.962 302.763H332.813C332.813 302.168 332.813 301.573 332.813 300.989C333.086 295.982 334.04 291.035 335.648 286.285L343.172 283.06C343.548 286.186 345.13 289.042 347.58 291.021C348.121 291.442 348.698 291.813 349.305 292.13C349.588 292.281 349.86 292.412 350.142 292.543C350.768 292.823 351.412 293.062 352.069 293.259C354.443 293.867 356.861 294.289 359.301 294.518C362.519 295.022 363.003 298.731 363.003 300.989H363.073Z" fill="#112437"/>
<path d="M363.073 300.989C363.076 301.582 363.039 302.175 362.962 302.763H332.813C332.813 302.168 332.813 301.574 332.813 300.989H363.073Z" fill="#1C3949"/>
<path d="M349.346 292.13L345.17 293.471L344.282 291.939L347.621 291.021C348.161 291.442 348.739 291.813 349.346 292.13Z" fill="#1C3949"/>
<path d="M352.109 293.239L349.294 295.103L347.56 294.428L350.182 292.523C350.808 292.803 351.452 293.042 352.109 293.239Z" fill="#1C3949"/>
<path d="M247.943 300.989C247.903 301.591 247.791 302.187 247.61 302.763H227.538C227.292 302.191 227.103 301.597 226.973 300.989C224.956 291.394 238.33 279.653 238.33 279.653L242.567 285.297C242.567 285.297 242.073 294.368 245.663 296.212C246.494 296.672 247.16 297.379 247.569 298.236C247.977 299.092 248.108 300.055 247.943 300.989Z" fill="#112437"/>
<path d="M226.975 300.989H247.945C247.905 301.591 247.793 302.187 247.612 302.763H227.539C227.294 302.191 227.105 301.597 226.975 300.989Z" fill="#1C3949"/>
<path d="M244.747 295.486C244.747 295.486 236.294 293.561 232.441 296.061V294.66C232.441 294.66 239.502 291.213 244.747 295.486Z" fill="#1C3949"/>
<path d="M243.043 293.35C243.043 293.35 237.647 290.88 232.412 293.35L233.007 291.939C233.007 291.939 239.261 289.58 243.043 293.35Z" fill="#1C3949"/>
<path d="M353.995 215.697C353.995 223.76 346.834 289.5 346.834 289.5C342.519 289.93 338.163 289.689 333.923 288.784C331.956 255.466 331.764 226.813 331.764 226.813L297.419 201.084L297.339 201.023L296.976 202.646C295.271 210.194 288.079 241.79 285.073 249.006C281.664 257.25 244.344 291.919 244.344 291.919C237.414 290.961 231.523 285.942 231.523 285.942C244.929 263.77 263.195 241.467 263.195 241.467C264.618 233.475 265.636 215.677 266.221 202.374C266.221 202.172 266.221 201.961 266.221 201.759C266.625 192.749 266.827 185.946 266.827 185.946L260.533 173.046L300.536 158.382L309.503 169.851C309.503 169.851 311.52 171.756 314.788 174.79L315.232 175.203C327.245 186.521 353.995 212.079 353.995 215.697Z" fill="#90B9CD"/>
<path d="M266.242 202.394C266.242 202.192 266.242 201.98 266.242 201.779C274.654 197.213 273.242 189.917 273.221 189.846L273.746 189.735C273.746 189.816 275.279 197.647 266.201 202.394H266.242Z" fill="#5C869B"/>
<path d="M296.763 195.934C297.072 197.636 297.277 199.356 297.378 201.084L297.298 201.023L296.935 202.646C296.561 190.159 291.407 182.771 291.347 182.681L291.78 182.378C294.23 186.339 295.888 190.737 296.662 195.329C302.714 189.927 296.783 178.871 296.723 178.76L297.187 178.508C297.257 178.629 303.562 190.34 296.763 195.934Z" fill="#5C869B"/>
<path d="M315.232 175.203C314.968 175.302 314.687 175.35 314.405 175.344C311.46 175.344 306.517 171.222 306.275 171.02L306.628 170.617C308.232 171.978 312.68 175.243 314.829 174.769L315.273 175.182L315.232 175.203Z" fill="#5C869B"/>
<path d="M263.347 104.292C263.347 104.292 275.511 102.337 281.614 106.227C287.716 110.118 295.735 120.236 295.735 120.236C295.735 120.236 286.233 121.496 285.164 127.936C285.164 127.936 278.255 111.518 263.377 104.292H263.347Z" fill="#ACB9B5"/>
<path d="M245.059 110.632C239.915 113.413 231.311 123.854 230.938 130.264C230.565 136.674 235.205 142.287 238.332 147.175C248.096 162.454 258.374 175.949 262.741 193.858C262.741 193.968 285.073 202.817 311.248 171.373C311.248 171.373 296.451 151.499 291.347 134.567C289.269 127.674 287.151 120.357 283.157 114.29C281.059 111.005 278.116 108.344 274.637 106.586C271.157 104.827 267.268 104.035 263.377 104.292C256.75 104.837 250.143 107.9 245.08 110.632H245.059Z" fill="#D2D8D5"/>
<path d="M242.892 104.232C242.892 104.232 246.18 109.845 244.657 112.939C244.657 112.939 255.954 116.83 255.954 110.521C255.954 110.521 253.825 105.784 254.622 102.73L242.892 104.232Z" fill="#CC876E"/>
<path d="M267.825 146.258C266.424 147.081 265.092 148.014 263.84 149.05C262.547 148.352 261.301 147.571 260.108 146.712C261.136 146.9 262.173 147.034 263.215 147.115C264.317 147.239 265.432 147.157 266.503 146.873C266.956 146.696 267.398 146.49 267.825 146.258Z" fill="#E6A07E"/>
<path d="M272.343 145.311L269.156 145.522L272.182 145.674L270.023 150.128L268.006 153.887H257.163C257.163 153.887 258.575 148.909 260.189 146.681C261.381 147.541 262.628 148.322 263.921 149.02C265.172 147.984 266.505 147.051 267.905 146.228C267.478 146.457 267.037 146.659 266.584 146.833C265.489 147.137 264.345 147.229 263.215 147.105C262.173 147.024 261.136 146.89 260.108 146.702C260.696 146.033 261.409 145.486 262.206 145.089C264.047 144.112 265.984 143.328 267.986 142.751L270.881 144.343L271.153 144.495L272.424 145.2L272.343 145.311Z" fill="#F5AB87"/>
<path d="M257.596 97.9632C257.596 97.9632 262.014 96.1188 259.16 82.8458C257.263 74.0677 254.54 72.7676 252.785 72.6769C252.785 72.6769 250.626 69.4418 243.162 70.9939C240.58 71.4377 238.176 72.6041 236.23 74.3575C234.284 76.111 232.875 78.3798 232.168 80.9007C230.292 86.9477 234.044 99.747 238.986 101.057L257.596 97.9833V97.9632Z" fill="#112437"/>
<path d="M258.647 89.0036C258.647 89.0036 261.421 85.1437 262.47 89.0036C263.69 93.4179 259.908 95.8971 258.869 94.5971C257.83 93.297 258.647 89.054 258.647 89.054V89.0036Z" fill="#CC876E"/>
<path d="M235.387 93.0753C235.387 93.0753 231.514 90.3138 231.736 94.2544C232.008 98.8299 236.396 99.9688 236.951 98.4066C237.505 96.8445 235.387 93.0753 235.387 93.0753Z" fill="#CC876E"/>
<path d="M250.032 107.144C257.415 105.925 260.784 100.422 258.394 85.9802C257.163 78.5223 252.614 74.5817 244.353 75.902C236.092 77.2222 233.349 82.4125 234.579 89.8704C237.151 105.391 242.406 108.364 250.032 107.114V107.144Z" fill="#F1AB87"/>
<path d="M237.877 94.6981C237.794 95.056 237.824 95.4309 237.963 95.7712C238.101 96.1114 238.343 96.4001 238.653 96.5975C238.963 96.7948 239.327 96.891 239.694 96.8728C240.062 96.8545 240.414 96.7228 240.703 96.4957C240.993 96.2686 241.204 95.9573 241.308 95.605C241.413 95.2527 241.405 94.8766 241.287 94.5288C241.168 94.181 240.944 93.8786 240.646 93.6634C240.348 93.4482 239.99 93.3308 239.622 93.3275C239.21 93.2818 238.796 93.3999 238.469 93.6562C238.143 93.9126 237.93 94.2867 237.877 94.6981Z" fill="#E23C2B"/>
<path d="M253.129 92.5512C253.132 92.9186 253.25 93.2759 253.465 93.5738C253.68 93.8716 253.983 94.0953 254.331 94.2139C254.679 94.3325 255.056 94.3401 255.408 94.2357C255.761 94.1313 256.072 93.9201 256.3 93.6312C256.527 93.3423 256.659 92.9901 256.677 92.6231C256.695 92.256 256.599 91.8924 256.401 91.5824C256.204 91.2725 255.915 91.0314 255.574 90.8926C255.234 90.7538 254.859 90.7241 254.501 90.8076C254.089 90.8606 253.714 91.073 253.458 91.3991C253.201 91.7252 253.083 92.1389 253.129 92.5512Z" fill="#E23C2B"/>
<path d="M239.957 86.6351C239.882 86.6339 239.809 86.6131 239.745 86.5746C239.663 86.5175 239.607 86.4309 239.588 86.333C239.569 86.2352 239.589 86.1339 239.644 86.0506C240.443 85.0654 241.585 84.4176 242.841 84.2365C242.94 84.2249 243.039 84.2521 243.118 84.3122C243.197 84.3724 243.25 84.4609 243.265 84.559C243.274 84.6571 243.246 84.7551 243.186 84.8335C243.126 84.9119 243.039 84.965 242.942 84.9823C241.898 85.1347 240.947 85.6656 240.269 86.4738C240.235 86.525 240.189 86.5666 240.134 86.5948C240.079 86.623 240.018 86.6369 239.957 86.6351Z" fill="#152A34"/>
<path d="M253.853 84.3074C253.813 84.3095 253.772 84.3035 253.734 84.2896C253.696 84.2758 253.661 84.2544 253.632 84.2268C252.725 83.6779 251.648 83.4807 250.606 83.6725C250.557 83.6842 250.507 83.6859 250.458 83.6774C250.408 83.6688 250.362 83.6503 250.32 83.6229C250.278 83.5954 250.243 83.5597 250.216 83.518C250.188 83.4763 250.17 83.4293 250.162 83.3802C250.144 83.2829 250.164 83.1823 250.219 83.0996C250.273 83.0169 250.358 82.9586 250.454 82.9368C251.699 82.7088 252.985 82.9571 254.055 83.6322C254.095 83.6611 254.129 83.6977 254.155 83.7398C254.18 83.7819 254.197 83.8286 254.205 83.8774C254.212 83.9261 254.21 83.9759 254.198 84.0237C254.187 84.0716 254.165 84.1166 254.136 84.1562C254.1 84.2029 254.055 84.2408 254.002 84.267C253.95 84.2932 253.892 84.307 253.833 84.3074H253.853Z" fill="#152A34"/>
<path d="M241.298 90.4047C241.449 91.3218 241.994 91.9971 242.498 91.9063C243.002 91.8156 243.295 91.0094 243.144 90.0923C242.992 89.1751 242.458 88.51 241.953 88.5906C241.449 88.6712 241.147 89.4876 241.298 90.4047Z" fill="#152A34"/>
<path d="M251.162 88.7721C251.313 89.6893 251.848 90.3645 252.352 90.2839C252.856 90.2032 253.159 89.3869 253.008 88.4698C252.856 87.5527 252.322 86.8774 251.807 86.9681C251.293 87.0588 251.011 87.8651 251.162 88.7721Z" fill="#152A34"/>
<path d="M253.924 97.0968C253.924 97.0968 247.519 98.8101 243.969 98.1046C243.969 98.1046 246.43 101.199 249.93 100.302C253.43 99.4047 253.965 97.0767 253.965 97.0767L253.924 97.0968Z" fill="#152A34"/>
<path d="M254.229 79.2681C254.229 79.2681 245.897 85.315 235.437 85.7484L235.74 95.0506C235.74 95.0506 225.986 77.1114 245.272 73.8863C264.557 70.6613 258.939 90.7573 258.939 90.7573C258.939 90.7573 258.334 82.1102 254.229 79.2278V79.2681Z" fill="#0E1D2A"/>
<path d="M258.747 79.2884C244.736 73.2415 231.513 85.809 231.513 85.809C231.513 85.809 229.98 75.5998 232.673 73.2112C233.371 72.5866 234.12 72.0204 234.912 71.5181C241.095 67.6178 249.326 67.6985 253.068 69.0389C253.705 69.2412 254.288 69.5859 254.772 70.0467C257.012 72.3546 258.706 79.3186 258.706 79.3186L258.747 79.2884Z" fill="#D4142C"/>
<path d="M257.051 77.0108C249.123 75.8524 241.042 77.6032 234.306 81.9391C234.306 81.9391 233.6 75.358 234.911 71.5384C241.094 67.6381 249.325 67.7187 253.067 69.0591C255.266 71.5585 257.011 77.0108 257.011 77.0108H257.051Z" fill="#D2D8D5"/>
<path d="M232.662 84.6196C232.662 84.6196 234.528 76.6981 237.05 74.4708C241.226 70.7621 252.977 69.4317 259.16 71.7195C265.343 74.0072 259.16 80.6891 259.16 80.6891C259.16 80.6891 249.315 73.6343 232.662 84.6196Z" fill="#980F27"/>
<path d="M272.344 145.311L269.157 145.523L272.183 145.674C276.651 145.865 280.867 145.936 284.408 145.855C280.494 151.902 273.312 161.527 266.917 162.988C261.955 164.147 243.98 152.255 243.98 152.255C243.98 152.255 247.571 139.617 250.849 137.198C251.781 138.569 252.813 139.869 253.936 141.088C254.319 141.511 254.733 141.955 255.187 142.419C255.883 143.134 256.669 143.87 257.527 144.626C258.384 145.382 259.191 146.006 260.119 146.641C261.311 147.5 262.558 148.282 263.851 148.979C265.102 147.944 266.435 147.01 267.835 146.188L267.966 146.117C268.249 145.966 268.521 145.805 268.804 145.633L269.096 145.462C269.732 145.099 270.417 144.747 271.113 144.394C276.14 141.865 281.731 140.665 287.353 140.907C287.353 140.907 286.697 142.096 285.558 143.93C281.372 144.525 276.843 144.978 272.344 145.311Z" fill="#F1AB87"/>
<path d="M233.128 123.733C237.526 116.568 247.683 127.16 251.143 134.718C254.602 142.277 257.164 143.879 257.164 143.879C257.164 143.879 247.017 148.112 247.078 155.711C247.078 155.711 223.556 139.354 233.158 123.733H233.128Z" fill="#ACB9B5"/>
<path d="M302.966 139.586C302.553 140.594 299.456 141.602 294.897 142.499C292.224 143.033 289.047 143.507 285.607 143.98C281.421 144.525 276.862 144.988 272.363 145.311L269.176 145.522H269.105C267.32 145.623 265.555 145.714 263.86 145.774C263.86 145.774 264.052 145.583 264.496 145.22C265.611 144.323 266.773 143.486 267.976 142.71C271.859 140.181 278.839 136.301 290.348 131.816L287.856 123.925L287.725 123.522C290.055 120.498 294.342 120.498 294.342 120.498C294.342 120.498 304.752 135.192 302.966 139.586Z" fill="#F5AB87"/>
<path d="M286.101 133.792C286.275 133.095 286.587 132.441 287.018 131.867C287.765 130.859 287.563 128.843 287.835 128.279C288.108 127.714 289.702 125.255 290.761 124.772C291.82 124.288 293.212 123.512 293.514 124.862C293.817 126.213 291.608 125.87 290.619 127.765C291.87 127.369 293.196 127.269 294.493 127.472C296.207 127.876 296.692 129.488 294.573 129.387C293.221 129.494 291.907 129.889 290.72 130.546C290.72 130.546 292.919 130.879 292.556 131.887C292.072 133.288 289.389 132.431 286.101 133.792Z" fill="#EAA07E"/>
<path d="M135.781 161.456C137.596 166.102 145.04 174.074 145.04 174.074C145.04 174.074 163.196 163.18 171.609 167.765C180.021 172.351 186.668 175.143 192.105 173.147C197.541 171.152 174.221 128.803 174.221 128.803L143.961 117.273C143.961 117.273 143.305 124.913 139.846 126.273C136.386 127.634 132.704 140.252 132.957 142.64C133.209 145.029 135.771 161.497 135.771 161.497L135.781 161.456Z" fill="#304759"/>
<path d="M169.812 174.316C169.812 174.316 162.015 189.584 145.907 209.146C145.907 209.146 144.262 232.407 101.687 269.011L97.2285 265.503C97.2285 265.503 122.586 225.826 127.65 213.651C132.713 201.477 124.846 190.38 148.226 159.602L169.812 174.316Z" fill="#CD876E"/>
<path d="M144.989 147.326C138.271 160.176 136.022 176.553 136.022 176.553L132.996 184.263C140.338 188.037 148.185 190.736 156.296 192.275L161.339 178.992L144.979 147.326H144.989Z" fill="#53141D"/>
<path d="M179.999 173.147C179.999 173.147 183.328 189.968 182.783 215.294C182.783 215.294 195.896 234.594 185.063 289.661H179.394C179.394 289.661 174.764 242.808 171.224 230.109C167.684 217.411 154.591 213.52 153.875 174.921L179.999 173.147Z" fill="#EFAB87"/>
<path d="M183.328 191.207C183.328 191.207 172.656 193.122 153.875 192.215L153.573 190.098L153.502 189.564L151.555 175.878C150.153 174.04 148.924 172.076 147.884 170.013C147.662 169.589 147.45 169.146 147.238 168.692C144.706 163.311 142.467 155.48 144.979 147.306L148.953 147.488H149.498L162.772 148.092H163.336L167.694 148.294H168.38L171.204 148.415C171.204 148.415 185.547 161.466 183.015 185.402L183.197 188.728V189.272L183.308 191.237L183.328 191.207Z" fill="#7E1923"/>
<path d="M149.499 147.538C149.125 148.637 146.624 156.75 147.885 170.033C147.663 169.609 147.451 169.166 147.239 168.712C146.291 156.568 148.47 149 148.954 147.548L149.045 147.276L149.549 147.447L149.499 147.578V147.538Z" fill="#53141D"/>
<path d="M183.217 189.242C179.445 190.25 173.04 190.471 166.958 190.471C161.511 190.471 156.326 190.25 153.573 190.119L153.502 189.584C158.273 189.816 170.841 190.3 178.95 189.423L178.426 180.867C178.438 172.397 176.447 164.044 172.616 156.488C165.243 155.147 163.205 149.685 162.772 148.143C162.711 147.901 162.681 147.75 162.681 147.74L163.195 147.659C163.232 147.833 163.279 148.005 163.336 148.173C163.975 150.161 165.151 151.933 166.736 153.294C168.32 154.655 170.251 155.551 172.313 155.883C170.985 153.256 169.44 150.745 167.694 148.375C167.462 148.062 167.311 147.881 167.3 147.871L167.704 147.528C167.704 147.528 167.976 147.851 168.38 148.415C170.841 151.761 179.172 164.349 178.961 180.847L179.475 189.353C180.73 189.226 181.974 189.007 183.197 188.698V189.242H183.217Z" fill="#53141D"/>
<path d="M156.055 89.6589C151.819 87.3308 121.327 99.2836 121.327 99.2836C121.327 99.2836 116.808 107.346 119.622 110.47C122.436 113.595 132.412 112.234 135.468 110.47C138.525 108.707 146.624 107.376 146.624 107.376L156.055 89.6589Z" fill="#90B9CD"/>
<path d="M183.026 64.3121C185.053 65.2387 186.863 66.5792 188.34 68.2473C189.816 69.9155 190.927 71.8742 191.6 73.9973C193.899 81.2435 187.01 99.606 189.391 108.042C191.771 116.477 191.408 132.421 183.964 135.787C176.52 139.153 161.34 133.126 158.042 123.925C154.743 114.723 156.175 79.8326 162.47 67.9604C168.764 56.0883 181.513 62.0748 183.026 64.3121Z" fill="#FA1C34"/>
<path d="M175.783 95.6052C177.447 97.3891 181.714 94.2044 181.714 94.2044C181.714 94.2044 181.623 110.027 177.024 111.237C172.424 112.446 160.693 98.7295 161.178 95.0509C161.662 91.3724 172.101 91.6344 175.783 95.6052Z" fill="#90B9CD"/>
<path d="M158.042 91.6741C161.818 94.5239 166.174 96.5122 170.802 97.4993C178.921 99.3839 183.319 95.5743 187.465 100.795C193.688 108.636 183.561 123.098 178.225 130.596C176.208 133.388 172.052 141.138 171.165 148.566C171.165 148.566 157.043 152.657 144.94 147.356L144.032 130.102C144.032 130.102 136.437 106.791 158.042 91.6741Z" fill="#0E1D2A"/>
<path d="M172.588 108.425C172.588 108.425 179.023 93.1157 180.889 92.1381C182.755 91.1606 187.466 93.5088 188.424 95.6051C189.382 97.7013 188.424 102.267 188.424 102.267C188.424 102.267 183.381 96.4819 172.588 108.425Z" fill="#90B9CD"/>
<path d="M203.391 173.147C200.466 179.123 193.304 180.846 193.304 180.846C193.304 180.846 192.76 180.02 191.842 178.528C191.751 178.377 191.64 178.216 191.549 178.045C185.901 168.894 168.643 139.626 168.986 124.398C169.05 119.116 170.168 113.9 172.274 109.055C174.38 104.209 177.432 99.8322 181.251 96.1792C187.303 97.6204 189.189 99.2631 189.189 99.2631C190.415 106.808 190.473 114.497 189.36 122.06C187.494 134.507 184.115 137.802 185.81 138.729C187.505 139.657 185.81 141.521 185.81 141.521C185.81 141.521 195.826 155.449 197.692 159.783L202.251 170.405C202.342 170.617 202.423 170.829 202.513 171.02C203.048 172.29 203.401 173.106 203.401 173.106L203.391 173.147Z" fill="#5C869B"/>
<path d="M186.012 99.3037C186.012 99.3037 178.851 104.605 182.986 112.718L202.837 133.257C191.943 144.857 190.864 149.624 182.986 154.976L186.012 159.602C186.012 159.602 213.609 138.437 213.649 133.257C213.649 131.05 196.795 104.343 186.012 99.3037Z" fill="#F1AB87"/>
<path d="M182.582 154.976C180.512 155.204 178.455 155.54 176.42 155.983C174.039 156.578 170.852 157.173 170.761 157.667C170.67 158.16 176.016 157.667 176.016 157.667C176.016 157.667 171.649 159.46 171.548 160.156C171.447 160.851 177.115 159.652 177.115 159.652C177.115 159.652 173.535 161.839 173.736 162.434C173.938 163.028 178.336 161.537 178.336 161.537C177.91 162.61 177.351 163.626 176.672 164.56C176.672 164.56 177.529 165.034 179.254 163.109C180.979 161.184 183.752 161.809 185.941 160.085C188.13 158.362 184.58 154.643 182.582 154.895V154.976Z" fill="#F1AB87"/>
<path d="M162.349 94.1936C162.349 94.1936 156.892 97.7109 153.453 106.207C150.013 114.703 139.15 130.707 136.608 134.839C134.066 138.971 135.831 161.456 135.831 161.456C135.831 161.456 132.644 147.82 131.222 142.509C129.8 137.197 135.801 124.076 136.709 123.36C137.617 122.644 142.216 123.945 141.329 118.613C140.441 113.282 152.757 90.3236 156.055 89.6584C156.055 89.6584 161.34 90.6663 162.299 94.1735L162.349 94.1936Z" fill="#5C869B"/>
<path d="M145.444 95.3428C145.347 95.5288 145.235 95.7073 145.111 95.8769C144.129 97.1357 142.934 98.2134 141.581 99.0617C141.581 99.0617 137.425 104.887 137.385 105.552C137.345 106.217 130.163 111.327 126.976 111.226C126.607 111.226 126.251 111.098 125.967 110.863C124.071 109.079 132.412 94.0931 134.248 90.8681C134.369 90.6564 134.46 90.4952 134.531 90.3944C134.551 90.3461 134.575 90.299 134.601 90.2533C134.601 90.2533 133.139 84.7909 139.261 85.8088C144.304 86.6453 145.313 90.6967 145.898 93.4078C145.987 94.0786 145.849 94.76 145.505 95.3428H145.444Z" fill="#5C869B"/>
<path d="M124.019 101.007C128.235 95.4737 143.032 84.7606 150.829 81.5859L152.786 85.204C152.786 85.204 137.717 98.4468 134.176 104.101C130.636 109.755 126.248 112.163 122.072 110.228C117.896 108.293 123.152 102.166 124.029 101.007H124.019Z" fill="#F1AB87"/>
<path d="M143.972 94.2039L143.175 95.121L142.772 95.5846L141.45 97.0963C141.45 97.0963 138.132 101.128 138.263 102.72C138.364 103.879 131.969 109.069 126.976 111.226C124.959 112.103 123.133 112.486 122.084 111.881C118.463 109.805 119.27 103.546 121.328 99.3035C123.113 95.6048 131.011 90.8378 133.038 89.6687L133.512 89.3865L134.269 86.4537C134.269 86.4537 137.022 84.8009 139.191 85.8188C139.191 85.8188 134.4 86.0204 135.156 87.8345C135.913 89.6485 142.59 94.1031 143.921 94.1636L143.972 94.2039Z" fill="#90B9CD"/>
<path d="M161.34 78.8752C156.518 80.8908 157.214 85.2043 152.796 85.2043C150.063 85.2043 149.71 82.0801 149.71 82.0801C150.885 79.0731 151.622 75.9133 151.899 72.6972C152.08 70.5304 152.796 71.3669 152.796 71.3669C152.796 71.1653 152.796 70.9839 152.796 70.7925C152.736 69.3311 152.464 68.2729 153.422 68.8978C154.38 69.5226 154.884 73.7151 154.884 73.7151C155.772 67.6682 154.451 66.8116 155.49 67.3457C156.912 68.0713 156.922 73.3926 156.922 73.5438C158.072 70.0467 157.769 68.0512 158.566 68.8474C159.363 69.6435 158.152 76.0734 157.678 78.4317C157.578 78.9558 157.497 79.2884 157.497 79.2884C161.34 77.4138 161.34 78.8752 161.34 78.8752Z" fill="#F1AB87"/>
<path d="M157.669 78.4317C157.569 78.9558 157.488 79.2884 157.488 79.2884C156.876 79.2888 156.275 79.4489 155.744 79.753C155.213 80.0571 154.771 80.4945 154.462 81.0218C154.593 80.2721 154.994 79.5959 155.587 79.1193C156.181 78.6427 156.929 78.3983 157.69 78.4317H157.669Z" fill="#CC876E"/>
<path d="M153.081 75.6905C153.081 75.1765 153.323 72.2538 152.809 71.3669C152.809 71.1654 152.809 70.984 152.809 70.7925C153.918 71.0243 153.212 75.0656 153.101 75.6905H153.081Z" fill="#CC876E"/>
<path d="M156.065 101.037C156.065 101.037 159.323 92.2185 160.332 90.2532C161.34 88.288 166.767 88.6205 170.842 89.3764C174.917 90.1323 175.764 95.6047 175.764 95.6047C175.764 95.6047 163.348 89.7493 156.045 101.037H156.065Z" fill="#90B9CD"/>
<path d="M177.025 83.6825C174.629 88.3922 173.319 93.5785 173.192 98.8602C173.192 98.8602 166.857 103.154 164.588 97.7718C166.131 92.385 166.554 86.7393 165.829 81.1831C165.052 74.8035 177.025 83.6825 177.025 83.6825Z" fill="#CC876E"/>
<path d="M164.588 73.6952C164.588 73.6952 163.428 69.5732 161.34 72.5261C158.959 75.8822 161.34 79.1475 162.661 78.3715C163.983 77.5955 164.568 73.7456 164.568 73.7456L164.588 73.6952Z" fill="#CC876E"/>
<path d="M182.997 84.3071C182.997 84.3071 187.132 83.1582 185.72 86.4235C184.086 90.2029 180.031 89.8199 180.031 88.3283C180.031 86.8367 182.997 84.297 182.997 84.297V84.3071Z" fill="#CC876E"/>
<path d="M166.273 91.6744C160.413 88.3788 159.213 82.6846 165.729 71.1954C169.067 65.2694 174.131 63.3344 180.707 67.0331C187.284 70.7318 188 75.9221 184.661 81.8481C177.701 94.204 172.335 95.101 166.273 91.6744Z" fill="#F1AB87"/>
<path d="M180.404 84.8618C180.361 85.19 180.217 85.4967 179.992 85.7391C179.766 85.9816 179.47 86.1478 179.146 86.2147C178.822 86.2815 178.484 86.2457 178.181 86.1121C177.878 85.9786 177.624 85.754 177.455 85.4696C177.285 85.1851 177.209 84.855 177.236 84.5251C177.263 84.1952 177.392 83.882 177.606 83.6289C177.819 83.3758 178.106 83.1954 178.427 83.113C178.748 83.0305 179.086 83.05 179.396 83.1687C179.749 83.2681 180.05 83.4991 180.238 83.8142C180.426 84.1292 180.485 84.5042 180.404 84.8618Z" fill="#E23C2B"/>
<path d="M168.158 78.3915C168.043 78.7002 167.834 78.9654 167.561 79.1505C167.288 79.3356 166.964 79.4314 166.634 79.4249C166.304 79.4183 165.985 79.3096 165.719 79.1138C165.454 78.9179 165.256 78.6446 165.152 78.3316C165.049 78.0185 165.046 77.6811 165.142 77.3659C165.239 77.0508 165.431 76.7734 165.693 76.572C165.954 76.3707 166.271 76.2553 166.601 76.2418C166.93 76.2283 167.256 76.3174 167.533 76.4968C167.865 76.6672 168.117 76.9615 168.234 77.316C168.351 77.6706 168.324 78.0569 168.158 78.3915Z" fill="#E23C2B"/>
<path d="M181.252 77.4341C181.176 77.4346 181.103 77.4102 181.042 77.3646C180.982 77.3191 180.939 77.2549 180.919 77.1822C180.595 76.291 179.957 75.5489 179.123 75.096C179.084 75.0758 179.049 75.048 179.021 75.0141C178.992 74.9803 178.971 74.9411 178.957 74.8989C178.944 74.8566 178.94 74.8122 178.944 74.7682C178.948 74.7242 178.961 74.6814 178.982 74.6425C179.002 74.6031 179.03 74.5682 179.064 74.5397C179.098 74.5113 179.137 74.4898 179.179 74.4767C179.222 74.4635 179.266 74.459 179.31 74.4632C179.354 74.4674 179.397 74.4804 179.436 74.5014C180.446 75.0363 181.211 75.9383 181.574 77.0209C181.596 77.1065 181.582 77.197 181.537 77.2726C181.491 77.3481 181.418 77.4026 181.332 77.4241L181.252 77.4341Z" fill="#152A34"/>
<path d="M173.193 71.7097C173.133 71.7231 173.071 71.7231 173.012 71.7097C172.194 71.2291 171.228 71.0676 170.298 71.2561C170.213 71.279 170.122 71.2689 170.043 71.2279C169.965 71.1868 169.904 71.1177 169.875 71.0344C169.849 70.9489 169.858 70.8568 169.899 70.7777C169.941 70.6987 170.012 70.6389 170.096 70.6111C171.213 70.3645 172.381 70.5519 173.365 71.1352C173.417 71.1823 173.453 71.2448 173.467 71.3136C173.482 71.3824 173.474 71.454 173.445 71.5182C173.416 71.5669 173.375 71.6074 173.325 71.6356C173.276 71.6638 173.22 71.6789 173.163 71.6794L173.193 71.7097Z" fill="#152A34"/>
<path d="M178.82 80.2157C178.407 80.9413 177.751 81.3545 177.348 81.1227C176.944 80.8909 176.944 80.1149 177.348 79.3892C177.751 78.6636 178.417 78.2605 178.82 78.4822C179.224 78.7039 179.224 79.49 178.82 80.2157Z" fill="#152A34"/>
<path d="M170.589 75.8112C170.185 76.5368 169.52 76.94 169.116 76.7182C168.713 76.4965 168.713 75.7104 169.116 74.9848C169.52 74.2591 170.185 73.8459 170.599 74.0777C171.012 74.3095 170.992 75.0856 170.599 75.8112H170.589Z" fill="#152A34"/>
<path d="M167.745 83.2791C167.745 83.2791 171.114 85.849 173.545 85.9296C173.545 85.9296 170.953 88.036 169.097 86.6653C168.569 86.291 168.16 85.7723 167.921 85.1716C167.681 84.5708 167.62 83.9136 167.745 83.2791Z" fill="#152A34"/>
<path d="M177.055 78.7441C177.055 78.7441 178.598 77.2525 179.233 77.7362C179.869 78.22 179.536 80.1046 179.536 80.1046H180.888L179.768 79.6511C179.768 79.6511 180.121 77.7463 179.425 77.3533C178.416 76.7889 177.055 78.6735 177.055 78.6735V78.7441Z" fill="#152A34"/>
<path d="M171.235 75.7609C171.235 75.7609 171.709 73.6646 170.933 73.3925C170.156 73.1204 168.754 74.4003 168.754 74.4003L168.018 73.2716L169.026 73.9871C169.026 73.9871 170.469 72.6971 171.175 73.0801C172.183 73.6344 171.276 75.8012 171.276 75.8012L171.235 75.7609Z" fill="#152A34"/>
<path d="M182.26 69.5022C181.99 69.1032 181.638 68.7669 181.227 68.516C180.815 68.2652 180.355 68.1056 179.877 68.0483C179.398 67.9909 178.913 68.0371 178.454 68.1836C177.995 68.3301 177.573 68.5736 177.217 68.8975C174.312 71.2155 167.765 74.9444 164.548 73.6947C161.33 72.445 171.608 58.7588 180.505 62.78C189.401 66.8012 188.625 79.913 184.913 84.0249C181.201 88.1368 182.956 84.3071 182.956 84.3071C183.137 81.005 183.667 77.7314 184.539 74.5413C184.752 74.0672 184.862 73.5539 184.864 73.0345C184.865 72.5152 184.757 72.0013 184.547 71.5263C184.337 71.0512 184.029 70.6256 183.644 70.2769C183.258 69.9282 182.804 69.6643 182.31 69.5022H182.26Z" fill="#FA1C34"/>
<path d="M215.354 132.441C215.001 137.591 202.242 154.371 200.113 154.965C199.526 155.149 198.971 155.425 198.469 155.782L197.814 156.286C197.04 156.916 196.327 157.618 195.685 158.382C191.963 158.14 181.514 153.343 184.873 152.244C185.112 152.163 185.336 152.044 185.538 151.892C185.692 151.794 185.837 151.682 185.972 151.559C189.936 148.243 197.632 134.789 197.683 133.771C197.733 132.753 199.054 132.441 199.054 132.441C199.054 132.441 191.792 121.788 187.586 120.498C183.38 119.208 181.241 114.129 181.241 114.129C177.086 96.542 189.18 99.3035 189.18 99.3035C198.086 104.605 215.707 127.281 215.405 132.441H215.354Z" fill="#90B9CD"/>
<path d="M198.469 155.782L197.813 156.286C193.424 155.858 189.209 154.348 185.548 151.892C185.702 151.794 185.847 151.682 185.982 151.559C189.714 154.019 194.019 155.474 198.479 155.782H198.469Z" fill="#304759"/>
<path d="M145.444 95.3425C145.346 95.5285 145.235 95.707 145.111 95.8766C144.324 95.8432 143.541 95.7455 142.771 95.5843C139.521 94.8533 136.545 93.2181 134.187 90.8677C133.753 90.4444 133.37 90.0413 133.037 89.6684L133.511 89.3862C133.784 89.6987 134.106 90.0413 134.52 90.3941C136.874 92.7944 139.89 94.4398 143.184 95.1207C143.933 95.2574 144.692 95.3315 145.454 95.3425H145.444Z" fill="#304759"/>
<path d="M202.503 171.061C201.402 173.028 199.87 174.722 198.023 176.015C196.175 177.308 194.058 178.167 191.832 178.529C191.741 178.378 191.63 178.216 191.539 178.045C193.793 177.701 195.934 176.834 197.793 175.515C199.651 174.195 201.174 172.459 202.241 170.446C202.332 170.658 202.412 170.869 202.503 171.061Z" fill="#304759"/>
<path d="M105.722 267.731C104.669 268.851 103.757 270.097 103.008 271.439C101.627 273.848 103.15 276.055 96.4622 281.618C96.4622 281.618 82.9663 273.727 76.874 263.578C76.9274 262.737 77.2504 261.934 77.7953 261.29C78.3403 260.646 79.0782 260.194 79.9 260.001C81.4836 259.638 85.841 261.674 89.9866 262.47C90.5817 262.571 91.1768 262.671 91.7619 262.712C92.4763 262.782 93.1959 262.782 93.9103 262.712C94.5342 262.655 95.1461 262.505 95.7259 262.268C96.511 261.934 97.2052 261.418 97.7508 260.763C98.2963 260.107 98.6775 259.331 98.8628 258.499C98.8628 258.499 102.444 260.515 100.053 263.992C100.053 263.992 104.3 262.137 105.641 267.741L105.722 267.731Z" fill="#D2D8D5"/>
<path d="M96.4622 281.619C96.4622 281.619 82.9663 273.727 76.874 263.579C76.874 263.579 79.1435 263.105 81.0095 266.461C82.8756 269.817 97.5617 277.466 96.4622 281.578V281.619Z" fill="#ACB9B5"/>
<path d="M96.5142 265.665C95.4248 267.398 95.445 264.194 93.9824 262.702C94.6063 262.645 95.2182 262.496 95.798 262.259C96.4435 262.964 97.3715 264.274 96.5041 265.665H96.5142Z" fill="#ACB9B5"/>
<path d="M92.2767 265.756C91.1167 266.854 90.7435 263.992 90.0576 262.47C90.6527 262.571 91.2478 262.672 91.8329 262.712C92.5187 263.629 93.1542 264.919 92.2767 265.736V265.756Z" fill="#ACB9B5"/>
<path d="M188.735 302.763H169.651C169.181 300.935 169.181 299.018 169.651 297.19C169.994 295.92 171.971 294.741 173.807 293.098C174.327 292.637 174.816 292.142 175.27 291.616C175.652 291.188 175.99 290.722 176.278 290.226C176.641 289.597 176.906 288.918 177.065 288.21C177.385 286.458 177.16 284.65 176.42 283.03C176.42 283.03 182.925 281.669 185.235 285.207C185.235 285.207 185.467 283.564 187.525 284.662C187.356 286.676 187.393 288.703 187.636 290.709C188.039 293.451 190.601 294.247 188.776 302.743L188.735 302.763Z" fill="#D2D8D5"/>
<path d="M183.773 291.284C183.693 291.373 183.595 291.445 183.486 291.493C183.376 291.542 183.257 291.567 183.138 291.566C182.933 291.568 182.734 291.5 182.573 291.375C181.687 290.689 180.649 290.227 179.546 290.027C178.443 289.827 177.309 289.895 176.238 290.226C176.601 289.598 176.866 288.918 177.025 288.21C178.296 287.746 180.697 287.464 183.672 289.994C183.763 290.069 183.839 290.161 183.894 290.266C183.948 290.37 183.981 290.485 183.991 290.602C184 290.72 183.986 290.838 183.948 290.95C183.911 291.062 183.851 291.165 183.773 291.254V291.284Z" fill="#ACB9B5"/>
<path d="M182.169 294.448L182.058 294.599C181.939 294.79 181.75 294.927 181.532 294.982C181.314 295.036 181.083 295.004 180.888 294.891C179.597 294.126 176.682 292.684 173.827 293.098C174.347 292.637 174.836 292.142 175.29 291.616C176.461 291.346 177.679 291.357 178.844 291.648C180.01 291.939 181.091 292.501 181.997 293.289C182.165 293.426 182.277 293.619 182.313 293.832C182.348 294.046 182.304 294.265 182.189 294.448H182.169Z" fill="#ACB9B5"/>
<path d="M211.874 43.4099C212.004 44.389 212.248 45.3495 212.6 46.2721C212.771 46.7373 212.984 47.1859 213.236 47.6125C213.475 48.0618 213.792 48.4646 214.174 48.8018V48.6103C213.811 48.963 213.448 49.3359 213.105 49.7189C213.528 49.4266 213.942 49.1142 214.345 48.8018L214.446 48.7211L214.345 48.6103C213.742 47.8687 213.262 47.035 212.923 46.1411C212.56 45.2441 212.217 44.3371 211.914 43.4099H211.874Z" fill="#CF876E"/>
<path d="M202.827 46.3225C202.917 46.7134 203.138 47.0622 203.452 47.312C203.766 47.5618 204.156 47.6977 204.557 47.6977C204.959 47.6977 205.348 47.5618 205.662 47.312C205.977 47.0622 206.197 46.7134 206.287 46.3225C206.241 45.9114 206.036 45.5345 205.715 45.2727C205.395 45.0109 204.985 44.8848 204.572 44.9216C204.156 44.8818 203.741 45.0059 203.415 45.2676C203.089 45.5293 202.878 45.9078 202.827 46.3225Z" fill="#E23C2B"/>
<path d="M217.543 46.6751C217.544 47.043 217.66 47.4014 217.874 47.7007C218.088 48 218.39 48.2253 218.738 48.3455C219.086 48.4657 219.463 48.4748 219.816 48.3715C220.17 48.2683 220.482 48.0578 220.711 47.7692C220.939 47.4806 221.072 47.1282 221.091 46.7608C221.11 46.3934 221.014 46.0292 220.817 45.7186C220.62 45.4079 220.33 45.1663 219.99 45.0271C219.649 44.8879 219.273 44.8581 218.915 44.9417C218.505 44.9947 218.132 45.2056 217.876 45.5295C217.619 45.8534 217.5 46.2645 217.543 46.6751Z" fill="#E23C2B"/>
<path d="M246.996 89.0342C247.174 90.0054 247.465 90.9524 247.864 91.8561C248.055 92.3131 248.288 92.7516 248.56 93.1663C248.82 93.6064 249.163 93.9929 249.568 94.3051V94.1136C249.215 94.4865 248.872 94.8695 248.56 95.2726C248.973 94.9602 249.366 94.6377 249.75 94.2648L249.851 94.1842L249.75 94.0834C249.098 93.3712 248.566 92.5576 248.176 91.6747C247.763 90.7979 247.379 89.9009 246.996 88.9939V89.0342Z" fill="#CF876E"/>
<path d="M306.195 59.8171C306.308 60.6939 306.528 61.5535 306.85 62.377C306.998 62.7994 307.191 63.2048 307.425 63.5864C307.636 63.9878 307.92 64.3466 308.262 64.6446V64.4632C307.926 64.7857 307.59 65.1216 307.254 65.471C307.637 65.209 308.01 64.9369 308.373 64.6446L308.464 64.5741L308.373 64.4833C307.834 63.8165 307.405 63.068 307.102 62.2661C306.77 61.4599 306.457 60.6436 306.154 59.8171H306.195Z" fill="#CF876E"/>
<path d="M104.663 81.5256C104.956 82.4635 105.359 83.3634 105.863 84.2064C106.113 84.6363 106.404 85.0413 106.731 85.4158C107.039 85.821 107.423 86.1632 107.861 86.4237V86.2423C107.558 86.6555 107.265 87.0787 106.993 87.5222C107.366 87.1594 107.719 86.7865 108.062 86.3934L108.143 86.3027L108.022 86.212C107.298 85.5888 106.678 84.8539 106.186 84.0351C105.662 83.2188 105.178 82.3823 104.663 81.5357V81.5256Z" fill="#CF876E"/>
<path d="M175.028 78.0991C174.441 78.8786 173.764 79.5856 173.011 80.2055C172.629 80.5227 172.221 80.806 171.79 81.052C171.356 81.3188 170.878 81.5065 170.378 81.6063L170.479 81.4451C170.62 81.9389 170.741 82.4529 170.852 82.9367C170.63 82.4731 170.429 81.9994 170.237 81.5257L170.187 81.4048H170.328C171.222 81.061 172.056 80.578 172.799 79.9737C173.566 79.3791 174.312 78.7643 175.068 78.1394L175.028 78.0991Z" fill="#CF876E"/>
<path d="M285.588 143.98C285.245 144.545 284.841 145.18 284.397 145.855C280.857 145.936 276.641 145.855 272.172 145.674L269.146 145.522L272.334 145.311C276.843 144.978 281.371 144.525 285.588 143.98Z" fill="#E8A07E"/>
</svg>
