<svg xmlns="http://www.w3.org/2000/svg" viewBox="0 0 488.05 310.69"><defs><style>.cls-1{fill:#0f4e82;}.cls-2{fill:#fff;}</style></defs><title>Blog</title><g id="Layer_2" data-name="Layer 2"><g id="Layer_1-2" data-name="Layer 1"><path class="cls-1" d="M369.9,176.15H258.44c-5.13,0-9.29,3.37-9.29,7.53V259c0,4.16,4.16,7.53,9.29,7.53H369.9c5.13,0,9.29-3.37,9.29-7.53V183.68C379.19,179.52,375,176.15,369.9,176.15Zm-9.29,75.34H267.73V191.22h92.88Z"/><path class="cls-1" d="M119.1,82.37H47.4a6,6,0,0,0-6,6v59.75a6,6,0,0,0,6,6h71.7a6,6,0,0,0,6-6V88.35A6,6,0,0,0,119.1,82.37Zm-6,59.75H53.38V94.32h59.75Z"/><g id="_Screen_" data-name="&lt;Screen&gt;"><path class="cls-1" d="M44.56,23.9H56.51V35.85H44.56Z"/><path class="cls-1" d="M68.46,23.9H80.41V35.85H68.46Z"/><path class="cls-1" d="M92.36,23.9h11.95V35.85H92.36Z"/><path class="cls-1" d="M415.25,0H17.93A17.93,17.93,0,0,0,0,17.92V292.76a17.93,17.93,0,0,0,17.93,17.93H415.25a17.92,17.92,0,0,0,17.92-17.93V17.92A17.92,17.92,0,0,0,415.25,0ZM12,17.92a6,6,0,0,1,6-6H415.25a6,6,0,0,1,6,6V48H12ZM421.22,292.76a6,6,0,0,1-6,6H17.93a6,6,0,0,1-6-6V59.94H421.22Z"/></g><g id="_GroupLineUp_" data-name="&lt;GroupLineUp&gt;"><path class="cls-1" d="M147.88,82.37h23.9V94.32h-23.9Z"/><path class="cls-1" d="M183.73,82.37H335.3V94.32H183.73Z"/><path class="cls-1" d="M147.88,106.27H279.32v11.95H147.88Z"/><path class="cls-1" d="M147.88,130.17h59.75v11.95H147.88Z"/><path class="cls-1" d="M219.57,130.17h35.85v11.95H219.57Z"/><path class="cls-1" d="M288.07,106.27H351.3v11.95H288.07Z"/></g><g id="_GroupLineDown_" data-name="&lt;GroupLineDown&gt;"><path class="cls-1" d="M135.93,179.24h83.65v11.95H135.93Z"/><path class="cls-1" d="M135.93,203.14h83.65v11.95H135.93Z"/><path class="cls-1" d="M135.93,227h83.65V239H135.93Z"/><path class="cls-1" d="M135.93,250.94h83.65v11.95H135.93Z"/><path class="cls-1" d="M50.07,179.24H85.92v11.95H50.07Z"/><path class="cls-1" d="M50.07,203.14h59.75v11.95H50.07Z"/><path class="cls-1" d="M50.07,227H98.8V239H50.07Z"/><path class="cls-1" d="M50.07,250.94H76.3v11.95H50.07Z"/></g><g id="Pencil"><path class="cls-1" d="M450.17,89.53l-.8.33a26,26,0,0,0-3.13,1.61,33.45,33.45,0,0,0-11.29,11.83l-48,83.05-6.48,11.23-14.83,25.68a5.65,5.65,0,0,0-.75,3.15l1.2,18.54-5.08,8.79a26.34,26.34,0,0,0-3.57,6.64,22.72,22.72,0,0,0-.68,2.31c-.08.42-.17.85-.24,1.26a2.21,2.21,0,0,0,0,.33,8,8,0,0,0-.1.91,1.38,1.38,0,0,0,0,.28c0,.33,0,.65,0,1s0,.46,0,.69,0,.21,0,.31a2.43,2.43,0,0,0,0,.37,7.31,7.31,0,0,0,.1.89.22.22,0,0,0,0,.1,1.17,1.17,0,0,0,0,.25c.06.28.1.56.18.85s.12.52.21.78a14.86,14.86,0,0,0,2.48,4.89c.15.22.33.42.48.61s.33.4.52.58.37.39.54.56a6.25,6.25,0,0,0,.58.54c.19.18.4.35.58.5a17.83,17.83,0,0,0,1.91,1.38,18.74,18.74,0,0,0,11.58,2.71l.9-.12a16.43,16.43,0,0,0,2.71-.66,16.21,16.21,0,0,0,2.57-1.13,16.67,16.67,0,0,0,3.91-3A16.34,16.34,0,0,0,387.1,276s.06-.07.08-.1c.21-.31.4-.62.58-1l1.57-2.71,6-10.4L412,253.57a5.6,5.6,0,0,0,2.38-2.24l20.6-35.69,11.23-19.46L484,130.64c.35-.58.68-1.18,1-1.76C496.91,105.51,471.57,81.23,450.17,89.53ZM378,269.29a5.62,5.62,0,0,1-9.73-5.61l5.62-9.72,9.73,5.6Zm13.49-18.14-14.25-8.23-.87-13.48,27.22,15.73ZM410.22,236l-9.73-5.61,42.12-73-9.71-5.63-42.14,73L381,219.12l47.72-82.69L458,153.29Zm53.36-92.41-29.2-16.86,2.81-4.86,29.2,16.84Zm11.25-19.44-.6,1.06L472,129l-29.21-16.86,1.93-3.37.86-1.49a16.87,16.87,0,1,1,29.22,16.86Z"/><path class="cls-2" d="M383.64,259.57,378,269.29a5.62,5.62,0,0,1-9.73-5.61l5.62-9.72Z"/><path class="cls-2" d="M474.83,124.12l-.61,1.06L472,129l-29.2-16.86,1.92-3.36.87-1.49a16.87,16.87,0,1,1,29.22,16.86Z"/><polygon class="cls-2" points="466.39 138.69 463.58 143.56 434.37 126.71 437.18 121.85 466.39 138.69"/><polygon class="cls-2" points="457.99 153.29 410.22 235.98 400.49 230.36 442.61 157.4 432.9 151.77 390.76 224.74 381.05 219.12 428.77 136.44 457.99 153.29"/><polygon class="cls-2" points="403.63 245.17 391.52 251.15 377.27 242.92 376.4 229.44 403.63 245.17"/></g></g></g></svg>