<svg xmlns="http://www.w3.org/2000/svg" viewBox="0 0 225.79 198.45"><defs><style>.cls-1{fill:#0f4e82;}.cls-2{fill:#fff;}.cls-3{fill:none;}</style></defs><title>Crowdsourcing</title><g id="Layer_2" data-name="Layer 2"><g id="Layer_1-2" data-name="Layer 1"><g id="CloseBag"><path class="cls-1" d="M219.22,26.46h-60V19.84A19.87,19.87,0,0,0,139.35,0H86.44A19.87,19.87,0,0,0,66.59,19.84v6.61h-60A6.63,6.63,0,0,0,0,33.07V178.6a19.87,19.87,0,0,0,19.84,19.84h186.1a19.87,19.87,0,0,0,19.84-19.84V33.19C225.54,28.84,222.86,26.49,219.22,26.46Z"/><path class="cls-2" d="M79.82,19.84a6.62,6.62,0,0,1,6.61-6.61h52.92A6.62,6.62,0,0,1,146,19.84v6.61H79.82Z"/><path class="cls-2" d="M210,39.69l-20.54,61.63a6.6,6.6,0,0,1-6.27,4.52H146V99.22a6.61,6.61,0,0,0-6.61-6.61H86.44a6.61,6.61,0,0,0-6.61,6.61v6.61H42.61a6.6,6.6,0,0,1-6.27-4.52L15.79,39.69Z"/><rect class="cls-2" x="93.05" y="105.84" width="39.69" height="13.23"/><path class="cls-2" d="M212.56,178.6a6.62,6.62,0,0,1-6.61,6.61H19.84a6.62,6.62,0,0,1-6.61-6.61V73.84L23.78,105.5a19.82,19.82,0,0,0,18.82,13.57H79.82v6.61a6.61,6.61,0,0,0,6.61,6.61h52.92a6.61,6.61,0,0,0,6.61-6.61v-6.61h37.21A19.82,19.82,0,0,0,202,105.5l10.55-31.66Z"/><line class="cls-3" x1="212.56" y1="73.84" x2="225.79" y2="33.21"/><line class="cls-3" y1="33.07" x2="13.23" y2="73.84"/></g></g></g></svg>