<svg xmlns="http://www.w3.org/2000/svg" viewBox="0 0 319.7 202.82"><defs><style>.cls-1{fill:#0f4e82;}</style></defs><title>Fx-on</title><g id="Layer_2" data-name="Layer 2"><g id="Layer_1-2" data-name="Layer 1"><path class="cls-1" d="M299.14,0a20.88,20.88,0,1,0,20.55,21.2A20.85,20.85,0,0,0,299.14,0Zm-.48,31A10.15,10.15,0,1,1,309,21,10.14,10.14,0,0,1,298.66,31Z"/><path class="cls-1" d="M20.6,161.07a20.88,20.88,0,1,0,21.15,20.6A20.85,20.85,0,0,0,20.6,161.07Zm.41,31a10.15,10.15,0,1,1,10-10.28A10.14,10.14,0,0,1,21,192.09Z"/><path class="cls-1" d="M106.53,91.9a20.88,20.88,0,1,0,21.15,20.6A20.85,20.85,0,0,0,106.53,91.9Zm.41,31a10.15,10.15,0,1,1,10-10.28A10.14,10.14,0,0,1,106.94,122.93Z"/><path class="cls-1" d="M213.46,143.44a20.88,20.88,0,1,0,4,29.25A20.85,20.85,0,0,0,213.46,143.44Zm-18.77,24.71a10.15,10.15,0,1,1,14.22-1.94A10.14,10.14,0,0,1,194.69,168.15Z"/><rect class="cls-1" x="23.9" y="142.28" width="80.5" height="9.67" transform="translate(-78.07 72.74) rotate(-38.83)"/><rect class="cls-1" x="115.96" y="130.82" width="72.67" height="9.67" transform="translate(77.18 -53.96) rotate(26.7)"/><rect class="cls-1" x="178.42" y="86.96" width="140.94" height="9.67" transform="translate(30.55 242.47) rotate(-54.85)"/></g></g></svg>