<svg xmlns="http://www.w3.org/2000/svg" viewBox="0 0 512 512"><defs><style>.cls-1{fill:#0f4e82;}</style></defs><title>LABO</title><g id="Layer_2" data-name="Layer 2"><g id="Capa_1" data-name="Capa 1"><g id="_Answer_" data-name="&lt;Answer&gt;"><path class="cls-1" d="M346,319a10,10,0,0,0-10,10v69a50.06,50.06,0,0,1-50,50H178a10,10,0,0,0-10,10v19.88L144.15,454a10,10,0,0,0-9.17-6H70a50.06,50.06,0,0,1-50-50V244a50.06,50.06,0,0,1,50-50H171a10,10,0,0,0,0-20H70A70.08,70.08,0,0,0,0,244V398a70.08,70.08,0,0,0,70,70h59.86l41.07,41.07A10,10,0,0,0,188,502l0-34h98a70.08,70.08,0,0,0,70-70V329A10,10,0,0,0,346,319Z"/></g><g id="_QuestionBubble_" data-name="&lt;QuestionBubble&gt;"><path class="cls-1" d="M366.65,0H341.35C261.2,0,196,65.2,196,145.35s65.2,145.34,145.35,145.34h25.31A145.62,145.62,0,0,0,403.54,286l37.39,37.37A10,10,0,0,0,458,316.25V258.4a146.73,146.73,0,0,0,38.21-47.1,143.78,143.78,0,0,0,15.79-66C512,65.2,446.8,0,366.65,0ZM442,245.54a10,10,0,0,0-4,8v38.6l-24.47-24.46a10,10,0,0,0-10-2.49,125.38,125.38,0,0,1-36.87,5.51H341.35a125.35,125.35,0,1,1,0-250.69h25.31A125.35,125.35,0,0,1,442,245.54Z"/></g><g id="_Question_" data-name="&lt;Question&gt;"><path class="cls-1" d="M399,109.42a42.43,42.43,0,0,0-39.26-39.25,42,42,0,0,0-31.86,11.28,42.49,42.49,0,0,0-13.45,31,10,10,0,1,0,20,0A22.34,22.34,0,0,1,358.4,90.12a22.34,22.34,0,0,1,3.3,44.08,18.92,18.92,0,0,0-14.91,18.55v24a10,10,0,1,0,20,0V153.55A42.12,42.12,0,0,0,399,109.42Z"/><path class="cls-1" d="M363.87,209.26a10,10,0,1,0,2.93,7.07A10.08,10.08,0,0,0,363.87,209.26Z"/></g><g id="_AnswerLine_" data-name="&lt;AnswerLine&gt;"><path class="cls-1" d="M275,310H64a10,10,0,0,0,0,20H275a10,10,0,0,0,0-20Z"/><path class="cls-1" d="M282.07,368.93A10,10,0,1,0,285,376,10.07,10.07,0,0,0,282.07,368.93Z"/><path class="cls-1" d="M235.67,366H64a10,10,0,0,0,0,20H235.67a10,10,0,0,0,0-20Z"/><path class="cls-1" d="M210,254H64a10,10,0,0,0,0,20H210a10,10,0,0,0,0-20Z"/></g></g></g></svg>