<svg xmlns="http://www.w3.org/2000/svg" viewBox="0 0 392.94 455.69"><defs><style>.cls-1{fill:#0f4e82;}.cls-2{fill:#fff;}</style></defs><title>RealTrade</title><g id="Layer_2" data-name="Layer 2"><g id="Layer_1-2" data-name="Layer 1"><path class="cls-1" d="M299.65,34.25H205.47V25.7A25.68,25.68,0,0,0,179.77,0H137a25.68,25.68,0,0,0-25.67,25.7v8.56H25.67A25.67,25.67,0,0,0,0,59.93v351a25.68,25.68,0,0,0,25.67,25.7h274a25.68,25.68,0,0,0,25.67-25.7v-351A25.67,25.67,0,0,0,299.65,34.25ZM128.41,25.7A8.58,8.58,0,0,1,137,17.11h42.81a8.59,8.59,0,0,1,8.58,8.58v8.56H128.41Zm179.8,385.25a8.57,8.57,0,0,1-8.56,8.58h-274a8.57,8.57,0,0,1-8.56-8.58v-351a8.55,8.55,0,0,1,8.56-8.56h274a8.55,8.55,0,0,1,8.56,8.56Z"/><path class="cls-1" d="M274,68.48H51.37A17.14,17.14,0,0,0,34.23,85.62V385.27a17.13,17.13,0,0,0,17.14,17.11H274a17.13,17.13,0,0,0,17.14-17.11V85.62A17.14,17.14,0,0,0,274,68.48Zm0,316.79H51.37V85.62H274Z"/><rect class="cls-2" x="51.37" y="85.62" width="222.59" height="299.65"/><g id="_Chart_" data-name="&lt;Chart&gt;"><path class="cls-1" d="M66.63,285.45v17.14H83.77V285.45Zm34.25,0v17.14H118V285.45Zm34.25,0v17.14h42.81V285.45Zm-68.51,0v17.14H83.77V285.45Zm34.25,0v17.14H118V285.45Zm34.25,0v17.14h42.81V285.45Zm-68.51,0v17.14H83.77V285.45Zm34.25,0v17.14H118V285.45Zm34.25,0v17.14h42.81V285.45Z"/><path class="cls-1" d="M250.13,131.48H215.88a8.56,8.56,0,0,0-8.56,8.56V242.8a8.56,8.56,0,0,0,8.56,8.56h34.25a8.56,8.56,0,0,0,8.56-8.56V140.06A8.57,8.57,0,0,0,250.13,131.48Zm-8.56,102.76H224.44V148.6h17.14Z"/><path class="cls-1" d="M177.92,157.18H143.69a8.57,8.57,0,0,0-8.58,8.56V242.8a8.58,8.58,0,0,0,8.56,8.56h34.25a8.57,8.57,0,0,0,8.58-8.56V165.73A8.57,8.57,0,0,0,177.92,157.18Z"/><rect class="cls-2" x="152.25" y="174.29" width="17.11" height="59.95"/><path class="cls-1" d="M109.44,182.85H75.19a8.56,8.56,0,0,0-8.56,8.56V242.8a8.56,8.56,0,0,0,8.56,8.56h34.25A8.56,8.56,0,0,0,118,242.8V191.41A8.56,8.56,0,0,0,109.44,182.85Z"/><rect class="cls-2" x="83.74" y="199.99" width="17.14" height="34.25"/></g><g id="Clock"><path class="cls-1" d="M391.77,345.87c-.12-.77-.23-1.52-.37-2.26,0-.07,0-.16,0-.23-.28-1.49-.56-2.94-.91-4.38-.12-.54-.23-1-.35-1.52-.21-.82-.4-1.61-.63-2.38,0-.21-.12-.44-.16-.63-.28-1-.58-2-.91-3s-.61-1.82-.93-2.75-.58-1.59-.89-2.38-.63-1.59-1-2.36a91,91,0,0,0-7.07-13.73l6.72-6.74a22,22,0,0,0,0-31.06,22.55,22.55,0,0,0-20.73-5.62l-.12,0a22,22,0,0,0-10.19,5.57l-6.83,6.83a92.11,92.11,0,0,0-13-6.65,95.06,95.06,0,0,0-22.92-6.37c-2.12-.3-4.27-.44-6.37-.61V258h21.94a7.34,7.34,0,0,0,7.34-7.32V221.4a7.34,7.34,0,0,0-7-7.3h-58.9a7.32,7.32,0,0,0-7.34,7.32v29.29a7.35,7.35,0,0,0,7.34,7.32h21.94v7.67c-2.1.16-4.24.3-6.37.61-2.77.42-5.53.93-8.25,1.61a94.27,94.27,0,0,0-27.65,11.4l-6.83-6.83a22.1,22.1,0,0,0-9.54-5.39l-.12,0a22.48,22.48,0,0,0-21.38,5.43,22,22,0,0,0,0,31.06l6.72,6.72a96.35,96.35,0,0,0-10.75,24.18.83.83,0,0,1,0,.23c-.3,1-.58,2.12-.84,3.19-.19.68-.33,1.35-.47,2-.12.44-.21.89-.3,1.33-.19.89-.35,1.75-.51,2.63-.09.58-.19,1.17-.28,1.73a1,1,0,0,0,0,.26,93.41,93.41,0,0,0-1.17,14.62h.07q0,4,.28,7.9c0,.79.12,1.56.19,2.36.12,1.1.26,2.17.4,3.26a94.76,94.76,0,0,0,3.66,15.76h0a95.22,95.22,0,0,0,26,40.74c.84.77,1.7,1.54,2.56,2.29s1.75,1.49,2.66,2.19a.31.31,0,0,0,.16.14c.56.42,1.1.84,1.66,1.28s1.17.89,1.77,1.31c.44.3.86.63,1.31.93s.84.58,1.26.86.86.56,1.31.84.84.56,1.28.84c1.35.86,2.75,1.7,4.15,2.47,1.87,1,3.78,2.05,5.74,3,.79.35,1.59.72,2.36,1.07,2,.84,3.94,1.63,5.92,2.33.56.21,1.12.42,1.7.61s1.26.44,1.94.63a.79.79,0,0,0,.28.09,1.3,1.3,0,0,1,.28.09c1.77.54,3.52,1,5.29,1.47.35.07.75.19,1.1.26.91.23,1.87.44,2.8.65s2.15.4,3.24.58,2.29.35,3.4.51a3.81,3.81,0,0,1,.51,0l.16,0c1.1.14,2.24.23,3.36.33.4,0,.77.09,1.17.12.61,0,1.21.07,1.8.12s1.21,0,1.8.07,1.38,0,2.05,0a5.07,5.07,0,0,0,.58,0h.19c.44,0,.89,0,1.31,0,.68,0,1.31,0,1.94,0,1.17,0,2.31-.07,3.47-.14h.07c1-.07,2.05-.16,3.08-.26l2.12-.21c.44-.07.89-.14,1.35-.19a2.87,2.87,0,0,1,.4-.07c1.47-.21,2.94-.44,4.36-.72.77-.12,1.52-.26,2.29-.42.61-.12,1.21-.26,1.82-.4s1.26-.3,1.91-.49l.4-.09c.86-.23,1.75-.47,2.61-.72s1.89-.56,2.82-.86a94.49,94.49,0,0,0,9.75-3.75c.58-.26,1.14-.51,1.73-.79s1-.49,1.54-.75c.79-.37,1.54-.79,2.33-1.19s1.68-.93,2.54-1.4l.12-.07c.93-.56,1.89-1.12,2.82-1.7,2.8-1.75,5.53-3.64,8.16-5.64a104.27,104.27,0,0,0,9.3-8.23c.56-.61,1.14-1.21,1.73-1.8,1.42-1.52,2.8-3.05,4.1-4.66s2.59-3.24,3.82-4.94c.47-.7,1-1.4,1.45-2.08.61-.93,1.24-1.87,1.84-2.82.47-.77,1-1.54,1.4-2.33.79-1.35,1.56-2.7,2.29-4.1.4-.77.79-1.52,1.17-2.31,0,0,0-.09.07-.12.49-1,1-2.08,1.45-3.1.35-.77.68-1.56,1-2.36.09-.23.19-.47.28-.75.37-.91.72-1.84,1.07-2.8.44-1.19.86-2.4,1.26-3.61h0a92.18,92.18,0,0,0,4.08-19.14c.09-.75.16-1.52.19-2.24q.31-4,.28-7.9h.07A90.46,90.46,0,0,0,391.77,345.87Zm-27.21-62.58a7.48,7.48,0,0,1,10.35,0,7.3,7.3,0,0,1,0,10.35l-5.18,5.18a96.44,96.44,0,0,0-10.4-10.31Zm-90.7-39.48V229.17h43.93v14.64ZM219.6,283.4a7.34,7.34,0,0,1,10.19-.16l5.78,5.78a96.87,96.87,0,0,0-10.33,10.42l-5.81-5.85A7.32,7.32,0,0,1,219.6,283.4Zm158.56,90.1v0a80.51,80.51,0,1,1-79.72-92.13h.12a80.53,80.53,0,0,1,79.6,92.1Z"/><path class="cls-2" d="M374.92,293.64l-5.18,5.18a96.44,96.44,0,0,0-10.4-10.31l5.22-5.22a7.48,7.48,0,0,1,10.35,0A7.3,7.3,0,0,1,374.92,293.64Z"/><rect class="cls-2" x="273.86" y="229.17" width="43.93" height="14.64"/><path class="cls-2" d="M235.57,289a96.87,96.87,0,0,0-10.33,10.42l-5.81-5.85a7.32,7.32,0,0,1,10.35-10.35Z"/><path class="cls-2" d="M378.15,373.49v0a80.51,80.51,0,1,1-79.72-92.13h.12a80.53,80.53,0,0,1,79.6,92.1Z"/></g><g id="Kim"><path class="cls-1" d="M299.07,335.63a22,22,0,0,0-21.93,21.95,21.42,21.42,0,0,0,2.35,9.73l-26.43,26.43a7.29,7.29,0,0,0,0,10.35,65.46,65.46,0,0,0,32.69,17.8,8.71,8.71,0,0,0,1,.22,7.09,7.09,0,0,0,1.14.1,7.32,7.32,0,0,0,1.87-14.39c-.24,0-.48-.08-.7-.14A50.77,50.77,0,0,1,269,398.57L290,377.51a21.74,21.74,0,0,0,9.07,2,22,22,0,1,0,0-43.92Zm0,29.27a7.32,7.32,0,1,1,7.32-7.32A7.31,7.31,0,0,1,299.09,364.9Z"/><path class="cls-1" d="M336.69,408a7.32,7.32,0,0,1-3.09,6,1.81,1.81,0,0,1-.26.16,7.91,7.91,0,0,1-.7.4c-.42.26-.84.5-1.28.74a65.91,65.91,0,0,1-10.19,4.53c-.36.14-.74.26-1.12.38a8.11,8.11,0,0,1-1.73.2,7.31,7.31,0,0,1-2.53-14.17c.2-.06.4-.12.6-.2h0a50.57,50.57,0,0,0,8.73-4c.26-.18.54-.34.82-.5A7.32,7.32,0,0,1,336.69,408Z"/></g></g></g></svg>