<svg xmlns="http://www.w3.org/2000/svg" viewBox="0 0 260.76 310"><defs><style>.cls-1{fill:#fff;}.cls-2{fill:#0f4e82;opacity:0.4;}.cls-3,.cls-4{fill:#f2f5d0;}.cls-4{opacity:0.73;}.cls-5{fill:#ffb031;}.cls-6{fill:#ff9433;}.cls-7{fill:#f73;}.cls-8{fill:#00c8b7;}.cls-9{fill:#7a4c08;}.cls-10{fill:#e6e8e8;}.cls-11{fill:#82ebe3;}.cls-12{fill:#d9dbdb;}.cls-13{fill:#08b29d;}</style></defs><title>ContactUs</title><g id="Layer_2" data-name="Layer 2"><g id="OBJECTS"><rect class="cls-1" width="260.76" height="310"/><path class="cls-2" d="M69.45,148.12a16.51,16.51,0,1,1-30.18-9.26,21.6,21.6,0,1,1,23.54-4A16.47,16.47,0,0,1,69.45,148.12Z"/><path class="cls-2" d="M200.53,99.74a18.55,18.55,0,0,1-34.49-11,15.4,15.4,0,1,1,18.91-16.88,18.54,18.54,0,0,1,15.59,27.89Z"/><path class="cls-2" d="M226.91,257.88A55.08,55.08,0,0,1,119.6,240.63a16.44,16.44,0,1,1,3.25-31.9,16.13,16.13,0,0,1,5,2.7,55.08,55.08,0,0,1,99.08,46.45Z"/><circle class="cls-2" cx="69.58" cy="225.05" r="15.33"/><circle class="cls-3" cx="129.06" cy="145.91" r="62.26"/><path class="cls-4" d="M179.91,160.87V181.8a62.64,62.64,0,0,1-7.73,9V160.87h0v-.07c0-.15-3.79-3.27-6.68-5.63v-1.31L169,153a6.64,6.64,0,0,1,4.29.33c.61.26,1.24.51,1.87.71v2.73a61.13,61.13,0,0,1,4.75,4.06v.07Z"/><polygon class="cls-5" points="40.46 66.03 58.73 108.9 72.08 99.76 79.82 111.01 81.21 92.04 97.37 82.19 40.46 66.03"/><polygon class="cls-6" points="75.04 97.73 58.73 108.9 72.08 99.76 79.82 111.01 81.21 92.04 55.46 76.7 75.04 97.73"/><polygon class="cls-7" points="80.87 96.69 55.46 76.7 81.21 92.04 80.87 96.69"/><path class="cls-8" d="M80.14,116.35c-.14-.84-.33-1.67-.54-2.48l1.25-.34c.23.85.42,1.72.57,2.59Z"/><path class="cls-8" d="M65,145.47a10.72,10.72,0,0,1-5.21-1.74l.72-1.08a9.43,9.43,0,0,0,4.58,1.52Zm5.39-1.06-.57-1.16a13,13,0,0,0,3.88-3.05l1,.87A14.32,14.32,0,0,1,70.4,144.41Zm-14.2-4.82a10.7,10.7,0,0,1-1.12-4.71c0-.13,0-.26,0-.39l0-.28,1.29.09v.24c0,.12,0,.23,0,.34a9.4,9.4,0,0,0,1,4.14Zm50.18-.3V138c1.69,0,3.43-.08,5.17-.21l.09,1.29C109.86,139.21,108.09,139.29,106.37,139.29Zm-5.26-.17-.83-.06c-1.59-.13-3-.31-4.42-.55l.22-1.28c1.34.23,2.75.41,4.3.54l.81.06Zm15.74-.59-.17-1.29c1.67-.23,3.39-.51,5.11-.84l.25,1.27C120.29,138,118.55,138.3,116.85,138.53Zm-26.14-1.31a25.11,25.11,0,0,1-4.25-1.88l-.61-.35.67-1.11.57.33a23.85,23.85,0,0,0,4,1.79Zm-12.94-.52-1.12-.65a29.12,29.12,0,0,0,2.14-4.62l1.22.44A30.41,30.41,0,0,1,77.77,136.71Zm49.39-.14-.31-1.26c1.62-.39,3.31-.84,5-1.33l.36,1.25C130.5,135.71,128.8,136.16,127.16,136.56Zm10.08-2.87-.4-1.23q2.47-.8,4.92-1.67l.43,1.22Q139.73,132.88,137.24,133.69ZM81.53,132a35.89,35.89,0,0,0-3.86-2.54l-.43-.23.59-1.15.46.25a37.49,37.49,0,0,1,4,2.63Zm-23.32-2-.91-.93a11.08,11.08,0,0,1,4.77-2.56l.44,1.22A10.1,10.1,0,0,0,58.21,130ZM72.5,127.5A20.62,20.62,0,0,0,68,127h-.53l0-1.3a22,22,0,0,1,5.34.52Zm8.88-.76-1.28-.23a30.1,30.1,0,0,0,.46-5.08h1.3A31.31,31.31,0,0,1,81.38,126.74Z"/><path class="cls-8" d="M147.16,130.18l-.46-1.21,2.42-.93.47,1.21Z"/><path class="cls-8" d="M188,161.78a1.3,1.3,0,0,1-.12-2.59,30.8,30.8,0,0,0,20.3-10.53,1.3,1.3,0,0,1,2,1.7,33.38,33.38,0,0,1-22,11.41Z"/><path class="cls-9" d="M172.18,160.87,127,187.52,81.82,160.87a.25.25,0,0,1,0-.07c0-.17,2.53-2.25,6.33-5.34l.1-.09C100.74,145.24,127,124.5,127,124.5s26.26,20.74,38.74,30.87c3.86,3.13,6.4,5.25,6.44,5.43A.25.25,0,0,1,172.18,160.87Z"/><path class="cls-1" d="M145.58,102.43H96.83A7.57,7.57,0,0,0,89.26,110v73.7a7.57,7.57,0,0,0,7.57,7.57h61.08a7.57,7.57,0,0,0,7.57-7.57V122.34Z"/><path class="cls-10" d="M145.58,114.77a7.57,7.57,0,0,0,7.57,7.57h12.33l-19.9-19.91Z"/><rect class="cls-11" x="100.79" y="114.89" width="22.21" height="22.21" rx="2.7" ry="2.7"/><path class="cls-12" d="M143.34,143.28H103a2.17,2.17,0,0,0-2.17,2.17h0a2.17,2.17,0,0,0,2.17,2.17h40.35a2.17,2.17,0,0,0,2.17-2.17h0A2.17,2.17,0,0,0,143.34,143.28Z"/><path class="cls-12" d="M143.34,154.1H103a2.17,2.17,0,0,0-2.17,2.17h0a2.17,2.17,0,0,0,2.17,2.17h40.35a2.17,2.17,0,0,0,2.17-2.17h0A2.17,2.17,0,0,0,143.34,154.1Z"/><path class="cls-12" d="M125,164.6H103a2.17,2.17,0,0,0-2.17,2.17h0a2.17,2.17,0,0,0,2.17,2.17h22a2.17,2.17,0,0,0,2.17-2.17h0A2.17,2.17,0,0,0,125,164.6Z"/><path class="cls-5" d="M172.18,160.87v43.34a5.52,5.52,0,0,1-5.51,5.51H87.31a5.51,5.51,0,0,1-5.49-5.51V160.87L127,187.51Z"/><path class="cls-6" d="M170.65,208l-29.08-29.08L127,187.51l-14.58-8.6L83.34,208a5.46,5.46,0,0,0,4,1.73h79.36A5.48,5.48,0,0,0,170.65,208Z"/><path class="cls-8" d="M181.31,101.37a27.25,27.25,0,0,0-24.33,25,27,27,0,0,0,4.76,17.39,6.58,6.58,0,0,1,.63,6.27l-2.14,5.16L169,153a6.61,6.61,0,0,1,4.29.33,27.14,27.14,0,1,0,8-51.92Z"/><path class="cls-1" d="M184.72,142.09l1.49-1.49s-1.18-2.79,3.78-7.5c3-2.8,3.62-5.52,3.38-7.74a7.75,7.75,0,0,0-6.8-6.8c-2.22-.24-4.93.42-7.73,3.38-4.71,5-7.5,3.78-7.5,3.78l-1.49,1.49Z"/><path class="cls-1" d="M173.21,133a4.11,4.11,0,0,0,5.75,5.75Z"/><path class="cls-1" d="M194.42,120.38l-.93.93a9,9,0,0,0-2.86-2.85l.94-.94a2,2,0,1,1,2.86,2.86Z"/><path class="cls-13" d="M183.32,101.25a23.44,23.44,0,1,1-24,38.33,27.21,27.21,0,0,0,2.38,4.21,6.58,6.58,0,0,1,.63,6.27l-2.14,5.16L169,153a6.61,6.61,0,0,1,4.29.33,27.14,27.14,0,1,0,10-52Z"/><path class="cls-5" d="M42,78.74l5.93,13.6a1.37,1.37,0,0,1-.71,1.8l-.21.09a1.37,1.37,0,0,1-1.8-.72L39.49,79.82A1.37,1.37,0,0,1,40.28,78h0A1.37,1.37,0,0,1,42,78.74Z"/><path class="cls-3" d="M65.22,174.44a4.36,4.36,0,1,0,4.36,4.36A4.36,4.36,0,0,0,65.22,174.44Zm0,6.12A1.76,1.76,0,1,1,67,178.8,1.76,1.76,0,0,1,65.22,180.56Z"/><path class="cls-3" d="M182,192.07a4.36,4.36,0,1,0,4.36,4.36A4.36,4.36,0,0,0,182,192.07Zm0,6.12a1.76,1.76,0,1,1,1.76-1.76A1.76,1.76,0,0,1,182,198.19Z"/><path class="cls-3" d="M217.61,124.4a3.34,3.34,0,1,0,3.34,3.34A3.34,3.34,0,0,0,217.61,124.4Zm0,4.69a1.35,1.35,0,1,1,1.35-1.35A1.35,1.35,0,0,1,217.61,129.09Z"/><path class="cls-3" d="M158.87,71a3.53,3.53,0,1,0,3.53,3.53A3.53,3.53,0,0,0,158.87,71Zm0,5a1.43,1.43,0,1,1,1.43-1.43A1.43,1.43,0,0,1,158.87,76Z"/><circle class="cls-3" cx="46.05" cy="156.93" r="3.71"/><circle class="cls-3" cx="194.83" cy="168.19" r="2.7"/><circle class="cls-3" cx="105.51" cy="76.09" r="3.94"/><circle class="cls-3" cx="126.62" cy="217.81" r="2.87"/><circle class="cls-3" cx="182.22" cy="90.72" r="3.37"/><circle class="cls-3" cx="62.8" cy="115.48" r="1.92"/><circle class="cls-3" cx="218.77" cy="110.86" r="3.27"/><circle class="cls-3" cx="44.21" cy="127" r="2.09"/><path class="cls-3" d="M132,65.14l1.31-1.31a1.17,1.17,0,0,0-1.65-1.65l-1.31,1.31-1.31-1.31a1.17,1.17,0,0,0-1.65,1.65l1.31,1.31-1.31,1.31a1.17,1.17,0,0,0,1.65,1.65l1.31-1.31,1.31,1.31a1.17,1.17,0,1,0,1.65-1.65Z"/><path class="cls-3" d="M42.72,104.79,44,103.48a1.17,1.17,0,0,0-1.65-1.65l-1.31,1.31-1.31-1.31a1.17,1.17,0,0,0-1.65,1.65l1.31,1.31-1.31,1.31a1.17,1.17,0,0,0,1.65,1.65l1.31-1.31,1.31,1.31A1.17,1.17,0,0,0,44,106.11Z"/><path class="cls-3" d="M197.47,184.91l1.11-1.11a1,1,0,0,0-1.4-1.4l-1.11,1.11L195,182.4a1,1,0,0,0-1.4,1.4l1.11,1.11L193.56,186a1,1,0,0,0,1.4,1.4l1.11-1.11,1.11,1.11a1,1,0,0,0,1.4-1.4Z"/></g></g></svg>