<svg xmlns="http://www.w3.org/2000/svg" viewBox="0 0 55.7 55.7"><title>GGJvn</title><g id="Layer_2" data-name="Layer 2"><g id="Layer_1-2" data-name="Layer 1"><path d="M55.7,3.27V25.89l-4.59-4.63V4.6H4.59V51.11H21.3l4.56,4.6H3.26A3.26,3.26,0,0,1,0,52.44V3.27A3.26,3.26,0,0,1,3.26,0H52.43A3.27,3.27,0,0,1,55.7,3.27Z"/><path d="M55.7,30.85V52.44a3.27,3.27,0,0,1-3.27,3.27H40l-4.55-4.6V44.62l6.49,6.49h9.17V35.45H30.85l4.59-4.6Z"/><path d="M46,11.47V25.93l-4.47-4.51V14.18H14.19V41.52H21L25.4,46H11.47a1.76,1.76,0,0,1-1.76-1.76V11.47a1.75,1.75,0,0,1,1.76-1.75H44.23A1.75,1.75,0,0,1,46,11.47Z"/></g></g></svg>