<svg width="30" height="28" viewBox="0 0 30 28" fill="none" xmlns="http://www.w3.org/2000/svg">
<path d="M29.6985 6.47889L26.136 3.63222C25.8939 3.47106 25.6307 3.34689 25.3545 3.26356C25.0794 3.17122 24.793 3.11989 24.504 3.11111H14.25L15.4515 10.8889H24.504C24.75 10.8889 25.0575 10.8313 25.353 10.7364C25.6485 10.6416 25.9335 10.5109 26.1345 10.3693L29.697 7.51956C29.8995 7.378 30 7.18978 30 7C30 6.81022 29.8995 6.622 29.6985 6.47889V6.47889ZM12.75 0H11.25C11.0511 0 10.8603 0.0819442 10.7197 0.227806C10.579 0.373667 10.5 0.571498 10.5 0.777778V6.22222H5.496C5.247 6.22222 4.941 6.27978 4.6455 6.37622C4.3485 6.46956 4.065 6.59867 3.864 6.74333L0.3015 9.59C0.099 9.73156 0 9.92133 0 10.1111C0 10.2993 0.099 10.4876 0.3015 10.6322L3.864 13.482C4.065 13.6236 4.3485 13.7542 4.6455 13.8476C4.941 13.9424 5.247 14 5.496 14H10.5V27.2222C10.5 27.4285 10.579 27.6263 10.7197 27.7722C10.8603 27.9181 11.0511 28 11.25 28H12.75C12.9489 28 13.1397 27.9181 13.2803 27.7722C13.421 27.6263 13.5 27.4285 13.5 27.2222V0.777778C13.5 0.571498 13.421 0.373667 13.2803 0.227806C13.1397 0.0819442 12.9489 0 12.75 0V0Z" fill="#2A4D69"/>
</svg>
