<svg xmlns="http://www.w3.org/2000/svg" viewBox="0 0 400 400"><defs><style>.cls-1{fill:#fff;}</style></defs><title>Asset 1</title><g id="Layer_2" data-name="Layer 2"><g id="Layer_1-2" data-name="Layer 1"><path class="cls-1" d="M26.8,229.93,6.46,210.11a21,21,0,0,1,0-30.26l178-173.55a22.3,22.3,0,0,1,31.06,0l178,173.46a21,21,0,0,1,0,30.26L373.2,229.84a22.42,22.42,0,0,1-31.42-.36L236.69,122V378.57a21.66,21.66,0,0,1-22,21.43H185.39a21.66,21.66,0,0,1-22-21.43V122L58.22,229.57A22.25,22.25,0,0,1,26.8,229.93Z"/></g></g></svg>