<?xml version="1.0"?>
<svg xmlns="http://www.w3.org/2000/svg" viewBox="0 0 512 512" width="512" height="512"><g id="outline"><path d="M488,144H463.876a2.26465,2.26465,0,0,1-1.13184-4.22559l20.8916-12.0625a7.99874,7.99874,0,0,0,2.92774-10.92773l-24-41.56836a8.00092,8.00092,0,0,0-10.92774-2.92871l-20.8916,12.0625a2.26442,2.26442,0,0,1-3.09277-3.09375l12.06152-20.8916a7.9999,7.9999,0,0,0-2.92871-10.92774l-41.56836-24a7.99851,7.99851,0,0,0-10.92773,2.92774l-12.0625,20.8916-.001.001A2.26432,2.26432,0,0,1,368,48.124V24a8.00039,8.00039,0,0,0-8-8H312a8.00039,8.00039,0,0,0-8,8V48.124a2.26465,2.26465,0,0,1-4.22559,1.13184l-12.0625-20.8916a7.99782,7.99782,0,0,0-10.92773-2.92774l-41.56836,24a7.9999,7.9999,0,0,0-2.92871,10.92774l12.0625,20.8916a2.26442,2.26442,0,0,1-3.09375,3.09277l-20.8916-12.06152a8.00076,8.00076,0,0,0-10.92774,2.92871l-24,41.56836a7.99874,7.99874,0,0,0,2.92774,10.92773l20.89258,12.06348A2.26432,2.26432,0,0,1,208.124,144H184a8.00039,8.00039,0,0,0-8,8v48a8.00039,8.00039,0,0,0,8,8h24.124a2.26465,2.26465,0,0,1,1.13184,4.22559l-20.8916,12.0625a7.99874,7.99874,0,0,0-2.92774,10.92773l24,41.56836a8.00155,8.00155,0,0,0,10.92774,2.92871l20.8916-12.0625a2.26442,2.26442,0,0,1,3.09277,3.09375l-12.06152,20.8916a7.9999,7.9999,0,0,0,2.92871,10.92774l41.56836,24a7.99851,7.99851,0,0,0,10.92773-2.92774l12.06348-20.89258A2.26432,2.26432,0,0,1,304,303.876V328a8.00039,8.00039,0,0,0,8,8h48a8.00039,8.00039,0,0,0,8-8V303.876a2.26465,2.26465,0,0,1,4.22559-1.13184l12.0625,20.8916a7.99976,7.99976,0,0,0,10.92773,2.92774l41.56836-24a7.9999,7.9999,0,0,0,2.92871-10.92774l-12.0625-20.8916a2.26442,2.26442,0,0,1,3.09375-3.09277l20.8916,12.06152a8.00269,8.00269,0,0,0,10.92774-2.92871l24-41.56836a7.99874,7.99874,0,0,0-2.92774-10.92773l-20.89258-12.06348a2.26476,2.26476,0,0,1-1.05371-2.54688L462.13867,208H488a8.00039,8.00039,0,0,0,8-8V152A8.00039,8.00039,0,0,0,488,144Zm-8,48H456a7.99981,7.99981,0,0,0-7.72754,5.92969l-2.03808,7.60644a18.28671,18.28671,0,0,0,8.50976,20.54492l13.96387,8.0625-16,27.7129-13.96387-8.06153A18.2641,18.2641,0,0,0,413.794,278.74414l8.0625,13.96387-27.7129,16L386.082,294.74512A18.26421,18.26421,0,0,0,352,303.876V320H320V303.876a18.26388,18.26388,0,0,0-34.08105-9.13184l-8.0625,13.96387-27.7129-16,8.06153-13.96387A18.2641,18.2641,0,0,0,233.25586,253.794l-13.96387,8.0625-16-27.7129,13.96289-8.06152A18.26421,18.26421,0,0,0,208.124,192H192V160h16.124a18.26388,18.26388,0,0,0,9.13184-34.08105l-13.96387-8.0625,16-27.7129,13.96387,8.06153a18.2641,18.2641,0,0,0,24.95019-24.94922L250.14355,59.292l27.7129-16L285.918,57.25488A18.26421,18.26421,0,0,0,320,48.124V32h32V48.124a18.26388,18.26388,0,0,0,34.08105,9.13184l8.0625-13.96387,27.7129,16-8.06153,13.96387a18.2641,18.2641,0,0,0,24.94922,24.95019l13.96387-8.0625,16,27.7129L454.74512,125.918A18.26421,18.26421,0,0,0,463.876,160H480Z"/><path d="M336,232a56,56,0,1,0-56-56A56.0629,56.0629,0,0,0,336,232Zm0-96a40,40,0,1,1-40,40A40.04584,40.04584,0,0,1,336,136Z"/><path d="M336,80V96a80,80,0,1,1-72.73145,113.37012l-14.5371,6.68164A96.00883,96.00883,0,1,0,336,80Z"/><path d="M256,176H240a96.76417,96.76417,0,0,0,1.583,17.44531l15.73633-2.89062A80.81792,80.81792,0,0,1,256,176Z"/><path d="M24,344H38.29a6.53114,6.53114,0,0,1,4.61816,11.15039L32.80371,365.25586a8,8,0,0,0,0,11.31348l22.627,22.62695a8,8,0,0,0,11.31348,0l10.10645-10.10547A6.53147,6.53147,0,0,1,88,393.71V408a8.00039,8.00039,0,0,0,8,8h32a8.00039,8.00039,0,0,0,8-8V393.71a6.53114,6.53114,0,0,1,11.15039-4.61816l10.10547,10.10449a8.0018,8.0018,0,0,0,11.31348,0l22.62695-22.62695a8,8,0,0,0,0-11.31348l-10.10547-10.10645A6.53147,6.53147,0,0,1,185.71,344H200a8.00039,8.00039,0,0,0,8-8V304a8.00039,8.00039,0,0,0-8-8H185.71a6.53114,6.53114,0,0,1-4.61816-11.15039l10.10449-10.10547a8,8,0,0,0,0-11.31348l-22.62695-22.62695a8.00269,8.00269,0,0,0-11.31348,0l-10.10645,10.10547A6.53147,6.53147,0,0,1,136,246.29V232a8.00039,8.00039,0,0,0-8-8H96a8.00039,8.00039,0,0,0-8,8v14.29a6.53114,6.53114,0,0,1-11.15039,4.61816L66.74414,240.80371a8.0018,8.0018,0,0,0-11.31348,0L32.80371,263.43066a8,8,0,0,0,0,11.31348L42.9082,284.84961l.001.001A6.53147,6.53147,0,0,1,38.29,296H24a8.00039,8.00039,0,0,0-8,8v32A8.00039,8.00039,0,0,0,24,344Zm8-32h6.29a22.53132,22.53132,0,0,0,15.93164-38.46387l-4.44727-4.44824,11.31348-11.31348,4.44824,4.44727A22.531,22.531,0,0,0,104,246.29V240h16v6.29a22.53132,22.53132,0,0,0,38.46289,15.93262l4.44922-4.44825,11.31348,11.31348-4.44727,4.44824A22.531,22.531,0,0,0,185.71,312H192v16h-6.29a22.53132,22.53132,0,0,0-15.93262,38.46289l4.44825,4.44922-11.31348,11.31348-4.44824-4.44727A22.531,22.531,0,0,0,120,393.71V400H104v-6.29a22.53132,22.53132,0,0,0-38.46289-15.93262l-4.44922,4.44825L49.77441,370.91211l4.44727-4.44824A22.531,22.531,0,0,0,38.29,328H32Z"/><path d="M112,352a32,32,0,1,0-32-32A32.03667,32.03667,0,0,0,112,352Zm0-48a16,16,0,1,1-16,16A16.01833,16.01833,0,0,1,112,304Z"/><path d="M288,336H256a8.00039,8.00039,0,0,0-8,8v14.05859l-9.94043-9.9414a8.003,8.003,0,0,0-11.31445,0l-22.62793,22.62793a8.00119,8.00119,0,0,0,0,11.31445L214.05859,392H200a8.00039,8.00039,0,0,0-8,8v32a8.00039,8.00039,0,0,0,8,8h14.05859l-9.9414,9.94043a8.00119,8.00119,0,0,0,0,11.31445l22.62793,22.62793a8.003,8.003,0,0,0,11.31445,0L248,473.94141V488a8.00039,8.00039,0,0,0,8,8h32a8.00039,8.00039,0,0,0,8-8V473.94141l9.94043,9.9414a8.003,8.003,0,0,0,11.31445,0l22.62793-22.62793a8.00119,8.00119,0,0,0,0-11.31445L329.94141,440H344a8.00039,8.00039,0,0,0,8-8V400a8.00039,8.00039,0,0,0-8-8H329.94141l9.9414-9.94043a8.00119,8.00119,0,0,0,0-11.31445l-22.62793-22.62793a8.003,8.003,0,0,0-11.31445,0L296,358.05859V344A8.00039,8.00039,0,0,0,288,336Zm12.28418,40.40234,11.31348-11.31445,11.31445,11.31445-11.31445,11.31348a8.00028,8.00028,0,0,0-1.7334,8.71875l2.74512,6.62695A8,8,0,0,0,320,408h16v16H320a8,8,0,0,0-7.39062,4.93848l-2.74512,6.62695a8.00028,8.00028,0,0,0,1.7334,8.71875l11.31445,11.31348-11.31445,11.31445-11.31348-11.31445a7.99957,7.99957,0,0,0-8.71875-1.7334l-6.62695,2.74512A8,8,0,0,0,280,464v16H264V464a8,8,0,0,0-4.93848-7.39062l-6.62695-2.74512a7.99709,7.99709,0,0,0-8.71875,1.7334l-11.31348,11.31445-11.31445-11.31445,11.31445-11.31348a8.00028,8.00028,0,0,0,1.7334-8.71875l-2.74512-6.62695A8,8,0,0,0,224,424H208V408h16a8,8,0,0,0,7.39062-4.93848l2.74512-6.62695a8.00028,8.00028,0,0,0-1.7334-8.71875l-11.31445-11.31348,11.31445-11.31445,11.31348,11.31445a7.99637,7.99637,0,0,0,8.71875,1.7334l6.62695-2.74512A8,8,0,0,0,264,368V352h16v16a8,8,0,0,0,4.93848,7.39062l6.62695,2.74512A7.99744,7.99744,0,0,0,300.28418,376.40234Z"/><circle cx="272" cy="416" r="16"/></g></svg>
