<svg xmlns="http://www.w3.org/2000/svg" viewBox="0 0 626.35 548.06"><defs><style>.cls-1{fill:#2a4d69;}</style></defs><title>comment</title><g id="Layer_2" data-name="Layer 2"><g id="Layer_1-2" data-name="Layer 1"><path class="cls-1" d="M313.18,0C140.2,0,0,113.89,0,254.46c0,60.68,26.18,116.22,69.73,159.89C54.44,476,3.3,530.93,2.69,531.54A9.73,9.73,0,0,0,.86,542.19a9.58,9.58,0,0,0,8.93,5.87c81.11,0,141.91-38.9,172-62.88a373.09,373.09,0,0,0,131.39,23.73c173,0,313.18-113.89,313.18-254.46S486.16,0,313.18,0ZM156.59,293.6a39.15,39.15,0,1,1,39.15-39.15A39.1,39.1,0,0,1,156.59,293.6Zm156.59,0a39.15,39.15,0,1,1,39.15-39.15A39.1,39.1,0,0,1,313.18,293.6Zm156.59,0a39.15,39.15,0,1,1,39.15-39.15A39.1,39.1,0,0,1,469.76,293.6Z"/></g></g></svg>