<svg xmlns="http://www.w3.org/2000/svg" xmlns:xlink="http://www.w3.org/1999/xlink" viewBox="0 0 284.62 152.48"><defs><style>.cls-1{fill:#fefefe;}.cls-1,.cls-2,.cls-3,.cls-4,.cls-5{stroke:#8492a5;}.cls-1,.cls-2,.cls-3,.cls-6{stroke-width:2px;}.cls-2,.cls-4,.cls-8{fill:none;}.cls-3,.cls-6{fill:#fdfdfd;}.cls-4{stroke-linecap:square;}.cls-5,.cls-7{fill:#fff;}.cls-6,.cls-7,.cls-8{stroke:#7e89a3;}</style></defs><title>Asset 27</title><g id="Layer_2" data-name="Layer 2"><g id="Layer_1-2" data-name="Layer 1"><g id="Laptop"><path id="bezel" class="cls-1" d="M235,1H39.6a9.88,9.88,0,0,0-9.85,9.76V139.27H244.83V10.76A9.87,9.87,0,0,0,235,1Z"/><circle id="webcam" class="cls-2" cx="137.69" cy="8.48" r="1.58"/><g id="bottom"><path id="Shape" class="cls-3" d="M253.42,151.48H21.2c-12.07,0-20.2-4.14-20.2-5.9v-5.35a1.08,1.08,0,0,1,1.18-1H272.44a1.08,1.08,0,0,1,1.18,1v5.57C273.62,147.18,267.32,151.48,253.42,151.48Z"/><path id="Line" class="cls-4" d="M1.2,145H272.89"/></g><rect id="screen" class="cls-5" x="38.42" y="16.36" width="197.38" height="115.02"/><path id="touchpad" class="cls-5" d="M166.83,139.65v1.22c0,.87-1.71,1.13-3,1.13h-53c-1.36,0-3.08-.26-3.08-1.13v-1.22"/></g><image width="1237" height="760" transform="translate(38.42 16.36) scale(0.16 0.15)" xlink:href="PC.png"/><g id="iphone"><path id="bezel-2" data-name="bezel" class="cls-6" d="M283.62,145.18a6.31,6.31,0,0,1-6.33,6.3H238.74a6.31,6.31,0,0,1-6.33-6.3V49.89a6.31,6.31,0,0,1,6.33-6.3H277.3a6.31,6.31,0,0,1,6.33,6.3v95.28Z"/><rect id="screen-2" data-name="screen" class="cls-7" x="235.96" y="57.74" width="44.09" height="78.42"/><path id="speaker" class="cls-8" d="M262.75,53.7a.42.42,0,0,1-.39.45h-7.92a.42.42,0,0,1-.39-.45v-1a.42.42,0,0,1,.39-.45h7.92a.42.42,0,0,1,.39.45v1Z"/><circle id="camera" class="cls-8" cx="258.41" cy="48.29" r="1.18"/><ellipse id="lock" class="cls-8" cx="258.04" cy="143.62" rx="3.95" ry="3.94"/></g><image width="808" height="1581" transform="translate(235.96 57.74) scale(0.05 0.05)" xlink:href="Screenshot_20200228-101826_Samsung Internet.jpg"/></g></g></svg>