<svg width="31" height="24" viewBox="0 0 31 24" fill="none" xmlns="http://www.w3.org/2000/svg">
<path d="M30.99 21V3C30.99 1.34 29.8083 0 28.3445 0H3.63549C2.17165 0 0.98999 1.34 0.98999 3V21C0.98999 22.66 2.17165 24 3.63549 24H28.3445C29.8083 24 30.99 22.66 30.99 21ZM28.6796 2.78C29.2616 3.44 28.9441 4.12 28.6267 4.46L21.4662 11.9L28.3445 20.02C28.5561 20.3 28.6972 20.74 28.4503 21.04C28.221 21.36 27.6919 21.34 27.4627 21.14L19.7554 13.68L15.9812 17.58L12.2246 13.68L4.51733 21.14C4.28805 21.34 3.75895 21.36 3.52967 21.04C3.28276 20.74 3.42385 20.3 3.63549 20.02L10.5138 11.9L3.35331 4.46C3.03585 4.12 2.71839 3.44 3.3004 2.78C3.88241 2.12 4.48205 2.44 4.97588 2.92L15.9812 13L27.0041 2.92C27.4979 2.44 28.0976 2.12 28.6796 2.78V2.78Z" fill="#2A4D69"/>
</svg>
