<svg xmlns="http://www.w3.org/2000/svg" xmlns:xlink="http://www.w3.org/1999/xlink" viewBox="0 0 448.18 302.62"><defs><style>.cls-1{fill:none;}.cls-2{fill:#6dab96;}.cls-3{fill:#0e1d2a;}.cls-4{fill:#fdbf9a;}.cls-5{fill:#112437;}.cls-6{fill:#d2d8d5;}.cls-7{fill:#e5aa8b;}.cls-8{fill:#152a34;}.cls-9{fill:#fff;}.cls-10{fill:#5c869b;}.cls-11{fill:#193343;}.cls-12{fill:#efab87;}.cls-13{fill:#7e1923;}.cls-14{fill:#53141d;}.cls-15{fill:#d4142c;}.cls-16{fill:#fa1c34;}.cls-17{fill:#980f27;}.cls-18{fill:#6a4723;}.cls-19{fill:#121115;}.cls-20{fill:#e99576;}.cls-21{fill:#f1ab87;}.cls-22{fill:#acb9b5;}.cls-23{fill:#0c224e;}.cls-24{fill:#fdad5b;}.cls-25{fill:#1a3782;}.cls-26{fill:#1c3949;}.cls-27{fill:#90b9cd;}.cls-28{fill:#304759;}.cls-29{fill:#43384f;}.cls-30{fill:#cf876e;}.cls-31{clip-path:url(#clip-path);}.cls-32{clip-path:url(#clip-path-2);}.cls-33{clip-path:url(#clip-path-3);}.cls-34{clip-path:url(#clip-path-4);}.cls-35{clip-path:url(#clip-path-5);}.cls-36{clip-path:url(#clip-path-6);}.cls-37{clip-path:url(#clip-path-7);}.cls-38{clip-path:url(#clip-path-8);}.cls-39{clip-path:url(#clip-path-9);}.cls-40{clip-path:url(#clip-path-10);}</style><clipPath id="clip-path"><path class="cls-1" d="M316.29,65.58c1.51,0,2.27-3.86,1.24-4.38a.77.77,0,0,0-.38-.1c-.84,0-1.52,1.43-1.56,2.95l.14,0c.7,0,.8.89.37,1.53a.62.62,0,0,0,.19,0"/></clipPath><clipPath id="clip-path-2"><path class="cls-1" d="M292.05,65.66c-1.6.14-2.74-3.86-1.71-4.5a.86.86,0,0,1,.39-.13c.89-.08,1.74,1.36,1.91,2.95h-.15c-.73.06-.76,1-.24,1.64a.79.79,0,0,1-.2,0"/></clipPath><clipPath id="clip-path-3"><path class="cls-1" d="M232.9,97.27c-1.66.26-3.15-3.84-2.11-4.58a.83.83,0,0,1,.4-.17c.92-.15,1.91,1.3,2.21,3h-.16c-.76.12-.72,1.11-.14,1.74l-.2,0"/></clipPath><clipPath id="clip-path-4"><path class="cls-1" d="M199,48.16c-1.69.15-2.9-4.09-1.8-4.76a.93.93,0,0,1,.41-.15c.94-.08,1.84,1.45,2,3.13h-.16c-.78.07-.8,1.07-.26,1.74a.78.78,0,0,1-.21,0"/></clipPath><clipPath id="clip-path-5"><path class="cls-1" d="M160.41,76.69c-1.55-.66-.64-5,.65-5a1,1,0,0,1,.43.06c.86.37.94,2.14.31,3.72l-.13-.08c-.72-.3-1.21.57-1,1.42l-.21-.07"/></clipPath><clipPath id="clip-path-6"><path class="cls-1" d="M95.22,89.41c-1.58.58-3.87-3.18-3-4.12a.94.94,0,0,1,.36-.25c.89-.32,2.16.91,2.78,2.49l-.15,0c-.74.27-.5,1.24.21,1.74l-.2.1"/></clipPath><clipPath id="clip-path-7"><path class="cls-1" d="M116.65,84.41c1.51,0,2.27-3.86,1.25-4.38a.8.8,0,0,0-.38-.1c-.85,0-1.53,1.43-1.57,2.94h.14c.7,0,.8.89.37,1.53l.19,0"/></clipPath><clipPath id="clip-path-8"><path class="cls-1" d="M180.13,87.44c1.24.87,4.08-1.85,3.54-2.86a.75.75,0,0,0-.25-.3c-.69-.49-2.07.29-3,1.5l.12.07c.57.41.14,1.19-.58,1.46a.57.57,0,0,0,.14.13"/></clipPath><clipPath id="clip-path-9"><path class="cls-1" d="M258.23,92.7c1.68-.21,2-4.59.74-5a.93.93,0,0,0-.43-.05c-.93.12-1.48,1.8-1.3,3.48l.15,0c.78-.1,1,.87.63,1.64a.74.74,0,0,0,.21,0"/></clipPath><clipPath id="clip-path-10"><path class="cls-1" d="M222.19,48.07c1.57,0,2.36-4,1.29-4.55a.81.81,0,0,0-.39-.1c-.88,0-1.59,1.48-1.62,3.06l.14,0c.73,0,.83.93.38,1.59a.71.71,0,0,0,.2,0"/></clipPath></defs><title>Asset 251</title><g id="Layer_2" data-name="Layer 2"><g id="Layer_1-2" data-name="Layer 1"><path class="cls-2" d="M91.9,302.62H39.58A1.66,1.66,0,0,1,37.92,301V300a1.66,1.66,0,0,1,1.66-1.67H91.9A1.67,1.67,0,0,1,93.57,300V301a1.67,1.67,0,0,1-1.67,1.67Z"/><path class="cls-2" d="M423.43,302.62H409.12a1.67,1.67,0,0,1-1.67-1.67V300a1.67,1.67,0,0,1,1.67-1.67h14.31a1.66,1.66,0,0,1,1.66,1.67V301a1.66,1.66,0,0,1-1.66,1.67Z"/><path class="cls-2" d="M190.36,302.62H138a1.66,1.66,0,0,1-1.66-1.67V300a1.66,1.66,0,0,1,1.66-1.67h52.32A1.67,1.67,0,0,1,192,300V301a1.67,1.67,0,0,1-1.67,1.67Z"/><path class="cls-2" d="M267.19,302.62H214.87A1.67,1.67,0,0,1,213.2,301V300a1.67,1.67,0,0,1,1.67-1.67h52.32a1.66,1.66,0,0,1,1.66,1.67V301a1.66,1.66,0,0,1-1.66,1.67Z"/><path class="cls-2" d="M361.27,302.62H290a1.66,1.66,0,0,1-1.66-1.67V300a1.66,1.66,0,0,1,1.66-1.67h71.32a1.67,1.67,0,0,1,1.67,1.67V301a1.67,1.67,0,0,1-1.67,1.67Z"/><path class="cls-3" d="M109.44,65s-5.53-3.76-13.61-.87-9.9,13.78-7.9,22.62-9.14,39-9.14,39,5.78,8.13,26,5c0,0,15.08-27.39,14-47.05S109.44,65,109.44,65Z"/><path class="cls-4" d="M115.82,99c7.6-2.42,12.25,3.9,16.6,15.67s5.81,12.95,5.81,12.95l16.8,10.8-1.39,6.29s-16-6.26-19.86-10.24-15-24.15-15-24.15l-3-11.32Z"/><path class="cls-4" d="M78.8,175S75.5,191.7,76,216.82c0,0-13,19.15-2.27,73.8H79.4s4.59-46.49,8.1-59.09,16.49-16.46,17.2-54.77L78.8,175Z"/><path class="cls-4" d="M53.1,224.09c-3.27-10.77-11.66-28.8-33.2-53.25a3.2,3.2,0,0,0-3,.4C15,172.36,15,173.68,15,173.68s10.8,23.54,17.69,40.79a15.28,15.28,0,0,0,14.18,9.62Z"/><path class="cls-5" d="M92.32,244.91s.07,8-5.2,8.17c-7.44.2-7.72-7.91-16.15-7.65s-25.83,2.37-31.36-10.8c-2.86-6.81,1-15.55-8.17-22.14s-4.75-14,0-17.92-2.05-8.27,2.9-10.28a4.84,4.84,0,0,1,3.41-.07,8.38,8.38,0,0,1,1.79.91A17.23,17.23,0,0,1,44,189.9c14-38.26,38.84-43.31,38.84-43.31l24.59,8.49c.59,59.52-15.1,89.83-15.1,89.83Z"/><path class="cls-6" d="M115.82,99a32.17,32.17,0,0,1-13.9.7c-8.16-1.24-10.81-6.36-16.55-3.06-8.61,5-4.58,22-2.42,30.85.8,3.31,1.83,12-.12,19.15,0,0,11.47,8.92,24.6,8.48l7.16-15.57s15.57-18.64,1.23-40.55Z"/><path class="cls-7" d="M101.25,84.66a35.28,35.28,0,0,1-2,15.4s4.26,6.28,8.32,2.15a40.56,40.56,0,0,1,4.94-15.75c3-5.6-11.23-1.8-11.23-1.8Z"/><path class="cls-4" d="M94.72,84.93s-3.59-2.27-3.19,1.24C92,90.23,96,91,96.39,89.6s-1.67-4.67-1.67-4.67Z"/><path class="cls-4" d="M115.33,80.54s2.28-3.59,3.41-.25c1.3,3.88-1.94,6.28-2.93,5.18s-.48-4.93-.48-4.93Z"/><path class="cls-4" d="M107.91,97.07c-6.51,1.46-11.14-2-14-14.73-1.48-6.59,1-11.38,8.27-13s11.27,1.72,12.75,8.3c3.07,13.72-.29,17.94-7,19.44Z"/><path class="cls-3" d="M109.25,76.72a.3.3,0,0,1-.18-.06,3.86,3.86,0,0,0-2.71-.34.33.33,0,0,1-.41-.24.33.33,0,0,1,.24-.41,4.47,4.47,0,0,1,3.25.44.33.33,0,0,1-.19.61Z"/><path class="cls-3" d="M97,79.47a.41.41,0,0,1-.17,0A.33.33,0,0,1,96.7,79a4.48,4.48,0,0,1,2.75-1.78.34.34,0,1,1,.12.66,3.83,3.83,0,0,0-2.3,1.46.32.32,0,0,1-.29.17Z"/><path class="cls-8" d="M109.54,80.29c.18.81,0,1.55-.49,1.65s-1-.47-1.14-1.28,0-1.55.48-1.65,1,.47,1.15,1.28Z"/><path class="cls-8" d="M100.48,82.24c.19.81,0,1.55-.48,1.65s-1-.47-1.14-1.28,0-1.55.48-1.65,1,.47,1.14,1.28Z"/><path class="cls-9" d="M103.41,89.9s4.19-.34,6-1.89c0,0-.51,3.27-2.78,3.49a3.33,3.33,0,0,1-3.25-1.6Z"/><path class="cls-8" d="M107.26,80.38s.14-2.12,1-2.16S110,79.77,110,79.77l1-.88-1.13.41s-1-1.64-1.77-1.47c-1.1.24-.87,2.55-.87,2.55Z"/><path class="cls-8" d="M101,82s-1-1.86-1.79-1.54-1,2.16-1,2.16l-1.29-.35,1.19-.11s.2-1.92,1-2.09C100.21,79.85,101,82,101,82Z"/><path class="cls-3" d="M106.71,69s.43,1.93-1.45,6.9a2,2,0,0,0-2.93,0c-1.58,1.41-4.79.94-5.89,1.7a3.39,3.39,0,0,0-1.09,2.51,6.93,6.93,0,0,1,0-4.78,9.51,9.51,0,0,0-1.85,6.06s-2.9-.47-2.76-5.24,6.91-12.49,14.52-12,9.43,12.55,9.43,12.55a2.2,2.2,0,0,0-1.78-.3A15.81,15.81,0,0,0,111,70.62a8.52,8.52,0,0,1,0,4.82,6.88,6.88,0,0,0-3.79-.76s1-2-.53-5.7Z"/><path class="cls-4" d="M83.44,98.11c3.7-2.92,6.58.79,7.29,5.93s-6,35.45-11.16,34.33c-2-.43-2.8-8.37-2.8-8.37a182.57,182.57,0,0,0,3.33-21.35c.6-5.89,1.4-9,3.34-10.54Z"/><path class="cls-4" d="M72.66,134.09c-5-4.76-13.93-20.52-16.2-28.56L60.24,104s11.4,16.3,16.59,20.41,7,8.69,4.71,12.61-7.83-1.95-8.88-2.94Z"/><path class="cls-4" d="M58,95c-.26,5.15,3.94,6.37,2.08,10.33a2.73,2.73,0,0,1-1.58,1.47,3.2,3.2,0,0,1-3.3-.85,36.47,36.47,0,0,0-6.73-5.1c-1.87-1.07-.81-1.37-.81-1.37l-.53-.23c-1.33-.55-2.4-.77-1.43-1.36s4.94.73,4.94.73c-5-3.34-6.38-2.52-5.46-3.23,1.25-1,6,1.26,6.16,1.33-2.65-2.51-4.57-3.08-3.52-3.46s6.31,3.42,8.23,4.85l.69.52C56.69,94.44,58,95,58,95Z"/><path class="cls-7" d="M56.06,98.13l.69.52a3.51,3.51,0,0,0,.27,3.47,3.11,3.11,0,0,1-1-4Z"/><path class="cls-7" d="M51.66,101.09c-.45-.25-3-1.67-4-1.59l-.53-.23c.68-.89,4,1.45,4.52,1.82Z"/><path class="cls-10" d="M71.56,177.59a1,1,0,1,1-1-1,1,1,0,0,1,1,1Z"/><path class="cls-10" d="M89.64,184.57a1,1,0,1,1-1-1,1,1,0,0,1,1,1Z"/><path class="cls-10" d="M105.05,188.31a1,1,0,1,1-1-1,1,1,0,0,1,1,1Z"/><path class="cls-10" d="M81.38,164.36a1,1,0,1,1-2,0,1,1,0,0,1,2,0Z"/><path class="cls-10" d="M84.79,174a1,1,0,1,1-1-1,1,1,0,0,1,1,1Z"/><path class="cls-10" d="M100.82,179.48a1,1,0,1,1-1-1,1,1,0,0,1,1,1Z"/><path class="cls-10" d="M103,162.87a1,1,0,1,1-1-1,1,1,0,0,1,1,1Z"/><path class="cls-10" d="M92.52,159.41a1,1,0,1,1-2,0,1,1,0,0,1,2,0Z"/><path class="cls-10" d="M62.6,197.36a1,1,0,1,1-2,0,1,1,0,0,1,2,0Z"/><path class="cls-10" d="M48.15,193.06a1,1,0,1,1-1-1,1,1,0,0,1,1,1Z"/><path class="cls-10" d="M39.54,185.13a1,1,0,0,1-.85.45,1,1,0,0,1-1-1,.84.84,0,0,1,.07-.35,8.38,8.38,0,0,1,1.79.91Z"/><path class="cls-10" d="M67.77,210.58a1,1,0,1,1-1-1,1,1,0,0,1,1,1Z"/><path class="cls-10" d="M41.85,224.94a1,1,0,1,1-1-1,1,1,0,0,1,1,1Z"/><path class="cls-10" d="M52.44,216.24a1,1,0,1,1-1-1,1,1,0,0,1,1,1Z"/><path class="cls-10" d="M36.67,208.53a1,1,0,1,1-2,0,1,1,0,0,1,2,0Z"/><path class="cls-10" d="M49.4,238.87a1,1,0,1,1-1-1,1,1,0,0,1,1,1Z"/><path class="cls-10" d="M59.05,185.58a1,1,0,1,1-2,0,1,1,0,0,1,2,0Z"/><path class="cls-10" d="M68.78,168.52a1,1,0,1,1-1-1,1,1,0,0,1,1,1Z"/><path class="cls-10" d="M79.8,154.31a1,1,0,1,1-1-1,1,1,0,0,1,1,1Z"/><path class="cls-10" d="M57.47,175a1,1,0,0,1-2,0,1,1,0,1,1,2,0Z"/><path class="cls-10" d="M69.8,158.4a1,1,0,1,1-1-1,1,1,0,0,1,1,1Z"/><path class="cls-10" d="M50.41,204a1,1,0,1,1-1-1,1,1,0,0,1,1,1Z"/><path class="cls-10" d="M37.68,195.08a1,1,0,1,1-1-1,1,1,0,0,1,1,1Z"/><path class="cls-10" d="M74.6,192a1,1,0,1,1-1-1,1,1,0,0,1,1,1Z"/><path class="cls-10" d="M95.56,197.36a1,1,0,1,1-2,0,1,1,0,0,1,2,0Z"/><path class="cls-10" d="M94.54,168.52a1,1,0,1,1-1-1,1,1,0,0,1,1,1Z"/><path class="cls-10" d="M106.72,170.64a1,1,0,1,1-1-1,1,1,0,0,1,1,1Z"/><path class="cls-10" d="M82.39,205.05a1,1,0,0,1-2,0,1,1,0,1,1,2,0Z"/><path class="cls-10" d="M73.59,223.07a1,1,0,1,1-1-1,1,1,0,0,1,1,1Z"/><path class="cls-10" d="M58,226a1,1,0,1,1-1-1,1,1,0,0,1,1,1Z"/><path class="cls-10" d="M100.82,210.58a1,1,0,1,1-1-1,1,1,0,0,1,1,1Z"/><path class="cls-10" d="M86.82,218.26a1,1,0,1,1-2,0,1,1,0,0,1,2,0Z"/><path class="cls-10" d="M65.74,240.89a1,1,0,1,1-1-1,1,1,0,0,1,1,1Z"/><path class="cls-10" d="M81.38,235.62a1,1,0,1,1-1-1,1,1,0,0,1,1,1Z"/><path class="cls-10" d="M96.44,229.65a1,1,0,1,1-1-1,1,1,0,0,1,1,1Z"/><path class="cls-10" d="M89.64,247.08a1,1,0,1,1-1-1,1,1,0,0,1,1,1Z"/><path class="cls-5" d="M88.53,300.45H71.89c-1.09-3.1.91-6.21.58-8.94-.58-4.62,2.11-2.06,2.11-2.06.47-5,7.45-5.91,7.37-3.69-.11,3.25.52,5.27,1.45,6.62,1.88,2.71,4.95,2.68,5.48,4.62.05.19.1.38.13.55.51,2.43-.48,2.9-.48,2.9Z"/><path class="cls-11" d="M89,297.55c-3.45.8-11.4-.24-11.72-2.24s4-2.85,6.11-2.93c1.88,2.71,4.95,2.68,5.48,4.62.05.19.1.38.13.55Z"/><path class="cls-5" d="M20.1,171.51c-1.77-1.61-4.64,1.06-4.64,1.06s1.54,2.29.54,3.22-2.16-1.19-4.13-.26a3.26,3.26,0,0,0-.48.27A22.82,22.82,0,0,0,7,180.11l-.75.81c-1.51,1.59-5.4,2.51-6.13-1.7s4-9.16,9.23-13.71,8.57-1.84,8.57-1.84a8.21,8.21,0,0,1,1.18,3.1c0,1.18,1.05,1.77,1.64,2.9a1.43,1.43,0,0,1-.59,1.84Z"/><path class="cls-11" d="M11.39,175.8A22.82,22.82,0,0,0,7,180.11c-1.95.47-3.7.33-4-1.5-.66-4.43,8.17-10.06,7.47-7a5.49,5.49,0,0,0,1,4.14Z"/><path class="cls-6" d="M319.63,293.25a6.48,6.48,0,0,1-2.26-2.57,26,26,0,0,1,0-7.27c.59-3.73-1-6.77-6.3-7.91s-8.17,1.36-7,11.66h0c-.78,4.28-.95,9.16.83,13.28H320.7s2.48-5.33-1.07-7.2Z"/><path class="cls-12" d="M333.47,237.73a47.87,47.87,0,0,1-5.8,20.82c-5.9,10.73-13.2,25.47-13.2,25.47s-4.87,4.74-8-3.12c0,0,2.18-27.36,7.19-37.38s19.77-5.79,19.77-5.79Z"/><path class="cls-12" d="M409.11,204.25s9.39,39.51,15.37,49.94c0,0-1.38,4.36-7.85,5.67,0,0-20.44-30-21.75-42.69s14.23-12.92,14.23-12.92Z"/><path class="cls-13" d="M413.65,213.54c-2.5,6-21.8,6.35-21.8,6.35l-1.48-2.17-.39-.57-3-4.45S355,181.33,348.75,184h0a2.75,2.75,0,0,0-.52.31c-4.28,3-4.68,19.81-9.75,47.92a49.12,49.12,0,0,1-2.37,7.93l-.26.66c-.46,1.19-.79,1.95-.79,1.95-19.53,7.91-26-7.71-26-7.71s.24-.46.57-1.18l.25-.53c1-2.26,2.65-6.17,2.63-8.23q0-3.41,0-6.55c0-.19,0-.37,0-.55,0-6.76,0-12.63,0-17.73v-.54q0-3.33.09-6.24v-.55c.17-8.89.46-14.82.76-18.77,0-.18,0-.37,0-.54.54-6.65,1.11-7.31,1.11-7.31l-3.91-27.19h42.68s6.4,6.43,14.72,14.9l.52.52c3,3.07,6.27,6.4,9.54,9.78l.38.39,3.85,4c.16.15.3.32.46.48,4.28,4.44,8.43,8.81,12,12.64l.36.38c4.86,5.26,8.56,9.47,9.83,11.43a79,79,0,0,1,7.48,16.07h0l.2.54c.68,2,1.06,3.31,1.06,3.31Z"/><path class="cls-14" d="M320.88,170.37a11.57,11.57,0,0,1-7.54,3.78c0-.18,0-.37,0-.54a10.93,10.93,0,0,0,7.1-3.59,11.91,11.91,0,0,0,2.45-8.17l.52-.06a12.29,12.29,0,0,1-2.57,8.58Z"/><path class="cls-14" d="M368.5,154.53l-.5,0c-4.74,0-9.7-5.19-9.95-5.45l.38-.37c.06.07,5,5.24,9.55,5.28l.52.52Z"/><path class="cls-14" d="M336.1,240.12l-.26.66a25.15,25.15,0,0,1-8.71,1.64c-8.43,0-14.27-4.88-17.48-8.58l.25-.53c4.1,4.81,12.86,11.9,26.2,6.81Z"/><path class="cls-14" d="M347.56,174.17a44,44,0,0,1,1.18,9.79,2.75,2.75,0,0,0-.52.31c0-15.92-9.24-28.34-9.34-28.48l.42-.31a54.82,54.82,0,0,1,8.12,18.14,4.81,4.81,0,0,0,2.11-3c1.33-5.58-4.71-14.71-4.76-14.81l.43-.29c.25.39,6.22,9.41,4.85,15.22a5.35,5.35,0,0,1-2.49,3.46Z"/><path class="cls-14" d="M395.08,182.18c-1.57,1.71-3.05,3.16-3.19,3.29l-.28.28-.14-.38c-2.07-5.4-15.35-17.13-15.49-17.24l-.15-.15,2.21-3.67.38.39-1.86,3.08a13,13,0,0,0,5.71.9c.16.15.3.32.46.48a8.64,8.64,0,0,1-1.38.12,14.47,14.47,0,0,1-4.08-.71c3,2.72,12.39,11.41,14.54,16.25.83-.83,1.88-1.91,2.91-3l.36.38Z"/><path class="cls-14" d="M322.19,218.43l-.21,0a27.66,27.66,0,0,1-5.35.54,15.61,15.61,0,0,1-4.15-.49c0-.19,0-.37,0-.55,3.48,1,8.13.23,9.18,0l-.89-21.94a7.07,7.07,0,0,1-3.31,3.76,6.4,6.4,0,0,1-2.93.65,9.29,9.29,0,0,1-2-.23v-.54a6.82,6.82,0,0,0,4.72-.36,7.2,7.2,0,0,0,3.4-4.41c-1.76.26-5.32-.64-8-1.47v-.55c2.92.89,6.88,1.91,8.3,1.41l.34-.11,1,24.21Z"/><path class="cls-14" d="M412.59,210.23a26.75,26.75,0,0,1-19,7.66c-1,0-2.09-.06-3.2-.17l-.39-.57a26.56,26.56,0,0,0,22.41-7.46l.2.54Z"/><path class="cls-15" d="M361.14,23.52s-1.17-2.7-6.13-2.7c-3.81,0-5.28,2.11-5.28,2.11-2.28,6.68-4.73,32.24-5.61,33.15-.45.46-28.77,19.54-28.77,19.54,15.37.29,25,19.23,25,19.23.49-6.23,17.85-30.89,18-33.09.35-4.15,7.69-22.69,2.79-38.24Z"/><path class="cls-15" d="M312,157.19s-.14,5.34,1.59,5.69A48.53,48.53,0,0,0,345.5,160c16.17-7.34,19-12.79,14.24-16.83s-47.77,14-47.77,14Z"/><path class="cls-16" d="M305.5,79.31s-14.71-1.74-23.14,1.91c0,0-2.35,10.43,9.23,33.79s8.9,38.07,22,43.61c11.58,4.9,45.74-9.71,46.81-14.55,2.7-12.2-18.19-33.61-19.5-46S327.42,67,305.5,79.31Z"/><path class="cls-15" d="M282.36,81.22C272.08,84.87,260.52,96.41,260.5,102s9.64,7.7,9.64,7.7L286,102s4.53-3.17,1.65-12.38-5.27-8.37-5.27-8.37Z"/><path class="cls-6" d="M324.59,91.5a17.52,17.52,0,0,1-9.25-2.79,5,5,0,0,1-2.25-3c-.58-3.65,3-5.5,3.13-5.58l.48.94c-.13.06-3,1.59-2.57,4.48A4,4,0,0,0,316,87.85a15.59,15.59,0,0,0,10.21,2.47,3.47,3.47,0,0,0,2.62-1.44,2.32,2.32,0,0,0,.06-1.87l1-.42a3.38,3.38,0,0,1-.1,2.78,4.43,4.43,0,0,1-3.36,2,11,11,0,0,1-1.77.14Z"/><path class="cls-6" d="M311.56,102.62c-2.28,0-6.05-.94-6.58-4.68a18.65,18.65,0,0,1,0-4.88c.23-2.06.41-3.68-.79-5.63-2-3.22-4.68-3.44-4.79-3.44l.06-1.06a7.68,7.68,0,0,1,5.62,3.94c1.39,2.26,1.18,4.22.95,6.3a17.6,17.6,0,0,0-.06,4.62c.57,4,5.71,3.78,5.92,3.77l.07,1Z"/><path class="cls-15" d="M314.76,83.7s7.77-5.29,5.93-11-26.89-5.34-33.34,1.51,14,11.4,14,11.4c1.59-3.18,11.69-3.54,13.45-1.89Z"/><path class="cls-17" d="M300.78,82.81c-3.69-1.26-5.88-3.92-5.09-7s16.65-3.16,19.66-.7-1.23,12.22-14.57,7.69Z"/><path class="cls-7" d="M299,74.16s3.26,5.58,1.76,8.65c0,0,11.19,3.86,11.19-2.4,0,0-2.11-4.7-1.31-7.73L299,74.16Z"/><path class="cls-18" d="M295.29,69.3s-5.5-8.82-5-17.23c.25-4.21,2.42-5.86,2.42-5.86s-1.75-2.43.12-6.14c0,0,2.59,3,11.69,2,8.77-.91,9.64,5.34,9.64,5.34,6.27.93,2,19.9-2.33,21.84Z"/><path class="cls-4" d="M293,61.16s-3.16-3.16-3.55.53c-.45,4.28,3.43,6,4.19,4.64s-.64-5.17-.64-5.17Z"/><path class="cls-4" d="M315.1,61.38s3.16-3.15,3.55.54c.45,4.27-3.43,6-4.19,4.63s.64-5.17.64-5.17Z"/><path class="cls-4" d="M303.69,76.64c-7,0-11-4.58-11-18.33,0-7.09,3.6-11.44,11.46-11.44s11.17,4.35,11.17,11.44c0,14.77-4.41,18.33-11.66,18.33Z"/><path class="cls-18" d="M309.94,55.84a.32.32,0,0,1-.27-.06,4.06,4.06,0,0,0-2.82-.56.35.35,0,1,1-.13-.68,4.65,4.65,0,0,1,3.38.68.35.35,0,0,1,.06.49.32.32,0,0,1-.22.13Z"/><path class="cls-18" d="M296.51,55.89a.35.35,0,0,1-.23-.12.36.36,0,0,1,.05-.5,4.67,4.67,0,0,1,3.35-.78.34.34,0,0,1,.29.4.36.36,0,0,1-.4.29,4.06,4.06,0,0,0-2.8.64.35.35,0,0,1-.26.07Z"/><path class="cls-8" d="M309.21,59.8c0,.88-.39,1.58-.87,1.58s-.88-.7-.88-1.58.39-1.57.88-1.57.87.7.87,1.57Z"/><path class="cls-19" d="M299.84,59.8c0,.88-.39,1.58-.87,1.58s-.88-.7-.88-1.58.39-1.57.88-1.57.87.7.87,1.57Z"/><path class="cls-18" d="M294.87,48.39a47.73,47.73,0,0,0,18.19,2s2.29,2.85,2,12.9c0,0,6.28-18.1-12-18.1S293,62.86,293,62.86s-1.5-11.07,1.91-14.47Z"/><path class="cls-9" d="M299.48,66.78s6.9.3,10.39-.63a4.62,4.62,0,0,1-4.73,5.27c-5.66.27-5.66-4.64-5.66-4.64Z"/><path class="cls-6" d="M329,85.77c1.32-.25,1.18,3.2,0,2.2s-1.32-2,0-2.2Z"/><path class="cls-6" d="M313.1,102.48c-.21,1.32-3.42.07-2.09-.72s2.29-.61,2.09.72Z"/><path class="cls-20" d="M299,109.67s-2.09,5.37-2,8.4,1.11,2.64,1.11,2.64a3.26,3.26,0,0,0-1.89,2.37c-.3,1.75,4.11,3,4.42,3s3.41-1.18,3.41-1.18l.66-9.92-2.76-1.73-3-3.61Z"/><path class="cls-21" d="M300.62,109a42.78,42.78,0,0,1,5.28,3.82c1.48,1.45.63,12.65,0,13.18s-5.49,1.61-6.42,1,.36-3.9.36-3.9,2.44-.53,2.09.4a2.42,2.42,0,0,0,0,1.71l1-.4a11.63,11.63,0,0,1,0-4.34c.49-1.85-3.43-3.8-3.91-7.17s1.6-4.3,1.6-4.3Z"/><path class="cls-15" d="M261.13,103.52c-1.22-5.26,4-7.13,11.28-6.23,8.43,1,25.75,3.25,29.52,12.38,0,0,1.23,3.61-1.95,5.34-8.9,4.84-36.56-1.59-38.85-11.49Z"/><path class="cls-17" d="M287.51,100s-10.05-4.17-15.05-4.6,6.92,4,15.05,4.6Z"/><path class="cls-4" d="M362.86,9.54a22.68,22.68,0,0,0-2,4.23c-.53,2.82-.84,4.39-1.83,5.68s-.46,3.59-.46,3.59-3.84,2-7.07-.47a8.14,8.14,0,0,0,0-2.91c-.66-1.28-2.79-2-3.52-4.56a20.11,20.11,0,0,0-2.91-5.51s.63-1.34,1.76-.52,1.88,2.91,2.5,3.12a1.84,1.84,0,0,0,.38.08h0A1.54,1.54,0,0,0,351,12a.23.23,0,0,0,.07-.07c1.05-1.21,1.29-4.77,1.25-6.36-.07-2.22,0-5.28,1.37-4.76s.11,1.75,1.16,6.63l.5.07c.1.34,1-3,1.25-6.08.15-2.14,1.56-1.35,1.86-.67s-.16,2.8-.25,4.35c-.07,1-.16,2.09-.21,2.72l.59.33c2.13-3.71,1.4-5.25,2.65-5.32s.79,3.05.12,4.24a12.1,12.1,0,0,0-.78,2.65c2.18-2.52,1.94-3.84,2.94-3.68s.11,2.67-.65,3.53Z"/><path class="cls-7" d="M353.43,15.35c-.73-2-3.37-3-3.7-3.07A1.54,1.54,0,0,0,351,12a3.69,3.69,0,0,1,2.44,3.39Z"/><path class="cls-6" d="M307.64,285s-1.46-3-.16-4.26,2.83,1.1,5,.57,2.74-2.11,3.32,0-.13,8.92-8.21,3.65Z"/><path class="cls-22" d="M316,284.86s-6,2.11-9.06,0l.79,2.58s6.48.69,7.38-.95l.89-1.63Z"/><path class="cls-22" d="M315.92,288.07s-5.46-.76-8.1.59v1.28s7.12-1.66,9.43,0l-1.33-1.87Z"/><path class="cls-22" d="M307.56,292.6a5,5,0,0,1,4.38-2.76,8.65,8.65,0,0,1,5.57,1.64s-5.27-2.17-9.95,1.12Z"/><path class="cls-6" d="M448.18,256.73a44.34,44.34,0,0,1-24.77,16.69c-4.14-3.31-4.25-7.23-4.25-7.23s-4-3.56-4.52-5.27,3.43-6.85,5.8-6.33a4.79,4.79,0,0,1,3,2.44c-2-4.42-.39-6,2.4-5.58s.16,1.08,2.23,3.41a2.92,2.92,0,0,0,.5.43,3.55,3.55,0,0,0,1.35.54,6.48,6.48,0,0,0,1.48.07,8.4,8.4,0,0,0,.85-.08,12,12,0,0,0,1.65-.4,15.7,15.7,0,0,0,2.67-1.15c3.63-2,5.15-2.66,7.92-2s2.71,2.78,2.71,2.78l1,1.63Z"/><path class="cls-22" d="M448.18,256.73a44.34,44.34,0,0,1-24.77,16.69c7.29-3.13,14-7.23,18.56-12.28s6.21-4.41,6.21-4.41Z"/><path class="cls-22" d="M428.58,255.29a3.55,3.55,0,0,0,1.35.54,3.56,3.56,0,0,0-3,3l-1.18-.38a3.13,3.13,0,0,1,2.81-3.19Z"/><path class="cls-22" d="M430.44,259.16l-1.23,0a3.27,3.27,0,0,1,.72-3.37,6.48,6.48,0,0,0,1.48.07,3.54,3.54,0,0,0-1,3.26Z"/><path class="cls-22" d="M433.49,258.48l-1.22.16a3.36,3.36,0,0,1,0-2.82,12,12,0,0,0,1.65-.4,3.57,3.57,0,0,0-.42,3.06Z"/><path class="cls-15" d="M316.11,128.48s2.71,14.61-2.77,20.43-1.85,1-.22-6.46.39-15.42,3-14Z"/><path class="cls-15" d="M341.37,122s8.63,2.84,13.15,10.81c0,0-6-13-13.15-10.81Z"/><path class="cls-4" d="M117.24,13.42a22.81,22.81,0,0,1,4.49,1.35c2.44,1.5,3.81,2.32,5.43,2.46s2.29,2.93,2.29,2.93,6.38,1.39,6.74-2.63c0,0-3.57-5.05-3.82-5.74-.51-1.35.42-3.39-1-5.67A20.35,20.35,0,0,1,129.23.27s-1.42-.45-1.58,1,.9,3.34.64,4a1.35,1.35,0,0,1-.19.33l0,0a1.54,1.54,0,0,1-1.08.71h-.1c-1.6,0-4.4-2.26-5.55-3.36-1.6-1.53-3.92-3.52-4.44-2.17S118.12,2,121,6l-.29.42c.19.3-2.88-1.23-5.34-3.16-1.69-1.32-2,.25-1.75.93S115.84,6,117.06,7l2.15,1.67-.15.65c-4.18-.91-4.83-2.48-5.72-1.61s1.73,2.64,3.06,3a11.09,11.09,0,0,1,2.49,1.2c-3.34-.08-4.15-1.14-4.7-.29s1.9,1.86,3,1.88Z"/><path class="cls-7" d="M127.87,10.34c-1-1.92.07-4.49.21-4.8a1.54,1.54,0,0,1-1.08.71,3.71,3.71,0,0,0,.87,4.09Z"/><path class="cls-4" d="M305.11,13.42a22.81,22.81,0,0,0-4.49,1.35c-2.44,1.5-3.81,2.32-5.43,2.46s-2.28,2.93-2.28,2.93-6.39,1.39-6.75-2.63c0,0,3.57-5.05,3.82-5.74.51-1.35-.41-3.39,1-5.67A20.35,20.35,0,0,0,293.12.27s1.42-.45,1.58,1-.9,3.34-.64,4a1.77,1.77,0,0,0,.19.33l0,0a1.54,1.54,0,0,0,1.08.71h.1c1.6,0,4.4-2.26,5.55-3.36,1.6-1.53,3.92-3.52,4.45-2.17S304.23,2,301.31,6l.29.42c-.19.3,2.88-1.23,5.34-3.16,1.69-1.32,2.05.25,1.75.93S306.51,6,305.29,7l-2.15,1.67.15.65c4.18-.91,4.83-2.48,5.72-1.61s-1.73,2.64-3.06,3a11.29,11.29,0,0,0-2.49,1.2c3.34-.08,4.15-1.14,4.71-.29s-1.91,1.86-3.06,1.88Z"/><path class="cls-7" d="M294.48,10.34c1-1.92-.07-4.49-.21-4.8a1.54,1.54,0,0,0,1.08.71,3.71,3.71,0,0,1-.87,4.09Z"/><path class="cls-3" d="M249,207l-12.26-76-24.57,2.75L187.6,131l-12.26,76-5.9,73.66s1.88,6.11,14.13,1.89c0,0,9.09-68.33,10.5-69.83s15.84-46.13,15.84-46.13h4.51s14.44,44.62,15.84,46.13,10.5,69.83,10.5,69.83c12.25,4.22,14.13-1.89,14.13-1.89L249,207Z"/><path class="cls-23" d="M204.43,57.47c1.55,1.51,9.18,4.24,13.21,0l2.74,2.69s-3.12,7.33-8.59,7.58-9.42-6.52-9.42-6.52l2.06-3.75Z"/><path class="cls-23" d="M226.05,56.65c9.13-3.94,38.65-14.39,38.65-14.39s19.84-24.86,23.89-28.55c0,0,4.39.79,5.68,6.26,0,0-12.78,27.36-19.73,35.19s-42.12,24.77-42.12,24.77l-6.37-23.28Z"/><path class="cls-24" d="M194.07,56.08c2.71-1.72,16.36,7.41,16.36,7.41s17.74-9.42,21.91-7.59c0,0,3.75,5,5.26,17.92s1.6,66,1.6,66a92.64,92.64,0,0,1-28.06,4.22c-18.39,0-28.29-5.28-28.29-5.28s-3.28-73.54,11.22-82.71Z"/><path class="cls-7" d="M205.15,54.7s2,6.18,0,8.56c0,0,2,4.29,5.71,4.47,4.23.22,5.7-4.47,5.7-4.47s-2.24-6,0-8.06l-11.41-.5Z"/><path class="cls-13" d="M200.25,48.62s-4.14-8-3.32-16.47,13.64-10.45,22.27-6.27c0,0-2.56-2.51-1.56-3.21s2.74,3.76,2.74,3.76,2.72-.83,3.14,0-2.79,1.3-2.79,1.3,5.57,3.09.36,19.54l-20.84,1.35Z"/><path class="cls-4" d="M199.63,43.58s-3.09-3.08-3.47.52c-.43,4.17,3.35,5.84,4.09,4.52s-.62-5-.62-5Z"/><path class="cls-4" d="M221.22,43.8s3.08-3.08,3.46.51c.44,4.17-3.34,5.85-4.08,4.53s.62-5,.62-5Z"/><path class="cls-4" d="M210.1,58.67c-6.84,0-10.7-4.47-10.7-17.87,0-6.91,3.51-11.15,11.18-11.15s10.89,4.24,10.89,11.15c0,14.4-4.3,17.87-11.37,17.87Z"/><path class="cls-13" d="M216.07,38.63a.36.36,0,0,1-.25-.11,3.9,3.9,0,0,0-2.63-1,.34.34,0,0,1-.35-.33.33.33,0,0,1,.33-.35,4.56,4.56,0,0,1,3.15,1.16.34.34,0,0,1,0,.48.33.33,0,0,1-.24.1Z"/><path class="cls-13" d="M203.19,38.63a.35.35,0,0,1-.25-.58,4.56,4.56,0,0,1,3.15-1.16.33.33,0,0,1,.33.35.34.34,0,0,1-.35.33,4,4,0,0,0-2.63,1,.36.36,0,0,1-.25.11Z"/><path class="cls-19" d="M215.48,42.26c0,.85-.38,1.54-.85,1.54s-.86-.69-.86-1.54.38-1.54.86-1.54.85.69.85,1.54Z"/><path class="cls-19" d="M206.34,42.26c0,.85-.38,1.54-.85,1.54s-.85-.69-.85-1.54.38-1.54.85-1.54.85.69.85,1.54Z"/><path class="cls-9" d="M206.34,51.35s6,.77,9.14-.72c0,0-1.75,4.11-5,3.74a4.71,4.71,0,0,1-4.09-3Z"/><path class="cls-13" d="M220.75,45.31s-.21-7.44-3.11-13.16c0,0-5.1,2.36-6.23,1.81s1.07-1.81,1.07-1.81-8.42,2.78-8.93,2.23,2.79-2.23,2.79-2.23L201.1,34s-1.62,6.69-.95,11.35c0,0-2.26-3.89-2.54-6.58s.9-10.35,8.81-10.9,12.35,1.23,14.31,4.86,1.71,8.1,0,12.62Z"/><path class="cls-25" d="M218.86,59.43s12.38,38.44,13.56,69.71c0,0,4.47,1.23,9.5-5.62s2-61.13-7.6-70.17c0,0-4.37-1-15.46,6.08Z"/><path class="cls-23" d="M220.88,66.15s2.21-5.15,1.23-8.68-4.47,0-4.47,0,1.41,5.78,3.24,8.68Z"/><path class="cls-23" d="M196,56.65c-9.14-3.94-38.66-14.39-38.66-14.39S137.48,16.67,133.43,13a11.37,11.37,0,0,0-5.35,8.7s12.5,25.65,19.45,33.48,42.12,24.77,42.12,24.77L196,56.65Z"/><path class="cls-25" d="M203.21,59.43s-12.38,38.44-13.56,69.71c0,0-4.47,1.23-9.5-5.62s-2-61.13,7.6-70.17c0,0,4.37-1,15.46,6.08Z"/><path class="cls-23" d="M201.19,66.15S199,61,200,57.47s4.47,0,4.47,0-1.41,5.78-3.24,8.68Z"/><path class="cls-14" d="M265.81,300.45H241.22c-1.71-9.77,1-19.55,1-19.55L253.49,279c1,6.17,2.25,8.61,4,9.86h0c1.24.91,2.73,1.21,4.59,1.85a5.92,5.92,0,0,1,3.79,3.53,10.43,10.43,0,0,1,0,6.24Z"/><path class="cls-13" d="M265.84,294.21c-6.06.76-19.38,2.06-18.56-1.45.67-2.93,6.29-3.73,10.17-3.93h0c1.24.91,2.73,1.21,4.59,1.85a5.92,5.92,0,0,1,3.79,3.53Z"/><path class="cls-14" d="M183.47,300.45H158.89a11.38,11.38,0,0,1-.42-4.73,6,6,0,0,1,4.18-5c2.13-.74,3.77-1,5.11-2.27s2.54-3.9,3.45-9.44l11.24,1.93s2.73,9.78,1,19.55Z"/><path class="cls-13" d="M158.47,295.72a6,6,0,0,1,4.18-5c2.13-.74,3.77-1,5.11-2.27,3.11,1,7.46,2.72,8.81,5.39,1.88,3.66-12.49,3.08-18.1,1.92Z"/><path class="cls-5" d="M360,298.69a13.07,13.07,0,0,1-.11,1.76H330c0-.59,0-1.18,0-1.76a54.85,54.85,0,0,1,2.81-14.59l7.46-3.2a12,12,0,0,0,4.37,7.9,11.27,11.27,0,0,0,1.71,1.1c.28.15.55.28.83.41a15.77,15.77,0,0,0,1.91.71,46.38,46.38,0,0,0,7.17,1.25c3.19.5,3.67,4.18,3.67,6.42Z"/><path class="cls-26" d="M360,298.69a13.07,13.07,0,0,1-.11,1.76H330c0-.59,0-1.18,0-1.76Z"/><path class="cls-26" d="M346.39,289.9l-4.14,1.33-.88-1.52,3.31-.91a11.27,11.27,0,0,0,1.71,1.1Z"/><path class="cls-26" d="M349.13,291l-2.79,1.85-1.72-.67,2.6-1.89a15.77,15.77,0,0,0,1.91.71Z"/><path class="cls-5" d="M245.86,298.69a7.53,7.53,0,0,1-.33,1.76h-19.9a9.46,9.46,0,0,1-.56-1.76c-2-9.52,11.26-21.17,11.26-21.17l4.2,5.6s-.49,9,3.07,10.83a4.52,4.52,0,0,1,2.26,4.74Z"/><path class="cls-26" d="M225.07,298.69h20.79a7.53,7.53,0,0,1-.33,1.76h-19.9a9.46,9.46,0,0,1-.56-1.76Z"/><path class="cls-26" d="M242.69,293.23s-8.38-1.91-12.2.57v-1.39s7-3.42,12.2.82Z"/><path class="cls-26" d="M241,291.11s-5.35-2.45-10.54,0l.59-1.4s6.2-2.34,9.95,1.4Z"/><path class="cls-27" d="M351,214.06c0,8-7.1,73.23-7.1,73.23a41.54,41.54,0,0,1-12.8-.71c-1.95-33.06-2.14-61.49-2.14-61.49l-34.05-25.53-.08-.06-.36,1.61c-1.69,7.49-8.82,38.84-11.8,46-3.38,8.18-40.38,42.58-40.38,42.58-6.87-.95-12.71-5.93-12.71-5.93,13.29-22,31.4-44.13,31.4-44.13,1.41-7.93,2.42-25.59,3-38.79,0-.2,0-.41,0-.61.4-8.94.6-15.69.6-15.69l-6.24-12.8L298,157.19l8.89,11.38s2,1.89,5.24,4.9l.44.41C324.48,185.11,351,210.47,351,214.06Z"/><path class="cls-10" d="M264,200.86c0-.2,0-.41,0-.61,8.34-4.53,6.94-11.77,6.92-11.84l.52-.11c0,.08,1.52,7.85-7.48,12.56Z"/><path class="cls-10" d="M294.26,194.45a42.61,42.61,0,0,1,.61,5.11l-.08-.06-.36,1.61c-.37-12.39-5.48-19.72-5.54-19.81l.43-.3a35.74,35.74,0,0,1,4.84,12.85c6-5.36.12-16.33.06-16.44l.46-.25c.07.12,6.32,11.74-.42,17.29Z"/><path class="cls-10" d="M312.57,173.88l0,0a2.17,2.17,0,0,1-.82.14c-2.92,0-7.82-4.09-8.06-4.29l.35-.4c1.59,1.35,6,4.59,8.13,4.12l.44.41Z"/><path class="cls-22" d="M261.13,103.52s12.06-1.94,18.11,1.92,14,13.9,14,13.9-9.42,1.25-10.48,7.64c0,0-6.85-16.29-21.6-23.46Z"/><path class="cls-6" d="M243,109.81c-5.1,2.76-13.63,13.12-14,19.48s4.23,11.93,7.33,16.78c9.68,15.16,19.87,28.55,24.2,46.32,0,.11,22.14,8.89,48.09-22.31,0,0-14.67-19.72-19.73-36.52-2.06-6.84-4.16-14.1-8.12-20.12a21.57,21.57,0,0,0-19.61-9.92c-6.57.54-13.12,3.58-18.14,6.29Z"/><path class="cls-7" d="M240.85,103.46s3.26,5.57,1.75,8.64c0,0,11.2,3.86,11.2-2.4,0,0-2.11-4.7-1.32-7.73l-11.63,1.49Z"/><path class="cls-7" d="M265.57,145.16a30.12,30.12,0,0,0-3.95,2.77,33.7,33.7,0,0,1-3.7-2.32,29.85,29.85,0,0,0,3.08.4,8.85,8.85,0,0,0,3.26-.24h0A11.49,11.49,0,0,0,265.57,145.16Z"/><path class="cls-4" d="M270.05,144.22l-3.16.21,3,.15L267.75,149l-2,3.73H255s1.4-4.94,3-7.15a33.7,33.7,0,0,0,3.7,2.32,30.12,30.12,0,0,1,3.95-2.77,11.49,11.49,0,0,1-1.31.6h0A8.85,8.85,0,0,1,261,146a29.85,29.85,0,0,1-3.08-.4h0A6.81,6.81,0,0,1,260,144a29.84,29.84,0,0,1,5.73-2.32h0l2.87,1.58.27.15,1.26.7Z"/><path class="cls-5" d="M255.43,97.24s4.38-1.83,1.55-15c-1.88-8.71-4.58-10-6.32-10.09,0,0-2.14-3.21-9.54-1.67a13.74,13.74,0,0,0-10.9,9.83c-1.86,6,1.86,18.7,6.76,20l18.45-3.05Z"/><path class="cls-4" d="M256.47,88.35s2.75-3.83,3.79,0c1.21,4.38-2.54,6.84-3.57,5.55s-.22-5.5-.22-5.5Z"/><path class="cls-4" d="M233.41,92.39s-3.84-2.74-3.62,1.17c.27,4.54,4.62,5.67,5.17,4.12s-1.55-5.29-1.55-5.29Z"/><path class="cls-4" d="M247.93,106.35c7.32-1.21,10.66-6.67,8.29-21-1.22-7.4-5.73-11.31-13.92-10s-10.91,6.46-9.69,13.86c2.55,15.4,7.76,18.35,15.32,17.11Z"/><path class="cls-8" d="M237.94,86a.42.42,0,0,1-.21-.06.38.38,0,0,1-.1-.52,5,5,0,0,1,3.17-1.8.38.38,0,0,1,.42.32.39.39,0,0,1-.32.42,4.26,4.26,0,0,0-2.65,1.48.36.36,0,0,1-.31.16Z"/><path class="cls-8" d="M251.72,83.69a.3.3,0,0,1-.22-.08,4.29,4.29,0,0,0-3-.55.36.36,0,0,1-.44-.29.38.38,0,0,1,.29-.44,5,5,0,0,1,3.57.69.37.37,0,0,1,.08.52.38.38,0,0,1-.3.15Z"/><path class="cls-8" d="M239.27,89.74c.15.91.69,1.58,1.19,1.49s.79-.89.64-1.8-.68-1.57-1.18-1.49-.8.89-.65,1.8Z"/><path class="cls-8" d="M249.05,88.12c.15.91.68,1.58,1.18,1.5s.8-.89.65-1.8-.68-1.58-1.19-1.49-.79.89-.64,1.79Z"/><path class="cls-9" d="M251.79,96.38s-6.3-.57-9.87,1c0,0,2.44,3.07,5.91,2.18s4-3.2,4-3.2Z"/><path class="cls-3" d="M252.09,78.69s-8.26,6-18.63,6.43l.3,9.23s-9.67-17.8,9.45-21,13.55,16.74,13.55,16.74-.6-8.58-4.67-11.44Z"/><path class="cls-15" d="M256.57,78.71c-13.89-6-27,6.47-27,6.47s-1.52-10.13,1.15-12.5A17,17,0,0,1,232.94,71c6.13-3.87,14.29-3.79,18-2.46a4.37,4.37,0,0,1,1.69,1c2.22,2.29,3.9,9.2,3.9,9.2Z"/><path class="cls-6" d="M254.89,76.45a32.86,32.86,0,0,0-22.55,4.89s-.7-6.53.6-10.32c6.13-3.87,14.29-3.79,18-2.46,2.18,2.48,3.91,7.89,3.91,7.89Z"/><path class="cls-17" d="M230.71,84s1.85-7.86,4.35-10.07c4.14-3.68,15.79-5,21.92-2.73s0,8.9,0,8.9-9.76-7-26.27,3.9Z"/><path class="cls-4" d="M270.05,144.22l-3.16.21,3,.15c4.43.19,8.61.26,12.12.18-3.88,6-11,15.55-17.34,17-4.92,1.15-22.74-10.65-22.74-10.65s3.56-12.54,6.81-14.94a33.49,33.49,0,0,0,3.06,3.86c.38.42.79.86,1.24,1.32.69.71,1.47,1.44,2.32,2.19s1.65,1.37,2.57,2h0a33.7,33.7,0,0,0,3.7,2.32,30.12,30.12,0,0,1,3.95-2.77l.13-.07c.28-.15.55-.31.83-.48l.29-.17h0c.63-.36,1.31-.71,2-1.06a32.67,32.67,0,0,1,16.1-3.46s-.65,1.18-1.78,3C279,143.44,274.51,143.89,270.05,144.22Z"/><path class="cls-22" d="M231.17,122.81c4.36-7.11,14.43,3.4,17.86,10.9S255,142.8,255,142.8s-10.06,4.2-10,11.74c0,0-23.32-16.23-13.8-31.73Z"/><path class="cls-4" d="M300.41,138.54c-.41,1-3.48,2-8,2.89-2.65.53-5.8,1-9.21,1.47-4.15.54-8.67,1-13.13,1.32l-3.16.21h-.07c-1.77.1-3.52.19-5.2.25,0,0,.19-.19.63-.55a40.73,40.73,0,0,1,3.45-2.49h0c3.85-2.51,10.77-6.36,22.18-10.81L285.43,123l-.13-.4c2.31-3,6.56-3,6.56-3S302.18,134.18,300.41,138.54Z"/><path class="cls-7" d="M283.69,132.79a5.34,5.34,0,0,1,.91-1.91c.74-1,.54-3,.81-3.56s1.85-3,2.9-3.48,2.43-1.25,2.73.09-1.89,1-2.87,2.88a8.39,8.39,0,0,1,3.84-.29c1.7.4,2.18,2,.08,1.9a9.41,9.41,0,0,0-3.82,1.15s2.18.33,1.82,1.33c-.48,1.39-3.14.54-6.4,1.89Z"/><path class="cls-28" d="M134.66,160.24c1.8,4.61,9.18,12.52,9.18,12.52s18-10.81,26.34-6.26,14.93,7.32,20.32,5.34-17.73-44-17.73-44l-30-11.44s-.65,7.58-4.08,8.93-7.08,13.87-6.83,16.24,2.79,18.71,2.79,18.71Z"/><path class="cls-7" d="M168.4,173s-7.73,15.15-23.7,34.56c0,0-1.63,23.08-43.84,59.4l-4.42-3.48s25.14-39.37,30.16-51.45S123.82,188.94,147,158.4L168.4,173Z"/><path class="cls-14" d="M143.79,146.22c-6.66,12.75-8.89,29-8.89,29l-3,7.65A85.25,85.25,0,0,0,155,190.82l5-13.18-16.22-31.42Z"/><path class="cls-4" d="M178.5,171.84s3.3,16.69,2.76,41.82c0,0,13,19.15,2.26,73.79H177.9s-4.59-46.49-8.1-59.09-16.49-16.46-17.2-54.76l25.9-1.76Z"/><path class="cls-13" d="M181.8,189.76s-10.58,1.9-29.2,1l-.3-2.1-.07-.53-1.93-13.58a37.27,37.27,0,0,1-3.64-5.82c-.22-.42-.43-.86-.64-1.31-2.51-5.34-4.73-13.11-2.24-21.22l3.94.18.54,0,13.16.6.56,0,4.32.2.68,0,2.8.12S184,160.25,181.49,184l.18,3.3,0,.54.11,1.95Z"/><path class="cls-14" d="M148.26,146.43c-.37,1.09-2.85,9.14-1.6,22.32-.22-.42-.43-.86-.64-1.31-.94-12.05,1.22-19.56,1.7-21l.09-.27.5.17-.05.13Z"/><path class="cls-14" d="M181.69,187.81c-3.74,1-10.09,1.22-16.12,1.22-5.4,0-10.54-.22-13.27-.35l-.07-.53c4.73.23,17.19.71,25.23-.16l-.52-8.49a53.37,53.37,0,0,0-5.76-24.19c-7.31-1.33-9.33-6.75-9.76-8.28-.06-.24-.09-.39-.09-.4l.51-.08a4.38,4.38,0,0,0,.14.51,11.22,11.22,0,0,0,8.9,7.65,52.6,52.6,0,0,0-4.58-7.45c-.23-.31-.38-.49-.39-.5l.4-.34s.27.32.67.88c2.44,3.32,10.7,15.81,10.49,32.18l.51,8.44a25.57,25.57,0,0,0,3.69-.65l0,.54Z"/><path class="cls-27" d="M154.76,89c-4.2-2.31-34.43,9.55-34.43,9.55s-4.48,8-1.69,11.1,12.68,1.75,15.71,0,11.06-3.07,11.06-3.07L154.76,89Z"/><path class="cls-29" d="M181.5,63.85A15.82,15.82,0,0,1,190,73.46c2.28,7.19-4.55,25.41-2.19,33.78s2,24.19-5.38,27.53S160,132.13,156.73,123s-1.85-43.75,4.39-55.53S180,61.63,181.5,63.85Z"/><path class="cls-27" d="M174.32,94.9c1.65,1.77,5.88-1.39,5.88-1.39s-.09,15.7-4.65,16.9S159.36,98,159.84,94.35s10.83-3.39,14.48.55Z"/><path class="cls-3" d="M156.73,91a32.11,32.11,0,0,0,12.65,5.78c8.05,1.87,12.41-1.91,16.52,3.27,6.17,7.78-3.87,22.13-9.16,29.57-2,2.77-6.12,10.46-7,17.83,0,0-14,4.06-26-1.2l-.9-17.12S135.31,106,156.73,91Z"/><path class="cls-27" d="M171.15,107.62s6.38-15.19,8.23-16.16,6.52,1.36,7.47,3.44,0,6.61,0,6.61-5-5.74-15.7,6.11Z"/><path class="cls-10" d="M201.69,171.84c-2.9,5.93-10,7.64-10,7.64s-.54-.82-1.45-2.3c-.09-.15-.2-.31-.29-.48-5.6-9.08-22.71-38.12-22.37-53.23a39.43,39.43,0,0,1,12.16-28c6,1.43,7.87,3.06,7.87,3.06a74,74,0,0,1,.17,22.62c-1.85,12.35-5.2,15.62-3.52,16.54s0,2.77,0,2.77,9.93,13.82,11.78,18.12l4.52,10.54c.09.21.17.42.26.61.53,1.26.88,2.07.88,2.07Z"/><path class="cls-4" d="M184.46,98.57s-7.1,5.26-3,13.31l19.68,20.38c-10.8,11.51-11.87,16.24-19.68,21.55l3,4.59s27.36-21,27.4-26.14c0-2.19-16.71-28.69-27.4-33.69Z"/><path class="cls-4" d="M181.06,153.81a59.28,59.28,0,0,0-6.11,1c-2.36.59-5.52,1.18-5.61,1.67s5.21,0,5.21,0-4.33,1.78-4.43,2.47,5.52-.5,5.52-.5-3.55,2.17-3.35,2.76,4.56-.89,4.56-.89a13.67,13.67,0,0,1-1.65,3s.85.47,2.56-1.44,4.46-1.29,6.63-3-1.35-5.4-3.33-5.15Z"/><path class="cls-10" d="M161,93.5s-5.41,3.49-8.82,11.92-14.18,24.31-16.7,28.41-.77,26.41-.77,26.41-3.16-13.53-4.57-18.8,4.54-18.29,5.44-19,5.46.58,4.58-4.71S151.49,89.66,154.76,89c0,0,5.24,1,6.19,4.48Z"/><path class="cls-10" d="M144.24,94.64a4.23,4.23,0,0,1-.33.53,13.61,13.61,0,0,1-3.5,3.16s-4.12,5.78-4.16,6.44-7.16,5.73-10.32,5.63h0a1.57,1.57,0,0,1-1-.36c-1.88-1.77,6.39-16.64,8.21-19.84.12-.21.21-.37.28-.47a1.42,1.42,0,0,1,.07-.14s-1.45-5.42,4.62-4.41c5,.83,6,4.85,6.58,7.54a3,3,0,0,1-.39,1.92Z"/><path class="cls-4" d="M123,100.26c4.18-5.49,18.85-16.12,26.58-19.27l1.94,3.59s-14.94,13.14-18.45,18.75-7.86,8-12,6.08,1.07-8,1.94-9.15Z"/><path class="cls-27" d="M142.78,93.51l-.79.91-.4.46-1.31,1.5s-3.29,4-3.16,5.58c.1,1.15-6.24,6.3-11.19,8.44-2,.87-3.81,1.25-4.85.65-3.59-2.06-2.79-8.27-.75-12.48,1.77-3.67,9.6-8.4,11.61-9.56l.47-.28h0l.75-2.91s2.73-1.64,4.88-.63c0,0-4.75.2-4,2s7.37,6.22,8.69,6.28Z"/><path class="cls-4" d="M160,78.3c-4.78,2-4.09,6.28-8.47,6.28-2.71,0-3.06-3.1-3.06-3.1a33.49,33.49,0,0,0,2.17-9.31c.18-2.15.89-1.32.89-1.32,0-.2,0-.38,0-.57-.06-1.45-.33-2.5.62-1.88s1.45,4.78,1.45,4.78c.88-6-.43-6.85.6-6.32,1.41.72,1.42,6,1.42,6.15,1.14-3.47.84-5.45,1.63-4.66s-.41,7.17-.88,9.51c-.1.52-.18.85-.18.85C160,76.85,160,78.3,160,78.3Z"/><path class="cls-7" d="M156.36,77.86c-.1.52-.18.85-.18.85a3.48,3.48,0,0,0-3,1.72,3.11,3.11,0,0,1,3.2-2.57Z"/><path class="cls-7" d="M151.81,75.14c0-.51.24-3.41-.27-4.29,0-.2,0-.38,0-.57,1.1.23.4,4.24.29,4.86Z"/><path class="cls-27" d="M154.77,100.29S158,91.54,159,89.59s6.38-1.62,10.42-.87,4.88,6.18,4.88,6.18-12.31-5.81-19.55,5.39Z"/><path class="cls-7" d="M175.55,83.07a35.1,35.1,0,0,0-3.8,15.06s-6.28,4.26-8.53-1.08a40.69,40.69,0,0,0,1.23-16.46c-.77-6.33,11.1,2.48,11.1,2.48Z"/><path class="cls-4" d="M163.22,73.16S162.07,69.07,160,72c-2.36,3.33,0,6.57,1.31,5.8s1.89-4.59,1.89-4.59Z"/><path class="cls-4" d="M181.47,83.69s4.1-1.14,2.7,2.1c-1.62,3.75-5.64,3.37-5.64,1.89s2.94-4,2.94-4Z"/><path class="cls-4" d="M164.89,91c-5.81-3.27-7-8.92-.54-20.32,3.31-5.88,8.33-7.8,14.85-4.13s7.23,8.82,3.92,14.7C176.22,93.51,170.9,94.4,164.89,91Z"/><path class="cls-8" d="M179.74,76.87a.34.34,0,0,1-.33-.25,3.85,3.85,0,0,0-1.78-2.07.33.33,0,0,1-.14-.45.33.33,0,0,1,.45-.14,4.42,4.42,0,0,1,2.12,2.5.33.33,0,0,1-.24.4Z"/><path class="cls-8" d="M171.75,71.19a.41.41,0,0,1-.18,0,3.81,3.81,0,0,0-2.69-.45.35.35,0,0,1-.42-.22.34.34,0,0,1,.22-.42,4.46,4.46,0,0,1,3.24.52A.33.33,0,0,1,172,71a.33.33,0,0,1-.28.16Z"/><path class="cls-8" d="M177.33,79.63c-.41.72-1.06,1.13-1.46.9s-.4-1,0-1.72,1.06-1.12,1.46-.9.4,1,0,1.72Z"/><path class="cls-8" d="M169.17,75.26c-.4.72-1.06,1.12-1.46.9s-.4-1,0-1.72,1.06-1.13,1.47-.9.39,1,0,1.72Z"/><path class="cls-9" d="M166.35,82.67s3.34,2.55,5.75,2.63c0,0-2.57,2.09-4.41.73a3.33,3.33,0,0,1-1.34-3.36Z"/><path class="cls-8" d="M175.58,78.17s1.53-1.48,2.16-1,.3,2.35.3,2.35l1.34,0-1.11-.45s.35-1.89-.34-2.28c-1-.56-2.35,1.31-2.35,1.31Z"/><path class="cls-8" d="M169.81,75.21s.47-2.08-.3-2.35-2.16,1-2.16,1l-.73-1.12,1,.71s1.43-1.28,2.13-.9c1,.55.1,2.7.1,2.7Z"/><path class="cls-27" d="M213.55,131.45c-.35,5.11-13,21.76-15.11,22.35a5.77,5.77,0,0,0-1.63.81l-.65.5a15.67,15.67,0,0,0-2.11,2.08c-3.69-.24-14.05-5-10.72-6.09a2.37,2.37,0,0,0,.66-.35,3.09,3.09,0,0,0,.43-.33c3.93-3.29,11.56-16.64,11.61-17.65s1.36-1.32,1.36-1.32-7.2-10.57-11.37-11.85-6.29-6.32-6.29-6.32c-4.12-17.45,7.87-14.71,7.87-14.71,8.83,5.26,26.3,27.76,26,32.88Z"/><path class="cls-28" d="M196.81,154.61l-.65.5A26.42,26.42,0,0,1,184,150.75a3.09,3.09,0,0,0,.43-.33,25.72,25.72,0,0,0,12.39,4.19Z"/><path class="cls-28" d="M144.24,94.64a4.23,4.23,0,0,1-.33.53,14.28,14.28,0,0,1-2.32-.29,17.49,17.49,0,0,1-8.51-4.68c-.43-.42-.81-.82-1.14-1.19l.47-.28c.27.31.59.65,1,1A16.79,16.79,0,0,0,142,94.42a13.62,13.62,0,0,0,2.25.22Z"/><path class="cls-28" d="M200.81,169.77a14.85,14.85,0,0,1-10.58,7.41c-.09-.15-.2-.31-.29-.48a14.48,14.48,0,0,0,10.61-7.54c.09.21.17.42.26.61Z"/><path class="cls-6" d="M104.86,265.69a18.61,18.61,0,0,0-2.69,3.68c-1.37,2.39.14,4.58-6.49,10.1,0,0-13.38-7.83-19.42-17.9a3.9,3.9,0,0,1,3-3.55c1.57-.36,5.89,1.66,10,2.45.59.1,1.18.2,1.76.24a10.81,10.81,0,0,0,2.13,0,6.25,6.25,0,0,0,1.8-.44h0a5.32,5.32,0,0,0,3.11-3.74s3.55,2,1.18,5.45c0,0,4.21-1.84,5.54,3.72Z"/><path class="cls-22" d="M95.68,279.47s-13.38-7.83-19.42-17.9c0,0,2.25-.47,4.1,2.86s16.41,10.92,15.32,15Z"/><path class="cls-22" d="M95.73,263.64c-1.08,1.72-1.06-1.46-2.51-2.94a6.25,6.25,0,0,0,1.8-.44h0c.64.7,1.56,2,.7,3.38Z"/><path class="cls-22" d="M91.53,263.73c-1.15,1.09-1.52-1.75-2.2-3.26.59.1,1.18.2,1.76.24.68.91,1.31,2.19.44,3Z"/><path class="cls-6" d="M187.16,300.45H168.24a11.11,11.11,0,0,1,0-5.53c.34-1.26,2.3-2.43,4.12-4.06a15.5,15.5,0,0,0,1.45-1.47,8.48,8.48,0,0,0,1-1.38,7.11,7.11,0,0,0,.78-2,8.64,8.64,0,0,0-.64-5.14s6.45-1.35,8.74,2.16c0,0,.23-1.63,2.27-.54a29.43,29.43,0,0,0,.11,6c.4,2.72,2.94,3.51,1.13,11.94Z"/><path class="cls-22" d="M182.24,289.06a.84.84,0,0,1-.63.28.9.9,0,0,1-.56-.19,6.92,6.92,0,0,0-6.28-1.14,7.11,7.11,0,0,0,.78-2c1.26-.46,3.64-.74,6.59,1.77a.87.87,0,0,1,.1,1.25Z"/><path class="cls-22" d="M180.65,292.2l-.11.15a.86.86,0,0,1-1.16.29c-1.28-.76-4.17-2.19-7-1.78a15.5,15.5,0,0,0,1.45-1.47,7.55,7.55,0,0,1,6.65,1.66.88.88,0,0,1,.19,1.15Z"/><path class="cls-30" d="M210.1,43.11a12.59,12.59,0,0,0,.72,2.84,8.09,8.09,0,0,0,.63,1.33,4.22,4.22,0,0,0,.93,1.18v-.19c-.36.35-.72.72-1.06,1.1.42-.29.83-.6,1.23-.91l.1-.08-.1-.11a8.85,8.85,0,0,1-1.41-2.45c-.36-.89-.7-1.79-1-2.71Z"/><path class="cls-30" d="M244.92,88.38a12.59,12.59,0,0,0,.86,2.8,8.09,8.09,0,0,0,.69,1.3,4,4,0,0,0,1,1.13v-.19c-.35.37-.69.75-1,1.15.41-.31.8-.63,1.18-1l.1-.08-.1-.1A8.82,8.82,0,0,1,246.09,91c-.41-.87-.79-1.76-1.17-2.66Z"/><path class="cls-30" d="M303.61,59.39a10.78,10.78,0,0,0,.65,2.54,6.26,6.26,0,0,0,.57,1.2,3.64,3.64,0,0,0,.83,1.05V64q-.5.48-1,1c.38-.26.75-.53,1.11-.82l.09-.07-.09-.09a8,8,0,0,1-1.26-2.2c-.33-.8-.64-1.61-.94-2.43Z"/><path class="cls-30" d="M103.81,80.93A12.32,12.32,0,0,0,105,83.59a7.73,7.73,0,0,0,.86,1.2,3.94,3.94,0,0,0,1.12,1l0-.18c-.3.41-.59.83-.86,1.27.37-.36.72-.73,1.06-1.12l.08-.09-.12-.09a8.89,8.89,0,0,1-1.82-2.16c-.52-.81-1-1.64-1.51-2.48Z"/><path class="cls-30" d="M173.57,77.53a12.22,12.22,0,0,1-2,2.09,8.42,8.42,0,0,1-1.21.84,4.27,4.27,0,0,1-1.4.55l.1-.16c.14.49.26,1,.37,1.48-.22-.46-.42-.93-.61-1.4l-.05-.12.14,0a9,9,0,0,0,2.45-1.42c.76-.59,1.5-1.2,2.25-1.82Z"/><path class="cls-7" d="M283.18,142.9c-.34.56-.74,1.19-1.18,1.86-3.51.08-7.69,0-12.12-.18l-3-.15,3.16-.21C274.51,143.89,279,143.44,283.18,142.9Z"/><g class="cls-31"><rect class="cls-20" x="315.59" y="61.1" width="2.97" height="4.48"/></g><g class="cls-32"><rect class="cls-20" x="289.45" y="61.01" width="3.14" height="4.73" transform="translate(-4.32 24.89) rotate(-4.86)"/></g><g class="cls-33"><rect class="cls-20" x="230.01" y="92.47" width="3.29" height="4.96" transform="translate(-11.79 36.52) rotate(-8.79)"/></g><g class="cls-34"><rect class="cls-20" x="196.24" y="43.24" width="3.32" height="5.01" transform="translate(-3.16 16.94) rotate(-4.86)"/></g><g class="cls-35"><rect class="cls-20" x="158.08" y="72.38" width="5.01" height="3.32" transform="translate(29.52 192.75) rotate(-66.92)"/></g><g class="cls-36"><rect class="cls-20" x="91.87" y="84.86" width="3.32" height="5.01" transform="translate(-24.43 37.72) rotate(-20.22)"/></g><g class="cls-37"><rect class="cls-20" x="115.95" y="79.93" width="2.97" height="4.48"/></g><path class="cls-3" d="M95.24,87.23s-2-7.39-.82-12.62c0,0,5.67-7.89,16.61-4a44.19,44.19,0,0,1,4.85,12.53s.41-2.62-.68-8.47-6.28-9.48-13.39-8.31-14.74,8.25-6.57,20.86Z"/><g class="cls-38"><rect class="cls-20" x="179.83" y="84.58" width="4.48" height="2.97" transform="translate(6.85 185.33) rotate(-54.83)"/></g><path class="cls-29" d="M180.74,69a3.33,3.33,0,0,0-5-.6c-2.88,2.3-9.37,6-12.56,4.76s7-14.82,15.82-10.83,8.05,17,4.37,21.08-1.94.28-1.94.28A46.39,46.39,0,0,1,183,74a3.68,3.68,0,0,0-2.21-5Z"/><g class="cls-39"><rect class="cls-20" x="257.12" y="87.62" width="3.31" height="4.99" transform="matrix(0.99, -0.13, 0.13, 0.99, -9.51, 34.36)"/></g><g class="cls-40"><rect class="cls-20" x="221.47" y="43.42" width="3.09" height="4.66"/></g></g></g></svg>