<?xml version="1.0" encoding="utf-8"?>
<!-- Generator: Adobe Illustrator 22.0.0, SVG Export Plug-In . SVG Version: 6.00 Build 0)  -->
<svg version="1.1" id="MacBook" xmlns="http://www.w3.org/2000/svg" xmlns:xlink="http://www.w3.org/1999/xlink" x="0px" y="0px"
	 viewBox="0 0 455 255" style="enable-background:new 0 0 455 255;" xml:space="preserve">
<style type="text/css">
	.st0{fill:url(#SVGID_1_);}
	.st1{fill:#33353A;}
	.st2{fill:#010101;}
	.st3{fill:#222225;}
	.st4{fill:url(#SVGID_2_);}
	.st5{fill:url(#SVGID_3_);}
	.st6{fill:url(#SVGID_4_);}
	.st7{fill:#191919;}
	.st8{fill:#000100;}
	.st9{fill:#272A29;}
</style>
<linearGradient id="SVGID_1_" gradientUnits="userSpaceOnUse" x1="47.3" y1="128.75" x2="408.8" y2="128.75" gradientTransform="matrix(1 0 0 -1 0 255)">
	<stop  offset="0" style="stop-color:#444241"/>
	<stop  offset="0.4451" style="stop-color:#9E9898"/>
	<stop  offset="0.9875" style="stop-color:#B5ACAA"/>
</linearGradient>
<path class="st0" d="M395.2,0H60.9c-7.5,0-13.6,6.2-13.6,13.7v225.1c0,7.6,6.1,13.7,13.6,13.7h334.3c7.5,0,13.6-6.2,13.6-13.7V13.7
	C408.8,6.2,402.7,0,395.2,0z M394.6,226.6h-333V18.5h333V226.6z"/>
<path class="st1" d="M395.2,1.2H60.9c-6.8,0-12.4,5.6-12.4,12.5v225.1c0,6.9,5.6,12.5,12.4,12.5h334.3c6.8,0,12.4-5.6,12.4-12.5
	V13.7C407.6,6.9,402,1.2,395.2,1.2z M394.6,226.6h-333V18.5h333V226.6z"/>
<path class="st2" d="M395.2,1.5H60.9c-6.7,0-12.1,5.5-12.1,12.2v225.1c0,6.7,5.4,12.2,12.1,12.2h334.3c6.7,0,12.1-5.5,12.1-12.2
	V13.7C407.3,7,401.9,1.5,395.2,1.5z M394.6,226.6h-333V18.5h333V226.6z"/>
<path class="st3" d="M48.8,236.4v2.4c0,6.7,5.4,12.2,12.1,12.2h334.3c6.7,0,12.1-5.5,12.1-12.2v-2.4H48.8z"/>
<linearGradient id="SVGID_2_" gradientUnits="userSpaceOnUse" x1="6.4" y1="3.2" x2="448.6" y2="3.2" gradientTransform="matrix(1 0 0 -1 0 255)">
	<stop  offset="0" style="stop-color:#3A3636"/>
	<stop  offset="0.5" style="stop-color:#605D5D"/>
	<stop  offset="0.989" style="stop-color:#3A3636"/>
</linearGradient>
<path class="st4" d="M448.6,248.7H6.4c0,0,23.8,5.8,45.5,5.8c8,0,16.9,0.4,25.3,0.4l0,0h300.7l0,0c8.4-0.1,17.3-0.4,25.3-0.4
	C424.9,254.6,448.6,248.7,448.6,248.7L448.6,248.7L448.6,248.7z"/>
<linearGradient id="SVGID_3_" gradientUnits="userSpaceOnUse" x1="6.2" y1="7.45" x2="448.8" y2="7.45" gradientTransform="matrix(1 0 0 -1 0 255)">
	<stop  offset="0" style="stop-color:#606060"/>
	<stop  offset="1.650000e-02" style="stop-color:#AEA9A6"/>
	<stop  offset="0.2363" style="stop-color:#AEA9A6"/>
	<stop  offset="0.7582" style="stop-color:#AEA9A6"/>
	<stop  offset="0.989" style="stop-color:#AEA9A6"/>
	<stop  offset="1" style="stop-color:#444241"/>
</linearGradient>
<path class="st5" d="M448.8,248.6c0,0.1-0.1,0.2-0.2,0.2H6.4c-0.1,0-0.2-0.1-0.2-0.2v-2.1c0-0.1,0.1-0.2,0.2-0.2h442.2
	c0.1,0,0.2,0.1,0.2,0.2L448.8,248.6L448.8,248.6z"/>
<linearGradient id="SVGID_4_" gradientUnits="userSpaceOnUse" x1="185.3" y1="248" x2="270.1" y2="248">
	<stop  offset="0" style="stop-color:#3A3636"/>
	<stop  offset="3.492786e-02" style="stop-color:#686262"/>
	<stop  offset="0.1586" style="stop-color:#B3AAA9"/>
	<stop  offset="0.8477" style="stop-color:#B3AAA9"/>
	<stop  offset="0.965" style="stop-color:#686262"/>
	<stop  offset="1" style="stop-color:#3A3636"/>
</linearGradient>
<path class="st6" d="M185.3,246.3v2.4c0,0,1.6,1,15.5,1l0,0H255c14.6,0,15.1-1,15.1-1v-2.4H185.3z"/>
<path class="st7" d="M229.6,10.7c0,0.8-0.6,1.4-1.4,1.4c-0.8,0-1.4-0.6-1.4-1.4c0-0.8,0.6-1.4,1.4-1.4S229.6,9.9,229.6,10.7z"/>
<path class="st8" d="M228.9,10.7c0,0.4-0.3,0.7-0.7,0.7s-0.7-0.3-0.7-0.7s0.3-0.7,0.7-0.7C228.6,10,228.9,10.3,228.9,10.7z"/>
<path class="st9" d="M228.5,10.3c0,0.1-0.1,0.2-0.3,0.2s-0.3-0.1-0.3-0.2c0-0.1,0.1-0.2,0.3-0.2S228.5,10.2,228.5,10.3z"/>
<path class="st9" d="M228.5,11.1c0,0.1-0.1,0.2-0.3,0.2s-0.3-0.1-0.3-0.2c0-0.1,0.1-0.2,0.3-0.2C228.4,10.8,228.5,11,228.5,11.1z"/>
</svg>
