<svg xmlns="http://www.w3.org/2000/svg" viewBox="0 0 289.59 288.69"><defs><style>.cls-1,.cls-2{fill:#2a4d69;}.cls-1{opacity:0.2;}.cls-3{fill:#fff;}.cls-4{fill:#fcfcfc;}</style></defs><title>Asset 21</title><g id="Layer_2" data-name="Layer 2"><g id="Layer_1-2" data-name="Layer 1"><ellipse class="cls-1" cx="144.8" cy="144.34" rx="144.8" ry="144.34"/><circle class="cls-1" cx="145.5" cy="144.34" r="45.63"/><circle class="cls-1" cx="145.5" cy="144.34" r="60.27"/><circle class="cls-1" cx="145.5" cy="144.34" r="76.68"/><circle class="cls-1" cx="145.5" cy="144.34" r="105.61"/><circle class="cls-2" cx="105.48" cy="123.84" r="10.41"/><circle class="cls-2" cx="122.01" cy="104.18" r="10.41"/><circle class="cls-2" cx="126.27" cy="145.79" r="12.27"/><path class="cls-2" d="M131.11,171.45a10.41,10.41,0,1,1-20.83,0,10.31,10.31,0,0,1,1.76-5.77,9,9,0,0,1,.59-.8,10.41,10.41,0,0,1,18.48,6.58Z"/><circle class="cls-2" cx="176.9" cy="154.74" r="10.41"/><path class="cls-2" d="M175.66,173.16a8,8,0,1,1-.42-2.56,6.69,6.69,0,0,1,.2.72A7.55,7.55,0,0,1,175.66,173.16Z"/><circle class="cls-2" cx="179.81" cy="114.59" r="6.59"/><circle class="cls-2" cx="137.18" cy="160.6" r="3.48"/><path class="cls-2" d="M168.52,141.34a7.09,7.09,0,0,1-6.77,7.09h-.66a7.1,7.1,0,1,1,7.43-7.09Z"/><circle class="cls-2" cx="189.34" cy="136.91" r="6.59"/><circle class="cls-2" cx="103.09" cy="143.49" r="4.7"/><circle class="cls-2" cx="144.43" cy="97.12" r="6.59"/><circle class="cls-2" cx="164.87" cy="101.44" r="7.66"/><path class="cls-2" d="M184.48,129.8v17.77h-.66V129.85l-.33-.31-3.35-3.06-.53-.49a.38.38,0,0,1-.12-.28v-10.8h.66v10.69l.14.13,3.55,3.22.5.46a.43.43,0,0,1,.14.24A.51.51,0,0,1,184.48,129.8Z"/><polygon class="cls-2" points="146.03 165.37 146.03 173.4 144.72 175.27 144.72 165.37 146.03 165.37"/><polygon class="cls-2" points="146.03 175.68 146.03 178.87 144.72 178.87 144.72 177.56 146.03 175.68"/><polygon class="cls-2" points="146.03 191.3 146.03 192.23 145.51 192.74 145.05 192.28 146.03 191.3"/><path class="cls-2" d="M112.63,164.87a9,9,0,0,0-.59.8l-.77-1a.27.27,0,0,1-.06-.08.35.35,0,0,1,0-.08l0,0a.49.49,0,0,1,0-.16v-.88l-7.7-10-.54-.71a.38.38,0,0,1-.11-.27v-6.71h.66v6.61l.1.12,7.61,9.85v-5.06l-.44-.56L105.51,150l-.37-.47-.05-.07a.55.55,0,0,1-.08-.29V125.55h1v23.53l.19.24h0l5,6.43.72.93a.66.66,0,0,1,.1.12.8.8,0,0,1,.13.44v6.88l.05.07Z"/><path class="cls-2" d="M137.17,172.83l-.5.44-10.54-11.9h0l0,0,0,0a.46.46,0,0,1-.11-.2.51.51,0,0,1,0-.17V149.21h.66v11.71l.33.38Z"/><path class="cls-2" d="M161.75,143.49v4.94h-.66v-4.94Z"/><path class="cls-2" d="M168.31,169.93V183a1.08,1.08,0,0,1-.31.74l-1,1-21,21-.23.23-.93-.93,1.15-1.15,20.32-20.31.65-.65V171.35l1.1-1.19Z"/><path class="cls-2" d="M159.68,223.34v1.35l-1.31-.31-1.21-.28-6.55-1.55h0l-2.69-.63h0l-2.18-.52h0a1,1,0,0,1-.43-.18,1.26,1.26,0,0,1-.54-1v-7.56l.27.31,1-.87-1.25-1.41V178.87H146V191.3l-1,1,.46.46.52-.52v11.64L144.88,205l.93.93.23-.23v14.4l1.14.27,3.42.8,2.71.64,5.06,1.19Z"/><polygon class="cls-2" points="146.03 191.3 146.03 192.23 145.51 192.74 145.05 192.28 146.03 191.3"/><polygon class="cls-2" points="146.03 203.87 146.03 205.72 145.8 205.95 144.88 205.03 146.03 203.87"/><polygon class="cls-2" points="125.94 161.14 125.94 161.16 125.93 161.15 125.94 161.14"/><polygon class="cls-2" points="145.97 212.06 144.99 212.93 144.72 212.63 144.72 210.65 145.97 212.06"/><polygon class="cls-2" points="146.03 203.87 146.03 205.72 145.8 205.95 144.88 205.03 146.03 203.87"/><polygon class="cls-2" points="145.97 212.06 144.99 212.93 144.72 212.63 144.72 210.65 145.97 212.06"/><path class="cls-2" d="M165.34,100.76v18.86a.63.63,0,0,1-.05.25.67.67,0,0,1-.13.2l-.13.1-.65.45-11.73,8.17V166a.48.48,0,0,1,0,.19v0l-.13.18h0l-1.12,1.61L146,175.68l-1.31,1.88-6.87,9.86v2.25l.74.53,19.82,14,1.31.93v1.61l-1.07-.76-.24-.17L137.5,191l-.46-.33-.06,0a1.07,1.07,0,0,1-.44-.86V159.44h1.31v25.7l6.87-9.86,1.31-1.88,5.31-7.62V115.09l-.18-.15-6.07-4.8-.79-.63-.18-.15a1.19,1.19,0,0,1-.33-.76V97.29h1.31v11.17l.86.68,6.37,5h0a1.12,1.12,0,0,1,.1.09.78.78,0,0,1,.22.53v12.81l11.41-7.95.32-.22V100.76Z"/><circle class="cls-2" cx="145.38" cy="166.45" r="3.48"/><path class="cls-2" d="M189.67,134.25v11.92a.51.51,0,0,1-.1.24l0,0-3.28,4.2-.52-.4,3.14-4,.11-.16V134.25Z"/><path class="cls-2" d="M177.22,154.58v14.75a.53.53,0,0,1-.1.31l-.06.06-1.62,1.62a6.69,6.69,0,0,0-.2-.72l1-1,.32-.32V154.58Z"/><polygon class="cls-2" points="171.05 167.2 168.31 169.94 168.1 170.16 145.51 192.74 145.05 192.28 146.03 191.3 170.59 166.74 171.05 167.2"/><path class="cls-2" d="M175.24,170.6a6.69,6.69,0,0,1,.2.72l-9.29,9.29-.46-.46Z"/><path class="cls-2" d="M117.52,171.2l-.75.59L112,165.67a9,9,0,0,1,.59-.8Z"/><path class="cls-2" d="M152.58,152.59l-.88,1-29-26.44-1-.92a1,1,0,0,1-.31-.73V105.39h1.31v20l.64.58Z"/><polygon class="cls-2" points="159.68 218.8 159.68 218.84 159.61 218.82 159.68 218.8"/><polygon class="cls-2" points="159.72 224.7 159.68 224.71 159.68 224.68 159.72 224.7"/><path class="cls-2" d="M149.81,228.59v.24h0A2.21,2.21,0,0,0,149.81,228.59Z"/><polygon class="cls-2" points="135.25 226.6 135.22 226.61 135.22 226.59 135.25 226.6"/><polygon class="cls-2" points="159.68 218.84 159.68 220.16 159.63 220.17 158.37 219.87 156.92 219.53 146.73 217.13 146.03 216.98 144.72 216.66 144.04 216.5 136.54 214.74 135.23 214.43 135.22 214.43 135.22 213.09 136.54 213.39 137.74 213.68 144.72 215.32 146.03 215.63 146.73 215.8 149.41 216.43 158.37 218.53 159.61 218.82 159.68 218.84"/><polygon class="cls-2" points="159.68 220.16 159.68 220.18 159.63 220.17 159.68 220.16"/><polygon class="cls-2" points="159.72 206.73 159.72 207.02 158.41 207.42 137.74 213.68 136.54 213.39 135.22 213.09 135.22 213.06 136.54 212.67 158.41 206.05 158.65 205.97 159.72 206.73"/><polygon class="cls-2" points="135.22 213.09 135.18 213.08 135.22 213.06 135.22 213.09"/><polygon class="cls-2" points="135.23 214.43 135.22 214.44 135.22 214.43 135.23 214.43"/><path class="cls-2" d="M159.68,224.68v0l-1.31.39-1.66.51-.45.13-6.45,2v.89a2.21,2.21,0,0,1,0,.24A3.91,3.91,0,0,1,149,231a3.6,3.6,0,0,1-1.1,1,3.84,3.84,0,0,1-2,.56,4,4,0,0,1-3.85-3.06l-5.46-2.33-1.28-.55h0v-1.34l.13,0,1.18.51.79.33,4.61,2,1.12.48a.24.24,0,0,0,0,.08,2.82,2.82,0,0,0,2.8,2.8,2.35,2.35,0,0,0,.5-.05,2.75,2.75,0,0,0,1.5-.78,2.82,2.82,0,0,0,.81-2v-1.91l.55-.17.6-.18,4.05-1.23h0l2.34-.71.94-.29,1.21.28Z"/><polygon class="cls-2" points="135.25 226.6 135.22 226.61 135.22 226.59 135.25 226.6"/><polygon class="cls-2" points="147.49 223.37 137.32 226.06 136.54 225.73 135.36 225.22 136.54 224.92 144.97 222.69 147.49 223.37"/><polygon class="cls-2" points="159.63 220.17 158.37 220.5 153.31 221.84 150.61 222.55 150.6 222.55 150 222.71 147.48 222.03 147.9 221.92 147.91 221.92 150.6 221.2 156.92 219.53 158.37 219.87 159.63 220.17"/><polygon class="cls-2" points="159.68 220.16 159.68 220.18 159.63 220.17 159.68 220.16"/><polygon class="cls-2" points="159.68 218.8 159.68 218.84 159.61 218.82 159.68 218.8"/><polygon class="cls-2" points="159.67 212.4 159.67 213.72 159.63 213.74 158.36 213.43 156.92 213.1 136.53 208.3 135.23 208 135.22 208 135.22 206.65 136.53 206.96 137.74 207.25 158.36 212.09 159.61 212.38 159.67 212.4"/><polygon class="cls-2" points="150 222.71 147.49 223.37 144.97 222.69 136.54 220.42 135.41 220.11 135.4 220.11 135.4 218.78 135.42 218.78 136.58 218.47 144.04 216.5 144.72 216.66 144.72 217.67 137.95 219.46 147.48 222.03 150 222.71"/><polygon class="cls-2" points="159.68 213.73 158.41 214.06 153.35 215.4 150.65 216.1 150.64 216.1 149.41 216.43 146.73 217.13 146.03 217.32 144.72 217.67 144.72 216.66 144.04 216.5 144.72 216.32 146.03 215.98 146.73 215.8 147.94 215.47 147.95 215.47 150.64 214.76 156.97 213.09 158.41 213.42 159.68 213.73"/><path class="cls-2" d="M136.33,198v9.6h-1.12v-9.54l-.75-.53-13.21-9.38-.68-.48a1,1,0,0,1-.44-.81v-11h1.12v10.93l.73.52,13.23,9.38.66.47.07,0a1,1,0,0,1,.31.4A.86.86,0,0,1,136.33,198Z"/><path class="cls-2" d="M167.82,158.13l-.44.49-5.63-5.06-.38-.35-.1-.09a.6.6,0,0,1-.17-.38v-4.3h.66v4.24l.45.4Z"/><path class="cls-2" d="M161.75,148.08v.36h-.66v-.36Z"/><circle class="cls-2" cx="136.54" cy="107.53" r="3.57"/><path class="cls-2" d="M136.87,107.88v5.79a.57.57,0,0,1-.23.46.62.62,0,0,1-.13.07l-.31.17-13.86,8-.33-.57,13.74-7.94.45-.26v-5.74Z"/><polygon class="cls-2" points="135.4 218.77 135.42 218.78 135.4 218.78 135.4 218.77"/><path class="cls-3" d="M125.25,170.59a.64.64,0,0,0-1.2,0h-1.32v-.85h.85a.21.21,0,0,0,.21-.21h0v-.89a.64.64,0,1,0-.43,0v.68h-.64v-.43a.21.21,0,0,0-.21-.21h-.43v-1.11a.64.64,0,1,0-.43,0v1.11h-.85v-3.41a.21.21,0,0,0-.21-.21h0a4.48,4.48,0,0,0-4.7,4.34,8.81,8.81,0,0,0,1.2,4c.13.23.31.48.49.74a4.15,4.15,0,0,1,.87,1.71.61.61,0,0,0-.26.51.63.63,0,0,0,.14.4.66.66,0,0,0-.2.47.64.64,0,0,0,.64.64h3.63a.64.64,0,0,0,.64-.65h0a.64.64,0,0,0-.2-.46.66.66,0,0,0,.14-.41.61.61,0,0,0-.61-.61H120.8v-4.06h.43v.64a.21.21,0,0,0,.21.21h.64v.25a.64.64,0,1,0,.43,0v-.47a.21.21,0,0,0-.21-.21h-.64v-.43h.85a.21.21,0,0,0,.21-.21h0V171H124a.64.64,0,0,0,1.2-.43Zm-1.67-2.77a.21.21,0,1,1-.21.21A.21.21,0,0,1,123.58,167.82Zm-5.65,6.06c-.18-.25-.34-.49-.47-.71a8.5,8.5,0,0,1-1.14-3.78,4,4,0,0,1,4.05-3.91V167l-.18,0a.21.21,0,0,0-.18.17l-.07.31-.16,0-.21-.24a.21.21,0,0,0-.24-.05,3.21,3.21,0,0,0-.67.39.21.21,0,0,0-.07.24l.1.3-.12.12-.3-.1a.21.21,0,0,0-.24.07,3.2,3.2,0,0,0-.39.67.21.21,0,0,0,.05.24l.24.21,0,.16-.33.07a.21.21,0,0,0-.17.21v.73a.21.21,0,0,0,.17.21l.33.07,0,.16-.24.21a.21.21,0,0,0-.05.24,3.2,3.2,0,0,0,.39.67.21.21,0,0,0,.24.07l.3-.1.12.12-.1.3a.21.21,0,0,0,.07.24,3.2,3.2,0,0,0,.67.39.21.21,0,0,0,.24-.05l.21-.24.16,0,.06.31a.21.21,0,0,0,.18.17l.18,0v2.36h-1.51A4.7,4.7,0,0,0,117.93,173.88Zm.74-3.72a1.92,1.92,0,0,0,1.71,1.91v.73l0-.17a.21.21,0,0,0-.17-.17,2.31,2.31,0,0,1-.37-.1h-.07a.21.21,0,0,0-.16.07l-.2.22-.32-.19.09-.28a.21.21,0,0,0-.06-.23,2.34,2.34,0,0,1-.27-.27.21.21,0,0,0-.23-.06l-.28.09a2.77,2.77,0,0,1-.19-.32l.22-.2a.21.21,0,0,0,.06-.23,2.32,2.32,0,0,1-.1-.37.21.21,0,0,0-.17-.17l-.3-.06V170l.3-.06a.21.21,0,0,0,.17-.17,2.33,2.33,0,0,1,.1-.37.21.21,0,0,0-.06-.23l-.22-.2a2.8,2.8,0,0,1,.19-.32l.28.09a.21.21,0,0,0,.23-.06,2.39,2.39,0,0,1,.27-.27.21.21,0,0,0,.06-.23l-.09-.28.32-.19.2.22a.21.21,0,0,0,.23.06,2.31,2.31,0,0,1,.37-.1.21.21,0,0,0,.17-.17l0-.17v.73A1.92,1.92,0,0,0,118.67,170.16Zm1.71-1.48v3a1.49,1.49,0,0,1,0-3Zm2.24,8.53a.21.21,0,0,1-.21.21h-3.63a.22.22,0,0,1-.21-.22h0a.21.21,0,0,1,.21-.21h3.63a.22.22,0,0,1,.21.22Zm-.27-1.07a.2.2,0,0,1,.21.2.21.21,0,0,1-.21.21h-3.52a.22.22,0,0,1-.21-.22h0a.19.19,0,0,1,.2-.18h3.53Zm-.05-3a.21.21,0,1,1-.21.21A.21.21,0,0,1,122.3,173.15Zm-.43-6.4a.21.21,0,1,1-.21.21A.21.21,0,0,1,121.87,166.75Zm.43,4.48H120.8V169.1h1.49Zm2.35-.21a.21.21,0,1,1,.21-.21A.21.21,0,0,1,124.65,171Z"/><path class="cls-3" d="M122.65,174.8a3.62,3.62,0,0,0-.2.42l.4.16A3.19,3.19,0,0,1,123,175Z"/><path class="cls-3" d="M123.13,174.05l-.25.37.36.23.24-.35Z"/><path class="cls-3" d="M123.62,173.34l-.24.35.35.24.25-.37Z"/><path class="cls-3" d="M124,172.6l-.19.38.38.2.2-.4Z"/><path class="cls-3" d="M124.35,171.81l-.16.4.39.17.16-.41Z"/><path class="cls-3" d="M125.29,169.35h-.43v0c0,.12,0,.25,0,.38l.43,0c0-.14,0-.28,0-.41Z"/><path class="cls-3" d="M125.18,168.44l-.42.1a3.69,3.69,0,0,1,.07.4l.42-.05A4.14,4.14,0,0,0,125.18,168.44Z"/><path class="cls-3" d="M124.87,167.57l-.38.19a3.73,3.73,0,0,1,.16.38l.4-.14A4.11,4.11,0,0,0,124.87,167.57Z"/><path class="cls-3" d="M124.38,166.8l-.33.27a3.88,3.88,0,0,1,.24.34l.36-.23A4.31,4.31,0,0,0,124.38,166.8Z"/><path class="cls-3" d="M123.74,166.15l-.27.33.3.28.3-.3A4.48,4.48,0,0,0,123.74,166.15Z"/><path class="cls-3" d="M123,165.64l-.2.38.35.21.24-.35Z"/><path class="cls-3" d="M122.15,165.29l-.13.41.39.14.17-.39Z"/><path class="cls-3" d="M121.27,165.09l-.05.42.41.07.09-.42Z"/><rect class="cls-3" x="114.62" y="176.57" width="0.43" height="0.43"/><rect class="cls-3" x="114.62" y="177.42" width="0.43" height="0.43"/><rect class="cls-3" x="115.04" y="176.99" width="0.43" height="0.43"/><rect class="cls-3" x="114.19" y="176.99" width="0.43" height="0.43"/><rect class="cls-3" x="126.35" y="165.04" width="0.43" height="0.43"/><rect class="cls-3" x="126.35" y="165.89" width="0.43" height="0.43"/><rect class="cls-3" x="126.78" y="165.47" width="0.43" height="0.43"/><rect class="cls-3" x="125.93" y="165.47" width="0.43" height="0.43"/><path class="cls-3" d="M191.17,138.07a.17.17,0,1,0-.17-.17A.17.17,0,0,0,191.17,138.07Z"/><path class="cls-3" d="M186.71,138A4.86,4.86,0,0,0,188,140.3h0v.7a.17.17,0,0,0,.17.17h3a.17.17,0,0,0,.17-.17v-.72A4.13,4.13,0,0,0,192,138v-1.3a7.66,7.66,0,0,1-1.66-1,.66.66,0,0,1-1-.33.66.66,0,0,0-.33.09V134a.67.67,0,0,0-1.33,0v2.39l-.45.3A1.23,1.23,0,0,0,186.71,138Zm.7-1,.27-.18v1.13a.17.17,0,0,0,.33,0V134a.33.33,0,1,1,.67,0v3.26a.17.17,0,0,0,.33,0v-1.16a.33.33,0,1,1,.67,0v1.16a.17.17,0,0,0,.33,0v-.83a.33.33,0,0,1,.67,0v.83a.17.17,0,0,0,.33,0v-.5a.33.33,0,1,1,.67,0V138a3.79,3.79,0,0,1-.64,2.1.17.17,0,0,0,0,.09v.6h-2.66v-.6a.17.17,0,0,0,0-.12A4.53,4.53,0,0,1,187,137.9.89.89,0,0,1,187.41,137Z"/><path class="cls-3" d="M190.53,140a.17.17,0,0,0,.23,0,3.43,3.43,0,0,0,.54-1.36.17.17,0,0,0-.33-.05,3.1,3.1,0,0,1-.48,1.23A.17.17,0,0,0,190.53,140Z"/><path class="cls-3" d="M187.18,134.15a.17.17,0,0,0,.17-.17,1,1,0,1,1,2,0,.17.17,0,1,0,.33,0,1.33,1.33,0,1,0-2.66,0A.17.17,0,0,0,187.18,134.15Z"/><path class="cls-3" d="M131.77,143.18H118.63a.22.22,0,0,0-.23.22h0v6.31a.22.22,0,0,0,.22.23h8.93a.23.23,0,0,0,0-.45h-8.71v-5.86h12.69v.56a.22.22,0,0,0,.22.23h0a.22.22,0,0,0,.23-.22h0v-.79A.22.22,0,0,0,131.77,143.18Z"/><path class="cls-3" d="M130.24,142.13l-10.51-2.36a.23.23,0,0,0-.27.17l-.53,2.36a.23.23,0,1,0,.44.1l.48-2.14,10.29,2.32h0a.23.23,0,0,0,0-.44Z"/><path class="cls-3" d="M129,140.83l-6.31-2.63a.23.23,0,0,0-.29.11l-.53,1.05a.23.23,0,1,0,.4.21h0l.43-.86,6.11,2.55a.23.23,0,1,0,.17-.42Z"/><path class="cls-3" d="M129.12,144.23H127a.23.23,0,1,0,0,.45h2.09a.23.23,0,0,0,0-.45Z"/><path class="cls-3" d="M124.93,144.24a2.31,2.31,0,1,0,2.31,2.31A2.31,2.31,0,0,0,124.93,144.24Zm0,4.2a1.89,1.89,0,1,1,1.89-1.89A1.89,1.89,0,0,1,124.93,148.45Z"/><path class="cls-3" d="M131.24,145c-1.39,0-2.89.33-2.89,1.05v6.31c0,.72,1.5,1.05,2.89,1.05s2.89-.33,2.89-1.05V146C134.13,145.31,132.63,145,131.24,145Zm2.36,7.35c0,.15-.83.53-2.36.53s-2.33-.38-2.36-.53v-.41a7,7,0,0,0,4.73,0Zm0-1.05c0,.15-.83.53-2.36.53s-2.33-.38-2.36-.53v-.41a7,7,0,0,0,4.73,0Zm0-1.05c0,.15-.83.53-2.36.53s-2.33-.38-2.36-.53v-.41a7,7,0,0,0,4.73,0Zm0-1.05c0,.15-.83.53-2.36.53s-2.33-.38-2.36-.53v-.41a7,7,0,0,0,4.73,0Zm0-1.05c0,.15-.83.53-2.36.53s-2.33-.38-2.36-.53v-.41a7,7,0,0,0,4.73,0Zm0-1.05c0,.15-.83.53-2.36.53s-2.33-.38-2.36-.53v-.41a7,7,0,0,0,4.73,0Zm-2.36-.52c-1.53,0-2.32-.38-2.36-.52h0c0-.15.83-.53,2.36-.53s2.31.38,2.36.53S132.76,146.56,131.24,146.56Z"/><path class="cls-3" d="M122.83,148.43h-2l-.94-1V145.7l1-1h1.89a.23.23,0,1,0,0-.45h-2a.23.23,0,0,0-.16.06l-1.17,1.14a.28.28,0,0,0-.07.18v1.87a.23.23,0,0,0,.06.15l1.07,1.17a.23.23,0,0,0,.17.07h2.09a.23.23,0,1,0,0-.45Z"/><path class="cls-3" d="M125.07,146.29h-.26c-.08,0-.13,0-.13-.07s0-.07.13-.07h.66a.26.26,0,1,0,0-.53h-.26a.26.26,0,0,0-.53,0h0a.61.61,0,0,0-.53.58.63.63,0,0,0,.66.59h.26c.08,0,.13,0,.13.07s0,.07-.13.07h-.66a.26.26,0,0,0,0,.53h.26a.26.26,0,1,0,.53,0h0a.61.61,0,0,0,.53-.58A.63.63,0,0,0,125.07,146.29Z"/><path class="cls-3" d="M145.11,94.78a.14.14,0,1,0,.14.14A.14.14,0,0,0,145.11,94.78Z"/><path class="cls-3" d="M143.75,94.78a.14.14,0,1,0,.14.14A.14.14,0,0,0,143.75,94.78Z"/><path class="cls-3" d="M147.37,97.7a1.08,1.08,0,0,0,.17-.58.94.94,0,0,0-.34-.73.92.92,0,0,0,.07-.36,1,1,0,0,0-.55-.89.81.81,0,0,0-.62-.89,1,1,0,0,0-.87-.6,1,1,0,0,0-.81.49,1,1,0,0,0-.81-.49,1,1,0,0,0-.87.6.81.81,0,0,0-.62.89,1,1,0,0,0-.55.89.92.92,0,0,0,.07.36.94.94,0,0,0-.34.73,1.08,1.08,0,0,0,.17.58.93.93,0,0,0,.11,1.21,1,1,0,0,0,.94,1.13h0a1.07,1.07,0,0,0,1.88,0,1.07,1.07,0,0,0,1.88,0h0a1,1,0,0,0,.95-1,.87.87,0,0,0,0-.14.93.93,0,0,0,.11-1.21Zm-3.08-2a.54.54,0,0,0-.27-.07.14.14,0,1,0,0,.27.27.27,0,0,1,.27.27v2.57a1.08,1.08,0,0,0-.81-.37.14.14,0,1,0,0,.27.81.81,0,0,1,.81.81.84.84,0,0,1-.81.85.81.81,0,0,1-.74-.47.14.14,0,0,0-.14-.08h0a.71.71,0,0,1-.7-.87.14.14,0,0,0,0-.14.67.67,0,0,1-.25-.52.67.67,0,0,1,.1-.35.91.91,0,0,0,.58.21.14.14,0,0,0,0-.27.71.71,0,0,1-.68-.72.67.67,0,0,1,.32-.57.14.14,0,0,0,0-.18.67.67,0,0,1-.09-.33.68.68,0,1,1,1.35,0,.14.14,0,1,0,.27,0,1,1,0,0,0-.95-1h-.14a.54.54,0,0,1,.92-.38.14.14,0,0,0,.19-.19.81.81,0,0,0-.45-.23.68.68,0,0,1,.55-.32.72.72,0,0,1,.68.72Zm2.3,2.4a.91.91,0,0,0,.58-.21.67.67,0,0,1,.1.35.67.67,0,0,1-.25.52.14.14,0,0,0,0,.14.67.67,0,0,1,0,.16.71.71,0,0,1-.72.71h0a.14.14,0,0,0-.14.08.81.81,0,0,1-.74.47.84.84,0,0,1-.81-.85.81.81,0,0,1,.81-.81.14.14,0,0,0,0-.27,1.08,1.08,0,0,0-.81.37V96.18a.27.27,0,0,1,.27-.27.14.14,0,0,0,0-.27.54.54,0,0,0-.27.07V94.65a.72.72,0,0,1,.68-.72.68.68,0,0,1,.55.32.81.81,0,0,0-.45.23.14.14,0,1,0,.19.19.54.54,0,0,1,.92.38h-.14a1,1,0,0,0-.95,1,.14.14,0,1,0,.27,0A.68.68,0,1,1,147,96a.67.67,0,0,1-.09.33.14.14,0,0,0,0,.18.67.67,0,0,1,.32.57.71.71,0,0,1-.68.72.14.14,0,1,0,0,.27Z"/><path class="cls-3" d="M144,96.56a.14.14,0,0,0-.19,0,.68.68,0,0,1-1.13-.5.14.14,0,0,0-.27,0,1,1,0,0,0,.79.94.41.41,0,0,1-.39.28.14.14,0,1,0,0,.27.68.68,0,0,0,.66-.55,1,1,0,0,0,.51-.23A.14.14,0,0,0,144,96.56Z"/><path class="cls-3" d="M142.53,98.92a.14.14,0,1,0,0,.27.72.72,0,0,1,.68.72.14.14,0,1,0,.27,0A1,1,0,0,0,142.53,98.92Z"/><path class="cls-3" d="M143.62,97.84a1.22,1.22,0,0,0-1.06.62.14.14,0,1,0,.24.13,1,1,0,0,1,.82-.48.14.14,0,1,0,0-.27Z"/><path class="cls-3" d="M146.05,97.26a.41.41,0,0,1-.39-.28,1,1,0,0,0,.79-.94.14.14,0,0,0-.27,0,.68.68,0,0,1-1.13.5.14.14,0,1,0-.18.2,1,1,0,0,0,.51.23.68.68,0,0,0,.66.55.14.14,0,0,0,0-.27Z"/><path class="cls-3" d="M146.32,98.92a1,1,0,0,0-.95,1,.14.14,0,1,0,.27,0,.72.72,0,0,1,.68-.72.14.14,0,0,0,0-.27Z"/><path class="cls-3" d="M146.3,98.46a1.22,1.22,0,0,0-1.06-.62.14.14,0,0,0,0,.27,1,1,0,0,1,.82.48.14.14,0,0,0,.24-.13Z"/><path class="cls-4" d="M167.79,99.2a1.1,1.1,0,1,0-1.17,0,1.66,1.66,0,0,0-.85.72,1.65,1.65,0,0,0-.33-.17,1.1,1.1,0,1,0-1.16,0,1.64,1.64,0,0,0-.33.17,1.66,1.66,0,0,0-.85-.72,1.1,1.1,0,1,0-1.17,0,1.66,1.66,0,0,0-1.07,1.55v1.1a.55.55,0,0,0,.55.55h.14v2.21a10.07,10.07,0,0,1,1.38.55.55.55,0,0,0,.55-.55v-1.73a.55.55,0,0,0,.28.08h.14v2.21a10.07,10.07,0,0,1,1.38.55.55.55,0,0,0,.55-.55V103H166a.55.55,0,0,0,.28-.08v1.73a10.07,10.07,0,0,1,1.38.55.55.55,0,0,0,.55-.55V102.4h.14a.55.55,0,0,0,.55-.55v-1.1A1.66,1.66,0,0,0,167.79,99.2Zm-.88.2a1.29,1.29,0,0,1,.6,0l-.3.42Zm.12.64-.18.18-.27-.7.05,0Zm.36,0,.39-.55.05,0-.27.7Zm-1-1.78a.83.83,0,1,1,.83.83A.83.83,0,0,1,166.38,98.27ZM165,101l-.13.2-.13-.2.08-1.06h.11Zm-1-2.17a.83.83,0,1,1,.83.83A.83.83,0,0,1,164,98.82Zm-1.52.55.25,0c0,.15-.14.25-.25.25s-.21-.1-.25-.25Zm-.83-1.1a.83.83,0,1,1,.83.83A.83.83,0,0,1,161.7,98.27Zm1.52,6.34a.28.28,0,0,1-.55,0v-2.89h-.28v2.89a.28.28,0,0,1-.55,0V100.2h-.28v1.93h-.14a.28.28,0,0,1-.28-.28v-1.1a1.38,1.38,0,0,1,.86-1.28.52.52,0,0,0,1,0,1.38,1.38,0,0,1,.7.62,1.65,1.65,0,0,0-.52,1.2v3.31Zm2.76-1.93h-.14v-1.93h-.28v4.41a.28.28,0,1,1-.55,0v-2.89h-.28v2.89a.28.28,0,1,1-.55,0v-4.41h-.28v1.93h-.14a.28.28,0,0,1-.28-.28v-1.1a1.38,1.38,0,0,1,1-1.34l-.08,1.1.42.63.42-.63-.08-1.1a1.38,1.38,0,0,1,1,1.34v1.1A.28.28,0,0,1,166,102.68Zm2.62-.83a.28.28,0,0,1-.28.28h-.14v-1.79h-.28v4.27a.28.28,0,1,1-.55,0v-2.89h-.28v2.89a.28.28,0,1,1-.55,0V101.3a1.65,1.65,0,0,0-.52-1.2,1.37,1.37,0,0,1,.35-.42l.4,1,.47-.47.47.47.4-1a1.38,1.38,0,0,1,.52,1.07Z"/><path class="cls-3" d="M175.84,149.25a4.43,4.43,0,1,0,4.43,4.43A4.43,4.43,0,0,0,175.84,149.25Zm0,.42a4,4,0,0,1,3.28,1.7l-.53.53a.83.83,0,0,0-.43-.12.84.84,0,0,0-.84.84.83.83,0,0,0,.12.43l-1.38,1.38a.82.82,0,0,0-.85,0l-1-1a.83.83,0,0,0,.12-.43.84.84,0,0,0-1.66-.21h-.78A4,4,0,0,1,175.84,149.67Zm2.74,3a.42.42,0,1,1-.42-.42A.42.42,0,0,1,178.59,152.63Zm-2.53,2.53a.42.42,0,1,1-.42-.42A.42.42,0,0,1,176.05,155.16Zm-2.11-2.11a.42.42,0,1,1-.42-.42A.42.42,0,0,1,173.94,153.05Zm3.85,4.14a4,4,0,0,1-5.94-3.93h.85a.84.84,0,0,0,.81.63.83.83,0,0,0,.43-.12l1,1a.83.83,0,0,0-.12.43.84.84,0,0,0,1.69,0,.83.83,0,0,0-.12-.43l1.38-1.38a.83.83,0,0,0,.43.12.84.84,0,0,0,.84-.84.83.83,0,0,0-.12-.43l.46-.46A4,4,0,0,1,177.79,157.19Z"/><path class="cls-3" d="M181.12,150.52a.84.84,0,0,0,.81-.63h1.3v-.42h-1.3a.84.84,0,0,0-1.66.21.83.83,0,0,0,.12.43l-.37.37a5.28,5.28,0,1,0-1.32,7.64l.64.64.3.3,1.7,1.7a1.11,1.11,0,1,0,1.57-1.57l-1.7-1.7-.3-.3-.64-.64a5.26,5.26,0,0,0,0-5.73l.42-.42A.83.83,0,0,0,181.12,150.52Zm0-1.27a.42.42,0,1,1-.42.42A.42.42,0,0,1,181.12,149.25Zm1.49,10.23a.68.68,0,1,1-1,1h0l-1.7-1.7,1-1Zm-2-2-1,1-.58-.58.09-.07.09-.08.14-.12.07-.06.25-.25.06-.07.12-.14L180,157l.07-.09Zm-.82-1-.21.27-.07.08-.2.22-.09.09-.22.2-.08.07-.27.21a4.86,4.86,0,1,1,1.13-1.13Z"/><path class="cls-3" d="M137.76,159.95a.06.06,0,1,0,.06.06A.06.06,0,0,0,137.76,159.95Z"/><path class="cls-3" d="M136.59,161.12a.06.06,0,1,0,.06.06A.06.06,0,0,0,136.59,161.12Z"/><path class="cls-3" d="M138.75,159.35a.06.06,0,0,0-.06,0l-.27.27h-.13l-.14-.15v-.13l.26-.27a.06.06,0,0,0,0-.11.65.65,0,0,0-.83.78l-.48.48-.79-.79v-.16a.06.06,0,0,0,0-.06l-.46-.27a.06.06,0,0,0-.08,0l-.18.18a.06.06,0,0,0,0,.08l.27.46a.06.06,0,0,0,.06,0H136l.79.79-.47.47a.65.65,0,0,0-.78.83.06.06,0,0,0,.11,0l.27-.27h.13l.15.15v.13l-.27.27a.06.06,0,0,0,0,.11.65.65,0,0,0,.83-.78l.38-.38.09.09,0,0a.06.06,0,1,0,.09.09l0,0,.82.89h0a.39.39,0,0,0,.55-.55h0l-.89-.82,0,0a.06.06,0,1,0-.09-.09l0,0-.09-.09.38-.38.17,0a.65.65,0,0,0,.61-.85A.06.06,0,0,0,138.75,159.35Zm-2.66.26,0,0h-.15l-.23-.38.11-.11.38.23v.15a.06.06,0,0,0,0,0l.81.81-.09.09Zm1.64,1.26.89.82a.26.26,0,0,1-.37.37l-.82-.89Zm-.1-.09-.29.29-.09-.09.28-.28Zm.55-.67-.16,0a.06.06,0,0,0-.07,0l-1.28,1.28a.06.06,0,0,0,0,.07.52.52,0,0,1-.49.68h-.06l.21-.2a.06.06,0,0,0,0,0v-.18a.06.06,0,0,0,0,0l-.18-.18,0,0h-.18l0,0-.2.21a.52.52,0,0,1,0-.06.52.52,0,0,1,.68-.49.06.06,0,0,0,.07,0l1.28-1.28a.06.06,0,0,0,0-.07.52.52,0,0,1,.49-.68h.06l-.2.2a.06.06,0,0,0,0,0v.18a.06.06,0,0,0,0,0l.18.18,0,0h.18l0,0,.2-.2a.52.52,0,0,1,0,.06A.52.52,0,0,1,138.18,160.11Z"/><path class="cls-3" d="M137.53,160.15l-.81.81a.06.06,0,0,0,.09.09l.81-.81a.06.06,0,0,0-.09-.09Z"/><path class="cls-3" d="M138.35,161.87a.06.06,0,1,0,.09-.09l-.58-.58a.06.06,0,0,0-.09.09Z"/><path class="cls-3" d="M147.79,166h-.09a2.36,2.36,0,0,0-4.64,0H143a.19.19,0,0,0-.19.19v.69a.19.19,0,0,0,.19.19h.15a2.36,2.36,0,0,0,.73,1.14.08.08,0,0,0,.1-.12,2.21,2.21,0,0,1-.25-.25l.36-.12a2.53,2.53,0,0,0,.19.29,3,3,0,0,0,.52.53,2.19,2.19,0,0,1-.45-.19.08.08,0,0,0-.07.13,2.36,2.36,0,0,0,3.41-1.41h.15a.19.19,0,0,0,.19-.19v-.7A.19.19,0,0,0,147.79,166Zm-.25,0H147l0-.12a2.69,2.69,0,0,0-.21-.62h0a2.91,2.91,0,0,0,.34-.12A2.18,2.18,0,0,1,147.54,166Zm-.68,0h-.79v-.11c0-.17,0-.34-.07-.49a4.94,4.94,0,0,0,.63-.11,2.53,2.53,0,0,1,.21.62Zm.08-1.15.13.14-.29.1-.07,0a2.68,2.68,0,0,0-.16-.25,2.62,2.62,0,0,0-.54-.56A2.19,2.19,0,0,1,146.93,164.89Zm-1.32-.63a2.48,2.48,0,0,1,.81.72l.13.2a4.82,4.82,0,0,1-.59.1,3.14,3.14,0,0,0-.39-1Zm-.24,0h0a2.74,2.74,0,0,1,.43,1h-.87a2.74,2.74,0,0,1,.43-1Zm-.2,0a3.14,3.14,0,0,0-.39,1,4.38,4.38,0,0,1-.59-.09l.13-.21a2.48,2.48,0,0,1,.81-.72Zm-.42,1.18c0,.16-.05.32-.07.49V166h-.79l0-.1a2.54,2.54,0,0,1,.21-.61A4.44,4.44,0,0,0,144.76,165.43Zm-.94-.54a2.19,2.19,0,0,1,.93-.55,2.62,2.62,0,0,0-.54.56,2.67,2.67,0,0,0-.16.26l-.35-.12Zm-.23.26a3,3,0,0,0,.38.14,2.69,2.69,0,0,0-.21.62l0,.13h-.53A2.18,2.18,0,0,1,143.59,165.15Zm-.63,1.79a0,0,0,0,1,0,0v-.69a0,0,0,0,1,0,0h2.2a.08.08,0,0,0,0-.15h-.33v-.1c0-.17,0-.34.07-.49h.49l.44,0c0,.16.05.32.07.49v.1h-.27a.08.08,0,0,0,0,.15h1.18v.76H143Zm3.84.15a2.43,2.43,0,0,1-.18.47,4.94,4.94,0,0,0-.63-.11c0-.12,0-.24.05-.37h.76Zm-.91,0c0,.12,0,.24-.05.35l-.53,0h-.4c0-.11,0-.23-.05-.35Zm-2.3.64a2.2,2.2,0,0,1-.32-.64h.52a2.59,2.59,0,0,0,.18.51A3,3,0,0,0,143.59,167.74Zm.35-.64h.76c0,.12,0,.25.05.36a4.44,4.44,0,0,0-.63.1A2.43,2.43,0,0,1,143.94,167.1Zm1.19,1.54a2.64,2.64,0,0,1-.78-.7,2.37,2.37,0,0,1-.16-.24,4.38,4.38,0,0,1,.59-.09,3.93,3.93,0,0,0,.11.4,3,3,0,0,0,.28.63Zm.24,0h0A2.46,2.46,0,0,1,145,168c0-.11-.07-.23-.1-.36h.87c0,.13-.06.25-.1.36a2.46,2.46,0,0,1-.33.69Zm.2,0a3,3,0,0,0,.28-.63,3.9,3.9,0,0,0,.11-.39,4.82,4.82,0,0,1,.58.09l-.15.23a2.64,2.64,0,0,1-.78.7Zm1.36-.64a2.19,2.19,0,0,1-.94.56,3,3,0,0,0,.52-.53,2.52,2.52,0,0,0,.19-.28l.07,0,.29.1Zm.23-.26a2.91,2.91,0,0,0-.34-.12h0a2.58,2.58,0,0,0,.19-.51h.52A2.18,2.18,0,0,1,147.16,167.74Zm.66-.83a0,0,0,0,1,0,0H147v-.76h.81a0,0,0,0,1,0,0Z"/><path class="cls-3" d="M143.35,166.72s0,0,0,0,0,0,0,0v-.38s0,0,0,0,0,0,0,0v.17a.08.08,0,0,1,.07,0,.11.11,0,0,1,.1.11v.13s0,0,0,0,0,0,0,0v-.13a.05.05,0,0,0,0-.05,0,0,0,0,0,0,.05v.13Z"/><path class="cls-3" d="M143.68,166.65s0,0,0,0h0a0,0,0,1,1,0,.06h0c-.07,0-.1,0-.1-.09v-.27s0,0,0,0,0,0,0,0v.1h.07s0,0,0,0,0,0,0,0h-.07v.12Z"/><path class="cls-3" d="M143.91,166.65s0,0,0,0h0a0,0,0,1,1,0,.06h0c-.07,0-.1,0-.1-.09v-.27s0,0,0,0,0,0,0,0v.1H144s0,0,0,0,0,0,0,0h-.07Z"/><path class="cls-3" d="M144.14,166.49v0a.09.09,0,0,1,.08,0,.11.11,0,0,1,.1.11v0a.11.11,0,0,1-.1.12.08.08,0,0,1-.07,0v.14s0,0,0,0,0,0,0,0v-.35s0,0,0,0S144.14,166.48,144.14,166.49Zm.1.09a.05.05,0,0,0-.05-.05,0,0,0,0,0,0,.05v.06a.05.05,0,0,0,0,0,.05.05,0,0,0,.05-.05Z"/><path class="cls-3" d="M144.52,166.66s-.13,0-.13-.11,0-.08.1-.08.09,0,.09,0,0,0,0,0l-.06,0s0,0,0,0,.14,0,.14.11,0,.08-.1.08-.1,0-.1,0,0,0,0,0,0,0,.08,0S144.52,166.68,144.52,166.66Z"/><path class="cls-3" d="M144.73,166.54a0,0,0,0,1,0,0,0,0,0,1,1,0-.08A0,0,0,0,1,144.7,166.58Zm0,.16a0,0,0,0,1,0,0,0,0,0,1,1,0-.08A0,0,0,0,1,144.7,166.74Z"/><path class="cls-3" d="M145.05,166.33h0l-.2.41h0a0,0,0,0,1,0,0h0l.2-.41h0A0,0,0,0,1,145.05,166.33Z"/><path class="cls-3" d="M145.23,166.33h0l-.2.41h0a0,0,0,0,1,0,0h0l.2-.41h0A0,0,0,0,1,145.23,166.33Z"/><path class="cls-3" d="M145.55,166.73h-.06l0-.12,0,.12h-.06l-.09-.22h0s0,0,0,0h0l.06.16,0-.14s0,0,0,0,0,0,0,0l0,.14.06-.16h0s0,0,0,0h0Z"/><path class="cls-3" d="M146,166.73h-.06l0-.12,0,.12h-.06l-.09-.22h0s0,0,0,0h0l.06.16,0-.14s0,0,0,0,0,0,0,0l0,.14.06-.16h0s0,0,0,0h0Z"/><path class="cls-3" d="M146.4,166.73h-.06l0-.12,0,.12h-.06l-.09-.22h0s0,0,0,0h0l.06.16,0-.14s0,0,0,0,0,0,0,0l0,.14.06-.16h0s0,0,0,0h0Z"/><path class="cls-3" d="M147.62,166.41h-.08l0-.07a.11.11,0,0,0-.21,0l0,.07h-.08a.11.11,0,0,0-.06.2l.06.06v.08a.11.11,0,0,0,.17.12l.07,0,.07,0h.05l.07,0a.11.11,0,0,0,0-.11v-.08l.06-.06a.11.11,0,0,0-.06-.2Zm-.12.16a.11.11,0,0,0,0,.1v0h0a.11.11,0,0,0-.11,0h0v0a.11.11,0,0,0,0-.1l0,0h0a.11.11,0,0,0,.09-.06v0a.11.11,0,0,0,.09.06h0Z"/><g id="_Group_" data-name="&lt;Group&gt;"><g id="_Group_2" data-name="&lt;Group&gt;"><path id="_Path_" data-name="&lt;Path&gt;" class="cls-3" d="M177.94,113.57a.15.15,0,1,0,.11,0A.15.15,0,0,0,177.94,113.57Z"/><path id="_Path_2" data-name="&lt;Path&gt;" class="cls-3" d="M182.17,115.12a.15.15,0,1,0,.11,0A.15.15,0,0,0,182.17,115.12Z"/><path id="_Path_3" data-name="&lt;Path&gt;" class="cls-3" d="M179.66,117.81a.15.15,0,0,0,.15.15h0a.15.15,0,1,0-.15-.15Z"/><path id="_Compound_Path_" data-name="&lt;Compound Path&gt;" class="cls-3" d="M183.32,112.26h-.89v-.93a.6.6,0,0,0-.6-.6h-4a.6.6,0,0,0-.6.6v2.84h-.86a.37.37,0,0,0-.37.37v1.73a.37.37,0,0,0,.37.37h.86v1.2a.6.6,0,0,0,.6.6h4a.6.6,0,0,0,.6-.6v-2a.15.15,0,1,0-.3,0v2a.3.3,0,0,1-.3.3h-4a.3.3,0,0,1-.3-.3v-1.2h.3v.68a.15.15,0,0,0,.15.15h3.74a.15.15,0,0,0,.15-.15v-2.55h1.49a.35.35,0,0,0,.35-.35v-1.81A.35.35,0,0,0,183.32,112.26Zm-6.69,4.08.66-.66a.61.61,0,0,0,.63,0l.66.66Zm.44-.86-.81.81v-1.63Zm1.9.79v0l-.81-.81.82-.82Zm-1.14-.9h0a.31.31,0,0,1-.44,0h0l-.9-.9h2.24Zm3.7,1.81h-3.44v-.53h.8a.37.37,0,0,0,.37-.37v-1.73a.37.37,0,0,0-.37-.37h-1.41v-2.84a.3.3,0,0,1,.3-.3h4a.3.3,0,0,1,.3.3v.93h-.3v-.57a.15.15,0,0,0-.15-.15h-3.74a.15.15,0,0,0-.15.15v1.43a.15.15,0,0,0,.3,0v-1.28h3.44v.42h-.83a.35.35,0,0,0-.35.35v2.3a.15.15,0,0,0,.07.13l.08,0h.06l.59-.28h.37Zm1.84-2.75a0,0,0,0,1,0,0h-2.26l-.41.19v-2.07a0,0,0,0,1,0,0h2.62a0,0,0,0,1,0,0v1.81Z"/><path id="_Path_4" data-name="&lt;Path&gt;" class="cls-3" d="M182.32,113.65h-1.14a.15.15,0,0,0,0,.3h1.14a.15.15,0,0,0,0-.3Z"/><path id="_Path_5" data-name="&lt;Path&gt;" class="cls-3" d="M182.84,113h-1.65a.15.15,0,0,0,0,.3h1.65a.15.15,0,0,0,0-.3Z"/></g></g><path class="cls-3" d="M112.49,122.78l-2.36-3.07a.28.28,0,0,0-.37-.06l-1.53,1h-2.07l-1.54.44-1.6-.44-1.56-1a.28.28,0,0,0-.36.06l-2.62,3.24a.28.28,0,0,0,0,.38l1.37,1.18,1.23,1.66a2.25,2.25,0,0,1,.6,1.79,1,1,0,0,0,1,1h0v0a1,1,0,0,0,1,1h.15a1,1,0,0,0,1.67.6l.15-.15.06.05a52,52,0,0,1,2.37-1,1,1,0,0,1,1-1,1,1,0,0,1,1-1,1,1,0,0,0,.13-1.23l.9-1.88,1.35-1.16A.28.28,0,0,0,112.49,122.78Zm-11.12-2.54,1.12.71-2.43,3-1-.84Zm.16,6.29.34-.34,0,0a.42.42,0,0,1,.23-.09h0a.42.42,0,0,1,.3.13.44.44,0,0,1,0,.6l-.33.33a.42.42,0,0,1-.6-.6Zm.87,1.72a.42.42,0,0,1,0-.6l.66-.66a.43.43,0,0,1,.48-.08.42.42,0,0,1,.23.44.45.45,0,0,1-.13.26l-.64.64a.42.42,0,0,1-.6,0Zm1,1a.42.42,0,0,1,0-.6L104,128a.43.43,0,0,1,.51-.07.42.42,0,0,1,.2.43.45.45,0,0,1-.13.25l-.64.64a.42.42,0,0,1-.6,0Zm1.13.87a.43.43,0,0,1,0-.6l.34-.34,0,0h0a.42.42,0,0,1,.19-.09h.09a.42.42,0,0,1,.3.13l0,0a.44.44,0,0,1,0,.57l-.33.33A.43.43,0,0,1,104.52,130.13Zm5.17-3.09a.43.43,0,0,1-.6,0l0,0-1.78-1.8a.28.28,0,0,0-.39.39l1.8,1.82h0a.42.42,0,1,1-.6.6l-1.2-1.22a.28.28,0,1,0-.39.39l1.19,1.2,0,0a.42.42,0,1,1-.6.6l-.66-.66a.28.28,0,0,0-.39.39l.64.65,0,0a.42.42,0,0,1-.6.6L106,130s0,0,0,0l0-.06,0-.08a1,1,0,0,0,0-.43,1,1,0,0,0-.83-.83,1,1,0,0,0-.24-.89,1,1,0,0,0-.7-.31h0a1,1,0,0,0-1-1l-.24,0a1,1,0,0,0-1.62-.58l-1.07-1.44,2.56-3.12.82.22-1.07,1.88a1,1,0,0,0,.37,1.33l0,0h0l.12,0a1,1,0,0,0,1.17-.44l.69-1.22,1.24.09,3.29,3.29A.43.43,0,0,1,109.68,127Zm.11-1.27-3.09-3.09,0,0a.28.28,0,0,0-.16-.06l-1.51-.11a.28.28,0,0,0-.26.14L104,124a.42.42,0,1,1-.74-.42l1-1.84.42-.12h0l1.57-.45h1.9l2.37,3Zm1.12-2L108.72,121l1.12-.71,2.05,2.66Z"/><path class="cls-3" d="M107,120.1a.28.28,0,0,0,.2-.08l1.89-1.89a.28.28,0,0,0-.39-.39l-1.89,1.89a.28.28,0,0,0,.2.47Z"/><path class="cls-3" d="M103.79,120a.28.28,0,1,0,.39-.39l-1.89-1.89a.28.28,0,0,0-.39.39Z"/><path class="cls-3" d="M105.48,120.1a.28.28,0,0,0,.28-.28v-1.57a.28.28,0,0,0-.55,0v1.57A.28.28,0,0,0,105.48,120.1Z"/><path class="cls-3" d="M105.23,117.25a.28.28,0,1,0,.1-.34A.28.28,0,0,0,105.23,117.25Z"/><path class="cls-3" d="M127.84,100.15a.9.9,0,1,0,.9.9A.9.9,0,0,0,127.84,100.15Zm0,1.35a.45.45,0,1,1,.45-.45A.45.45,0,0,1,127.84,101.49Z"/><path class="cls-3" d="M116.18,107.55a.9.9,0,1,0,.9.9A.9.9,0,0,0,116.18,107.55Zm0,1.35a.45.45,0,1,1,.45-.45A.45.45,0,0,1,116.18,108.9Z"/><path class="cls-3" d="M127.41,100.43l-1.94-.93a.22.22,0,0,0-.19.4l1.94.93.1,0a.22.22,0,0,0,.1-.43Z"/><path class="cls-3" d="M125.37,109.12a.9.9,0,1,0,.9.9A.9.9,0,0,0,125.37,109.12Zm0,1.35a.45.45,0,1,1,.45-.45A.45.45,0,0,1,125.37,110.47Z"/><path class="cls-3" d="M124.94,109.4l-1.94-.93a.22.22,0,0,0-.19.4l1.94.93.1,0a.22.22,0,0,0,.1-.43Z"/><path class="cls-3" d="M122,103.51a.9.9,0,1,0,.9.9A.9.9,0,0,0,122,103.51Zm0,1.35a.45.45,0,1,1,.45-.45A.45.45,0,0,1,122,104.86Z"/><path class="cls-3" d="M121.61,103.82l-1.49-1.16a.22.22,0,1,0-.28.35l1.49,1.16a.22.22,0,1,0,.28-.35Z"/><path class="cls-3" d="M126,103.29a2.47,2.47,0,1,0,2.47,2.47A2.47,2.47,0,0,0,126,103.29Zm0,4.49a2,2,0,1,1,2-2A2,2,0,0,1,126,107.77Z"/><path class="cls-3" d="M126,104.18a.9.9,0,1,0,.9.9A.9.9,0,0,0,126,104.18Zm0,1.35a.45.45,0,1,1,.45-.45A.45.45,0,0,1,126,105.53Z"/><path class="cls-3" d="M126.7,106.43h-1.3a.69.69,0,0,0-.7.68v.59a.22.22,0,0,0,.11.19,2.46,2.46,0,0,0,2.47,0,.22.22,0,0,0,.11-.19v-.59A.69.69,0,0,0,126.7,106.43Zm.25,1.13a2,2,0,0,1-1.79,0v-.46a.24.24,0,0,1,.25-.23h1.3a.24.24,0,0,1,.25.23v.46Z"/><path class="cls-3" d="M120.66,106a2.47,2.47,0,1,0,2.47,2.47A2.47,2.47,0,0,0,120.66,106Zm0,4.49a2,2,0,1,1,2-2A2,2,0,0,1,120.66,110.47Z"/><path class="cls-3" d="M120.66,106.88a.9.9,0,1,0,.9.9A.9.9,0,0,0,120.66,106.88Zm0,1.35a.45.45,0,1,1,.45-.45A.45.45,0,0,1,120.66,108.22Z"/><path class="cls-3" d="M121.31,109.12H120a.69.69,0,0,0-.7.68v.59a.22.22,0,0,0,.11.19,2.46,2.46,0,0,0,2.47,0,.22.22,0,0,0,.11-.19v-.59A.69.69,0,0,0,121.31,109.12Zm.25,1.13a2,2,0,0,1-1.79,0v-.46a.24.24,0,0,1,.25-.23h1.3a.24.24,0,0,1,.25.23v.46Z"/><path class="cls-3" d="M117.75,100.37a2.47,2.47,0,1,0,2.47,2.47A2.47,2.47,0,0,0,117.75,100.37Zm0,4.49a2,2,0,1,1,2-2A2,2,0,0,1,117.75,104.86Z"/><path class="cls-3" d="M117.75,101.27a.9.9,0,1,0,.9.9A.9.9,0,0,0,117.75,101.27Zm0,1.35a.45.45,0,1,1,.45-.45A.45.45,0,0,1,117.75,102.61Z"/><path class="cls-3" d="M118.4,103.51h-1.3a.69.69,0,0,0-.7.68v.59a.22.22,0,0,0,.11.19,2.46,2.46,0,0,0,2.47,0,.22.22,0,0,0,.11-.19v-.59A.69.69,0,0,0,118.4,103.51Zm.25,1.13a2,2,0,0,1-1.79,0v-.46a.24.24,0,0,1,.25-.23h1.3a.24.24,0,0,1,.25.23v.46Z"/><path class="cls-3" d="M123.13,97.45a2.47,2.47,0,1,0,2.47,2.47A2.47,2.47,0,0,0,123.13,97.45Zm0,4.49a2,2,0,1,1,2-2A2,2,0,0,1,123.13,101.94Z"/><path class="cls-3" d="M123.13,98.35a.9.9,0,1,0,.9.9A.9.9,0,0,0,123.13,98.35Zm0,1.35a.45.45,0,1,1,.45-.45A.45.45,0,0,1,123.13,99.7Z"/><path class="cls-3" d="M123.78,100.59h-1.3a.69.69,0,0,0-.7.68v.59a.22.22,0,0,0,.11.19,2.46,2.46,0,0,0,2.47,0,.22.22,0,0,0,.11-.19v-.59A.69.69,0,0,0,123.78,100.59Zm.25,1.13a2,2,0,0,1-1.79,0v-.46a.24.24,0,0,1,.25-.23h1.3a.24.24,0,0,1,.25.23v.46Z"/><path class="cls-3" d="M121.06,99.78a.22.22,0,0,0-.32,0l-1.55,1.33a.22.22,0,1,0,.29.34l1.55-1.33A.22.22,0,0,0,121.06,99.78Z"/><path class="cls-3" d="M126,103.38l-1.35-1.79a.22.22,0,0,0-.36.27l1.35,1.79a.22.22,0,0,0,.36-.27Z"/><path class="cls-3" d="M124.16,106.5a.22.22,0,0,0-.31,0l-1.25.94a.22.22,0,0,0,.27.36l1.25-.94A.22.22,0,0,0,124.16,106.5Z"/><path class="cls-3" d="M118.42,108.22h-1.57a.22.22,0,1,0,0,.45h1.57a.22.22,0,0,0,0-.45Z"/><path class="cls-3" d="M117.75,97.45a.9.9,0,1,0,.9.9A.9.9,0,0,0,117.75,97.45Zm0,1.35a.45.45,0,1,1,.45-.45A.45.45,0,0,1,117.75,98.8Z"/><path class="cls-3" d="M117.75,98.8a.22.22,0,0,0-.22.22v1.57a.22.22,0,1,0,.45,0V99A.22.22,0,0,0,117.75,98.8Z"/><rect class="cls-3" x="163.68" y="169.34" width="2.07" height="0.32"/><rect class="cls-3" x="163.68" y="169.98" width="2.07" height="0.32"/><rect class="cls-3" x="163.68" y="170.61" width="1.43" height="0.32"/><rect class="cls-3" x="163.68" y="171.25" width="1.43" height="0.32"/><rect class="cls-3" x="162.89" y="177.6" width="9.53" height="0.32"/><path class="cls-3" d="M172.08,169.75l-.64-1.27a.16.16,0,0,0-.21-.07h0L170,169a.16.16,0,1,0,.14.28l.92-.46-.25.72a8.48,8.48,0,0,1-7.27,5.64l0,.32a8.8,8.8,0,0,0,7.54-5.85l.26-.73.47.93a.16.16,0,0,0,.28-.14Z"/><path class="cls-3" d="M164.79,176h-1.11a.16.16,0,0,0-.16.16v1a.16.16,0,0,0,.16.16h1.11a.16.16,0,0,0,.16-.16v-1A.16.16,0,0,0,164.79,176Zm-.16,1h-.79v-.64h.79Z"/><path class="cls-3" d="M166.54,175.54h-1.11a.16.16,0,0,0-.16.16v1.43a.16.16,0,0,0,.16.16h1.11a.16.16,0,0,0,.16-.16V175.7A.16.16,0,0,0,166.54,175.54Zm-.16,1.43h-.79v-1.11h.79Z"/><path class="cls-3" d="M168.29,174.74h-1.11a.16.16,0,0,0-.16.16v2.22a.16.16,0,0,0,.16.16h1.11a.16.16,0,0,0,.16-.16V174.9A.16.16,0,0,0,168.29,174.74Zm-.16,2.22h-.79v-1.91h.79Z"/><path class="cls-3" d="M170,173.63h-1.11a.16.16,0,0,0-.16.16v3.34a.16.16,0,0,0,.16.16H170a.16.16,0,0,0,.16-.16v-3.34A.16.16,0,0,0,170,173.63Zm-.16,3.34h-.79v-3h.79Z"/><path class="cls-3" d="M171.78,171.41h-1.11a.16.16,0,0,0-.16.16v5.56a.16.16,0,0,0,.16.16h1.11a.16.16,0,0,0,.16-.16v-5.56A.16.16,0,0,0,171.78,171.41Zm-.16,5.56h-.79v-5.24h.79Z"/><path class="cls-3" d="M165.39,138.57a.13.13,0,0,0-.1-.09l-.81-.18-.18-.81a.13.13,0,0,0-.16-.1l-.06,0-.93.93a3.75,3.75,0,1,0,1.27,1.27l.93-.93a.13.13,0,0,0,0-.13Zm-.68,3a3.49,3.49,0,1,1-1.74-3l-.43.43h0a2.9,2.9,0,1,0,1.27,1.27h0l.43-.43a3.48,3.48,0,0,1,.47,1.75Zm-1.22-1.33a2.63,2.63,0,1,1-.94-.94l.14.61-.13.13a2,2,0,1,0,.19.19l.13-.13Zm-1.7,1.33a.57.57,0,1,1-.27-.48l-.39.39a.13.13,0,1,0,.18.19h0l.39-.39A.56.56,0,0,1,161.78,141.56Zm-.08-.67a.83.83,0,1,0,.19.19l.67-.67a1.77,1.77,0,1,1-.19-.19Zm2.47-1.38-.49.49-.07,0h0l-.66-.15-.17-.74,1.33-1.33.15.65a.13.13,0,0,0,.1.1l.65.15Z"/><g id="outline"><path class="cls-3" d="M105.44,142.36h-.24a0,0,0,0,1,0,0v0l.21-.12a.08.08,0,0,0,0-.11h0l-.24-.42a.08.08,0,0,0-.11,0l-.21.12h0a0,0,0,0,1,0,0l.12-.21a.08.08,0,0,0,0-.11l-.42-.24a.08.08,0,0,0-.11,0h0l-.12.21h0v-.26a.08.08,0,0,0-.08-.08h-.49a.08.08,0,0,0-.08.08v.24a0,0,0,0,1,0,0h0l-.12-.21a.08.08,0,0,0-.11,0h0l-.42.24a.08.08,0,0,0,0,.11l.12.21a0,0,0,0,1,0,0h0l-.21-.12a.08.08,0,0,0-.11,0l-.24.42a.08.08,0,0,0,0,.11h0l.21.12a0,0,0,0,1,0,0h-.26a.08.08,0,0,0-.08.08v.49a.08.08,0,0,0,.08.08h.24a0,0,0,0,1,0,0v0l-.21.12a.08.08,0,0,0,0,.11h0l.24.42a.08.08,0,0,0,.11,0l.21-.12h0a0,0,0,0,1,0,0l-.12.21a.08.08,0,0,0,0,.11l.42.24a.08.08,0,0,0,.11,0h0l.12-.21h0v.26a.08.08,0,0,0,.08.08h.49a.08.08,0,0,0,.08-.08V144a0,0,0,0,1,0,0h0l.12.21a.08.08,0,0,0,.11,0l.42-.24a.08.08,0,0,0,0-.11l-.12-.21a0,0,0,0,1,0,0h0l.21.12a.08.08,0,0,0,.11,0l.24-.42a.08.08,0,0,0,0-.11h0l-.21-.12a0,0,0,0,1,0,0v0h.26a.08.08,0,0,0,.08-.08v-.49A.08.08,0,0,0,105.44,142.36Zm-.08.49h-.24a.08.08,0,0,0-.08.06l0,.08a.19.19,0,0,0,.09.21l.14.08-.16.28-.14-.08a.19.19,0,0,0-.25.25l.08.14-.28.16-.08-.14a.19.19,0,0,0-.35.09v.16h-.32V144a.19.19,0,0,0-.35-.09l-.08.14-.28-.16.08-.14a.19.19,0,0,0-.25-.25l-.14.08-.16-.28.14-.08a.19.19,0,0,0-.09-.35h-.16v-.32h.16a.19.19,0,0,0,.09-.35l-.14-.08.16-.28.14.08a.19.19,0,0,0,.25-.25l-.08-.14.28-.16.08.14a.19.19,0,0,0,.35-.09v-.16h.32v.16a.19.19,0,0,0,.35.09l.08-.14.28.16-.08.14a.19.19,0,0,0,.25.25l.14-.08.16.28-.14.08a.19.19,0,0,0,.09.35h.16Z"/><path class="cls-3" d="M103.9,143.25a.57.57,0,1,0-.57-.57A.57.57,0,0,0,103.9,143.25Zm0-1a.41.41,0,1,1-.41.41A.41.41,0,0,1,103.9,142.28Z"/><path class="cls-3" d="M103.9,141.71v.16a.81.81,0,1,1-.74,1.15l-.15.07a1,1,0,1,0,.88-1.38Z"/><path class="cls-3" d="M103.09,142.68h-.16a1,1,0,0,0,0,.18l.16,0A.82.82,0,0,1,103.09,142.68Z"/><path class="cls-3" d="M100.74,144.39h.14a.07.07,0,0,1,0,.11l-.1.1a.08.08,0,0,0,0,.11l.23.23a.08.08,0,0,0,.11,0l.1-.1a.07.07,0,0,1,.11,0V145a.08.08,0,0,0,.08.08h.32a.08.08,0,0,0,.08-.08v-.14a.07.07,0,0,1,.07-.07l0,0,.1.1a.08.08,0,0,0,.11,0l.23-.23a.08.08,0,0,0,0-.11l-.1-.1a.07.07,0,0,1,0-.09l0,0h.14a.08.08,0,0,0,.08-.08V144a.08.08,0,0,0-.08-.08h-.14a.07.07,0,0,1,0-.11l.1-.1a.08.08,0,0,0,0-.11l-.23-.23a.08.08,0,0,0-.11,0l-.1.1a.07.07,0,0,1-.11,0v-.14a.08.08,0,0,0-.08-.08h-.32a.08.08,0,0,0-.08.08v.14a.07.07,0,0,1-.07.07l0,0-.1-.1a.08.08,0,0,0-.11,0l-.23.23a.08.08,0,0,0,0,.11l.1.1h0a.07.07,0,0,1,0,.09l0,0h-.14a.08.08,0,0,0-.08.08v.32A.08.08,0,0,0,100.74,144.39Zm.08-.32h.06a.23.23,0,0,0,.16-.39l0,0,.11-.11,0,0a.23.23,0,0,0,.39-.16v-.06h.16v.06a.23.23,0,0,0,.39.16l0,0,.11.11,0,0a.23.23,0,0,0,.16.39h.06v.16h-.06a.23.23,0,0,0-.16.39l0,0-.11.11,0,0a.23.23,0,0,0-.39.16V145h-.16v-.06a.23.23,0,0,0-.39-.16l0,0-.11-.11,0,0a.23.23,0,0,0-.16-.39h-.06Z"/><path class="cls-3" d="M101.63,144.47a.32.32,0,1,0-.32-.32A.32.32,0,0,0,101.63,144.47Zm0-.49a.16.16,0,1,1-.16.16A.16.16,0,0,1,101.63,144Z"/><path class="cls-3" d="M103.42,144.3h-.32a.08.08,0,0,0-.08.08v.14l-.1-.1a.08.08,0,0,0-.11,0l-.23.23a.08.08,0,0,0,0,.11l.1.1h-.14a.08.08,0,0,0-.08.08v.32a.08.08,0,0,0,.08.08h.14l-.1.1a.08.08,0,0,0,0,.11l.23.23a.08.08,0,0,0,.11,0l.1-.1v.14a.08.08,0,0,0,.08.08h.32a.08.08,0,0,0,.08-.08v-.14l.1.1a.08.08,0,0,0,.11,0l.23-.23a.08.08,0,0,0,0-.11l-.1-.1H104a.08.08,0,0,0,.08-.08V145a.08.08,0,0,0-.08-.08h-.14l.1-.1a.08.08,0,0,0,0-.11l-.23-.23a.08.08,0,0,0-.11,0l-.1.1v-.14A.08.08,0,0,0,103.42,144.3Zm.12.41.11-.11.11.11-.11.11a.08.08,0,0,0,0,.09l0,.07a.08.08,0,0,0,.07.05h.16v.16h-.16a.08.08,0,0,0-.07.05l0,.07a.08.08,0,0,0,0,.09l.11.11-.11.11-.11-.11a.08.08,0,0,0-.09,0l-.07,0a.08.08,0,0,0-.05.07v.16h-.16v-.16a.08.08,0,0,0-.05-.07l-.07,0a.08.08,0,0,0-.09,0l-.11.11-.11-.11.11-.11a.08.08,0,0,0,0-.09l0-.07a.08.08,0,0,0-.07-.05h-.16V145h.16a.08.08,0,0,0,.07-.05l0-.07a.08.08,0,0,0,0-.09l-.11-.11.11-.11.11.11a.08.08,0,0,0,.09,0l.07,0a.08.08,0,0,0,.05-.07v-.16h.16v.16a.08.08,0,0,0,.05.07l.07,0A.08.08,0,0,0,103.54,144.71Z"/><circle class="cls-3" cx="103.25" cy="145.12" r="0.16"/></g><circle class="cls-3" cx="136.53" cy="109.06" r="0.28"/><path class="cls-3" d="M138.7,106.66a2.95,2.95,0,0,0-4.32,0,.17.17,0,1,0,.25.24,2.6,2.6,0,0,1,3.82,0,.17.17,0,1,0,.25-.24Z"/><path class="cls-3" d="M138.06,107.37a2.11,2.11,0,0,0-3.05,0,.17.17,0,0,0,.24.24,1.77,1.77,0,0,1,2.57,0,.17.17,0,1,0,.24-.24Z"/><path class="cls-3" d="M137.37,108.09a1.24,1.24,0,0,0-.84-.36h0a1.24,1.24,0,0,0-.84.36.17.17,0,0,0,.24.24.9.9,0,0,1,.6-.26h0a.9.9,0,0,1,.6.26.17.17,0,0,0,.24-.24Z"/></g></g></svg>