<svg xmlns="http://www.w3.org/2000/svg" viewBox="0 0 187.59 187"><defs><style>.cls-1,.cls-2,.cls-3{fill:#2a4d69;}.cls-1{opacity:0.3;}.cls-2{opacity:0.2;}.cls-4{fill:#fff;}.cls-5{fill:#fcfcfc;}</style></defs><title>Asset 18</title><g id="Layer_2" data-name="Layer 2"><g id="Layer_1-2" data-name="Layer 1"><circle class="cls-1" cx="94.25" cy="93.5" r="29.56"/><circle class="cls-1" cx="94.25" cy="93.5" r="39.04"/><circle class="cls-2" cx="94.25" cy="93.5" r="49.67"/><circle class="cls-1" cx="94.25" cy="93.5" r="68.41"/><ellipse class="cls-1" cx="93.79" cy="93.5" rx="93.79" ry="93.5"/><circle class="cls-3" cx="68.33" cy="80.22" r="6.74"/><circle class="cls-3" cx="79.03" cy="67.49" r="6.74"/><circle class="cls-3" cx="81.79" cy="94.43" r="7.95"/><path class="cls-3" d="M84.93,111.06a6.74,6.74,0,1,1-13.49,0,6.68,6.68,0,0,1,1.14-3.74,5.83,5.83,0,0,1,.38-.52,6.74,6.74,0,0,1,12,4.26Z"/><circle class="cls-3" cx="114.59" cy="100.23" r="6.74"/><path class="cls-3" d="M113.79,112.17a5.19,5.19,0,1,1-.27-1.66,4.33,4.33,0,0,1,.13.46A4.89,4.89,0,0,1,113.79,112.17Z"/><circle class="cls-3" cx="116.47" cy="74.23" r="4.27"/><circle class="cls-3" cx="88.86" cy="104.03" r="2.25"/><path class="cls-3" d="M109.16,91.56a4.6,4.6,0,0,1-4.39,4.59h-.42a4.6,4.6,0,1,1,4.81-4.59Z"/><circle class="cls-3" cx="122.65" cy="88.68" r="4.27"/><circle class="cls-3" cx="66.78" cy="92.95" r="3.05"/><circle class="cls-3" cx="93.56" cy="62.91" r="4.27"/><circle class="cls-3" cx="106.79" cy="65.71" r="4.96"/><path class="cls-3" d="M119.5,84.08V95.59h-.42V84.11l-.22-.2-2.17-2-.35-.32a.24.24,0,0,1-.08-.18v-7h.42v6.93l.09.08,2.3,2.09.32.3a.28.28,0,0,1,.09.16A.33.33,0,0,1,119.5,84.08Z"/><polygon class="cls-3" points="94.59 107.12 94.59 112.32 93.74 113.53 93.74 107.12 94.59 107.12"/><polygon class="cls-3" points="94.59 113.8 94.59 115.87 93.74 115.87 93.74 115.02 94.59 113.8"/><polygon class="cls-3" points="94.59 123.92 94.59 124.52 94.26 124.85 93.96 124.55 94.59 123.92"/><path class="cls-3" d="M73,106.8a5.83,5.83,0,0,0-.38.52l-.5-.65,0-.05,0-.05v0a.32.32,0,0,1,0-.1v-.57l-5-6.45L66.64,99a.25.25,0,0,1-.07-.18V94.43H67v4.28l.06.08L72,105.18V101.9l-.28-.36-3.36-4.35-.24-.31,0,0a.36.36,0,0,1-.05-.19V81.33h.62V96.57l.12.16h0L72,100.9l.46.61.06.08a.52.52,0,0,1,.08.28v4.46l0,0Z"/><path class="cls-3" d="M88.86,112l-.32.28-6.83-7.71h0l0,0a.3.3,0,0,1-.07-.13.33.33,0,0,1,0-.11v-7.6H82v7.58l.22.24Z"/><path class="cls-3" d="M104.78,92.95v3.2h-.42v-3.2Z"/><path class="cls-3" d="M109,110.07v8.48a.7.7,0,0,1-.2.48l-.65.65L94.59,133.26l-.15.15-.6-.6.75-.75,13.16-13.16.42-.42V111l.71-.77Z"/><path class="cls-3" d="M103.43,144.67v.87l-.85-.2-.78-.18-4.24-1h0l-1.74-.41h0l-1.41-.33h0a.68.68,0,0,1-.28-.12.81.81,0,0,1-.35-.66v-4.9l.18.2.63-.57-.81-.91V115.87h.85v8.05l-.63.63.3.3.33-.33v7.54l-.75.75.6.6.15-.15v9.33l.74.18,2.22.52,1.75.41,3.28.77Z"/><polygon class="cls-3" points="94.59 123.92 94.59 124.52 94.26 124.85 93.96 124.55 94.59 123.92"/><polygon class="cls-3" points="94.59 132.06 94.59 133.26 94.45 133.41 93.85 132.81 94.59 132.06"/><polygon class="cls-3" points="81.58 104.38 81.58 104.39 81.57 104.39 81.58 104.38"/><polygon class="cls-3" points="94.55 137.36 93.92 137.93 93.74 137.73 93.74 136.45 94.55 137.36"/><polygon class="cls-3" points="94.59 132.06 94.59 133.26 94.45 133.41 93.85 132.81 94.59 132.06"/><polygon class="cls-3" points="94.55 137.36 93.92 137.93 93.74 137.73 93.74 136.45 94.55 137.36"/><path class="cls-3" d="M107.1,65.27V77.49a.41.41,0,0,1,0,.16.43.43,0,0,1-.08.13l-.08.06-.42.29-7.6,5.29v24.13a.31.31,0,0,1,0,.12v0l-.08.12h0l-.72,1-3.44,4.93L93.74,115l-4.45,6.39v1.46l.48.35,12.84,9.06.85.6v1l-.69-.49-.16-.11-13.55-9.57-.3-.22,0,0a.69.69,0,0,1-.28-.55V103.28h.85v16.65l4.45-6.39.85-1.22L98,107.38V74.55l-.12-.1L94,71.34l-.51-.41-.12-.1a.77.77,0,0,1-.22-.49V63H94v7.24l.56.44L98.67,74h0l.07.06a.5.5,0,0,1,.14.35v8.3l7.39-5.15.21-.14V65.27Z"/><circle class="cls-3" cx="94.17" cy="107.82" r="2.25"/><path class="cls-3" d="M122.86,87v7.72a.33.33,0,0,1-.06.16v0l-2.13,2.72-.33-.26,2-2.6.07-.1V87Z"/><path class="cls-3" d="M114.8,100.13v9.55a.34.34,0,0,1-.06.2l0,0L113.65,111a4.33,4.33,0,0,0-.13-.46l.65-.66.21-.21v-9.51Z"/><polygon class="cls-3" points="110.8 108.31 109.02 110.08 108.89 110.22 94.26 124.85 93.96 124.55 94.59 123.92 110.5 108.01 110.8 108.31"/><path class="cls-3" d="M113.51,110.51a4.33,4.33,0,0,1,.13.46l-6,6-.3-.3Z"/><path class="cls-3" d="M76.12,110.9l-.49.38-3.06-4a5.83,5.83,0,0,1,.38-.52Z"/><path class="cls-3" d="M98.84,98.84l-.57.63L79.46,82.34l-.65-.59a.65.65,0,0,1-.2-.47v-13h.85V81.2l.41.37Z"/><polygon class="cls-3" points="103.43 141.73 103.43 141.75 103.39 141.74 103.43 141.73"/><polygon class="cls-3" points="103.46 145.55 103.43 145.56 103.43 145.54 103.46 145.55"/><path class="cls-3" d="M97,148.07v.16h0A1.43,1.43,0,0,0,97,148.07Z"/><polygon class="cls-3" points="87.61 146.78 87.59 146.79 87.59 146.78 87.61 146.78"/><polygon class="cls-3" points="103.43 141.75 103.43 142.61 103.4 142.62 102.58 142.42 101.65 142.21 95.05 140.65 94.59 140.55 93.74 140.34 93.3 140.24 88.44 139.1 87.6 138.9 87.59 138.9 87.59 138.03 88.44 138.23 89.22 138.41 93.74 139.48 94.59 139.68 95.05 139.78 96.78 140.19 102.58 141.56 103.39 141.74 103.43 141.75"/><polygon class="cls-3" points="103.43 142.61 103.43 142.63 103.4 142.62 103.43 142.61"/><polygon class="cls-3" points="103.46 133.91 103.46 134.1 102.61 134.36 89.22 138.41 88.44 138.23 87.59 138.03 87.59 138.01 88.44 137.76 102.61 133.47 102.77 133.42 103.46 133.91"/><polygon class="cls-3" points="87.59 138.03 87.56 138.03 87.59 138.01 87.59 138.03"/><polygon class="cls-3" points="87.6 138.9 87.59 138.91 87.59 138.9 87.6 138.9"/><path class="cls-3" d="M103.43,145.54v0l-.85.25-1.08.33-.29.08L97,147.49v.58a1.43,1.43,0,0,1,0,.16,2.53,2.53,0,0,1-.55,1.43,2.33,2.33,0,0,1-.71.62,2.49,2.49,0,0,1-1.3.36,2.57,2.57,0,0,1-2.5-2l-3.54-1.51-.83-.36h0v-.87l.08,0,.76.33.51.21,3,1.27.72.31a.16.16,0,0,0,0,.05,1.83,1.83,0,0,0,1.82,1.82,1.52,1.52,0,0,0,.32,0,1.78,1.78,0,0,0,1-.5,1.82,1.82,0,0,0,.53-1.28v-1.24l.36-.11.39-.12,2.63-.8h0l1.52-.46.61-.19.78.18Z"/><polygon class="cls-3" points="87.61 146.78 87.59 146.79 87.59 146.78 87.61 146.78"/><polygon class="cls-3" points="95.54 144.69 88.95 146.43 88.44 146.22 87.68 145.89 88.44 145.69 93.9 144.25 95.54 144.69"/><polygon class="cls-3" points="103.4 142.62 102.58 142.83 99.31 143.7 97.56 144.16 97.55 144.16 97.16 144.26 95.53 143.82 95.8 143.75 95.81 143.75 97.55 143.29 101.65 142.21 102.58 142.42 103.4 142.62"/><polygon class="cls-3" points="103.43 142.61 103.43 142.63 103.4 142.62 103.43 142.61"/><polygon class="cls-3" points="103.43 141.73 103.43 141.75 103.39 141.74 103.43 141.73"/><polygon class="cls-3" points="103.43 137.58 103.43 138.44 103.4 138.45 102.58 138.25 101.65 138.04 88.44 134.93 87.6 134.73 87.59 134.73 87.59 133.86 88.44 134.06 89.22 134.25 102.58 137.38 103.39 137.57 103.43 137.58"/><polygon class="cls-3" points="97.16 144.26 95.54 144.69 93.9 144.25 88.45 142.78 87.71 142.58 87.71 142.58 87.71 141.71 87.72 141.71 88.47 141.52 93.3 140.24 93.74 140.34 93.74 141 89.36 142.16 95.53 143.82 97.16 144.26"/><polygon class="cls-3" points="103.43 138.44 102.61 138.66 99.33 139.52 97.59 139.98 97.58 139.98 96.78 140.19 95.05 140.65 94.59 140.78 93.74 141 93.74 140.34 93.3 140.24 93.74 140.12 94.59 139.9 95.05 139.78 95.83 139.57 95.84 139.57 97.58 139.11 101.68 138.03 102.61 138.25 103.43 138.44"/><path class="cls-3" d="M88.31,128.29v6.22h-.72v-6.18L87.1,128l-8.56-6.08-.44-.31a.63.63,0,0,1-.28-.53v-7.12h.72V121l.48.34,8.57,6.08.42.31,0,0a.64.64,0,0,1,.2.26A.56.56,0,0,1,88.31,128.29Z"/><path class="cls-3" d="M108.71,102.43l-.28.32-3.64-3.28-.25-.23-.07-.06a.39.39,0,0,1-.11-.25V96.15h.42V98.9l.29.26Z"/><path class="cls-3" d="M104.78,95.92v.23h-.42v-.23Z"/><circle class="cls-3" cx="88.44" cy="69.66" r="2.31"/><path class="cls-3" d="M88.66,69.88v3.75a.37.37,0,0,1-.15.3l-.08,0-.2.11-9,5.19L79,78.91l8.9-5.14.29-.17V69.88Z"/><polygon class="cls-3" points="87.71 141.71 87.72 141.71 87.71 141.71 87.71 141.71"/><path class="cls-4" d="M81.13,110.5a.41.41,0,0,0-.78,0H79.5v-.55H80a.14.14,0,0,0,.14-.14h0v-.58a.41.41,0,1,0-.28,0v.44H79.5v-.28a.14.14,0,0,0-.14-.14h-.28v-.72a.41.41,0,1,0-.28,0v.72h-.55V107a.14.14,0,0,0-.14-.14h0a2.9,2.9,0,0,0-3,2.81,5.71,5.71,0,0,0,.78,2.59c.09.15.2.31.32.48a2.69,2.69,0,0,1,.56,1.11.39.39,0,0,0-.17.33.41.41,0,0,0,.09.26.43.43,0,0,0-.13.31.42.42,0,0,0,.41.41h2.35a.42.42,0,0,0,.41-.42h0a.41.41,0,0,0-.13-.3.43.43,0,0,0,.09-.26.4.4,0,0,0-.4-.4h-1v-2.63h.28v.41a.14.14,0,0,0,.14.14h.41v.16a.41.41,0,1,0,.28,0v-.3a.14.14,0,0,0-.14-.14h-.41v-.28h.55a.14.14,0,0,0,.14-.14h0v-.28h.85a.41.41,0,0,0,.78-.28ZM80,108.7a.14.14,0,1,1-.14.14A.14.14,0,0,1,80,108.7Zm-3.66,3.93c-.11-.16-.22-.32-.3-.46a5.5,5.5,0,0,1-.74-2.45A2.61,2.61,0,0,1,78,107.19v1h-.11a.14.14,0,0,0-.12.11l0,.2-.1,0-.14-.15a.14.14,0,0,0-.16,0,2.08,2.08,0,0,0-.43.25.14.14,0,0,0,0,.15l.06.19-.08.08-.19-.06a.14.14,0,0,0-.15,0,2.07,2.07,0,0,0-.25.44.14.14,0,0,0,0,.16l.15.14,0,.1-.21,0A.14.14,0,0,0,76,110v.47a.14.14,0,0,0,.11.14l.21,0,0,.1-.15.14a.14.14,0,0,0,0,.16,2.08,2.08,0,0,0,.25.44.14.14,0,0,0,.15,0l.19-.06.08.08-.06.19a.14.14,0,0,0,0,.15,2.08,2.08,0,0,0,.44.25.14.14,0,0,0,.16,0l.14-.15.1,0,0,.2a.14.14,0,0,0,.12.11H78v1.53H77A3,3,0,0,0,76.39,112.63Zm.48-2.41A1.25,1.25,0,0,0,78,111.46v.48l0-.11a.14.14,0,0,0-.11-.11l-.24-.06h0a.14.14,0,0,0-.1,0l-.13.14-.21-.12.06-.18a.14.14,0,0,0,0-.15l-.18-.18a.14.14,0,0,0-.15,0l-.18.06a1.79,1.79,0,0,1-.12-.21l.15-.13a.14.14,0,0,0,0-.15,1.51,1.51,0,0,1-.06-.24.14.14,0,0,0-.11-.11l-.19,0v-.24l.19,0a.14.14,0,0,0,.11-.11,1.51,1.51,0,0,1,.06-.24.14.14,0,0,0,0-.15l-.14-.13a1.82,1.82,0,0,1,.12-.21l.18.06a.14.14,0,0,0,.15,0l.18-.18a.14.14,0,0,0,0-.15l-.06-.18.21-.12.13.14a.14.14,0,0,0,.15,0l.24-.06a.14.14,0,0,0,.11-.11l0-.11V109A1.25,1.25,0,0,0,76.87,110.22Zm1.11-1v1.91a1,1,0,0,1,0-1.91Zm1.45,5.52a.14.14,0,0,1-.14.14H76.94a.14.14,0,0,1-.14-.14h0a.14.14,0,0,1,.14-.14h2.35a.14.14,0,0,1,.14.14Zm-.17-.69a.13.13,0,0,1,.14.11h0a.14.14,0,0,1-.14.14H77a.14.14,0,0,1-.14-.14h0a.12.12,0,0,1,.13-.12h2.29Zm0-1.94a.14.14,0,1,1-.14.14A.14.14,0,0,1,79.22,112.16ZM78.94,108a.14.14,0,1,1-.14.14A.14.14,0,0,1,78.94,108Zm.28,2.9h-1v-1.38h1Zm1.52-.14a.14.14,0,1,1,.14-.14A.14.14,0,0,1,80.74,110.78Z"/><path class="cls-4" d="M79.45,113.23a2.34,2.34,0,0,0-.13.27l.26.1a2.07,2.07,0,0,1,.11-.24Z"/><path class="cls-4" d="M79.76,112.74l-.16.24.23.15.16-.23Z"/><path class="cls-4" d="M80.07,112.28l-.15.23.23.16.16-.24Z"/><path class="cls-4" d="M80.33,111.8l-.12.25.24.13.13-.26Z"/><path class="cls-4" d="M80.55,111.29l-.1.26.25.11.11-.27Z"/><path class="cls-4" d="M81.16,109.7h-.28v0c0,.08,0,.16,0,.24l.28,0c0-.09,0-.18,0-.27Z"/><path class="cls-4" d="M81.09,109.11l-.27.06a2.39,2.39,0,0,1,0,.26l.27,0A2.68,2.68,0,0,0,81.09,109.11Z"/><path class="cls-4" d="M80.89,108.55l-.25.12a2.42,2.42,0,0,1,.1.25l.26-.09A2.66,2.66,0,0,0,80.89,108.55Z"/><path class="cls-4" d="M80.57,108l-.22.17.15.22.23-.15Z"/><path class="cls-4" d="M80.16,107.63l-.18.21.2.18.2-.19Z"/><path class="cls-4" d="M79.67,107.3l-.13.24.23.14.15-.23Z"/><path class="cls-4" d="M79.12,107.07l-.08.26.25.09.11-.25Z"/><path class="cls-4" d="M78.55,106.94l0,.27.27,0,.06-.27Z"/><rect class="cls-4" x="74.24" y="114.37" width="0.28" height="0.28"/><rect class="cls-4" x="74.24" y="114.92" width="0.28" height="0.28"/><rect class="cls-4" x="74.52" y="114.65" width="0.28" height="0.28"/><rect class="cls-4" x="73.97" y="114.65" width="0.28" height="0.28"/><rect class="cls-4" x="81.85" y="106.91" width="0.28" height="0.28"/><rect class="cls-4" x="81.85" y="107.46" width="0.28" height="0.28"/><rect class="cls-4" x="82.12" y="107.18" width="0.28" height="0.28"/><rect class="cls-4" x="81.57" y="107.18" width="0.28" height="0.28"/><path class="cls-4" d="M123.83,89.44a.11.11,0,1,0-.11-.11A.11.11,0,0,0,123.83,89.44Z"/><path class="cls-4" d="M120.95,89.37a3.15,3.15,0,0,0,.84,1.5h0v.45a.11.11,0,0,0,.11.11h1.94a.11.11,0,0,0,.11-.11v-.46a2.67,2.67,0,0,0,.43-1.46v-.84a5,5,0,0,1-1.08-.65.43.43,0,0,1-.65-.22.43.43,0,0,0-.22.06v-1a.43.43,0,1,0-.86,0v1.55l-.29.2A.8.8,0,0,0,120.95,89.37Zm.45-.66.17-.12v.73a.11.11,0,1,0,.22,0V86.79a.22.22,0,0,1,.43,0V88.9a.11.11,0,0,0,.22,0v-.75a.22.22,0,0,1,.43,0v.75a.11.11,0,1,0,.22,0v-.54a.22.22,0,1,1,.43,0v.54a.11.11,0,0,0,.22,0v-.32a.22.22,0,1,1,.43,0v.84a2.46,2.46,0,0,1-.41,1.36.11.11,0,0,0,0,.06v.39H122v-.39a.11.11,0,0,0,0-.08,2.94,2.94,0,0,1-.82-1.44A.58.58,0,0,1,121.4,88.71Z"/><path class="cls-4" d="M123.42,90.69a.11.11,0,0,0,.15,0,2.22,2.22,0,0,0,.35-.88.11.11,0,0,0-.21,0,2,2,0,0,1-.31.8A.11.11,0,0,0,123.42,90.69Z"/><path class="cls-4" d="M121.25,86.89a.11.11,0,0,0,.11-.11.65.65,0,1,1,1.29,0,.11.11,0,0,0,.22,0,.86.86,0,1,0-1.72,0A.11.11,0,0,0,121.25,86.89Z"/><path class="cls-4" d="M85.35,92.75H76.84a.15.15,0,0,0-.15.15h0V97a.15.15,0,0,0,.15.15h5.79a.15.15,0,0,0,0-.29H77V93h8.22v.36a.15.15,0,0,0,.15.15h0a.15.15,0,0,0,.15-.15h0v-.51A.15.15,0,0,0,85.35,92.75Z"/><path class="cls-4" d="M84.36,92.07l-6.81-1.53a.15.15,0,0,0-.17.11L77,92.18a.15.15,0,1,0,.28.06l.31-1.39,6.67,1.5h0a.15.15,0,0,0,0-.29Z"/><path class="cls-4" d="M83.54,91.22l-4.08-1.7a.15.15,0,0,0-.19.07l-.34.68a.15.15,0,1,0,.26.14h0l.28-.56,4,1.65a.15.15,0,1,0,.11-.27Z"/><path class="cls-4" d="M83.64,93.43H82.29a.15.15,0,0,0,0,.29h1.35a.15.15,0,0,0,0-.29Z"/><path class="cls-4" d="M80.93,93.44a1.5,1.5,0,1,0,1.5,1.5A1.5,1.5,0,0,0,80.93,93.44Zm0,2.72a1.23,1.23,0,1,1,1.23-1.23A1.23,1.23,0,0,1,80.93,96.16Z"/><path class="cls-4" d="M85,93.91c-.9,0-1.87.21-1.87.68v4.08c0,.47,1,.68,1.87.68s1.87-.21,1.87-.68V94.59C86.88,94.13,85.91,93.91,85,93.91Zm1.53,4.76c0,.09-.54.34-1.53.34s-1.51-.25-1.53-.34v-.27a4.52,4.52,0,0,0,3.06,0Zm0-.68c0,.09-.54.34-1.53.34s-1.51-.25-1.53-.34v-.27a4.52,4.52,0,0,0,3.06,0Zm0-.68c0,.09-.54.34-1.53.34s-1.51-.25-1.53-.34V97a4.52,4.52,0,0,0,3.06,0Zm0-.68c0,.09-.54.34-1.53.34s-1.51-.25-1.53-.34v-.27a4.52,4.52,0,0,0,3.06,0Zm0-.68c0,.09-.54.34-1.53.34S83.51,96,83.48,96v-.27a4.52,4.52,0,0,0,3.06,0Zm0-.68c0,.09-.54.34-1.53.34s-1.51-.25-1.53-.34V95a4.52,4.52,0,0,0,3.06,0ZM85,94.93c-1,0-1.5-.25-1.53-.34h0c0-.09.54-.34,1.53-.34s1.5.24,1.53.34S86,94.93,85,94.93Z"/><path class="cls-4" d="M79.57,96.15H78.28l-.61-.67V94.38l.67-.66h1.22a.15.15,0,1,0,0-.29H78.28a.15.15,0,0,0-.1,0l-.76.74a.18.18,0,0,0,0,.12v1.21a.15.15,0,0,0,0,.1l.69.76a.15.15,0,0,0,.11,0h1.35a.15.15,0,1,0,0-.29Z"/><path class="cls-4" d="M81,94.76h-.17c-.05,0-.09,0-.09,0s0,0,.09,0h.43a.17.17,0,1,0,0-.34H81.1a.17.17,0,0,0-.34,0h0a.4.4,0,0,0-.34.37.41.41,0,0,0,.43.38H81c.05,0,.09,0,.09,0s0,0-.09,0h-.43a.17.17,0,1,0,0,.34h.17a.17.17,0,1,0,.34,0h0a.4.4,0,0,0,.34-.37A.41.41,0,0,0,81,94.76Z"/><path class="cls-4" d="M94,61.4a.09.09,0,1,0,.09.09A.09.09,0,0,0,94,61.4Z"/><path class="cls-4" d="M93.12,61.4a.09.09,0,1,0,.09.09A.09.09,0,0,0,93.12,61.4Z"/><path class="cls-4" d="M95.46,63.29a.7.7,0,0,0,.11-.38.61.61,0,0,0-.22-.47.59.59,0,0,0,0-.23.65.65,0,0,0-.35-.58.53.53,0,0,0-.4-.57.63.63,0,0,0-.56-.39.62.62,0,0,0-.53.32.62.62,0,0,0-.53-.32.63.63,0,0,0-.56.39.53.53,0,0,0-.4.57.65.65,0,0,0-.35.58.59.59,0,0,0,0,.23.61.61,0,0,0-.22.47.7.7,0,0,0,.11.38.61.61,0,0,0,.07.79.64.64,0,0,0,.61.73h0a.69.69,0,0,0,1.22,0,.69.69,0,0,0,1.22,0h0a.64.64,0,0,0,.61-.64.56.56,0,0,0,0-.09.61.61,0,0,0,.07-.79Zm-2-1.29a.35.35,0,0,0-.18,0,.09.09,0,0,0,0,.18.18.18,0,0,1,.18.18V64a.7.7,0,0,0-.53-.24.09.09,0,1,0,0,.18.53.53,0,0,1,.53.53.55.55,0,0,1-.53.55.53.53,0,0,1-.48-.31.09.09,0,0,0-.09-.05h0a.46.46,0,0,1-.45-.56.09.09,0,0,0,0-.09.44.44,0,0,1-.16-.34.43.43,0,0,1,.06-.23.59.59,0,0,0,.37.14.09.09,0,1,0,0-.18.46.46,0,0,1-.44-.46.44.44,0,0,1,.2-.37.09.09,0,0,0,0-.12.43.43,0,0,1-.06-.21.44.44,0,1,1,.88,0,.09.09,0,0,0,.18,0,.64.64,0,0,0-.61-.64h-.09a.35.35,0,0,1,.6-.25A.09.09,0,0,0,93,61.2a.52.52,0,0,0-.29-.15.44.44,0,0,1,.36-.21.46.46,0,0,1,.44.46ZM95,63.55a.59.59,0,0,0,.37-.14.43.43,0,0,1,.06.23.44.44,0,0,1-.16.34.09.09,0,0,0,0,.09.43.43,0,0,1,0,.1.46.46,0,0,1-.47.46h0a.09.09,0,0,0-.09.05.53.53,0,0,1-.48.31.55.55,0,0,1-.53-.55.53.53,0,0,1,.53-.53.09.09,0,1,0,0-.18.7.7,0,0,0-.53.24V62.3a.18.18,0,0,1,.18-.18.09.09,0,1,0,0-.18.35.35,0,0,0-.18,0v-.69a.46.46,0,0,1,.44-.46.44.44,0,0,1,.36.21.52.52,0,0,0-.29.15.09.09,0,1,0,.12.12.35.35,0,0,1,.6.25h-.09a.64.64,0,0,0-.61.64.09.09,0,0,0,.18,0,.44.44,0,1,1,.88,0,.43.43,0,0,1-.06.21.09.09,0,0,0,0,.12.44.44,0,0,1,.2.37.46.46,0,0,1-.44.46.09.09,0,0,0,0,.18Z"/><path class="cls-4" d="M93.27,62.54a.09.09,0,0,0-.12,0,.44.44,0,0,1-.73-.33.09.09,0,1,0-.18,0,.61.61,0,0,0,.51.61.26.26,0,0,1-.25.18.09.09,0,1,0,0,.18.44.44,0,0,0,.43-.36.61.61,0,0,0,.33-.15A.09.09,0,0,0,93.27,62.54Z"/><path class="cls-4" d="M92.33,64.08a.09.09,0,0,0,0,.18.46.46,0,0,1,.44.46.09.09,0,0,0,.18,0A.64.64,0,0,0,92.33,64.08Z"/><path class="cls-4" d="M93,63.38a.79.79,0,0,0-.69.4.09.09,0,1,0,.15.09.61.61,0,0,1,.53-.31.09.09,0,1,0,0-.18Z"/><path class="cls-4" d="M94.61,63a.26.26,0,0,1-.25-.18.61.61,0,0,0,.51-.61.09.09,0,1,0-.18,0,.44.44,0,0,1-.73.33.09.09,0,1,0-.12.13.61.61,0,0,0,.33.15.44.44,0,0,0,.43.36.09.09,0,1,0,0-.18Z"/><path class="cls-4" d="M94.78,64.08a.64.64,0,0,0-.61.64.09.09,0,0,0,.18,0,.46.46,0,0,1,.44-.46.09.09,0,1,0,0-.18Z"/><path class="cls-4" d="M94.77,63.78a.79.79,0,0,0-.69-.4.09.09,0,0,0,0,.18.61.61,0,0,1,.53.31.09.09,0,0,0,.15-.09Z"/><path class="cls-5" d="M108.69,64.26a.71.71,0,1,0-.76,0,1.07,1.07,0,0,0-.55.47,1.07,1.07,0,0,0-.21-.11.71.71,0,1,0-.75,0,1.06,1.06,0,0,0-.21.11,1.07,1.07,0,0,0-.55-.47.71.71,0,1,0-.76,0,1.07,1.07,0,0,0-.69,1V66a.36.36,0,0,0,.36.36h.09v1.43a6.52,6.52,0,0,1,.89.36.36.36,0,0,0,.36-.36V66.64a.35.35,0,0,0,.18,0h.09v1.43a6.52,6.52,0,0,1,.89.36.36.36,0,0,0,.36-.36V66.69h.09a.35.35,0,0,0,.18,0v1.12a6.52,6.52,0,0,1,.89.36.36.36,0,0,0,.36-.36V66.33H109a.36.36,0,0,0,.36-.36v-.71A1.07,1.07,0,0,0,108.69,64.26Zm-.57.13.19,0,.19,0-.19.27Zm.08.41-.12.12-.17-.45,0,0Zm.23,0,.25-.36,0,0-.17.46Zm-.65-1.15a.54.54,0,1,1,.54.54A.54.54,0,0,1,107.78,63.65Zm-.89,1.76-.09.13-.09-.13.05-.69h.07Zm-.62-1.4a.54.54,0,1,1,.54.54A.54.54,0,0,1,106.26,64Zm-1,.36.16,0c0,.09-.09.16-.16.16s-.14-.07-.16-.16Zm-.54-.71a.54.54,0,1,1,.54.54A.54.54,0,0,1,104.74,63.65Zm1,4.11a.18.18,0,1,1-.36,0V65.89h-.18v1.88a.18.18,0,0,1-.36,0V64.9h-.18v1.25h-.09a.18.18,0,0,1-.18-.18v-.71a.89.89,0,0,1,.56-.83.34.34,0,0,0,.67,0,.89.89,0,0,1,.45.4,1.07,1.07,0,0,0-.34.78v2.14Zm1.79-1.25h-.09V65.26h-.18v2.86a.18.18,0,0,1-.36,0V66.24h-.18v1.88a.18.18,0,0,1-.36,0V65.26h-.18v1.25h-.09a.18.18,0,0,1-.18-.18v-.71a.89.89,0,0,1,.68-.86l-.05.71.27.4.27-.4-.05-.71a.89.89,0,0,1,.68.86v.71A.18.18,0,0,1,107.51,66.51Zm1.7-.54a.18.18,0,0,1-.18.18h-.09V65h-.18v2.77a.18.18,0,1,1-.36,0V65.89h-.18v1.88a.18.18,0,1,1-.36,0V65.62a1.07,1.07,0,0,0-.34-.78.89.89,0,0,1,.23-.27l.26.68.3-.3.3.3.26-.68a.89.89,0,0,1,.33.7Z"/><path class="cls-4" d="M113.9,96.68a2.87,2.87,0,1,0,2.87,2.87A2.87,2.87,0,0,0,113.9,96.68Zm0,.27a2.6,2.6,0,0,1,2.12,1.1l-.34.34a.54.54,0,0,0-.28-.08.55.55,0,0,0-.55.55.54.54,0,0,0,.08.28l-.9.9a.53.53,0,0,0-.55,0l-.62-.62a.54.54,0,0,0,.08-.28.55.55,0,0,0-1.07-.14h-.51A2.6,2.6,0,0,1,113.9,97Zm1.78,1.91a.27.27,0,1,1-.27-.27A.27.27,0,0,1,115.68,98.87ZM114,100.51a.27.27,0,1,1-.27-.27A.27.27,0,0,1,114,100.51Zm-1.37-1.37a.27.27,0,1,1-.27-.27A.27.27,0,0,1,112.67,99.14Zm2.49,2.68a2.6,2.6,0,0,1-3.85-2.55h.55a.55.55,0,0,0,.53.41.54.54,0,0,0,.28-.08l.62.62a.54.54,0,0,0-.08.28.55.55,0,0,0,1.09,0,.54.54,0,0,0-.08-.28l.9-.9a.54.54,0,0,0,.28.08.55.55,0,0,0,.55-.55.54.54,0,0,0-.08-.28l.3-.3A2.6,2.6,0,0,1,115.17,101.82Z"/><path class="cls-4" d="M117.32,97.5a.55.55,0,0,0,.53-.41h.84v-.27h-.84a.55.55,0,0,0-1.07.14.54.54,0,0,0,.08.28l-.24.24a3.42,3.42,0,1,0-.85,5l.41.41.19.19,1.1,1.1a.72.72,0,0,0,1-1l-1.1-1.1-.19-.19-.41-.41a3.41,3.41,0,0,0,0-3.71l.27-.27A.54.54,0,0,0,117.32,97.5Zm0-.82A.27.27,0,1,1,117,97,.27.27,0,0,1,117.32,96.68Zm1,6.63a.44.44,0,1,1-.62.63h0l-1.1-1.1.63-.63ZM117,102l-.63.63-.38-.38.06,0,.06-.05.09-.08,0,0,.16-.16,0,0,.08-.09.05-.06,0-.06Zm-.53-.64-.13.18,0,0-.13.14-.06.06-.14.13,0,0-.18.13a3.15,3.15,0,1,1,.73-.73Z"/><path class="cls-4" d="M89.24,103.61a0,0,0,1,0,0,.08,0,0,0,0,0,0-.08A0,0,0,0,0,89.24,103.61Z"/><path class="cls-4" d="M88.48,104.37a0,0,0,1,0,0,.08,0,0,0,0,0,0-.08A0,0,0,0,0,88.48,104.37Z"/><path class="cls-4" d="M89.87,103.22h0l-.17.17h-.08l-.09-.09v-.08l.17-.17a0,0,0,0,0,0-.07l-.13,0a.42.42,0,0,0-.4.53l-.31.31-.51-.51v-.1a0,0,0,0,0,0,0L88,103a0,0,0,0,0-.05,0l-.12.12a0,0,0,0,0,0,.05l.18.3,0,0h.1l.51.51-.31.31a.42.42,0,0,0-.5.54l0,0h0l.17-.17h.08l.1.1v.08l-.17.17a0,0,0,0,0,0,.07l.13,0a.42.42,0,0,0,.4-.53l.25-.25.06.06,0,0a0,0,0,1,0,.06.06l0,0,.53.58h0a.25.25,0,0,0,.35-.35h0l-.58-.53,0,0a0,0,0,0,0-.06-.06l0,0-.06-.06.25-.25h.11a.42.42,0,0,0,.4-.55Zm-1.72.17H88l-.15-.25.07-.07.25.15v.09a0,0,0,0,0,0,0l.53.53-.06.06Zm1.06.82.58.53a.17.17,0,0,1-.24.24l-.53-.58Zm-.06-.06-.18.18-.06-.06.18-.18Zm.35-.43-.11,0h0l-.83.83a0,0,0,0,0,0,0,.33.33,0,0,1-.32.44h0l.13-.13a0,0,0,0,0,0,0v-.12a0,0,0,0,0,0,0l-.12-.12H88l-.13.13a.34.34,0,0,1,0,0,.33.33,0,0,1,.44-.32h0l.83-.83a0,0,0,0,0,0,0,.33.33,0,0,1,.32-.44h0l-.13.13a0,0,0,0,0,0,0v.12a0,0,0,0,0,0,0l.12.12h.18l.13-.13a.34.34,0,0,1,0,0A.33.33,0,0,1,89.51,103.71Z"/><path class="cls-4" d="M89.09,103.74l-.52.52a0,0,0,0,0,.06.06l.52-.52a0,0,0,0,0-.06-.06Z"/><path class="cls-4" d="M89.62,104.85a0,0,0,1,0,.06-.06l-.38-.38a0,0,0,0,0-.06.06Z"/><path class="cls-4" d="M95.73,107.54h-.06a1.53,1.53,0,0,0-3,0h-.06a.12.12,0,0,0-.12.12v.44a.12.12,0,0,0,.12.12h.1a1.53,1.53,0,0,0,.47.74,0,0,0,0,0,.06-.07l-.16-.16.23-.08.12.19a1.93,1.93,0,0,0,.34.34,1.42,1.42,0,0,1-.29-.12,0,0,0,0,0,0,.09,1.53,1.53,0,0,0,2.21-.91h.1a.12.12,0,0,0,.12-.12v-.45A.12.12,0,0,0,95.73,107.54Zm-.16,0h-.34v-.08a1.74,1.74,0,0,0-.14-.4h0l.22-.08A1.41,1.41,0,0,1,95.57,107.54Zm-.44,0h-.51v-.07c0-.11,0-.22,0-.32l.41-.07a1.64,1.64,0,0,1,.14.4Zm.05-.74.08.09-.19.06h0l-.1-.16a1.7,1.7,0,0,0-.35-.36A1.42,1.42,0,0,1,95.18,106.81Zm-.86-.41a1.61,1.61,0,0,1,.52.47l.08.13-.38.06a2,2,0,0,0-.25-.66Zm-.15,0h0a1.77,1.77,0,0,1,.28.68h-.56a1.77,1.77,0,0,1,.28-.68Zm-.13,0a2,2,0,0,0-.25.67L93.4,107l.09-.14a1.61,1.61,0,0,1,.52-.47Zm-.27.76c0,.1,0,.21,0,.32v.07h-.51v-.06a1.64,1.64,0,0,1,.14-.39A2.87,2.87,0,0,0,93.77,107.16Zm-.61-.35a1.42,1.42,0,0,1,.6-.36,1.7,1.7,0,0,0-.35.36l-.11.17-.23-.08ZM93,107l.25.09a1.74,1.74,0,0,0-.13.4l0,.08h-.34A1.41,1.41,0,0,1,93,107Zm-.41,1.16a0,0,0,0,1,0,0v-.44a0,0,0,0,1,0,0H94a0,0,0,0,0,0-.1h-.21v-.07c0-.11,0-.22,0-.32h.6c0,.1,0,.21,0,.32v.07h-.18a0,0,0,0,0,0,.1h.77v.49h-2.5Zm2.49.1a1.57,1.57,0,0,1-.12.31l-.41-.07c0-.08,0-.16,0-.24h.49Zm-.59,0c0,.08,0,.16,0,.23h-.6c0-.07,0-.15,0-.23Zm-1.49.42a1.43,1.43,0,0,1-.21-.42h.34a1.67,1.67,0,0,0,.12.33Zm.23-.42h.49c0,.08,0,.16,0,.24a2.87,2.87,0,0,0-.41.07A1.57,1.57,0,0,1,93.24,108.24Zm.77,1a1.71,1.71,0,0,1-.51-.45l-.1-.15.38-.06a2.54,2.54,0,0,0,.07.26,1.93,1.93,0,0,0,.18.41Zm.15,0h0a1.59,1.59,0,0,1-.21-.45c0-.07,0-.15-.06-.23h.56c0,.08,0,.16-.06.23a1.59,1.59,0,0,1-.21.45Zm.13,0a1.93,1.93,0,0,0,.18-.41,2.53,2.53,0,0,0,.07-.25l.38.06-.1.15a1.71,1.71,0,0,1-.51.45Zm.88-.41a1.42,1.42,0,0,1-.61.36,1.93,1.93,0,0,0,.34-.34l.12-.18h0l.19.06Zm.15-.17-.22-.08h0a1.67,1.67,0,0,0,.12-.33h.34A1.41,1.41,0,0,1,95.32,108.66Zm.43-.54a0,0,0,0,1,0,0h-.52v-.49h.52a0,0,0,0,1,0,0Z"/><path class="cls-4" d="M92.86,108h0v-.24h0v.11a.05.05,0,0,1,0,0,.07.07,0,0,1,.06.07V108h0v-.09a0,0,0,0,0,0,0,0,0,0,0,0,0,0V108Z"/><path class="cls-4" d="M93.07,107.95s0,0,0,0h0a0,0,0,0,1,0,0,0,0,0,0,1,0,0h0s-.07,0-.07-.06v-.18h0v.06h0s0,0,0,0,0,0,0,0h0v.08Z"/><path class="cls-4" d="M93.22,107.95s0,0,0,0h0a0,0,0,0,1,0,0,0,0,0,0,1,0,0h0s-.07,0-.07-.06v-.18h0v.06h0s0,0,0,0,0,0,0,0h0Z"/><path class="cls-4" d="M93.37,107.85h0a.06.06,0,0,1,0,0,.07.07,0,0,1,.07.07v0a.07.07,0,0,1-.06.07.05.05,0,0,1,0,0v.09h0v-.22h0Zm.07.06a0,0,0,0,0,0,0,0,0,0,0,0,0,0v0a0,0,0,0,0,0,0,0,0,0,0,0,0,0Z"/><path class="cls-4" d="M93.61,108s-.09,0-.09-.07,0-.05.07-.05.06,0,.06,0,0,0,0,0h0s0,0,0,0,.09,0,.09.07,0,.05-.07.05-.07,0-.07,0,0,0,0,0,0,0,0,0S93.61,108,93.61,108Z"/><path class="cls-4" d="M93.75,107.88a0,0,0,0,1,0,0,0,0,0,0,1,0,0,0,0,0,0,1,0,0A0,0,0,0,1,93.75,107.88Zm0,.11a0,0,0,0,1,0,0,0,0,0,0,1,0,0,0,0,0,0,1,0,0A0,0,0,0,1,93.75,108Z"/><path class="cls-4" d="M94,107.74h0l-.13.27h0l0,0h0l.13-.27h0Z"/><path class="cls-4" d="M94.07,107.74h0l-.13.27h0l0,0h0l.13-.27h0Z"/><path class="cls-4" d="M94.28,108h0l0-.08,0,.08h0l-.06-.14h0s0,0,0,0h0l0,.1,0-.09h0l0,.09,0-.1h0s0,0,0,0h0Z"/><path class="cls-4" d="M94.56,108h0l0-.08,0,.08h0l-.06-.14h0s0,0,0,0h0l0,.1,0-.09h0l0,.09,0-.1h0s0,0,0,0h0Z"/><path class="cls-4" d="M94.83,108h0l0-.08,0,.08h0l-.06-.14h0s0,0,0,0h0l0,.1,0-.09h0l0,.09,0-.1h0s0,0,0,0h0Z"/><path class="cls-4" d="M95.62,107.79h-.05l0,0a.07.07,0,0,0-.13,0l0,0h-.05a.07.07,0,0,0,0,.13l0,0V108a.07.07,0,0,0,.11.08l0,0,0,0h.08a.07.07,0,0,0,0-.07V108l0,0a.07.07,0,0,0,0-.13Zm-.08.1a.07.07,0,0,0,0,.07v0h0a.07.07,0,0,0-.07,0h0v0a.07.07,0,0,0,0-.07h0a.07.07,0,0,0,.06,0v0a.07.07,0,0,0,.06,0h0Z"/><g id="_Group_" data-name="&lt;Group&gt;"><g id="_Group_2" data-name="&lt;Group&gt;"><path id="_Path_" data-name="&lt;Path&gt;" class="cls-4" d="M115.26,73.56a.1.1,0,1,0,.07,0A.1.1,0,0,0,115.26,73.56Z"/><path id="_Path_2" data-name="&lt;Path&gt;" class="cls-4" d="M118,74.57a.1.1,0,1,0,.07,0A.1.1,0,0,0,118,74.57Z"/><path id="_Path_3" data-name="&lt;Path&gt;" class="cls-4" d="M116.37,76.31a.1.1,0,0,0,.1.1h0a.1.1,0,1,0-.1-.1Z"/><path id="_Compound_Path_" data-name="&lt;Compound Path&gt;" class="cls-4" d="M118.75,72.72h-.57v-.61a.39.39,0,0,0-.39-.39h-2.62a.39.39,0,0,0-.39.39V74h-.56a.24.24,0,0,0-.24.24v1.12a.24.24,0,0,0,.24.24h.56v.78a.39.39,0,0,0,.39.39h2.62a.39.39,0,0,0,.39-.39V75a.1.1,0,1,0-.2,0v1.3a.2.2,0,0,1-.2.2h-2.62a.2.2,0,0,1-.2-.2v-.78h.2V76a.1.1,0,0,0,.1.1h2.42a.1.1,0,0,0,.1-.1V74.35h1a.23.23,0,0,0,.23-.23V72.95A.23.23,0,0,0,118.75,72.72Zm-4.33,2.64.43-.43a.4.4,0,0,0,.41,0l.43.43Zm.28-.56-.53.53h0v-1Zm1.23.51h0l-.53-.53.53-.53Zm-.74-.58h0a.2.2,0,0,1-.29,0h0l-.58-.58h1.45Zm2.4,1.17h-2.23v-.35h.52a.24.24,0,0,0,.24-.24V74.2a.24.24,0,0,0-.24-.24H115V72.11a.2.2,0,0,1,.2-.2h2.62a.2.2,0,0,1,.2.2v.61h-.2v-.37a.1.1,0,0,0-.1-.1h-2.42a.1.1,0,0,0-.1.1v.92a.1.1,0,0,0,.2,0v-.83h2.23v.27h-.54a.23.23,0,0,0-.23.23v1.49a.1.1,0,0,0,0,.08l.05,0h0l.38-.18h.24Zm1.19-1.78a0,0,0,0,1,0,0h-1.46l-.26.12V72.95a0,0,0,0,1,0,0h1.7a0,0,0,0,1,0,0v1.17Z"/><path id="_Path_4" data-name="&lt;Path&gt;" class="cls-4" d="M118.1,73.62h-.74a.1.1,0,0,0,0,.2h.74a.1.1,0,0,0,0-.2Z"/><path id="_Path_5" data-name="&lt;Path&gt;" class="cls-4" d="M118.43,73.23h-1.07a.1.1,0,0,0,0,.2h1.07a.1.1,0,0,0,0-.2Z"/></g></g><path class="cls-4" d="M72.87,79.53l-1.53-2a.18.18,0,0,0-.24,0l-1,.63H68.77l-1,.29-1-.28-1-.64a.18.18,0,0,0-.24,0l-1.69,2.1a.18.18,0,0,0,0,.25l.89.76.8,1.07a1.46,1.46,0,0,1,.39,1.16.63.63,0,0,0,.63.63h0a.63.63,0,0,0,.63.63h.1a.63.63,0,0,0,1.08.39l.1-.1,0,0A33.7,33.7,0,0,1,70,83.83a.63.63,0,0,1,.64-.64.63.63,0,0,1,.64-.64.64.64,0,0,0,.08-.79L72,80.53l.87-.75A.18.18,0,0,0,72.87,79.53Zm-7.2-1.64.72.46-1.58,1.92-.63-.54Zm.1,4.07.22-.22,0,0a.27.27,0,0,1,.15-.06h0a.27.27,0,0,1,.2.09.28.28,0,0,1,0,.39l-.21.21a.28.28,0,0,1-.39-.39Zm.56,1.12a.28.28,0,0,1,0-.39l.42-.42a.28.28,0,0,1,.31-.05.27.27,0,0,1,.15.28.29.29,0,0,1-.08.17l-.42.42a.28.28,0,0,1-.39,0Zm.64.65a.28.28,0,0,1,0-.39l.42-.42a.28.28,0,0,1,.33,0,.27.27,0,0,1,.13.28.29.29,0,0,1-.08.16l-.42.42a.28.28,0,0,1-.39,0Zm.73.56a.28.28,0,0,1,0-.39l.22-.22,0,0h0a.27.27,0,0,1,.12-.06h.06a.27.27,0,0,1,.2.09l0,0a.28.28,0,0,1,0,.37l-.21.21A.28.28,0,0,1,67.7,84.29Zm3.35-2a.28.28,0,0,1-.39,0h0l-1.15-1.17a.18.18,0,0,0-.26.25l1.17,1.18h0a.28.28,0,1,1-.39.39l-.78-.79a.18.18,0,1,0-.26.25l.77.78h0a.28.28,0,1,1-.39.39l-.43-.43a.18.18,0,0,0-.26.25l.41.42h0a.28.28,0,0,1-.39.39l0,0s0,0,0,0l0,0,0,0a.65.65,0,0,0,0-.28.63.63,0,0,0-.53-.54.64.64,0,0,0-.15-.58.63.63,0,0,0-.45-.2h0a.63.63,0,0,0-.62-.65l-.15,0a.63.63,0,0,0-1-.38l-.69-.93,1.66-2,.53.14-.69,1.22a.63.63,0,0,0,.24.86h0l.08,0a.63.63,0,0,0,.76-.29l.45-.79.8.06L71,81.9A.28.28,0,0,1,71,82.29Zm.07-.82-2-2h0a.18.18,0,0,0-.1,0l-1-.07a.18.18,0,0,0-.17.09l-.5.89a.28.28,0,1,1-.48-.27l.67-1.19.27-.08h0l1-.29h1.23l1.54,2Zm.72-1.31-1.42-1.81.73-.46,1.33,1.73Z"/><path class="cls-4" d="M69.3,77.8a.18.18,0,0,0,.13-.05l1.23-1.23a.18.18,0,0,0-.25-.25l-1.23,1.23a.18.18,0,0,0,.13.31Z"/><path class="cls-4" d="M67.23,77.74a.18.18,0,0,0,.25-.25l-1.23-1.23a.18.18,0,1,0-.25.25Z"/><path class="cls-4" d="M68.33,77.8a.18.18,0,0,0,.18-.18v-1a.18.18,0,0,0-.36,0v1A.18.18,0,0,0,68.33,77.8Z"/><path class="cls-4" d="M68.16,76a.18.18,0,1,0,.07-.22A.18.18,0,0,0,68.16,76Z"/><path class="cls-4" d="M82.81,64.87a.58.58,0,1,0,.58.58A.58.58,0,0,0,82.81,64.87Zm0,.87a.29.29,0,1,1,.29-.29A.29.29,0,0,1,82.81,65.74Z"/><path class="cls-4" d="M75.25,69.67a.58.58,0,1,0,.58.58A.58.58,0,0,0,75.25,69.67Zm0,.87a.29.29,0,1,1,.29-.29A.29.29,0,0,1,75.25,70.54Z"/><path class="cls-4" d="M82.53,65.05l-1.25-.61a.15.15,0,0,0-.13.26l1.25.61h.06a.15.15,0,0,0,.06-.28Z"/><path class="cls-4" d="M81.21,70.68a.58.58,0,1,0,.58.58A.58.58,0,0,0,81.21,70.68Zm0,.87a.29.29,0,1,1,.29-.29A.29.29,0,0,1,81.21,71.56Z"/><path class="cls-4" d="M80.93,70.87l-1.25-.61a.15.15,0,1,0-.13.26l1.25.61h.06a.15.15,0,0,0,.06-.28Z"/><path class="cls-4" d="M79,67.05a.58.58,0,1,0,.58.58A.58.58,0,0,0,79,67.05Zm0,.87a.29.29,0,1,1,.29-.29A.29.29,0,0,1,79,67.92Z"/><path class="cls-4" d="M78.78,67.25l-1-.75a.15.15,0,1,0-.18.23l1,.75a.15.15,0,1,0,.18-.23Z"/><path class="cls-4" d="M81.65,66.91a1.6,1.6,0,1,0,1.6,1.6A1.6,1.6,0,0,0,81.65,66.91Zm0,2.91A1.31,1.31,0,1,1,83,68.5,1.31,1.31,0,0,1,81.65,69.81Z"/><path class="cls-4" d="M81.65,67.49a.58.58,0,1,0,.58.58A.58.58,0,0,0,81.65,67.49Zm0,.87a.29.29,0,1,1,.29-.29A.29.29,0,0,1,81.65,68.36Z"/><path class="cls-4" d="M82.07,68.94h-.84a.44.44,0,0,0-.45.44v.38a.15.15,0,0,0,.07.13,1.59,1.59,0,0,0,1.6,0,.15.15,0,0,0,.07-.13v-.38A.44.44,0,0,0,82.07,68.94Zm.16.73a1.32,1.32,0,0,1-1.16,0v-.3a.15.15,0,0,1,.16-.15h.84a.15.15,0,0,1,.16.15v.3Z"/><path class="cls-4" d="M78.16,68.65a1.6,1.6,0,1,0,1.6,1.6A1.6,1.6,0,0,0,78.16,68.65Zm0,2.91a1.31,1.31,0,1,1,1.31-1.31A1.31,1.31,0,0,1,78.16,71.56Z"/><path class="cls-4" d="M78.16,69.23a.58.58,0,1,0,.58.58A.58.58,0,0,0,78.16,69.23Zm0,.87a.29.29,0,1,1,.29-.29A.29.29,0,0,1,78.16,70.1Z"/><path class="cls-4" d="M78.58,70.68h-.84a.44.44,0,0,0-.45.44v.38a.15.15,0,0,0,.07.13,1.59,1.59,0,0,0,1.6,0,.15.15,0,0,0,.07-.13v-.38A.44.44,0,0,0,78.58,70.68Zm.16.73a1.32,1.32,0,0,1-1.16,0v-.3a.15.15,0,0,1,.16-.15h.84a.15.15,0,0,1,.16.15v.3Z"/><path class="cls-4" d="M76.27,65a1.6,1.6,0,1,0,1.6,1.6A1.6,1.6,0,0,0,76.27,65Zm0,2.91a1.31,1.31,0,1,1,1.31-1.31A1.31,1.31,0,0,1,76.27,67.92Z"/><path class="cls-4" d="M76.27,65.6a.58.58,0,1,0,.58.58A.58.58,0,0,0,76.27,65.6Zm0,.87a.29.29,0,1,1,.29-.29A.29.29,0,0,1,76.27,66.47Z"/><path class="cls-4" d="M76.69,67.05h-.84a.44.44,0,0,0-.45.44v.38a.15.15,0,0,0,.07.13,1.59,1.59,0,0,0,1.6,0,.15.15,0,0,0,.07-.13v-.38A.44.44,0,0,0,76.69,67.05Zm.16.73a1.32,1.32,0,0,1-1.16,0v-.3a.15.15,0,0,1,.16-.15h.84a.15.15,0,0,1,.16.15v.3Z"/><path class="cls-4" d="M79.76,63.13a1.6,1.6,0,1,0,1.6,1.6A1.6,1.6,0,0,0,79.76,63.13Zm0,2.91a1.31,1.31,0,1,1,1.31-1.31A1.31,1.31,0,0,1,79.76,66Z"/><path class="cls-4" d="M79.76,63.71a.58.58,0,1,0,.58.58A.58.58,0,0,0,79.76,63.71Zm0,.87a.29.29,0,1,1,.29-.29A.29.29,0,0,1,79.76,64.58Z"/><path class="cls-4" d="M80.18,65.16h-.84a.44.44,0,0,0-.45.44V66a.15.15,0,0,0,.07.13,1.59,1.59,0,0,0,1.6,0,.15.15,0,0,0,.07-.13V65.6A.44.44,0,0,0,80.18,65.16Zm.16.73a1.32,1.32,0,0,1-1.16,0v-.3a.15.15,0,0,1,.16-.15h.84a.15.15,0,0,1,.16.15v.3Z"/><path class="cls-4" d="M78.42,64.63a.15.15,0,0,0-.2,0l-1,.86a.15.15,0,1,0,.19.22l1-.86A.15.15,0,0,0,78.42,64.63Z"/><path class="cls-4" d="M81.62,67l-.87-1.16a.15.15,0,0,0-.23.17l.87,1.16a.15.15,0,0,0,.23-.17Z"/><path class="cls-4" d="M80.43,69a.15.15,0,0,0-.2,0l-.81.61a.15.15,0,0,0,.17.23l.81-.61A.15.15,0,0,0,80.43,69Z"/><path class="cls-4" d="M76.71,70.1h-1a.15.15,0,1,0,0,.29h1a.15.15,0,0,0,0-.29Z"/><path class="cls-4" d="M76.27,63.13a.58.58,0,1,0,.58.58A.58.58,0,0,0,76.27,63.13Zm0,.87a.29.29,0,1,1,.29-.29A.29.29,0,0,1,76.27,64Z"/><path class="cls-4" d="M76.27,64a.15.15,0,0,0-.15.15v1a.15.15,0,1,0,.29,0v-1A.15.15,0,0,0,76.27,64Z"/><rect class="cls-4" x="106.03" y="109.69" width="1.34" height="0.21"/><rect class="cls-4" x="106.03" y="110.1" width="1.34" height="0.21"/><rect class="cls-4" x="106.03" y="110.52" width="0.93" height="0.21"/><rect class="cls-4" x="106.03" y="110.93" width="0.93" height="0.21"/><rect class="cls-4" x="105.51" y="115.04" width="6.17" height="0.21"/><path class="cls-4" d="M111.47,110l-.41-.82a.1.1,0,0,0-.14,0h0l-.82.41a.1.1,0,1,0,.09.18l.6-.3-.16.46a5.49,5.49,0,0,1-4.71,3.65l0,.21a5.7,5.7,0,0,0,4.88-3.79l.17-.47.3.61a.1.1,0,0,0,.18-.09Z"/><path class="cls-4" d="M106.75,114H106a.1.1,0,0,0-.1.1v.62a.1.1,0,0,0,.1.1h.72a.1.1,0,0,0,.1-.1v-.62A.1.1,0,0,0,106.75,114Zm-.1.62h-.51v-.41h.51Z"/><path class="cls-4" d="M107.88,113.71h-.72a.1.1,0,0,0-.1.1v.93a.1.1,0,0,0,.1.1h.72a.1.1,0,0,0,.1-.1v-.93A.1.1,0,0,0,107.88,113.71Zm-.1.93h-.51v-.72h.51Z"/><path class="cls-4" d="M109,113.19h-.72a.1.1,0,0,0-.1.1v1.44a.1.1,0,0,0,.1.1H109a.1.1,0,0,0,.1-.1v-1.44A.1.1,0,0,0,109,113.19Zm-.1,1.44h-.51V113.4h.51Z"/><path class="cls-4" d="M110.14,112.47h-.72a.1.1,0,0,0-.1.1v2.16a.1.1,0,0,0,.1.1h.72a.1.1,0,0,0,.1-.1v-2.16A.1.1,0,0,0,110.14,112.47Zm-.1,2.16h-.51v-2H110Z"/><path class="cls-4" d="M111.27,111h-.72a.1.1,0,0,0-.1.1v3.6a.1.1,0,0,0,.1.1h.72a.1.1,0,0,0,.1-.1v-3.6A.1.1,0,0,0,111.27,111Zm-.1,3.6h-.51v-3.4h.51Z"/><path class="cls-4" d="M107.13,89.76a.09.09,0,0,0-.06-.06l-.52-.12-.12-.52a.09.09,0,0,0-.1-.06l0,0-.6.6a2.43,2.43,0,1,0,.83.83l.6-.6a.09.09,0,0,0,0-.08Zm-.44,1.94a2.26,2.26,0,1,1-1.13-2l-.28.28h0a1.88,1.88,0,1,0,.82.82h0l.28-.28a2.25,2.25,0,0,1,.3,1.13Zm-.79-.86a1.7,1.7,0,1,1-.61-.61l.09.4-.09.09a1.32,1.32,0,1,0,.12.12l.09-.09Zm-1.1.86a.37.37,0,1,1-.18-.31l-.25.25a.09.09,0,1,0,.12.12h0l.25-.25A.36.36,0,0,1,104.79,91.7Zm-.05-.43a.54.54,0,1,0,.12.12l.43-.43a1.15,1.15,0,1,1-.12-.12Zm1.6-.89-.32.32h0l-.43-.1-.11-.48.86-.86.1.42a.09.09,0,0,0,.06.06l.42.1Z"/><g id="outline"><path class="cls-4" d="M68.3,92.21h-.17l.14-.08a.05.05,0,0,0,0-.07h0l-.16-.27a.05.05,0,0,0-.07,0l-.14.08h0a0,0,0,0,1,0,0l.08-.14a.05.05,0,0,0,0-.07l-.27-.16a.05.05,0,0,0-.07,0h0l-.08.14h0v-.16a.05.05,0,0,0-.05-.05h-.32a.05.05,0,0,0-.05.05v.16h0L67,91.45a.05.05,0,0,0-.07,0h0l-.27.16a.05.05,0,0,0,0,.07l.08.14a0,0,0,0,1,0,0h0l-.14-.08a.05.05,0,0,0-.07,0l-.16.27a.05.05,0,0,0,0,.07h0l.14.08a0,0,0,0,1,0,0h-.17a.05.05,0,0,0-.05.05v.32a.05.05,0,0,0,.05.05h.17l-.14.08a.05.05,0,0,0,0,.07h0l.16.27a.05.05,0,0,0,.07,0l.14-.08h0a0,0,0,0,1,0,0l-.08.14a.05.05,0,0,0,0,.07l.27.16a.05.05,0,0,0,.07,0h0l.08-.14h0v.16a.05.05,0,0,0,.05.05h.32a.05.05,0,0,0,.05-.05v-.16h0l.08.14a.05.05,0,0,0,.07,0l.27-.16a.05.05,0,0,0,0-.07L67.91,93a0,0,0,0,1,0,0h0l.14.08a.05.05,0,0,0,.07,0l.16-.27a.05.05,0,0,0,0-.07h0l-.14-.08a0,0,0,0,1,0,0h.17a.05.05,0,0,0,.05-.05v-.32A.05.05,0,0,0,68.3,92.21Zm-.05.32h-.16a.05.05,0,0,0-.05,0v0a.12.12,0,0,0,.06.13l.09.05-.11.18L68,92.94a.12.12,0,0,0-.16.16l.05.09-.18.11-.05-.09a.12.12,0,0,0-.22.06v.11H67.2v-.11A.12.12,0,0,0,67,93.2l-.05.09-.18-.11.05-.09a.12.12,0,0,0-.16-.16l-.09.05-.11-.18.09-.05a.12.12,0,0,0-.06-.22h-.11v-.21h.11a.12.12,0,0,0,.06-.22L66.43,92l.11-.18.09.05a.12.12,0,0,0,.16-.16l-.05-.09.18-.11.05.09a.12.12,0,0,0,.22-.06v-.11h.21v.11a.12.12,0,0,0,.22.06l.05-.09.18.11-.05.09a.12.12,0,0,0,.16.16l.09-.05.11.18-.09.05a.12.12,0,0,0,.06.22h.11Z"/><path class="cls-4" d="M67.3,92.79a.37.37,0,1,0-.37-.37A.37.37,0,0,0,67.3,92.79Zm0-.63a.26.26,0,1,1-.26.26A.26.26,0,0,1,67.3,92.16Z"/><path class="cls-4" d="M67.3,91.79v.11a.53.53,0,1,1-.48.74l-.1,0a.63.63,0,1,0,.57-.89Z"/><path class="cls-4" d="M66.78,92.42h-.11a.64.64,0,0,0,0,.11l.1,0A.53.53,0,0,1,66.78,92.42Z"/><path class="cls-4" d="M65.25,93.53h.09a0,0,0,0,1,0,.07l-.07.07a.05.05,0,0,0,0,.07l.15.15a.05.05,0,0,0,.07,0l.07-.07a0,0,0,0,1,.07,0v.09a.05.05,0,0,0,.05.05h.21a.05.05,0,0,0,.05-.05v-.09a0,0,0,0,1,0,0h0l.07.07a.05.05,0,0,0,.07,0l.15-.15a.05.05,0,0,0,0-.07l-.07-.07a0,0,0,0,1,0-.06h.12a.05.05,0,0,0,.05-.05v-.21a.05.05,0,0,0-.05-.05h-.09a0,0,0,0,1,0-.07l.07-.07a.05.05,0,0,0,0-.07l-.15-.15a.05.05,0,0,0-.07,0l-.07.07a0,0,0,0,1-.07,0v-.09a.05.05,0,0,0-.05-.05h-.21a.05.05,0,0,0-.05.05v.09a0,0,0,0,1,0,0h0l-.07-.07a.05.05,0,0,0-.07,0l-.15.15a.05.05,0,0,0,0,.07l.07.07h0a0,0,0,0,1,0,.06h-.12a.05.05,0,0,0-.05.05v.21A.05.05,0,0,0,65.25,93.53Zm.05-.21h0a.15.15,0,0,0,.1-.25l0,0L65.5,93l0,0a.15.15,0,0,0,.25-.1v0h.11v0a.15.15,0,0,0,.25.1l0,0,.07.07,0,0a.15.15,0,0,0,.1.25h0v.11h0a.15.15,0,0,0-.1.25l0,0-.07.07,0,0a.15.15,0,0,0-.25.1v0h-.11v0a.15.15,0,0,0-.25-.1l0,0-.07-.07,0,0a.15.15,0,0,0-.1-.25h0Z"/><path class="cls-4" d="M65.83,93.58a.21.21,0,1,0-.21-.21A.21.21,0,0,0,65.83,93.58Zm0-.32a.11.11,0,1,1-.11.11A.11.11,0,0,1,65.83,93.26Z"/><path class="cls-4" d="M67,93.47h-.21a.05.05,0,0,0-.05.05v.09l-.07-.07a.05.05,0,0,0-.07,0l-.15.15a.05.05,0,0,0,0,.07l.07.07h-.09a.05.05,0,0,0-.05.05v.21a.05.05,0,0,0,.05.05h.09l-.07.07a.05.05,0,0,0,0,.07l.15.15a.05.05,0,0,0,.07,0l.07-.07v.09a.05.05,0,0,0,.05.05H67a.05.05,0,0,0,.05-.05v-.09l.07.07a.05.05,0,0,0,.07,0l.15-.15a.05.05,0,0,0,0-.07l-.07-.07h.09a.05.05,0,0,0,.05-.05V93.9a.05.05,0,0,0-.05-.05h-.09l.07-.07a.05.05,0,0,0,0-.07l-.15-.15a.05.05,0,0,0-.07,0l-.07.07v-.09A.05.05,0,0,0,67,93.47Zm.08.27.07-.07.07.07-.07.07a.05.05,0,0,0,0,.06l0,0a.05.05,0,0,0,0,0h.11v.11H67.2a.05.05,0,0,0,0,0l0,0a.05.05,0,0,0,0,.06l.07.07-.07.07-.07-.07a.05.05,0,0,0-.06,0l0,0a.05.05,0,0,0,0,0v.11h-.11v-.11a.05.05,0,0,0,0,0l0,0a.05.05,0,0,0-.06,0l-.07.07-.07-.07.07-.07a.05.05,0,0,0,0-.06l0,0a.05.05,0,0,0,0,0h-.11v-.11h.11a.05.05,0,0,0,0,0l0,0a.05.05,0,0,0,0-.06l-.07-.07.07-.07.07.07a.05.05,0,0,0,.06,0l0,0a.05.05,0,0,0,0,0v-.11h.11v.11a.05.05,0,0,0,0,0l0,0A.05.05,0,0,0,67.07,93.74Z"/><circle class="cls-4" cx="66.88" cy="94" r="0.11"/></g><circle class="cls-4" cx="88.44" cy="70.65" r="0.18"/><path class="cls-4" d="M89.84,69.09a1.91,1.91,0,0,0-2.8,0,.11.11,0,0,0,.16.15,1.69,1.69,0,0,1,2.47,0,.11.11,0,0,0,.16-.15Z"/><path class="cls-4" d="M89.43,69.55a1.37,1.37,0,0,0-2,0,.11.11,0,0,0,.16.16,1.14,1.14,0,0,1,1.66,0,.11.11,0,1,0,.16-.16Z"/><path class="cls-4" d="M89,70a.81.81,0,0,0-.54-.23h0a.81.81,0,0,0-.54.23.11.11,0,0,0,.16.16.58.58,0,0,1,.39-.17h0a.58.58,0,0,1,.39.17A.11.11,0,0,0,89,70Z"/></g></g></svg>