<svg xmlns="http://www.w3.org/2000/svg" viewBox="0 0 64.69 19.03"><defs><style>.cls-1{font-size:10.56px;font-family:AGaramondPro-Regular, Adobe Garamond Pro;}.cls-1,.cls-4{fill:#2a4d69;}.cls-2{letter-spacing:-0.04em;}.cls-3{letter-spacing:0em;}</style></defs><title>Asset 21</title><g id="Layer_2" data-name="Layer 2"><g id="Layer_1-2" data-name="Layer 1"><text class="cls-1" transform="translate(20.61 15.29) scale(1.06 1)">GG<tspan class="cls-2" x="15.77" y="0">J</tspan><tspan class="cls-3" x="19.04" y="0">ungle</tspan></text><path class="cls-4" d="M17.36,1v7L15.92,6.62V1.43H1.43V15.92h5.2l1.42,1.43H1a1,1,0,0,1-1-1V1A1,1,0,0,1,1,0H16.34A1,1,0,0,1,17.36,1Z"/><path class="cls-4" d="M17.36,9.61v6.73a1,1,0,0,1-1,1H12.46L11,15.92v-2l2,2h2.86V11H9.61L11,9.61Z"/><path class="cls-4" d="M14.33,3.57V8.08l-1.39-1.4V4.42H4.42v8.52H6.53l1.38,1.39H3.57A.55.55,0,0,1,3,13.78V3.57A.55.55,0,0,1,3.57,3H13.78A.55.55,0,0,1,14.33,3.57Z"/></g></g></svg>