<svg width="217" height="72" viewBox="0 0 217 72" fill="none" xmlns="http://www.w3.org/2000/svg">
<path d="M99.6888 42.1016C99.1009 42.6484 98.2437 43.1445 97.1175 43.5898C95.9912 44.0273 94.5669 44.2461 92.8444 44.2461C90.4014 44.2461 88.4139 43.4766 86.8819 41.9375C85.3498 40.3906 84.5838 38.3828 84.5838 35.9141V35.3281C84.5838 32.7734 85.3374 30.6953 86.8446 29.0938C88.3601 27.4922 90.3352 26.6914 92.7698 26.6914C94.1859 26.6914 95.4778 26.9062 96.6455 27.3359C97.8214 27.7578 98.7986 28.332 99.577 29.0586V32.4922H96.8939L96.3846 30.207C96.0534 29.9414 95.6145 29.7305 95.0679 29.5742C94.5296 29.4102 93.9085 29.3281 93.2046 29.3281C91.6229 29.3281 90.3931 29.8789 89.5153 30.9805C88.6375 32.082 88.1986 33.5234 88.1986 35.3047V35.9141C88.1986 37.6484 88.6292 39.0352 89.4905 40.0742C90.3517 41.1055 91.5939 41.6211 93.217 41.6211C93.9458 41.6211 94.5337 41.5625 94.9809 41.4453C95.4364 41.3281 95.7925 41.1914 96.0492 41.0352V38.1406L93.4655 37.9531V35.5508H99.6888V42.1016ZM116.508 42.1016C115.92 42.6484 115.063 43.1445 113.937 43.5898C112.81 44.0273 111.386 44.2461 109.664 44.2461C107.221 44.2461 105.233 43.4766 103.701 41.9375C102.169 40.3906 101.403 38.3828 101.403 35.9141V35.3281C101.403 32.7734 102.157 30.6953 103.664 29.0938C105.179 27.4922 107.154 26.6914 109.589 26.6914C111.005 26.6914 112.297 26.9062 113.465 27.3359C114.641 27.7578 115.618 28.332 116.396 29.0586V32.4922H113.713L113.204 30.207C112.873 29.9414 112.434 29.7305 111.887 29.5742C111.349 29.4102 110.728 29.3281 110.024 29.3281C108.442 29.3281 107.212 29.8789 106.335 30.9805C105.457 32.082 105.018 33.5234 105.018 35.3047V35.9141C105.018 37.6484 105.448 39.0352 106.31 40.0742C107.171 41.1055 108.413 41.6211 110.036 41.6211C110.765 41.6211 111.353 41.5625 111.8 41.4453C112.256 41.3281 112.612 41.1914 112.868 41.0352V38.1406L110.285 37.9531V35.5508H116.508V42.1016ZM132.11 26.9375V29L130.172 29.3516V38.8789C130.172 40.5273 129.601 41.8359 128.458 42.8047C127.323 43.7656 125.887 44.2461 124.147 44.2461C122.259 44.2461 120.765 43.8125 119.663 42.9453C118.562 42.0781 118.032 40.8008 118.073 39.1133L118.098 39.043H121.626C121.626 39.9414 121.854 40.5977 122.309 41.0117C122.765 41.418 123.377 41.6211 124.147 41.6211C124.818 41.6211 125.386 41.3789 125.849 40.8945C126.321 40.4023 126.557 39.7305 126.557 38.8789V29.3516L124.62 29V26.9375H130.172H132.11ZM142.631 42.3945C142.201 42.9883 141.666 43.4453 141.029 43.7656C140.399 44.0859 139.679 44.2461 138.867 44.2461C137.451 44.2461 136.342 43.8203 135.538 42.9688C134.735 42.1094 134.333 40.7773 134.333 38.9727V33.7344L132.855 33.3828V31.3203H134.333H137.961V38.9961C137.961 39.918 138.122 40.582 138.445 40.9883C138.776 41.3867 139.265 41.5859 139.911 41.5859C140.482 41.5859 140.975 41.5 141.389 41.3281C141.811 41.1484 142.155 40.8945 142.42 40.5664V33.7344L140.83 33.3828V31.3203H142.42H146.047V41.5977L147.675 41.9492V44H142.867L142.631 42.3945ZM148.904 41.9492L150.643 41.5977V33.7344L148.718 33.3828V31.3203H154.022L154.184 33.1367C154.631 32.4883 155.181 31.9844 155.836 31.625C156.49 31.2656 157.223 31.0859 158.034 31.0859C159.392 31.0859 160.452 31.4883 161.214 32.293C161.976 33.0977 162.357 34.3594 162.357 36.0781V41.5977L164.096 41.9492V44H157.165V41.9492L158.718 41.5977V36.0898C158.718 35.2383 158.535 34.6367 158.171 34.2852C157.807 33.9258 157.256 33.7461 156.519 33.7461C156.039 33.7461 155.608 33.8398 155.227 34.0273C154.846 34.207 154.527 34.4648 154.271 34.8008V41.5977L155.736 41.9492V44H148.904V41.9492ZM165.351 37.7656C165.351 35.7656 165.81 34.1523 166.73 32.9258C167.657 31.6992 168.953 31.0859 170.618 31.0859C171.371 31.0859 172.034 31.2461 172.605 31.5664C173.177 31.8789 173.665 32.3281 174.071 32.9141L174.332 31.3203H177.487V43.625C177.487 45.2969 176.928 46.6289 175.81 47.6211C174.7 48.6211 173.172 49.1211 171.226 49.1211C170.547 49.1211 169.827 49.0312 169.065 48.8516C168.303 48.6797 167.599 48.4414 166.953 48.1367L167.624 45.7344C168.204 45.9688 168.783 46.1523 169.363 46.2852C169.943 46.4258 170.556 46.4961 171.202 46.4961C172.088 46.4961 172.75 46.2422 173.189 45.7344C173.628 45.2266 173.847 44.5195 173.847 43.6133V42.7812C173.45 43.2578 172.982 43.6211 172.444 43.8711C171.905 44.1211 171.289 44.2461 170.593 44.2461C168.945 44.2461 167.657 43.6758 166.73 42.5352C165.81 41.3867 165.351 39.8789 165.351 38.0117V37.7656ZM168.978 38.0117C168.978 39.1211 169.177 39.9961 169.574 40.6367C169.972 41.2695 170.618 41.5859 171.512 41.5859C172.067 41.5859 172.535 41.4922 172.916 41.3047C173.305 41.1094 173.616 40.8281 173.847 40.4609V34.9531C173.616 34.5703 173.305 34.2734 172.916 34.0625C172.535 33.8516 172.075 33.7461 171.537 33.7461C170.651 33.7461 170.001 34.1172 169.587 34.8594C169.181 35.6016 168.978 36.5703 168.978 37.7656V38.0117ZM179.276 27.7812V25.7188H184.841V41.5977L186.592 41.9492V44H179.462V41.9492L181.214 41.5977V28.1328L179.276 27.7812ZM194.219 44.2461C192.281 44.2461 190.733 43.6602 189.574 42.4883C188.414 41.3164 187.834 39.8281 187.834 38.0234V37.5547C187.834 35.6719 188.381 34.1211 189.474 32.9023C190.576 31.6836 192.05 31.0781 193.896 31.0859C195.71 31.0859 197.118 31.6016 198.12 32.6328C199.122 33.6641 199.623 35.0586 199.623 36.8164V38.6797H191.598L191.573 38.75C191.64 39.5859 191.934 40.2734 192.455 40.8125C192.985 41.3516 193.702 41.6211 194.604 41.6211C195.408 41.6211 196.074 41.5469 196.604 41.3984C197.134 41.2422 197.714 41 198.343 40.6719L199.325 42.7812C198.77 43.1953 198.049 43.543 197.163 43.8242C196.285 44.1055 195.304 44.2461 194.219 44.2461ZM193.896 33.7227C193.226 33.7227 192.696 33.9648 192.306 34.4492C191.917 34.9336 191.677 35.5703 191.586 36.3594L191.623 36.418H196.07V36.1133C196.07 35.3867 195.888 34.8086 195.524 34.3789C195.167 33.9414 194.625 33.7227 193.896 33.7227Z" fill="#2A4D69"/>
<path d="M72.9449 4.1853V33.1115L66.9478 27.4089V5.9622H6.602V65.8395H28.2582L34.172 71.7487H4.8112C3.70666 71.7487 2.64737 71.3133 1.86634 70.5384C1.08532 69.7634 0.646545 68.7124 0.646545 67.6164V4.1853C0.646545 3.08934 1.08532 2.03827 1.86634 1.26331C2.64737 0.488349 3.70666 0.0529811 4.8112 0.0529811H68.697C69.2508 0.0419874 69.8014 0.140752 70.3163 0.343493C70.8312 0.546234 71.3002 0.848875 71.6958 1.2337C72.0914 1.61852 72.4056 2.07779 72.6201 2.5846C72.8346 3.09142 72.945 3.63561 72.9449 4.1853Z" fill="#2A4D69"/>
<path d="M72.9448 39.7658V67.5763C72.9448 68.6722 72.506 69.7233 71.725 70.4983C70.944 71.2732 69.8847 71.7086 68.7801 71.7086H52.538L46.4576 65.8407V57.5761L54.7869 65.8407H66.6978V45.5097H40.6688L46.4576 39.7658H72.9448Z" fill="#2A4D69"/>
<path d="M60.326 14.8066V33.4433L54.5371 27.6581V18.319H19.0543V53.5264H27.8417L33.5889 59.2703H15.5143C15.2066 59.2814 14.8998 59.2309 14.6122 59.1216C14.3246 59.0124 14.0622 58.8467 13.8406 58.6346C13.619 58.4224 13.4427 58.1681 13.3225 57.8868C13.2022 57.6055 13.1403 57.3031 13.1405 56.9975V14.8066C13.1288 14.4941 13.1822 14.1827 13.2974 13.8917C13.4126 13.6006 13.587 13.3363 13.8098 13.1153C14.0326 12.8942 14.299 12.7211 14.5923 12.6068C14.8856 12.4926 15.1995 12.4396 15.5143 12.4511H58.0354C58.3434 12.4509 58.6482 12.5124 58.9317 12.6317C59.2151 12.7511 59.4715 12.9259 59.6853 13.1458C59.8991 13.3657 60.066 13.6261 60.1761 13.9114C60.2862 14.1968 60.3372 14.5012 60.326 14.8066Z" fill="#2A4D69"/>
</svg>
