<?xml version="1.0" encoding="utf-8"?>
<!-- Generator: Adobe Illustrator 23.0.1, SVG Export Plug-In . SVG Version: 6.00 Build 0)  -->
<svg version="1.1" id="Layer_1" xmlns="http://www.w3.org/2000/svg" xmlns:xlink="http://www.w3.org/1999/xlink" x="0px" y="0px"
	 viewBox="0 0 647.5 178.2" style="enable-background:new 0 0 647.5 178.2;" xml:space="preserve">
<style type="text/css">
	.st0{fill:#00C200;}
	.st1{fill:#FFFFFF;}
</style>
<g>
	<path class="st0" d="M120.4,66.4h-17H93.1c-5.8,0-10.5,4.7-10.5,10.5v24.4c0,5.8,4.7,10.5,10.5,10.5h33.1c0.5,0,0.8,0.4,0.8,0.8
		V124c0,5.9-4.8,10.7-10.7,10.7H67.2c-5.9,0-10.7-4.8-10.7-10.7V54.2c0-5.9,4.8-10.7,10.7-10.7h33.1h10.3h55
		C149.9,17.4,121.6,0,89.1,0C39.9,0,0,39.9,0,89.1s39.9,89.1,89.1,89.1s89.1-39.9,89.1-89.1c0-7.8-1.1-15.4-3-22.6L120.4,66.4
		L120.4,66.4z"/>
</g>
<path class="st1" d="M264.6,120c0,4.1,0.6,6.5,2.5,7.3c0.3,0.3,0.3,0.9-0.1,1.2c-1.2,0-3.1,0.4-5,0.9c-5.4,1.4-12.8,2.7-18.3,2.7
	c-12.2,0-23.3-3.4-31.2-11.3c-6.1-6.1-9.4-14.2-9.4-23.2c0-8.7,2.9-17.5,9.2-24.2c6.8-7.2,17-12,32.4-12c5.8,0,11.2,1.1,13,1.5
	c1.9,0.4,5.1,1.1,6.3,0.9c0,3.4,0.6,8.7,1.5,14.8c-0.3,0.8-2.1,0.9-2.8,0.3c-2.9-11-10.5-14.5-21-14.5c-19.8,0-28.5,14.1-28.5,29.4
	c0,19.6,10.1,35.1,30.7,35.1c6.3,0,10.1-1.3,11.2-3.1c0.5-0.7,1-2.6,1-5.8v-4.1c0-8.6-0.3-9.2-6.6-9.9l-4.5-0.5
	c-0.8-0.4-0.7-2.2,0-2.6c3,0.2,8.6,0.3,14.6,0.3c4,0,7.5-0.1,10.8-0.3c0.7,0.4,0.8,1.9,0.1,2.6l-1.6,0.2c-4.3,0.5-4.4,3.4-4.4,8.6
	L264.6,120L264.6,120z"/>
<path class="st1" d="M368.5,71.1c0-11.3-1-12.6-7.1-13.1l-2.6-0.2c-0.6-0.4-0.4-2.3,0.2-2.6c5.9,0.2,9.4,0.3,13.7,0.3
	c4.1,0,7.6-0.1,11.7-0.3c0.6,0.3,0.8,2.1,0.2,2.6l-1.5,0.2c-6,0.8-6.2,2.2-6.2,13.1V109c0,8.1-0.4,15.1-2.4,19.8
	c-3.4,8.2-10.6,14.7-20.1,14.7c-1.2,0-4.4-0.1-4.4-2.1c0-1.7,1.5-4.7,3.7-4.7c1.2,0,2.5,0.2,3.8,0.6c1.4,0.4,2.9,0.7,4.3,0.7
	c2.1,0,3.4-1.2,4.1-2.7c2.4-4.8,2.7-20.1,2.7-25.7V71.1H368.5z"/>
<path class="st1" d="M402.9,108.1c0,7.1,1.7,11.8,9.5,11.8c2.8,0,6-1.1,8.3-3.1c1.3-1.2,2-2.8,2-5.9V94.1c0-6.6-0.7-6.8-3.8-8.1
	l-1.3-0.5c-0.7-0.4-0.7-1.8,0.1-2.2c4.1-0.1,9.7-0.8,12-1.8c0.5,0.1,0.8,0.3,0.9,0.7c-0.2,1.9-0.3,5.1-0.3,8.9v17.2
	c0,8.1,0.3,11.1,3.2,11.1c1.2,0,2.6-0.2,4-0.5c0.6,0.5,0.7,2.6-0.1,3c-4,0.8-9.9,1.8-13.4,3.8c-0.5,0-1-0.3-1.2-0.7v-4.2
	c0-0.9-0.3-1.4-0.9-1.4c-3.1,1.9-8.1,5.3-14.1,5.3c-9,0-12.4-4.5-12.4-12.8V94.8c0-6.4,0-7.4-3.1-8.7l-1.2-0.5
	c-0.6-0.5-0.5-1.9,0.2-2.2c4.7-0.1,8.7-1,10.9-1.8c0.6,0.1,0.9,0.3,1,0.7c-0.2,1.7-0.3,3.9-0.3,8.9L402.9,108.1L402.9,108.1z"/>
<path class="st1" d="M446.4,93.7c0-4,0-4.5-2.8-6.3l-0.9-0.6c-0.4-0.4-0.4-1.5,0.1-1.8c2.4-0.8,8.2-3.5,10.2-5
	c0.4,0,0.9,0.2,1.1,0.7c-0.2,2.3-0.2,3.9-0.2,4.8c0,0.6,0.4,1.1,1.1,1.1c4.3-2.7,9.1-5.2,14.3-5.2c8.5,0,12,5.8,12,12.7v17.6
	c0,7.4,0.2,8.4,3.9,8.9l2.2,0.3c0.7,0.5,0.5,2.2-0.2,2.6c-3.1-0.2-6-0.3-9.6-0.3c-3.7,0-6.7,0.1-9.5,0.3c-0.7-0.3-0.9-2-0.2-2.6
	l1.9-0.3c3.8-0.6,3.9-1.5,3.9-8.9V96.3c0-5.8-2.7-10.1-9.6-10.1c-3.9,0-7.3,1.6-8.7,3.6c-1.3,1.7-1.5,3.2-1.5,6.1v15.6
	c0,7.4,0.2,8.3,3.9,8.9l1.8,0.3c0.7,0.5,0.5,2.2-0.2,2.6c-2.8-0.2-5.7-0.3-9.3-0.3c-3.7,0-6.7,0.1-9.6,0.3c-0.7-0.3-0.9-2-0.2-2.6
	l2.1-0.3c3.8-0.5,3.9-1.5,3.9-8.9L446.4,93.7L446.4,93.7z"/>
<path class="st1" d="M533.1,85.1c1.1,0.5,0.9,4-0.6,4.2h-7.4c0.2,1.7,0.2,3.5,0.2,5.2c0,7.1-4.2,16.3-17.2,16.3
	c-1.8,0-3.3-0.2-4.5-0.3c-1.2,0.7-4.5,2.7-4.5,5.6c0,2.3,2.4,4.3,7.2,4.3c3.5,0,7.7-0.3,12.2-0.3c5.7,0,14.3,1,14.3,11.2
	c0,11.1-12.2,19.3-25.5,19.3c-12.6,0-17-6.7-17-11.9c0-1.6,0.4-3,1.1-3.8c1.7-1.8,4.6-4.5,7-6.8c0.9-0.9,1.7-1.8,0.8-2.5
	c-4-1-7.5-4.5-7.5-8.1c0-0.5,0.4-0.9,1.5-1.7c1.7-1.1,3.7-2.9,5.4-4.7c0.5-0.6,1-1.4,1-1.9c-3.5-1.8-7.7-5.8-7.7-12.4
	c0-8.8,7.6-15.4,16.7-15.4c3.9,0,7.5,1,9.8,2c3.3,1.4,4,1.6,6.2,1.6L533.1,85.1L533.1,85.1z M511.8,126.4c-3.3,0-7.4,0.2-8.8,1.1
	c-2.5,1.5-4.9,4.7-4.9,8.6c0,5.5,4.4,10.1,13.7,10.1c9.1,0,15.1-5.1,15.1-10.9c0-6.2-4.3-8.9-11.7-8.9L511.8,126.4L511.8,126.4z
	 M518.1,97.1c0-7-2.9-12.8-9.1-12.8c-4.9,0-8.6,4.5-8.6,11.5c0,7.3,4.4,12,9.3,12C515.2,107.7,518.1,103.4,518.1,97.1"/>
<path class="st1" d="M547.1,111.6c0,7.4,0.2,8.4,3.9,8.9l2.5,0.3c0.7,0.5,0.5,2.2-0.2,2.6c-3.4-0.2-6.3-0.3-9.9-0.3
	c-3.7,0-6.7,0.1-9.8,0.3c-0.7-0.3-0.9-2-0.2-2.6l2.4-0.3c3.8-0.5,3.9-1.5,3.9-8.9V65.4c0-6-0.1-6.6-3.2-8.5l-1-0.6
	c-0.5-0.3-0.5-1.7,0-2c2.6-0.8,7.4-2.4,11-4.3c0.4,0,0.8,0.2,1,0.6c-0.1,3.1-0.3,8.2-0.3,12.7L547.1,111.6L547.1,111.6z"/>
<path class="st1" d="M566.6,96.9c-2.7,0-2.8,0.2-2.8,2.8c0,10.3,6,19.1,17,19.1c3.4,0,6.2-1,9.4-5c1-0.3,1.7,0.3,1.8,1.2
	c-3.4,7-10.7,9.5-16.1,9.5c-6.6,0-11.9-2.9-14.8-6.7c-3.1-4-4.3-8.8-4.3-13.3c0-12.6,8.3-23.1,20.5-23.1c8.8,0,14.5,6,14.5,12.2
	c0,1.4-0.2,2.2-0.4,2.7c-0.3,0.6-1.7,0.7-6,0.7L566.6,96.9L566.6,96.9z M572.9,93.8c7.6,0,9.8-0.4,10.6-1c0.3-0.2,0.6-0.6,0.6-1.9
	c0-2.9-1.9-6.4-7.9-6.4S565,90,564.9,93.4c0,0.2,0,0.5,0.7,0.5L572.9,93.8L572.9,93.8L572.9,93.8z"/>
<path class="st1" d="M336.6,120c0,4.1,0.6,6.5,2.5,7.3c0.3,0.3,0.3,0.9-0.1,1.2c-1.2,0-3.1,0.4-5,0.9c-5.4,1.4-12.8,2.7-18.3,2.7
	c-12.2,0-23.3-3.4-31.2-11.3c-6.1-6.1-9.4-14.2-9.4-23.2c0-8.7,2.9-17.5,9.2-24.2c6.8-7.2,17-12,32.4-12c5.8,0,11.2,1.1,13,1.5
	c1.9,0.4,5.1,1.1,6.3,0.9c0,3.4,0.6,8.7,1.5,14.8c-0.3,0.8-2.1,0.9-2.8,0.3c-2.9-11-10.5-14.5-21-14.5c-19.8,0-28.5,14.1-28.5,29.4
	c0,19.6,10.1,35.1,30.7,35.1c6.3,0,10.1-1.3,11.2-3.1c0.5-0.7,1-2.6,1-5.8v-4.1c0-8.6-0.3-9.2-6.6-9.9l-4.5-0.5
	c-0.8-0.4-0.7-2.2,0-2.6c3,0.2,8.6,0.3,14.6,0.3c4,0,7.5-0.1,10.8-0.3c0.7,0.4,0.8,1.9,0.1,2.6l-1.6,0.2c-4.3,0.5-4.4,3.4-4.4,8.6
	L336.6,120L336.6,120z"/>
</svg>
