<svg width="153" height="48" viewBox="0 0 153 48" fill="none" xmlns="http://www.w3.org/2000/svg">
<path d="M64.3409 28.3842C63.8378 28.9525 63.1267 29.3949 62.2075 29.7113C61.2882 30.0219 60.2696 30.1771 59.1517 30.1771C57.9778 30.1771 56.9468 29.9369 56.0586 29.4564C55.1767 28.9701 54.4935 28.267 54.009 27.347C53.5308 26.4271 53.2854 25.3461 53.273 24.1039V23.2338C53.273 21.9564 53.4997 20.8519 53.9531 19.9203C54.4127 18.9828 55.0711 18.2679 55.9282 17.7758C56.7915 17.2777 57.8008 17.0287 58.956 17.0287C60.5647 17.0287 61.8224 17.392 62.7292 18.1185C63.636 18.8392 64.1732 19.891 64.3409 21.2738H61.6205C61.4963 20.5414 61.2199 20.0052 60.7914 19.6654C60.369 19.3256 59.7852 19.1556 59.0399 19.1556C58.0896 19.1556 57.366 19.4926 56.8692 20.1664C56.3723 20.8402 56.1207 21.8422 56.1145 23.1722V23.9896C56.1145 25.3314 56.3847 26.3451 56.9251 27.0306C57.4654 27.7162 58.2573 28.059 59.3007 28.059C60.3504 28.059 61.0988 27.848 61.546 27.4261V25.2201H59.0026V23.2777H64.3409V28.3842ZM77.3466 28.3842C76.8435 28.9525 76.1324 29.3949 75.2132 29.7113C74.2939 30.0219 73.2753 30.1771 72.1574 30.1771C70.9835 30.1771 69.9525 29.9369 69.0643 29.4564C68.1824 28.9701 67.4992 28.267 67.0147 27.347C66.5365 26.4271 66.2911 25.3461 66.2787 24.1039V23.2338C66.2787 21.9564 66.5054 20.8519 66.9588 19.9203C67.4184 18.9828 68.0768 18.2679 68.9339 17.7758C69.7972 17.2777 70.8065 17.0287 71.9617 17.0287C73.5704 17.0287 74.8281 17.392 75.7349 18.1185C76.6417 18.8392 77.1789 19.891 77.3466 21.2738H74.6262C74.502 20.5414 74.2256 20.0052 73.7971 19.6654C73.3747 19.3256 72.7909 19.1556 72.0456 19.1556C71.0953 19.1556 70.3717 19.4926 69.8749 20.1664C69.378 20.8402 69.1264 21.8422 69.1202 23.1722V23.9896C69.1202 25.3314 69.3904 26.3451 69.9308 27.0306C70.4711 27.7162 71.263 28.059 72.3064 28.059C73.3561 28.059 74.1045 27.848 74.5517 27.4261V25.2201H72.0083V23.2777H77.3466V28.3842ZM85.0885 17.2045H87.8835V26.0638C87.8835 26.8783 87.6909 27.599 87.3059 28.226C86.927 28.847 86.3897 29.3275 85.6941 29.6674C84.9985 30.0072 84.2128 30.1771 83.3371 30.1771C81.9023 30.1771 80.7844 29.8344 79.9832 29.1488C79.1819 28.4574 78.7813 27.4818 78.7813 26.222H81.5949C81.5949 26.849 81.7346 27.3119 82.0141 27.6107C82.2936 27.9095 82.7346 28.059 83.3371 28.059C83.8712 28.059 84.2967 27.8861 84.6134 27.5404C84.9302 27.1947 85.0885 26.7025 85.0885 26.0638V17.2045ZM96.1378 29.0345C95.4732 29.7963 94.554 30.1771 93.3801 30.1771C92.2994 30.1771 91.4734 29.8842 90.902 29.2982C90.3368 28.7123 90.048 27.8539 90.0356 26.723V20.4916H92.728V26.6351C92.728 27.6254 93.2062 28.1205 94.1627 28.1205C95.0757 28.1205 95.703 27.8217 96.0446 27.224V20.4916H98.7464V30.0013H96.2123L96.1378 29.0345ZM103.256 20.4916L103.339 21.5902C104.06 20.7406 105.026 20.3158 106.237 20.3158C107.305 20.3158 108.1 20.6117 108.622 21.2035C109.144 21.7953 109.411 22.6801 109.423 23.8578V30.0013H106.731V23.9193C106.731 23.3802 106.606 22.9906 106.358 22.7504C106.109 22.5043 105.696 22.3812 105.119 22.3812C104.361 22.3812 103.793 22.6859 103.414 23.2953V30.0013H100.721V20.4916H103.256ZM111.081 25.1761C111.081 23.7172 111.448 22.5424 112.181 21.6517C112.92 20.7611 113.914 20.3158 115.162 20.3158C116.267 20.3158 117.128 20.6732 117.743 21.3881L117.854 20.4916H120.295V29.6849C120.295 30.517 120.093 31.2406 119.69 31.8558C119.292 32.4711 118.73 32.9398 118.003 33.2621C117.277 33.5844 116.426 33.7455 115.451 33.7455C114.712 33.7455 113.991 33.6049 113.289 33.3236C112.587 33.0482 112.056 32.6908 111.696 32.2513L112.889 30.7045C113.559 31.4135 114.373 31.7679 115.33 31.7679C116.044 31.7679 116.6 31.5863 116.997 31.223C117.395 30.8656 117.593 30.3558 117.593 29.6937V29.184C116.972 29.8461 116.156 30.1771 115.143 30.1771C113.932 30.1771 112.951 29.7318 112.199 28.8412C111.454 27.9447 111.081 26.7582 111.081 25.2816V25.1761ZM113.774 25.3607C113.774 26.222 113.957 26.8988 114.323 27.391C114.69 27.8773 115.193 28.1205 115.833 28.1205C116.653 28.1205 117.239 27.8304 117.593 27.2504V23.2513C117.233 22.6713 116.653 22.3812 115.851 22.3812C115.205 22.3812 114.696 22.6302 114.323 23.1283C113.957 23.6263 113.774 24.3705 113.774 25.3607ZM125.214 30.0013H122.513V16.5013H125.214V30.0013ZM132.08 30.1771C130.602 30.1771 129.397 29.7494 128.466 28.8939C127.54 28.0385 127.078 26.8988 127.078 25.475V25.2289C127.078 24.2738 127.273 23.4213 127.665 22.6713C128.056 21.9154 128.609 21.3353 129.323 20.931C130.043 20.5209 130.863 20.3158 131.782 20.3158C133.161 20.3158 134.245 20.726 135.034 21.5463C135.829 22.3666 136.226 23.5297 136.226 25.0355V26.0726H129.807C129.894 26.6937 130.155 27.1918 130.59 27.5668C131.031 27.9418 131.587 28.1293 132.258 28.1293C133.295 28.1293 134.105 27.7748 134.689 27.0658L136.012 28.4633C135.608 29.0023 135.062 29.4242 134.372 29.7289C133.683 30.0277 132.919 30.1771 132.08 30.1771ZM131.773 22.3724C131.239 22.3724 130.804 22.5424 130.469 22.8822C130.14 23.222 129.928 23.7084 129.835 24.3412H133.58V24.139C133.568 23.5765 133.407 23.1429 133.096 22.8383C132.785 22.5277 132.344 22.3724 131.773 22.3724Z" fill="white"/>
<path d="M45.2769 2.73307V21.8608L41.5212 18.0899V3.90806H3.72961V43.5024H17.2918L20.9954 47.4099H2.60812C1.9164 47.4099 1.25302 47.122 0.7639 46.6096C0.274783 46.0971 0 45.4021 0 44.6774V2.73307C0 2.00836 0.274783 1.31333 0.7639 0.800885C1.25302 0.288437 1.9164 0.0005466 2.60812 0.0005466H42.6167C42.9635 -0.00672313 43.3083 0.058586 43.6308 0.19265C43.9532 0.326714 44.2469 0.526838 44.4947 0.781304C44.7424 1.03577 44.9392 1.33946 45.0735 1.6746C45.2079 2.00974 45.277 2.36959 45.2769 2.73307Z" fill="white"/>
<path d="M45.2769 26.2609V44.6509C45.2769 45.3756 45.0021 46.0706 44.513 46.583C44.0239 47.0955 43.3605 47.3834 42.6688 47.3834H32.4971L28.6893 43.5032V38.0381L33.9055 43.5032H41.3647V30.0592H25.064L28.6893 26.2609H45.2769Z" fill="white"/>
<path d="M37.3743 9.75648V22.0802L33.749 18.2546V12.0791H11.5279V35.3603H17.031L20.6302 39.1585H9.31098C9.11826 39.1658 8.9261 39.1324 8.746 39.0601C8.56589 38.9879 8.40154 38.8784 8.26277 38.7381C8.12399 38.5978 8.01364 38.4296 7.93831 38.2436C7.86298 38.0576 7.82422 37.8576 7.82435 37.6556V9.75648C7.81704 9.54988 7.85049 9.34393 7.92261 9.15149C7.99474 8.95906 8.10398 8.78428 8.24351 8.63809C8.38304 8.49191 8.54986 8.37745 8.73353 8.30189C8.91721 8.22633 9.11379 8.19128 9.31098 8.19894H35.9399C36.1327 8.1988 36.3236 8.23941 36.5011 8.31833C36.6787 8.39726 36.8392 8.51287 36.9731 8.65827C37.107 8.80366 37.2115 8.97586 37.2805 9.16455C37.3494 9.35324 37.3813 9.55457 37.3743 9.75648V9.75648Z" fill="white"/>
</svg>
