<?xml version="1.0" encoding="utf-8"?>
<!-- Generator: Adobe Illustrator 22.0.0, SVG Export Plug-In . SVG Version: 6.00 Build 0)  -->
<svg version="1.1" id="Layer_1" xmlns="http://www.w3.org/2000/svg" xmlns:xlink="http://www.w3.org/1999/xlink" x="0px" y="0px"
	 viewBox="0 0 589 361" style="enable-background:new 0 0 589 361;" xml:space="preserve">
<style type="text/css">
	.st0{fill:#FB503B;}
</style>
<path class="st0" d="M549.8,168.9c-3.2-3.8-50.6-63-58.7-72.7c-8.5-9.9-12.1-8.5-17.4-7.5c-5.7,1-65.2,10.7-71.9,12.1
	c-7.1,1.4-11.3,3.8-7.1,9.9c3.8,5.1,43.1,60.9,51.6,73.3l-155.7,37.5L166.9,14c-4.7-7.5-6.1-9.9-17.4-9.3
	c-11.3,0.6-97.2,7.5-103.3,7.9c-5.7,0.4-12.8,3.2-6.5,17.8s103.7,224.8,106.5,230.8c2.8,6.1,9.9,16,26.3,12.1
	c16.8-4.3,75.5-19.2,107.9-27.7c16.8,31,51.6,92.9,58.1,101.9c8.5,11.7,14.6,9.9,27.7,6.1c10.3-3.2,160.6-57.3,167.1-60.1
	c6.5-2.8,10.7-4.7,6.1-11.7c-3.2-5.1-43.1-58.1-63.8-85.9c14.2-3.8,64.8-17.4,70.5-18.8C552.2,175.9,553.2,172.7,549.8,168.9z
	 M266.3,227c-1.8,0.4-89.1,21.1-94,22.5c-4.7,1-4.7,0.4-5.1-1c0-1.8-103.3-214.8-104.7-217.3c-1.4-2.8-1.4-4.7,0-4.7
	c1.4,0,82.2-7.5,85.5-7.5s2.4,0.4,3.8,2.4c0,0,114,197,116.4,200.5C269.7,225.6,268.7,226.6,266.3,227z M512.7,273.1
	c1.4,2.4,2.8,3.8-1.4,5.1c-4.3,1.4-147.8,49.8-150.2,51.2c-2.4,1.4-5.7,1.4-8.9-3.8c-3.2-5.3-50-85.9-50-85.9l151.7-39.5
	c3.8-1.4,5.1-1.8,7.5,1.8C463.5,205.9,510.9,270.7,512.7,273.1z M522.2,165.2c-3.2,1-59.1,14.6-59.1,14.6l-45.6-62.6
	c-1.4-1.8-2.4-3.8,1-4.3s54.9-9.9,57.3-10.3c2.4-0.4,4.3-1.4,7.5,2.8c2.8,3.8,42.3,54.1,43.7,55.9
	C528.3,163.2,525.9,164.6,522.2,165.2z"/>
</svg>
