<?xml version="1.0" encoding="utf-8"?>
<!-- Generator: Adobe Illustrator 22.0.0, SVG Export Plug-In . SVG Version: 6.00 Build 0)  -->
<svg version="1.1" id="Layer_1" xmlns="http://www.w3.org/2000/svg" xmlns:xlink="http://www.w3.org/1999/xlink" x="0px" y="0px"
	 viewBox="0 0 24 31" style="enable-background:new 0 0 24 31;" xml:space="preserve">
<style type="text/css">
	.st0{fill:#2ECC71;}
	.st1{fill:#47A1DE;}
	.st2{fill:#9B59B6;}
</style>
<path class="st0" d="M20.8,0.7L20.8,0.7c1.5,0,2.8,1.3,2.8,2.8v20.4c0,1.5-1.3,2.8-2.8,2.8l0,0c-1.5,0-2.8-1.3-2.8-2.8V3.4
	C18.1,1.9,19.3,0.7,20.8,0.7z"/>
<path class="st1" d="M12,5.4c1.5,0,2.8,1.3,2.8,2.8v15.7c0,1.5-1.3,2.8-2.8,2.8s-2.8-1.3-2.8-2.8V8.2C9.3,6.6,10.5,5.4,12,5.4z"/>
<path class="st2" d="M3.1,9.6L3.1,9.6c1.5,0,2.8,1.3,2.8,2.8v11.5c0,1.5-1.3,2.8-2.8,2.8l0,0c-1.5-0.1-2.8-1.3-2.8-2.8V12.4
	C0.3,10.9,1.6,9.6,3.1,9.6z"/>
</svg>
