<svg xmlns="http://www.w3.org/2000/svg" viewBox="0 0 161.63 161.63"><defs><style>.cls-1{fill:#12365e;}.cls-2{fill:#fff;}</style></defs><title>Asset 11</title><g id="Layer_2" data-name="Layer 2"><g id="Layer_1-2" data-name="Layer 1"><circle class="cls-1" cx="80.81" cy="80.81" r="80.81"/><path class="cls-2" d="M125.53,42.69a7,7,0,0,0-6.59-6.59c-7.18-.39-21.24,0-34.69,6.95A68,68,0,0,0,64.37,59.53l-.21.26L51,60.81a6.9,6.9,0,0,0-5.28,3.1l-9,13.55a4.79,4.79,0,0,0,3.27,7.39l11.06,1.71L51,87.2a7,7,0,0,0,2,6.06l15.41,15.41a7,7,0,0,0,6,2l.65-.12,1.71,11.06a4.79,4.79,0,0,0,2.8,3.66,5,5,0,0,0,2,.41,4.78,4.78,0,0,0,2.64-.8l13.55-9a6.93,6.93,0,0,0,3.1-5.28l1-13.13.25-.21a67.9,67.9,0,0,0,16.49-19.88c7-13.45,7.34-27.51,7-34.69ZM94.82,111.5l-13,8.56-1.67-10.78a58.62,58.62,0,0,0,16.06-7.64l-.66,8.55a1.71,1.71,0,0,1-.77,1.31ZM72.08,105l-15.4-15.4a1.69,1.69,0,0,1-.49-1.48,45.5,45.5,0,0,1,2.05-7.8l23.11,23.11a45.07,45.07,0,0,1-7.79,2.06,1.69,1.69,0,0,1-1.48-.49ZM51.44,66,60,65.38a58.74,58.74,0,0,0-7.65,16.05L41.57,79.77l8.56-13A1.71,1.71,0,0,1,51.44,66ZM98.73,93.23a61,61,0,0,1-12.15,8L60.45,75.05a61.59,61.59,0,0,1,8-12.15A62.75,62.75,0,0,1,86.67,47.71C99,41.33,112,41,118.65,41.35A1.73,1.73,0,0,1,120.28,43c.36,6.65,0,19.64-6.36,32A62.75,62.75,0,0,1,98.73,93.23Z"/><path class="cls-2" d="M97.4,77.36a13.11,13.11,0,1,0-9.29-3.84,13.08,13.08,0,0,0,9.29,3.84Zm-5.57-18.7a7.87,7.87,0,1,1-2.31,5.57A7.86,7.86,0,0,1,91.83,58.66Z"/><path class="cls-2" d="M38.68,109.86a2.57,2.57,0,0,0,1.85-.77l8.58-8.57a2.63,2.63,0,1,0-3.72-3.71l-8.57,8.57a2.63,2.63,0,0,0,0,3.71A2.59,2.59,0,0,0,38.68,109.86Z"/><path class="cls-2" d="M57,104.66a2.63,2.63,0,0,0-3.71,0L36.77,121.15a2.62,2.62,0,1,0,3.71,3.71L57,108.38a2.63,2.63,0,0,0,0-3.72Z"/><path class="cls-2" d="M61.11,112.52l-8.58,8.58a2.63,2.63,0,0,0,3.72,3.71l8.57-8.57a2.63,2.63,0,0,0-3.71-3.72Z"/></g></g></svg>