<svg xmlns="http://www.w3.org/2000/svg" viewBox="0 0 450 388.94"><defs><style>.cls-1{fill:#ece3e3;}.cls-1,.cls-10,.cls-11,.cls-12,.cls-14,.cls-15,.cls-16,.cls-18,.cls-2,.cls-21,.cls-23,.cls-25,.cls-26,.cls-27,.cls-28,.cls-3,.cls-33,.cls-34,.cls-35,.cls-36,.cls-37,.cls-38,.cls-39,.cls-4,.cls-40,.cls-41,.cls-42,.cls-43,.cls-45,.cls-46,.cls-48,.cls-49,.cls-5,.cls-50,.cls-51,.cls-52,.cls-53,.cls-54,.cls-55,.cls-56,.cls-57,.cls-58,.cls-59,.cls-6,.cls-60,.cls-8,.cls-9{fill-rule:evenodd;}.cls-2{fill:#b2939c;}.cls-3{fill:#9e7581;}.cls-4{fill:#d7ccd4;}.cls-5{fill:#eae6ea;}.cls-19,.cls-6{fill:#fff;}.cls-7,.cls-8{fill:#a64b56;}.cls-9{fill:#943c47;}.cls-10{fill:#2a4d69;}.cls-11,.cls-61{fill:#b7a4a0;}.cls-12{fill:#010003;}.cls-13{fill:#decac4;}.cls-14{fill:#eeddd7;}.cls-15{fill:#b7a7a1;}.cls-16{fill:#c1b1ab;}.cls-17{fill:#d9c6c3;}.cls-18{fill:#916042;}.cls-20{fill:#fad0be;}.cls-21,.cls-24{fill:#242525;}.cls-22,.cls-40{fill:#bf8862;}.cls-23{fill:#d49f81;}.cls-25{fill:#2d2d2f;}.cls-26{fill:#121212;}.cls-27{fill:#f5ac83;}.cls-28{fill:#ee9073;}.cls-29,.cls-36{fill:#000003;}.cls-30{fill:#d0b8b6;}.cls-31{fill:#030002;}.cls-32,.cls-33{fill:#272828;}.cls-34{fill:#da5252;}.cls-35{fill:#a92f37;}.cls-37{fill:#fce6dd;}.cls-38{fill:#f18c6e;}.cls-39{fill:#fffafb;}.cls-41{fill:#fdefe9;}.cls-42{fill:#a36e50;}.cls-43,.cls-44{fill:#efab87;}.cls-45{fill:#fdbf9a;}.cls-46{fill:#00000f;}.cls-47,.cls-52{fill:#e9695b;}.cls-48{fill:#d84743;}.cls-49{fill:#301814;}.cls-50{fill:#292828;}.cls-51{fill:#424242;}.cls-53{fill:#202020;}.cls-54{fill:#151f26;}.cls-55{fill:#3b3a3a;}.cls-56{fill:#c8dee1;}.cls-57{fill:#7a9297;}.cls-58{fill:#f08a71;}.cls-59{fill:#494949;}.cls-60{fill:#333;}.cls-62{fill:#39393a;}.cls-63{fill:#616262;}</style></defs><title>Recruit</title><g id="Layer_2" data-name="Layer 2"><g id="OBJECTS"><path class="cls-1" d="M374.21,351.95a71.88,71.88,0,0,0,71.67-71.67h0a71.88,71.88,0,0,0-71.67-71.67h0a30.39,30.39,0,0,1-30.3-30.3h0a30.39,30.39,0,0,1,30.3-30.3h3.61a31.6,31.6,0,0,0,31.51-31.5h0A31.6,31.6,0,0,0,377.81,85H366.75a12.3,12.3,0,0,1-12.27-12.27h0a12.3,12.3,0,0,1,12.27-12.27h8.13A8.49,8.49,0,0,0,383.34,52h0a8.49,8.49,0,0,0-8.47-8.46H320.23a13.34,13.34,0,0,1-13.3-13.3h0a13.34,13.34,0,0,1,13.3-13.3h16.34A8.49,8.49,0,0,0,345,8.47h0A8.49,8.49,0,0,0,336.57,0H97.25a11.08,11.08,0,0,0-11,11h0a11.08,11.08,0,0,0,11,11H114a17.41,17.41,0,0,1,17.36,17.36h0A17.41,17.41,0,0,1,114,56.81H49.18a11.08,11.08,0,0,0-11,11h0a11.08,11.08,0,0,0,11,11H59.79a16.05,16.05,0,0,1,16,16h0a16.05,16.05,0,0,1-16,16H45.35A41.23,41.23,0,0,0,4.24,152h0a41.23,41.23,0,0,0,41.11,41.11h4.71A39.66,39.66,0,0,1,89.6,232.67h0a39.66,39.66,0,0,1-39.54,39.54H39.87A40,40,0,0,0,0,312.08H0a40,40,0,0,0,39.87,39.87ZM69,22.09A11,11,0,1,1,80,11a11,11,0,0,1-11,11ZM398.63,60.46A8.47,8.47,0,1,1,407.1,52,8.47,8.47,0,0,1,398.63,60.46Z"/><path class="cls-2" d="M44.25,95.9c8.67-8.83,15.11,2.39,14.21,13.64-.85,10.67-10,47.27-8.34,62.67H46.6C38,152.46,33.16,107.2,44.25,95.9Z"/><path class="cls-3" d="M47.9,172.21c-8.38-31.13,2.23-74.15,2.27-74.3a.5.5,0,0,1,1,.23c0,.15-10.66,43.22-2.21,74.06Z"/><path class="cls-4" d="M65.63,115.35c9.13-4.84,11.44,5.72,7.88,14.45-3,7.24-16,28.65-20.92,42.41H48C47.56,153.2,54.85,121.06,65.63,115.35Z"/><path class="cls-5" d="M49.65,172.21c3-25.71,20.12-53.66,20.18-53.76a.42.42,0,1,1,.71.43c-.06.1-17.05,27.87-20.07,53.33Z"/><path class="cls-6" d="M27,127.55c-8.85-3.87-10.25,6.13-6.32,14,2.66,5.34,12.25,19,18.71,30.63h7.37C44.27,154.62,36.18,131.55,27,127.55Z"/><path class="cls-4" d="M44.16,172.21c-6.28-21.31-20.76-41.4-20.82-41.48a.39.39,0,0,0-.63.45c.06.08,14.38,20,20.65,41Z"/><rect class="cls-7" x="30.78" y="165.17" width="28.76" height="9.22" rx="1.41" ry="1.41"/><polygon class="cls-8" points="53.68 170.38 36.64 170.38 32.19 174.4 35.83 188.4 45.16 188.4 54.5 188.4 58.13 174.4 53.68 170.38"/><polygon class="cls-9" points="32.19 174.4 32.94 177.27 57.38 177.27 58.13 174.4 32.19 174.4"/><path class="cls-10" d="M246.33,0V351.95H374.21a71.88,71.88,0,0,0,71.67-71.67h0a71.88,71.88,0,0,0-71.67-71.67h0a30.39,30.39,0,0,1-30.3-30.3h0a30.39,30.39,0,0,1,30.3-30.3h3.61a31.6,31.6,0,0,0,31.51-31.5h0A31.6,31.6,0,0,0,377.81,85H366.75a12.3,12.3,0,0,1-12.27-12.27h0a12.3,12.3,0,0,1,12.27-12.27h8.13A8.49,8.49,0,0,0,383.34,52h0a8.49,8.49,0,0,0-8.47-8.46H320.23a13.34,13.34,0,0,1-13.3-13.3h0a13.34,13.34,0,0,1,13.3-13.3h16.34A8.49,8.49,0,0,0,345,8.47h0A8.49,8.49,0,0,0,336.57,0ZM398.63,60.46A8.47,8.47,0,1,1,407.1,52,8.47,8.47,0,0,1,398.63,60.46Z"/><path class="cls-11" d="M258.49,0V3.65H246.33V4H279.2V15.92H246.33v.36h12.16V28.2H246.33v.36H279.2V40.47H246.33v.36h12.16V52.75H246.33v.36H279.2V65H246.33v.36h12.16V77.3H246.33v.36H279.2V89.57H246.33v.36h12.16v11.91H246.33v.36H279.2v11.91H246.33v.36h12.16V126.4H246.33v.36H279.2v11.91H246.33V139h12.16v11.91H246.33v.36H279.2v11.91H246.33v.36h12.16V175.5H246.33v.36H279.2v11.91H246.33v.36h12.16V200H246.33v.36H279.2v11.91H246.33v.36h12.16V224.6H246.33V225H279.2v11.91H246.33v.36h12.16v11.91H246.33v.36H279.2v11.91H246.33v.36h12.16V273.7H246.33v.36H279.2V286H246.33v.36h12.16v11.91H246.33v.36H279.2v11.91H246.33v.36h12.16V322.8H246.33v.36H279.2v11.91H246.33v.36h12.16v11.91H246.33v.36H279.2v4.23h.36v-4.23h41.07v4.23H321v-4.23h41.07v4.23h.36v-4.23h36l1-.36H383.14V335.44h36.7l.43-.36H403.85V323.16h27.68l.27-.36h-7.23V310.89H439l.17-.36H403.85V298.61h39.63l.1-.36h-19V286.34h21c0-.12,0-.24,0-.36h-.37V274.06h.32l0-.36h-21V261.79h18.87l-.1-.36H403.85V249.51h35l-.17-.36H424.57V237.24h6.84l-.28-.36H403.85V225h15.79l-.45-.36H383.14V212.69H398l-1-.36h-34.5v-6.11l-.36-.16v6.27H321V200.41h32.54l-.38-.36H341.71V188.14h3.84l-.12-.36H321V175.86h23c0-.12,0-.24,0-.36h-2.33V163.59h6l.2-.36H321V151.31h39.49l.73-.36H341.71V139h41.07v8.57l.36-.06V139h16.64l.37-.36H362.42V126.76h41.07v7.94l.36-.52v-7.42h3.74l.12-.36H383.14V114.48h26.12c0-.12,0-.24,0-.36h-5.38V102.21h2l-.19-.36H383.14V89.93H394.7l-.58-.36h-31.7V84.2l-.36-.14v5.52H321V77.66h34.53l-.15-.36H341.71V65.38h15.24l.28-.36H321V53.11h41.07V61.4l.36-.14V53.11h20.85c0-.12,0-.24,0-.36h-.17V50.13a8.49,8.49,0,0,0-.36-1.18v3.79H341.71V43.53h-.36v9.21H300.28V40.83h11.95l-.46-.36h-32.2V28.56H307c0-.12,0-.24.05-.36h-6.81V16.28h39.53a8.33,8.33,0,0,0,.76-.36H321V4h22.77l-.24-.36h-1.81V1.75l-.36-.26V3.65H300.28V0h-.36V3.65H258.85V0ZM390.24,53.11c0-.12,0-.24,0-.36h16.86c0,.12,0,.24,0,.36h-3.18v5.56l-.36.27V53.11ZM258.85,335.44h41.07v11.91H258.85V335.44Zm41.43,0h41.07v11.91H300.28V335.44Zm41.43,0h41.07v11.91H341.71V335.44Zm-62.14-12.28h41.07v11.91H279.56V323.16Zm41.43,0h41.07v11.91H321V323.16Zm41.43,0h41.07v11.91H362.42V323.16ZM258.85,310.89h41.07V322.8H258.85V310.89Zm41.43,0h41.07V322.8H300.28V310.89Zm41.43,0h41.07V322.8H341.71V310.89Zm41.43,0H424.2V322.8H383.14V310.89ZM279.56,298.61h41.07v11.91H279.56V298.61Zm41.43,0h41.07v11.91H321V298.61Zm41.43,0h41.07v11.91H362.42V298.61ZM258.85,286.34h41.07v11.91H258.85V286.34Zm41.43,0h41.07v11.91H300.28V286.34Zm41.43,0h41.07v11.91H341.71V286.34Zm41.43,0H424.2v11.91H383.14V286.34ZM279.56,274.06h41.07V286H279.56V274.06Zm41.43,0h41.07V286H321V274.06Zm41.43,0h41.07V286H362.42V274.06Zm41.43,0h41.07V286H403.85V274.06Zm-145-12.28h41.07V273.7H258.85V261.79Zm41.43,0h41.07V273.7H300.28V261.79Zm41.43,0h41.07V273.7H341.71V261.79Zm41.43,0H424.2V273.7H383.14V261.79ZM279.56,249.51h41.07v11.91H279.56V249.51Zm41.43,0h41.07v11.91H321V249.51Zm41.43,0h41.07v11.91H362.42V249.51ZM258.85,237.24h41.07v11.91H258.85V237.24Zm41.43,0h41.07v11.91H300.28V237.24Zm41.43,0h41.07v11.91H341.71V237.24Zm41.43,0H424.2v11.91H383.14V237.24ZM279.56,225h41.07v11.91H279.56V225ZM321,225h41.07v11.91H321V225Zm41.43,0h41.07v11.91H362.42V225ZM258.85,212.69h41.07V224.6H258.85V212.69Zm41.43,0h41.07V224.6H300.28V212.69Zm41.43,0h41.07V224.6H341.71V212.69Zm-62.14-12.28h41.07v11.91H279.56V200.41Zm-20.71-12.27h41.07V200H258.85V188.14Zm41.43,0h41.07V200H300.28V188.14Zm-20.71-12.28h41.07v11.91H279.56V175.86Zm-20.71-12.28h41.07V175.5H258.85V163.59Zm41.43,0h41.07V175.5H300.28V163.59Zm-20.71-12.28h41.07v11.91H279.56V151.31ZM258.85,139h41.07v11.91H258.85V139Zm41.43,0h41.07v11.91H300.28V139Zm-20.71-12.27h41.07v11.91H279.56V126.76Zm41.43,0h41.07v11.91H321V126.76Zm-62.14-12.28h41.07V126.4H258.85V114.48Zm41.43,0h41.07V126.4H300.28V114.48Zm41.43,0h41.07V126.4H341.71V114.48Zm-62.14-12.27h41.07v11.91H279.56V102.21Zm41.43,0h41.07v11.91H321V102.21Zm41.43,0h41.07v11.91H362.42V102.21ZM258.85,89.93h41.07v11.91H258.85V89.93Zm41.43,0h41.07v11.91H300.28V89.93Zm41.43,0h41.07v11.91H341.71V89.93ZM279.56,77.66h41.07V89.57H279.56V77.66ZM258.85,65.38h41.07V77.3H258.85V65.38Zm41.43,0h41.07V77.3H300.28V65.38ZM279.56,53.11h41.07V65H279.56V53.11ZM258.85,40.83h41.07V52.75H258.85V40.83Zm0-24.55h41.07V28.2H258.85V16.28ZM279.56,4h41.07V15.92H279.56Z"/><polygon class="cls-12" points="305.33 184.74 293.32 351.95 298.65 351.95 314.78 192.62 405.15 192.62 421.28 351.95 426.6 351.95 414.6 184.74 305.33 184.74"/><rect class="cls-13" x="92.73" y="188.4" width="52.47" height="163.55"/><path class="cls-14" d="M145.19,351.95V201.75H117.43A10.31,10.31,0,0,0,107.15,212V351.95Z"/><path class="cls-15" d="M97.5,188.4H26.27a40.74,40.74,0,0,0,19.09,4.73h4.71A39.66,39.66,0,0,1,89.6,232.67h0a39.66,39.66,0,0,1-39.54,39.54H39.87A40,40,0,0,0,0,312.08H0a40,40,0,0,0,39.87,39.87H97.5Z"/><path class="cls-16" d="M86.46,351.95V248.07a39.68,39.68,0,0,1-36.4,24.14H39.87A40,40,0,0,0,0,312.08H0a40,40,0,0,0,39.87,39.87Zm0-134.68V212a10.31,10.31,0,0,0-10.28-10.28H74.64A39.92,39.92,0,0,1,86.46,217.27Z"/><rect class="cls-17" x="145.86" y="18.33" width="64.82" height="60.97"/><polygon class="cls-18" points="115.1 295.2 87.68 300.9 63.43 295.2 76.47 276.54 128.15 276.54 115.1 295.2"/><rect class="cls-19" x="37.28" y="283.47" width="61.68" height="22.55" rx="4.15" ry="4.15"/><rect class="cls-20" x="41.61" y="286.1" width="61.68" height="22.55" rx="4.15" ry="4.15"/><path class="cls-19" d="M49.12,289.29h53.37a4.15,4.15,0,0,1,4.15,4.15v14.24a4.15,4.15,0,0,1-4.15,4.15H49.12A4.15,4.15,0,0,1,45,307.68V293.45a4.16,4.16,0,0,1,4.16-4.16Z"/><polygon class="cls-21" points="15.55 295.2 47.45 299.95 63.43 295.2 50.38 276.54 2.51 276.54 15.55 295.2"/><rect class="cls-22" x="15.55" y="295.2" width="51.68" height="56.75"/><path class="cls-23" d="M53.79,351.95H31.31l5.31-47.49h9.56a7.62,7.62,0,0,1,7.6,7.6v39.89Zm-28.62,0H15.55V304.46H28.94Z"/><rect class="cls-24" x="63.43" y="295.2" width="51.68" height="56.75"/><path class="cls-25" d="M74.38,351.95H115.1V304.46H82a7.63,7.63,0,0,0-7.6,7.6Z"/><polygon class="cls-26" points="151.51 322.71 135.08 325.16 126.85 322.71 133.57 313.1 158.24 313.1 151.51 322.71"/><rect class="cls-19" x="104.59" y="316.67" width="31.77" height="11.62" rx="2.14" ry="2.14"/><rect class="cls-20" x="106.82" y="318.02" width="31.77" height="11.61" rx="2.14" ry="2.14"/><rect class="cls-19" x="108.55" y="319.67" width="31.77" height="11.61" rx="2.14" ry="2.14"/><polygon class="cls-18" points="100.23 322.71 114.36 325.65 126.85 322.71 120.13 313.1 93.51 313.1 100.23 322.71"/><path class="cls-27" d="M96.18,132c-2.09-2.17-2.63-2.67-2.63-2.67a8.2,8.2,0,0,0,1.39-5.15c-.15-3.18,2.32-3.95,1.78-4.65s-1.86-1.47-3.56.54c-1.18,1.39-.95,2-2.12,3a7.6,7.6,0,0,1-1.33,0c-1.78-1.67-3.81-4.22-5.37-5.87-2.22-2.36-2.73.23-1.79,1.32s-2.09-1.28-2.27,0a3.39,3.39,0,0,0,.81,2.36s-2.39-1.51-2.41-.27,1.41,3.06,1.41,3.06-1.42-.19-1.56.89c0,.32.48,1.1,1.25,2,2.24,2.74,2.9,4,5.08,5.52.82.57,3.28,1.54,4.73,2.75,2.18,1.81,3.46,3.68,4.43,1.65Z"/><path class="cls-28" d="M89.72,123.06c-.49-.49-1-1-1.5-1.6-3.14.69-6.19,3.68-5.71,6.65C83.75,123.59,87.29,122.71,89.72,123.06Z"/><path class="cls-28" d="M96.18,132c-2.09-2.17-2.63-2.67-2.63-2.67a8.2,8.2,0,0,0,1.39-5.15c-.15-3.18,2.32-3.95,1.78-4.65a2.1,2.1,0,0,0-.38-.38c-.17.49-.86.06-1.52,1.73-.81,2.05-.5,3.91-2.4,6.5-1.68,2.3-3.49,4.82-7,5.06a25.07,25.07,0,0,1,4.12,2.39c2.18,1.81,3.46,3.68,4.43,1.65Z"/><rect class="cls-22" x="124.89" y="322.71" width="26.62" height="29.23"/><path class="cls-23" d="M131.82,351.95H143.4l-2.74-24.46h-4.93a3.93,3.93,0,0,0-3.92,3.92v20.55Zm14.74,0h5V327.48h-6.89Z"/><rect class="cls-29" x="100.23" y="322.71" width="26.62" height="29.23"/><path class="cls-26" d="M121.21,351.95h-21V327.48H117.3a3.93,3.93,0,0,1,3.92,3.92Z"/><rect class="cls-30" x="147.93" y="15.79" width="64.82" height="60.97"/><rect class="cls-19" x="156.85" y="25.54" width="46.96" height="41.47"/><path class="cls-1" d="M203.82,36.62h-.26a.26.26,0,0,0-.27.24v.6h-3.17l0-.89a.26.26,0,0,0-.27-.24h-3.37a.26.26,0,0,0-.27.25v2.09H194.8v-1a.23.23,0,0,0-.08-.18.28.28,0,0,0-.19-.07h-1.22a.26.26,0,0,0-.27.25v8.45h-1.24a.28.28,0,0,0-.19.07.23.23,0,0,0-.08.18v1.76h-1v-.45a.26.26,0,0,0-.27-.25h-.59a.27.27,0,0,0-.27.2V39.35a.25.25,0,0,0-.19-.23l-.3-.09-.06,0a2,2,0,0,1,0-.23c0-.26,0-.52,0-.78a.26.26,0,0,0-.26-.24h-.45l0-4.83a.26.26,0,0,0-.26-.25l-.47,0V30.79a.26.26,0,0,0-.27-.25h-.23a3.69,3.69,0,0,1,0-.43c0-.5,0-1,0-1.5a.23.23,0,0,0-.08-.18.27.27,0,0,0-.19-.07h-4a.26.26,0,0,0-.27.25v1.93a.62.62,0,0,0-.36.14.23.23,0,0,0-.12.2v1.79l-.5,0a.26.26,0,0,0-.26.25v4.83h-.49a.26.26,0,0,0-.26.24v1H180a.26.26,0,0,0-.27.25l0,18.78h-2V43.37c0-.11,0-.22,0-.33a.35.35,0,0,0-.13-.3.48.48,0,0,0-.27-.08h-.05v-1a.26.26,0,0,0-.27-.25h-.45a2.69,2.69,0,0,1,0-.47c0-.51,0-1,0-1.52a3.17,3.17,0,0,0,0-.52.37.37,0,0,0-.21-.31h0l0-.05a2,2,0,0,1,0-.43,4,4,0,0,0,0-.43.26.26,0,0,0-.28-.22l-2,0a.28.28,0,0,0-.23.13c0-.35,0-.7,0-1a.26.26,0,0,0-.27-.23h-2.16a.26.26,0,0,0-.28.25l0,2h0a.83.83,0,0,0-.33.16.23.23,0,0,0-.1.19l0,2.51-.44,0a.26.26,0,0,0-.25.22l-.13,1-.13.06a.45.45,0,0,0-.19.34.17.17,0,0,0,0,0V55.87h-1.71V53.93a.23.23,0,0,0-.08-.18.28.28,0,0,0-.19-.07l-.69,0a.26.26,0,0,0-.27.25v1.93H165a.26.26,0,0,0-.27.23l0,.6h-.12l0-1.37a.26.26,0,0,0-.27-.24h-1.91a.26.26,0,0,0-.27.23c0,.21,0,.41,0,.62a.29.29,0,0,0-.15,0H160a.26.26,0,0,0-.27.23l0,.47,0,0a.94.94,0,0,1-.11-.26,2,2,0,0,1,0-.56c0-.26,0-.51,0-.77a.26.26,0,0,0-.26-.24l-1.49,0V25.54h-1V67h47Z"/><rect class="cls-31" x="184.86" y="231.13" width="3.55" height="118.92" rx="1.3" ry="1.3"/><rect class="cls-32" x="180" y="252.05" width="13.27" height="14.39" rx="4.85" ry="4.85"/><rect class="cls-32" x="181.1" y="342.95" width="11.07" height="7.1" rx="2.59" ry="2.59"/><rect class="cls-31" x="167.03" y="346.5" width="39.2" height="10.89" rx="3.98" ry="3.98"/><path class="cls-33" d="M161.74,254.45h0a3.43,3.43,0,0,1,3.42-3.42H208.1a3.43,3.43,0,0,1,3.42,3.42h0a3.43,3.43,0,0,1-3.42,3.42H165.17A3.43,3.43,0,0,1,161.74,254.45Z"/><rect class="cls-31" x="152.54" y="243.47" width="68.11" height="11.5" rx="5.75" ry="5.75"/><path class="cls-34" d="M235.1,249.34H138.16a6.8,6.8,0,0,1-6.78-6.78h0a6.8,6.8,0,0,1,6.78-6.78H235.1a6.8,6.8,0,0,1,6.78,6.78h0A6.8,6.8,0,0,1,235.1,249.34Z"/><path class="cls-35" d="M256.47,249.34H202.27a6.8,6.8,0,0,1-6.78-6.78h0a6.8,6.8,0,0,1,6.78-6.78h54.19a6.8,6.8,0,0,1,6.78,6.78h0A6.8,6.8,0,0,1,256.47,249.34Z"/><path class="cls-36" d="M183.49,31.72s-21.34-3.63-20.19,21,3,28.52-3.74,41-6,36.88,18.54,40.6,43-8.39,43.85-25.75-6.25-36.94-1.35-48.15S209.43,29.73,183.49,31.72Z"/><path class="cls-26" d="M183.49,31.72s-15-2.55-19.18,11.15c-2,5.07-.56,16.18-.69,16,1.09,19.19,2.06,23.47-4.07,34.79-6.74,12.45-6,36.88,18.54,40.6,0,0-14.12-5.82-13-20.12s13.74-27.54,13.94-37.47,33.71.26,33.71.26a140.63,140.63,0,0,0,1.36,17.66c1.24,7.34,4.58,23.46-3.71,33.71,6.89-4.74,11.11-11.69,11.53-19.79.88-17.35-6.25-36.94-1.35-48.15,3.08-7.06-2.14-17.37-12.91-23.54l-23.4-5.15Z"/><path class="cls-37" d="M200.06,323.49l-3.77,2.88,2.21,23.82s.08,1.77.9,1.77h1.32s.62-.17.56-1.22-.63-23.61-.63-23.61Z"/><path class="cls-37" d="M284.7,323.49l-3.77,2.88,2.21,23.82s.08,1.77.89,1.77h1.32s.62-.17.56-1.22-.63-23.61-.63-23.61Z"/><path class="cls-6" d="M201.52,315.43s-4.94,2.76-5.36,3.77-1.49,5.52-.32,7.17,4.62,2.92,5.41,3.93,4.94,18.52,4.94,18.52a4.14,4.14,0,0,0,4.25,3.13H232a1.45,1.45,0,0,0,1-1.62,6.53,6.53,0,0,0-1.2-2.76,4,4,0,0,0-3.79-1.83l-11.28-3-6.53-16.35-4.19-11.62S202.82,313.65,201.52,315.43Z"/><path class="cls-27" d="M231.35,288.21c-2.06,3.24-19.64,26.7-19,29.17.94,3.6,4,13.81,5,17.33,2.55,8.7,5.89,8.23,7.43,8.23a3.42,3.42,0,0,1,3.29,2.81H216.12a4.75,4.75,0,0,1-4.67-3.61c-.74-2.23-5.52-22.13-6-24.1a3.75,3.75,0,0,0-3.93-2.6l12.31-31.31Z"/><path class="cls-38" d="M216.59,309.36c-1.16,1.78-2.17,3.4-2.92,4.72-1.7.11-4.35.3-4.81.44-.69.21-.9,1.59-.53,3.4s5.78,20.45,6.26,22,2.43,3,9.48,3h.7a3.42,3.42,0,0,1,3.29,2.81H216.12a4.75,4.75,0,0,1-4.67-3.61c-.74-2.23-5.52-22.13-6-24.1a3.75,3.75,0,0,0-3.93-2.6L206,304.1a7.42,7.42,0,0,1,3.25.5C211.27,305.62,215.67,306.74,216.59,309.36Z"/><path class="cls-6" d="M286.23,315.43s-4.94,2.76-5.36,3.77-1.49,5.52-.32,7.17,4.62,2.92,5.41,3.93,4.94,18.52,4.94,18.52a4.14,4.14,0,0,0,4.25,3.13h21.6a1.45,1.45,0,0,0,1-1.62,6.53,6.53,0,0,0-1.2-2.76,4,4,0,0,0-3.79-1.83l-11.28-3L295,326.39l-4.19-11.62S287.53,313.65,286.23,315.43Z"/><path class="cls-39" d="M283.46,317.1a9,9,0,0,0-2.59,2.1c-.42,1-1.49,5.52-.32,7.17s4.62,2.92,5.41,3.93,4.94,18.52,4.94,18.52a4.14,4.14,0,0,0,4.25,3.13h21.6a1.45,1.45,0,0,0,1-1.62,4,4,0,0,0-.51-1.58H299.31c-2.87,0-4.56-.9-5.31-2.44s-6.9-24.89-7.75-26.54A10.47,10.47,0,0,0,283.46,317.1Z"/><path class="cls-27" d="M286.33,288.63S299.5,326,302,334.7s5.89,8.23,7.43,8.23a3.42,3.42,0,0,1,3.29,2.81H300.82a4.76,4.76,0,0,1-4.67-3.61c-.74-2.23-5.52-22.13-6-24.1a3.75,3.75,0,0,0-3.93-2.6L276,295.16Z"/><path class="cls-38" d="M286.33,288.63s1.12,3.17,2.76,7.88c-.92,2.19-1.92,4.68-2.12,5.48-.37,1.54,11.62,36.83,12.15,38.11s1.59,2.82,9.76,2.83h.58a3.42,3.42,0,0,1,3.29,2.81H300.82a4.76,4.76,0,0,1-4.67-3.61c-.74-2.23-5.52-22.13-6-24.1a3.75,3.75,0,0,0-3.93-2.6L276,295.16Z"/><path class="cls-40" d="M165.19,167.41l-12.43,8.44S134.84,196.07,137.17,212s9.13,23.78,30.15,23.78h60.13c1.38,0-27.76,67.14-28.61,70.11s38.64,14.86,56.26,8.28a3.8,3.8,0,0,0,1.38-2.87,41.77,41.77,0,0,0,.11-4.83s29.93-8.6,34.29-15.5a4.17,4.17,0,0,0,0-2.57c-.34-1.16-12.33-42.14-24.85-66.47-14.82-28.79-38.92-25.51-67.7-25.08,0,0,3.12-9.95,3.44-14.62S165.19,167.41,165.19,167.41Z"/><path class="cls-18" d="M165.19,167.41l-12.43,8.44S134.84,196.07,137.17,212s9.13,23.78,30.15,23.78h60.13s5.57-12.16,6.36-14.5,1.33-4.83.16-4.41-2.33,11.78-25.9,11.78-49.89-12-48-22.18,17.41-9.63,20.59-9.63h17.61s3.12-9.95,3.44-14.62S165.19,167.41,165.19,167.41Z"/><path class="cls-18" d="M256.59,306.47s9.68-2.78,18.82-6.45c-2.94-2.75-7.74-7.54-8.32-10-.85-3.61-6.16-44.71-6.66-44.85s-.58.48-.58.48Z"/><path class="cls-6" d="M207.22,103.6l7.85,7.93s28,42.14,29.8,43.41,2.76,1.33,5.1,0,21-25.9,21.81-26.11,6.26,3.5,6.58,4.56-20.59,33.86-24.84,36.73-11.94,2.44-16.29-.74-23.78-21.44-23.78-21.44S199.89,112.09,207.22,103.6Z"/><path class="cls-41" d="M207.83,104.25c6.32,6.36,7.74,8.12,12.77,15.59-.22,6.65,3.46,26.43,3.46,29.31s12,17.51,18.89,19.32,15.29-8.17,19.11-13.91,11.09-16.77,11.57-17.62a9.41,9.41,0,0,0,1.72-6.24c1.47,1,2.86,2.18,3,2.71.32,1.06-20.59,33.86-24.84,36.73s-11.94,2.44-16.29-.74-23.78-21.44-23.78-21.44S200.5,112.74,207.83,104.25Z"/><path class="cls-40" d="M183.8,97.36c5,.65,10.41,1.66,16.71,2.45,6.87,2,9.34,6.41,11.48,12,1.76,4.62,7,25.83,6.78,27.73.08,4.49-3,10.9-9.38,18-2.66,9.56-6.7,25.37-7.24,28.41-2.58,14.31-55.08-1.39-52.37-7.74,13.5-31.71,3.89-49.78,5.84-62.31q.14-.91.28-1.77l6.25-4-2.1-3.64s7.15-6,21.69-8.65C182.5,97.64,183.19,97.5,183.8,97.36Z"/><path class="cls-42" d="M175.11,99.33c1.2,2.39,1.72,4.34.77,5-3.14,2.25-1.27,32.06,1.7,34.6s22.61,7.54,30.12,8.44a10.82,10.82,0,0,0,10.74-5c-.94,4.18-3.94,9.43-9.06,15.14-1,3.55-2.17,8-3.28,12.27l-35.95-24.47s-6.58,26.11-6.58,32.06c0,2.22.95,6.17,2.14,10.23-9.58-3-17-6.92-15.95-9.41,13.5-31.71,3.89-49.78,5.84-62.31q.14-.91.28-1.77l6.25-4-2.1-3.64S165,102.25,175.11,99.33Z"/><path class="cls-39" d="M198.75,317.1a9,9,0,0,0-2.59,2.1c-.42,1-1.49,5.52-.32,7.17s4.62,2.92,5.41,3.93,4.94,18.52,4.94,18.52a4.14,4.14,0,0,0,4.25,3.13H232a1.45,1.45,0,0,0,1-1.62,4,4,0,0,0-.51-1.58H214.6c-2.87,0-4.56-.9-5.31-2.44s-6.9-24.89-7.75-26.54A10.46,10.46,0,0,0,198.75,317.1Z"/><path class="cls-43" d="M184.49,77.14l-.28,5.29L183,94.87c-.14,1.42-2.7,2.82-6.51,3.26-1.81.21.09,3.28,3.59,6.62,7,6.73,12,2.69,15.82,2.52,8.29-.37,10.24-7.49,6.4-8a5.23,5.23,0,0,1-3.69-2.13c-1.61-2.14-.69-10.9,1.33-13S184.49,77.14,184.49,77.14Z"/><path class="cls-6" d="M195.92,107.27c-4.29,25.21-33.46-13.65-16.65-9.68C179.26,97.59,182.5,105.89,195.92,107.27Z"/><path class="cls-6" d="M202.35,99.33s.8,6.13-6.43,7.94c0,0,2.68,8,7.54,6.92S208.27,98.14,202.35,99.33Z"/><circle class="cls-44" cx="211.75" cy="71.17" r="5.83" transform="translate(136.58 281.54) rotate(-88.91)"/><path class="cls-43" d="M171,64.63l-.43.07h0a5.84,5.84,0,1,0,4.87,1.17c.15,1.72-.12,3.85-2.32,4.07l.06-3.36A2,2,0,0,0,171,64.63Z"/><path class="cls-45" d="M193.78,35.5h0a20,20,0,0,0-20.35,19.6l-.35,18.15a20,20,0,0,0,19.6,20.35h0A20,20,0,0,0,213,74l.34-18.15A20,20,0,0,0,193.78,35.5Z"/><path class="cls-28" d="M193.78,35.5h0a20,20,0,0,0-20.35,19.59l-.35,18.15a20,20,0,0,0,19.6,20.35h0c.41,0,.81,0,1.22,0-12.86-.77-14.77-12.88-15.15-20.69S182.32,57,184.66,54s7.72-1.19,10.44,2.57,8.49,7.07,8.59,7.14,3,.18,3,.18L209,55.56s-5.28-11.87-8.84-18.89A19.8,19.8,0,0,0,193.78,35.5Z"/><path class="cls-36" d="M173.12,63.49l1.94.18s1.83,5.92-1.91,6.28l.06-3.36a1.9,1.9,0,0,0-.09-.64Z"/><path class="cls-46" d="M208.24,66.46h0a1.78,1.78,0,0,0-1.81,1.74l0,2.32a1.78,1.78,0,0,0,1.74,1.81h0a1.78,1.78,0,0,0,1.81-1.74l0-2.32A1.78,1.78,0,0,0,208.24,66.46Z"/><path class="cls-46" d="M188,66.08h0a1.78,1.78,0,0,0-1.81,1.74l0,2.32a1.78,1.78,0,0,0,1.74,1.81h0a1.78,1.78,0,0,0,1.81-1.74l0-2.32A1.78,1.78,0,0,0,188,66.08Z"/><circle class="cls-47" cx="209.22" cy="76.12" r="2.63" transform="translate(129.13 283.85) rotate(-88.91)"/><circle class="cls-47" cx="186.63" cy="75.69" r="2.63" transform="translate(107.41 260.85) rotate(-88.91)"/><path class="cls-46" d="M192.72,77.94a5.17,5.17,0,0,0,10.33.41h0a.89.89,0,0,0-.86-.93l-8.53-.33a.89.89,0,0,0-.93.86Z"/><path class="cls-48" d="M194.48,82a5.17,5.17,0,0,0,6,.6,3.22,3.22,0,0,0-2.88-2A3.26,3.26,0,0,0,194.48,82Z"/><path class="cls-6" d="M202.29,77.43l-8-.32a1.81,1.81,0,0,0,.8,2c.72.27,6.52.34,6.95-.1A3.08,3.08,0,0,0,202.29,77.43Z"/><path class="cls-49" d="M211.15,63.61a.54.54,0,1,0,.48-1s-3.21-1.7-6.07,0a.54.54,0,1,0,.55.92C208.46,62.18,211.14,63.6,211.15,63.61Z"/><path class="cls-46" d="M185.5,63.61a.54.54,0,1,1-.48-1s3.21-1.7,6.07,0a.54.54,0,1,1-.55.92C188.19,62.18,185.51,63.6,185.5,63.61Z"/><path class="cls-26" d="M189.81,41l-1.47,3s-4.23-1.78-5.5,4S179,69.55,166.16,64.77c0,0-.38-19.31,6-24.83S189.81,41,189.81,41Z"/><path class="cls-50" d="M181.62,43.4l.11,0a.54.54,0,0,0,.48.1c4.87-1.36,7.83,3.2,11.31,8.57s7.54,11.61,14.58,13.74a13.6,13.6,0,0,0,1.86.9c11.82,4.61,21.74-10.52,13.32-24.47-9-15-35-23.62-43-5.49,0,0-1.62,3.91,1.37,6.67Zm7.85,1.36c6.08,3.59,9.46,12.61,15,18.17-4.4-2.77-7.38-7.35-10-11.47A42.08,42.08,0,0,0,189.47,44.76Z"/><path class="cls-51" d="M226.41,53.53c0-.49,0-1,0-1.47-2.16,1.35-6,2.73-11.42.72-6.22-2.31-11.5-15.28-10.74-25a24.37,24.37,0,0,0-12.71-.75,64.15,64.15,0,0,0,16.39,24.77C215.28,58.59,221.86,56.73,226.41,53.53Z"/><path class="cls-26" d="M181.62,43.4l.11,0a.54.54,0,0,0,.48.1c4.87-1.36,7.83,3.2,11.31,8.57s7.54,11.61,14.58,13.74a13.6,13.6,0,0,0,1.86.9c8.21,3.2,15.51-3.12,16.37-12-.09.42-1.76,7.51-7.78,8.35-6.2.86-14.78-6.48-19-14s-9.87-9.84-13.47-9.78-5.83-2.33-3.45-6.6a18.7,18.7,0,0,0-2.41,4.06s-1.62,3.91,1.37,6.67Zm7.85,1.36c6.08,3.59,9.46,12.61,15,18.17-4.4-2.77-7.38-7.35-10-11.47A42.08,42.08,0,0,0,189.47,44.76Z"/><path class="cls-36" d="M181.48,53.23C179.68,60,175.88,68.45,166,64.77c0,0,0-1.58.07-4C176.74,65.59,181.45,53.32,181.48,53.23Z"/><path class="cls-6" d="M158.31,108.33c-15,19.7-27.49,42.21-29,43.46-1.77,1.45-2.75,1.58-5.27.39s-29-22.63-29.88-22.78-5.62,4.63-5.87,5.75,28.14,30.78,32.75,33.42,12.53,1.62,16.78-2c3.08-2.62,15.7-16.54,22.42-24,7.12-7.87,10.72-23.34,10.84-23.88.86-6,.37-11.75-3.75-13.91C164.34,103.85,161,104.78,158.31,108.33Z"/><path class="cls-41" d="M91.8,131c-1.58,1.45-3.31,3.24-3.51,4.14s28.14,30.78,32.75,33.42,12.53,1.62,16.78-2c3.08-2.62,15.7-16.54,22.42-24,7.09-7.84,10.69-23.24,10.84-23.87a24.31,24.31,0,0,0,0-8.53c0,4.85-1.07,11.46-3,14.49-2.46,3.83-24.09,30.8-28.76,36.21s-13.08,7.35-17.14,4.56-28.52-26.74-29.3-28.13S91.93,133.11,91.8,131Z"/><path class="cls-52" d="M275.24,16.74H236.88a5.08,5.08,0,0,0-5.07,5.07V57.55a.57.57,0,0,0,1,.4l8.63-8.63h33.83a5.08,5.08,0,0,0,5.07-5.07V21.81A5.08,5.08,0,0,0,275.24,16.74Z"/><circle class="cls-19" cx="244.32" cy="32.33" r="3.45"/><circle class="cls-19" cx="256.06" cy="32.33" r="3.45"/><circle class="cls-19" cx="267.8" cy="32.33" r="3.45"/><polygon class="cls-6" points="58.32 184.74 46.26 351.95 51.61 351.95 67.82 192.62 158.66 192.62 174.88 351.95 180.23 351.95 168.16 184.74 58.32 184.74"/><path class="cls-53" d="M100.6,175.64H417.3a5.09,5.09,0,0,1,5.08,5.08h0a5.09,5.09,0,0,1-5.08,5.08H100.6a5.09,5.09,0,0,1-5.08-5.08h0A5.09,5.09,0,0,1,100.6,175.64Z"/><path class="cls-36" d="M46.25,175.64h134a5.09,5.09,0,0,1,5.08,5.08h0a5.09,5.09,0,0,1-5.08,5.08h-134a5.09,5.09,0,0,1-5.08-5.08h0A5.09,5.09,0,0,1,46.25,175.64Z"/><path class="cls-54" d="M441.32,369.31H424a5.49,5.49,0,0,0-5.47,5.47h0a5.49,5.49,0,0,0,5.47,5.47h8.21a4.36,4.36,0,0,1,4.34,4.34h0a4.35,4.35,0,0,1-4.34,4.34h-397a4.35,4.35,0,0,1-4.34-4.34h0a4.36,4.36,0,0,1,4.34-4.34h7.83a5.49,5.49,0,0,0,5.47-5.47h0a5.49,5.49,0,0,0-5.47-5.47H8.81a8.71,8.71,0,0,1-8.68-8.68h0a8.71,8.71,0,0,1,8.68-8.68H441.32a8.71,8.71,0,0,1,8.68,8.68h0a8.71,8.71,0,0,1-8.68,8.68ZM444,388.94a4.34,4.34,0,1,0-4.34-4.34A4.34,4.34,0,0,0,444,388.94Z"/><path class="cls-55" d="M400.86,165.94H368.43a4.85,4.85,0,0,0,0,9.7h32.43a4.85,4.85,0,0,0,0-9.7Z"/><path class="cls-6" d="M328.31,166.51h41.48a4.3,4.3,0,0,1,4.28,4.28h0a4.3,4.3,0,0,1-4.28,4.28H328.31Z"/><path class="cls-21" d="M328.31,165.94a.56.56,0,0,0,0,1.13h41.48a3.72,3.72,0,0,1,0,7.44H328.31a.56.56,0,0,0,0,1.13h41.48a4.85,4.85,0,0,0,0-9.7Z"/><path class="cls-21" d="M399.37,170.79a4.86,4.86,0,0,0-4.85-4.85h4.22a4.85,4.85,0,0,1,0,9.7h-4.22a4.86,4.86,0,0,0,4.85-4.85Z"/><path class="cls-21" d="M393.26,170.79a4.86,4.86,0,0,0-4.85-4.85h4.22a4.85,4.85,0,0,1,0,9.7h-4.22a4.86,4.86,0,0,0,4.85-4.85Z"/><path class="cls-56" d="M336.84,157.45h28.4a4.24,4.24,0,0,1,0,8.49h-28.4a4.24,4.24,0,0,1,0-8.49Z"/><path class="cls-6" d="M400.37,157.95H364a3.76,3.76,0,0,0-3.75,3.75h0a3.76,3.76,0,0,0,3.75,3.75h36.32Z"/><path class="cls-57" d="M400.37,157.45a.49.49,0,0,1,0,1H364a3.26,3.26,0,0,0,0,6.51h36.32a.49.49,0,0,1,0,1H364a4.24,4.24,0,0,1,0-8.49Z"/><path class="cls-57" d="M338.15,161.7a4.26,4.26,0,0,1,4.25-4.25H338.7a4.24,4.24,0,0,0,0,8.49h3.69a4.26,4.26,0,0,1-4.25-4.24Z"/><path class="cls-57" d="M343.5,161.7a4.26,4.26,0,0,1,4.25-4.25H344a4.24,4.24,0,0,0,0,8.49h3.69a4.26,4.26,0,0,1-4.25-4.24Z"/><path class="cls-52" d="M389.34,149H368.21a4.25,4.25,0,0,0,0,8.49h21.12a4.25,4.25,0,0,0,0-8.49Z"/><path class="cls-6" d="M344,149.46h25.36a3.76,3.76,0,0,1,3.75,3.75h0a3.76,3.76,0,0,1-3.75,3.75H344Z"/><path class="cls-58" d="M344,149a.49.49,0,0,0,0,1h25.36a3.26,3.26,0,0,1,0,6.51H344a.49.49,0,0,0,0,1h25.36a4.25,4.25,0,0,0,0-8.49Z"/><path class="cls-58" d="M388,153.21a4.26,4.26,0,0,0-4.25-4.25h3.69a4.25,4.25,0,0,1,0,8.49h-3.69a4.26,4.26,0,0,0,4.25-4.24Z"/><path class="cls-58" d="M382.68,153.21a4.26,4.26,0,0,0-4.25-4.25h3.69a4.25,4.25,0,0,1,0,8.49h-3.69a4.26,4.26,0,0,0,4.25-4.24Z"/><path class="cls-21" d="M338.18,175.64H242.74a3,3,0,0,1-3-3h0a3,3,0,0,1,3-3h95.45a3,3,0,0,1,3,3h0A3,3,0,0,1,338.18,175.64Z"/><path class="cls-26" d="M338.18,175.64H242.74a3,3,0,0,1-2.57-1.43,3,3,0,0,1,2.57-1.43h95.45a3,3,0,0,1,2.57,1.43A3,3,0,0,1,338.18,175.64Z"/><path class="cls-26" d="M340.54,169.58H264.2a3.44,3.44,0,0,1-3.48-4l6.09-49.45a4.63,4.63,0,0,1,4.45-4H347.6a3.44,3.44,0,0,1,3.48,4L345,165.61A4.63,4.63,0,0,1,340.54,169.58Z"/><path class="cls-55" d="M340.54,169.58H266.45a3.44,3.44,0,0,1-3.48-4l6.09-49.45a4.63,4.63,0,0,1,4.45-4H347.6a3.44,3.44,0,0,1,3.48,4L345,165.61A4.63,4.63,0,0,1,340.54,169.58Z"/><path class="cls-59" d="M336.5,169.58h-7.62L268.7,119.06l.36-2.9a4.44,4.44,0,0,1,1-2.32l66.4,55.74ZM278.76,112.2l65.64,55.1a4.34,4.34,0,0,0,.59-1.69l.95-7.69L291.47,112.2Z"/><path class="cls-55" d="M260.08,175.64H242.74a3,3,0,0,1-3-3h0a3,3,0,0,1,3-3h17.35a3,3,0,0,1,3,3h0A3,3,0,0,1,260.08,175.64Z"/><path class="cls-36" d="M339.7,171.09H260.28a1.52,1.52,0,0,1-1.52-1.52h0a1.52,1.52,0,0,1,1.52-1.52H339.7a1.52,1.52,0,0,1,1.52,1.52h0A1.52,1.52,0,0,1,339.7,171.09Z"/><path class="cls-60" d="M308.59,133.26a8.64,8.64,0,0,0-8.4,7.62,6.75,6.75,0,0,0,6.84,7.62,8.65,8.65,0,0,0,8.4-7.62A6.75,6.75,0,0,0,308.59,133.26Z"/><rect class="cls-61" x="260.77" y="62.46" width="32.15" height="35.12" rx="1.19" ry="1.19"/><rect class="cls-19" x="259.66" y="62.19" width="32.15" height="35.12" rx="1.19" ry="1.19"/><rect class="cls-62" x="259.66" y="62.19" width="32.15" height="8.5" rx="1.19" ry="1.19"/><rect class="cls-20" x="262.41" y="73.81" width="2.97" height="2.97" rx="0.49" ry="0.49"/><rect class="cls-20" x="267.15" y="73.81" width="2.97" height="2.97" rx="0.49" ry="0.49"/><rect class="cls-20" x="271.88" y="73.81" width="2.97" height="2.97" rx="0.49" ry="0.49"/><rect class="cls-20" x="276.62" y="73.81" width="2.97" height="2.97" rx="0.49" ry="0.49"/><rect class="cls-20" x="286.09" y="73.81" width="2.97" height="2.97" rx="0.49" ry="0.49"/><rect class="cls-20" x="262.41" y="78.88" width="2.97" height="2.97" rx="0.49" ry="0.49"/><rect class="cls-20" x="271.88" y="78.88" width="2.97" height="2.97" rx="0.49" ry="0.49"/><rect class="cls-20" x="276.62" y="78.88" width="2.97" height="2.97" rx="0.49" ry="0.49"/><rect class="cls-20" x="281.35" y="78.88" width="2.97" height="2.97" rx="0.49" ry="0.49"/><rect class="cls-20" x="286.09" y="78.88" width="2.97" height="2.97" rx="0.49" ry="0.49"/><rect class="cls-20" x="262.41" y="83.95" width="2.97" height="2.97" rx="0.49" ry="0.49"/><rect class="cls-20" x="267.15" y="83.95" width="2.97" height="2.97" rx="0.49" ry="0.49"/><rect class="cls-20" x="271.88" y="83.95" width="2.97" height="2.97" rx="0.49" ry="0.49"/><rect class="cls-20" x="281.35" y="83.95" width="2.97" height="2.97" rx="0.49" ry="0.49"/><rect class="cls-20" x="286.09" y="83.95" width="2.97" height="2.97" rx="0.49" ry="0.49"/><rect class="cls-20" x="271.88" y="89.01" width="2.97" height="2.97" rx="0.49" ry="0.49"/><rect class="cls-20" x="276.62" y="89.01" width="2.97" height="2.97" rx="0.49" ry="0.49"/><rect class="cls-20" x="281.35" y="89.01" width="2.97" height="2.97" rx="0.49" ry="0.49"/><rect class="cls-63" x="261.09" y="63.92" width="13.22" height="0.87" rx="0.43" ry="0.43"/><rect class="cls-63" x="262.44" y="66.08" width="6.61" height="0.87" rx="0.43" ry="0.43"/><rect class="cls-63" x="261.09" y="68.23" width="18.99" height="0.87" rx="0.43" ry="0.43"/><rect class="cls-63" x="261.09" y="66.08" width="0.9" height="0.87" rx="0.43" ry="0.43"/></g></g></svg>