<svg xmlns="http://www.w3.org/2000/svg" viewBox="0 0 161.63 161.63"><defs><style>.cls-1{fill:#0e355e;}.cls-2{fill:#fff;}</style></defs><title>Asset 10</title><g id="Layer_2" data-name="Layer 2"><g id="Layer_1-2" data-name="Layer 1"><circle class="cls-1" cx="80.81" cy="80.81" r="80.81"/><path class="cls-2" d="M127.35,55.57c-4.22-7.07-10.51-11.92-16.42-12.66a11.23,11.23,0,0,0-8.63,2.25c-3.12,2.37-4,6.07-4.35,7.47v.07c0,.06,0,.13,0,.19L87.31,59.05a8.29,8.29,0,0,0-3.78,5.76,15,15,0,0,0-.27,2.74A20.47,20.47,0,0,0,84,73.08a27.79,27.79,0,0,0,8.79,13.74l.6.47L72.07,99.7c-1.27.73-3.23.29-5.25-1.2h0c-.16-.12-.33-.24-.48-.37a16.61,16.61,0,0,1-4-5,15.78,15.78,0,0,1-1.83-5.53,8.52,8.52,0,0,1,.07-2.74,3.53,3.53,0,0,1,1.47-2.42L79.88,72.12a1.49,1.49,0,1,0-1.5-2.58L60.55,79.9a6.28,6.28,0,0,0-2.9,4.4A11.53,11.53,0,0,0,57.54,88a18.69,18.69,0,0,0,2.17,6.6,20.45,20.45,0,0,0,3.64,4.87l-17.8,10.35c-.49.28-1.53.12-2.77-.89a8.66,8.66,0,0,1-1.4-1.48c-1.41-1.87-2.17-4.28-1.84-5.87a1.52,1.52,0,0,1,.6-1l14.12-8.21a1.5,1.5,0,0,0,.54-2,1.48,1.48,0,0,0-2-.54L42.63,95.61,42,95.28h0L41.4,95h0a9.63,9.63,0,0,0-1.11-.37l-.08,0a8.13,8.13,0,0,0-6.28.72A8.67,8.67,0,0,0,30,101v.07c-1,5.06,1.54,11.25,6.09,15a12.19,12.19,0,0,0,4.6,2.42,9.1,9.1,0,0,0,2.28.3,7.71,7.71,0,0,0,7-4.25l0,0a.21.21,0,0,0,0-.06l.12-.24,0-.08a2.44,2.44,0,0,0,.1-.24l0-.09.1-.24,0-.1.09-.24,0-.11.08-.24,0-.11.06-.24,0-.12.06-.24,0-.13c0-.08,0-.16,0-.24l0-.13a2,2,0,0,0,0-.24l0-.14,0-.24,0-.14a1.94,1.94,0,0,1,0-.24.76.76,0,0,1,0-.15c0-.08,0-.16,0-.24a.76.76,0,0,1,0-.15v-.08l14.8-8.6A9.28,9.28,0,0,0,70.7,103a5.63,5.63,0,0,0,2.87-.74L96.3,89.07a11.18,11.18,0,0,0,4.91,1.24,7.35,7.35,0,0,0,3.73-1l10.58-6.14c.4.13.8.26,1.2.36a13.61,13.61,0,0,0,3.41.45,11.15,11.15,0,0,0,10.75-7.81C132.91,70.38,131.59,62.66,127.35,55.57ZM47.76,112.05s0,.11,0,.17l0,.07a.94.94,0,0,1-.06.18l0,0a1.22,1.22,0,0,1-.07.17l0,.06-.07.16,0,.06-.07.15,0,0a4.83,4.83,0,0,1-5.85,2.47A9.26,9.26,0,0,1,38,113.82c-3.75-3.13-5.83-8.13-5.08-12.17a5.73,5.73,0,0,1,2.46-3.73,5.12,5.12,0,0,1,4-.41l-.74.42a4.36,4.36,0,0,0-2,3c-.5,2.45.43,5.69,2.38,8.27a11.66,11.66,0,0,0,1.9,2,6.69,6.69,0,0,0,4.13,1.7,4,4,0,0,0,2-.54l.73-.42h0Zm80.3-36.82c-1.59,4.57-5.74,6.71-10.58,5.45a12.45,12.45,0,0,1-1.57-.51,18.67,18.67,0,0,1-4.94-3,1.49,1.49,0,1,0-1.92,2.29,22.2,22.2,0,0,0,3.14,2.18l-8.75,5.09c-1.62.94-4,.68-6.45-.71a16.17,16.17,0,0,1-2.27-1.56,24.79,24.79,0,0,1-7.8-12.21,17.33,17.33,0,0,1-.67-4.72,11.3,11.3,0,0,1,.21-2.16,5.42,5.42,0,0,1,2.35-3.78l8.79-5.11a25.2,25.2,0,0,0,.6,5.22,1.49,1.49,0,1,0,2.92-.64,20.19,20.19,0,0,1-.37-7.07c0-.27.07-.51.12-.74.27-1.14,1-4,3.24-5.75a8.29,8.29,0,0,1,6.45-1.67c5,.64,10.47,4.94,14.23,11.23S129.8,70.22,128.06,75.23Z"/><path class="cls-2" d="M122.22,58.63a27.3,27.3,0,0,0-2.71-3.8c-3.33-3.91-6.91-5.69-9.32-6h0a7.19,7.19,0,0,0-.91-.06,5.17,5.17,0,0,0-3.36,1.14,7.07,7.07,0,0,0-2.11,3.95l0,.09a19.64,19.64,0,0,0,1.59,10.66,27.42,27.42,0,0,0,7.51,10.29,14.73,14.73,0,0,0,5.35,2.88,7.45,7.45,0,0,0,1.89.25,5,5,0,0,0,4-1.85,4.19,4.19,0,0,0,.26-.33,5.24,5.24,0,0,0,.45-.76,6.74,6.74,0,0,0,.37-.86C126.67,70.13,125.51,64.14,122.22,58.63Zm.19,14.63a2.23,2.23,0,0,1-2.29,1.79A4.77,4.77,0,0,1,119,74.9a11.65,11.65,0,0,1-4.18-2.28,24.39,24.39,0,0,1-6.68-9.15,16.71,16.71,0,0,1-1.4-8.94c.4-1.63.83-2.1,1-2.22a2.18,2.18,0,0,1,1.55-.54l.54,0c2.53.32,6.69,3.07,9.84,8.36C122.46,64.87,123.55,70,122.41,73.26Z"/><path class="cls-2" d="M112.65,57.79q-.06-.39-.09-.75a1.48,1.48,0,0,0-1.6-1.37,1.5,1.5,0,0,0-1.38,1.6c0,.32.07.65.12,1a1.48,1.48,0,0,0,1.47,1.26h.23A1.49,1.49,0,0,0,112.65,57.79Z"/><path class="cls-2" d="M119.19,68.45c-.2-.14-.39-.28-.56-.42a17.7,17.7,0,0,1-4-4.91A1.5,1.5,0,1,0,112,64.59a21.11,21.11,0,0,0,4.73,5.74c.24.2.51.4.79.59a1.46,1.46,0,0,0,.84.26,1.49,1.49,0,0,0,.84-2.73Z"/></g></g></svg>