<svg width="23" height="21" viewBox="0 0 23 21" fill="none" xmlns="http://www.w3.org/2000/svg">
<path d="M9.85491 1.63594L10.9451 0.595316C11.4067 0.154691 12.1531 0.154691 12.6098 0.595316L22.1562 9.70313C22.6179 10.1438 22.6179 10.8563 22.1562 11.2922L12.6098 20.4047C12.1482 20.8453 11.4018 20.8453 10.9451 20.4047L9.85491 19.3641C9.38839 18.9188 9.39821 18.1922 9.87455 17.7563L15.792 12.375H1.67857C1.02545 12.375 0.5 11.8734 0.5 11.25V9.75001C0.5 9.12657 1.02545 8.62501 1.67857 8.62501H15.792L9.87455 3.24375C9.3933 2.80782 9.38348 2.08125 9.85491 1.63594Z" fill="#2B6CB0"/>
</svg>
