<svg width="139" height="90" viewBox="0 0 139 90" fill="none" xmlns="http://www.w3.org/2000/svg">
<path d="M12.9521 6.92328H16.4256V10.3849H12.9521V6.92328Z" fill="#0F4E82"/>
<path d="M19.8994 6.92328H23.3729V10.3849H19.8994V6.92328Z" fill="#0F4E82"/>
<path d="M26.8457 6.92328H30.3191V10.3849H26.8457V6.92328Z" fill="#0F4E82"/>
<path d="M34.6179 23.8608H13.7772C13.3147 23.8608 12.8711 24.0439 12.544 24.3698C12.2169 24.6958 12.0332 25.1379 12.0332 25.5988V42.9071C12.0332 43.368 12.2169 43.8101 12.544 44.1361C12.8711 44.462 13.3147 44.6452 13.7772 44.6452H34.6179C35.0804 44.6452 35.524 44.462 35.8511 44.1361C36.1781 43.8101 36.3619 43.368 36.3619 42.9071V25.5931C36.3603 25.1331 36.1759 24.6925 35.849 24.3678C35.5221 24.0431 35.0794 23.8608 34.6179 23.8608ZM32.8739 41.169H15.5154V27.3224H32.8826L32.8739 41.169Z" fill="#0F4E82"/>
<path d="M42.9834 23.8608H49.9303V27.3224H42.9834V23.8608Z" fill="#0F4E82"/>
<path d="M53.4033 23.8608H97.4594V27.3224H53.4033V23.8608Z" fill="#0F4E82"/>
<path d="M42.9834 30.7841H81.1884V34.2457H42.9834V30.7841Z" fill="#0F4E82"/>
<path d="M42.9834 37.7073H60.3506V41.169H42.9834V37.7073Z" fill="#0F4E82"/>
<path d="M63.8213 37.7073H74.2416V41.169H63.8213V37.7073Z" fill="#0F4E82"/>
<path d="M39.5098 51.9219H63.8239V55.3835H39.5098V51.9219Z" fill="#0F4E82"/>
<path d="M39.5098 58.8452H63.8239V62.3068H39.5098V58.8452Z" fill="#0F4E82"/>
<path d="M39.5098 65.7569H63.8239V69.233H39.5098V65.7569Z" fill="#0F4E82"/>
<path d="M39.5098 72.6918H63.8239V76.1534H39.5098V72.6918Z" fill="#0F4E82"/>
<path d="M134.578 22.6586C133.262 21.8809 131.76 21.4736 130.23 21.4802C128.701 21.4868 127.201 21.9071 125.893 22.6963V5.19103C125.893 3.81679 125.346 2.49862 124.372 1.52553C123.399 0.552437 122.078 0.00383437 120.699 0L5.21162 0C3.82992 -2.14164e-07 2.50476 0.546817 1.52748 1.52024C0.550191 2.49366 0.000770611 3.81401 0 5.19103L0 84.8061C0 86.1836 0.54908 87.5047 1.52645 88.4787C2.50382 89.4528 3.82941 90 5.21162 90H120.699C121.383 90 122.06 89.8656 122.693 89.6046C123.325 89.3435 123.899 88.9609 124.383 88.4786C124.866 87.9962 125.25 87.4236 125.512 86.7935C125.773 86.1633 125.908 85.488 125.907 84.8061V54.9693L137.775 34.4717C138.92 32.482 139.227 30.1209 138.628 27.9062C138.028 25.6916 136.572 23.8044 134.578 22.6586ZM3.48798 5.19103C3.48798 4.73006 3.67172 4.28798 3.99878 3.96203C4.32584 3.63608 4.76943 3.45296 5.23197 3.45296H120.699C121.161 3.45296 121.605 3.63608 121.932 3.96203C122.259 4.28798 122.443 4.73006 122.443 5.19103V13.9045H3.48798V5.19103ZM122.434 84.8061C122.434 85.267 122.25 85.7091 121.923 86.0351C121.596 86.361 121.152 86.5441 120.69 86.5441H5.21162C4.74909 86.5441 4.3055 86.361 3.97844 86.0351C3.65137 85.7091 3.46763 85.267 3.46763 84.8061V17.3633H122.434V26.3433L107.61 51.9305H79.0173C78.5547 51.9305 78.1111 52.1137 77.7841 52.4396C77.457 52.7656 77.2733 53.2076 77.2733 53.6686V74.4385C77.2733 74.8995 77.457 75.3416 77.7841 75.6675C78.1111 75.9935 78.5547 76.1766 79.0173 76.1766H98.1576C98.0675 77.3457 98.3772 78.5107 99.0363 79.482C99.6954 80.4532 100.665 81.1735 101.787 81.5255C102.91 81.8775 104.118 81.8405 105.217 81.4204C106.315 81.0004 107.239 80.2222 107.837 79.2124L110.179 75.1569L115.318 72.6222C115.627 72.4689 115.883 72.228 116.054 71.9299L122.425 60.9221L122.434 84.8061ZM104.602 69.3547L104.349 65.2007L112.763 70.047L108.999 71.8893L104.602 69.3547ZM106.572 74.4849L104.828 77.483C104.577 77.8388 104.202 78.0879 103.776 78.1811C103.349 78.2744 102.904 78.2051 102.526 77.9868C102.149 77.7686 101.867 77.4173 101.737 77.0022C101.607 76.5872 101.637 76.1386 101.823 75.745L103.567 72.7497L106.572 74.4849ZM101.021 63.2975C100.849 63.5934 100.77 63.9329 100.791 64.2737L101.151 69.9862L99.5789 72.6917H80.7554V55.3835H105.604L101.021 63.2975ZM114.789 67.2052L111.781 65.4672L124.806 42.9853L121.8 41.2472L108.773 63.732L105.767 61.9939L120.527 36.5023L129.558 41.6962L114.789 67.2052ZM131.288 38.727L122.257 33.5447L123.129 32.0499L132.16 37.241L131.288 38.727ZM134.776 32.7365L133.904 34.2341L124.867 29.0547L125.739 27.5542C126.445 26.3906 127.58 25.5493 128.902 25.2106C130.223 24.872 131.625 25.0629 132.807 25.7426C133.989 26.4222 134.856 27.5364 135.223 28.8461C135.59 30.1558 135.427 31.5566 134.77 32.7481L134.776 32.7365Z" fill="#0F4E82"/>
<path d="M83.7314 30.7841H102.11V34.2457H83.7314V30.7841Z" fill="#0F4E82"/>
<path d="M14.5537 51.9219H24.974V55.3835H14.5537V51.9219Z" fill="#0F4E82"/>
<path d="M14.5537 58.8452H31.9209V62.3068H14.5537V58.8452Z" fill="#0F4E82"/>
<path d="M14.5537 65.7569H28.7178V69.233H14.5537V65.7569Z" fill="#0F4E82"/>
<path d="M14.5537 72.6918H22.1779V76.1534H14.5537V72.6918Z" fill="#0F4E82"/>
</svg>
