<svg width="512" height="428" viewBox="0 0 512 428" fill="none" xmlns="http://www.w3.org/2000/svg">
<path d="M469.333 64.667H362.667V43.333C362.667 19.802 343.532 0.666016 320 0.666016H192C168.469 0.666016 149.333 19.801 149.333 43.333V64.666H42.667C19.135 64.667 0 83.802 0 107.333V384.666C0 408.197 19.135 427.333 42.667 427.333H469.334C492.865 427.333 512.001 408.198 512.001 384.666V107.333C512 83.802 492.865 64.667 469.333 64.667ZM170.667 43.333C170.667 31.573 180.24 22 192 22H320C331.76 22 341.333 31.573 341.333 43.333V64.666H170.667V43.333ZM490.667 384.667C490.667 396.427 481.094 406 469.334 406H42.667C30.907 406 21.334 396.427 21.334 384.667V229.4C27.635 233.074 34.861 235.334 42.667 235.334H213.334V267.334C213.334 273.23 218.105 278.001 224.001 278.001H288.001C293.897 278.001 298.668 273.23 298.668 267.334V235.334H469.335C477.141 235.334 484.368 233.075 490.668 229.4V384.667H490.667ZM234.667 256.667V214H277.334V256.667H234.667V256.667ZM490.667 192.667C490.667 204.427 481.094 214 469.334 214H298.667V203.333C298.667 197.437 293.896 192.666 288 192.666H224C218.104 192.666 213.333 197.437 213.333 203.333V214H42.667C30.907 214 21.334 204.427 21.334 192.667V107.334C21.334 95.574 30.907 86.001 42.667 86.001H469.334C481.094 86.001 490.667 95.574 490.667 107.334V192.667V192.667Z" fill="#0F4E82"/>
</svg>
