<svg width="90" height="90" viewBox="0 0 90 90" fill="none" xmlns="http://www.w3.org/2000/svg">
<path d="M87.3798 15.9968C87.3743 15.9968 87.3688 15.9961 87.3633 15.9961H63.457V13.3594C63.457 8.9978 59.9084 5.44922 55.5469 5.44922H34.4531C30.0916 5.44922 26.543 8.9978 26.543 13.3594V15.9961H2.63672C1.16867 15.9961 0 17.1991 0 18.6328V76.6406C0 81.0022 3.54858 84.5508 7.91016 84.5508H82.0898C86.4514 84.5508 90 81.0022 90 76.6406V18.6884C90 18.685 90 18.6816 90 18.6781C89.8991 16.9464 88.8341 16.0064 87.3798 15.9968ZM31.8164 13.3594C31.8164 11.9057 32.9995 10.7227 34.4531 10.7227H55.5469C57.0005 10.7227 58.1836 11.9057 58.1836 13.3594V15.9961H31.8164V13.3594ZM83.7048 21.2695L75.5166 45.8336C75.1575 46.9123 74.1522 47.6367 73.0158 47.6367H58.1836V45C58.1836 43.5436 57.0033 42.3633 55.5469 42.3633H34.4531C32.9967 42.3633 31.8164 43.5436 31.8164 45V47.6367H16.9842C15.8478 47.6367 14.8425 46.9123 14.4834 45.8336L6.29517 21.2695H83.7048ZM52.9102 47.6367V52.9102H37.0898V47.6367H52.9102ZM84.7266 76.6406C84.7266 78.0942 83.5435 79.2773 82.0898 79.2773H7.91016C6.45653 79.2773 5.27344 78.0942 5.27344 76.6406V34.8809L9.48051 47.5014C10.5585 50.7369 13.5743 52.9102 16.9842 52.9102H31.8164V55.5469C31.8164 57.0032 32.9967 58.1836 34.4531 58.1836H55.5469C57.0033 58.1836 58.1836 57.0032 58.1836 55.5469V52.9102H73.0158C76.4257 52.9102 79.4415 50.7369 80.5195 47.5014L84.7266 34.8809V76.6406Z" fill="#0F4E82"/>
</svg>
