<svg width="80" height="80" viewBox="0 0 80 80" fill="none" xmlns="http://www.w3.org/2000/svg">
<g clip-path="url(#clip0)">
<path d="M3.61256 52.4994C4.15883 52.8479 4.90529 52.6825 5.25319 52.1368C8.39345 47.2174 13.3049 43.9709 15.2715 42.8033C15.9246 42.4158 16.0442 41.488 15.5101 40.9473C13.1902 38.5986 11.9127 35.4877 11.9127 32.1875C11.9127 25.3131 17.5054 19.7198 24.3798 19.7198C27.7391 19.7198 30.8892 21.0364 33.25 23.4271C33.7114 23.8934 34.4634 23.8983 34.9303 23.4375C35.3972 22.9761 35.4021 22.2241 34.9407 21.7572C32.13 18.9111 28.3794 17.3438 24.3798 17.3438C16.195 17.3438 9.53663 24.0027 9.53663 32.1875C9.53663 34.303 9.97914 36.3531 10.8172 38.2318C10.4778 38.2635 10.1159 38.3093 9.74415 38.3765C6.76564 38.9136 5.63832 40.3284 5.21657 41.4209C4.5641 43.1103 4.91017 44.7558 6.19008 46.0547C6.36097 46.2286 6.53737 46.3837 6.71132 46.5222C5.47963 47.7917 4.28517 49.2364 3.25001 50.8588C2.89723 51.4117 3.05958 52.1466 3.61256 52.4994ZM7.43336 42.2766C7.98085 40.8588 10.6481 40.5499 12.1068 40.5402C12.3363 40.8752 12.5786 41.2024 12.8362 41.5198C11.5685 42.3437 10.0261 43.4595 8.45448 44.8566C8.27015 44.732 8.06874 44.5758 7.88258 44.3872C7.25453 43.7494 7.11598 43.0987 7.43336 42.2766Z" fill="white"/>
<path d="M17.4082 31.3646C17.4082 32.3638 18.2206 33.1761 19.2197 33.1761C20.2183 33.1761 21.0306 32.3638 21.0306 31.3646C21.0306 30.3661 20.2183 29.5537 19.2197 29.5537C18.2206 29.5537 17.4082 30.3661 17.4082 31.3646Z" fill="white"/>
<path d="M27.7285 31.3646C27.7285 32.3638 28.5415 33.1761 29.54 33.1761C30.5392 33.1761 31.3516 32.3638 31.3516 31.3646C31.3516 30.3661 30.5392 29.5537 29.54 29.5537C28.5415 29.5537 27.7285 30.3661 27.7285 31.3646Z" fill="white"/>
<path d="M48.6484 31.3646C48.6484 32.3638 49.4608 33.1761 50.46 33.1761C51.4585 33.1761 52.2715 32.3638 52.2715 31.3646C52.2715 30.3661 51.4585 29.5537 50.46 29.5537C49.4608 29.5537 48.6484 30.3661 48.6484 31.3646Z" fill="white"/>
<path d="M58.9697 31.3646C58.9697 32.3638 59.7821 33.1761 60.7806 33.1761C61.7798 33.1761 62.5922 32.3638 62.5922 31.3646C62.5922 30.3661 61.7798 29.5537 60.7806 29.5537C59.7821 29.5537 58.9697 30.3661 58.9697 31.3646Z" fill="white"/>
<path d="M56.6968 34.8504C56.6022 35.0176 56.2262 35.2831 55.6195 35.2831C55.0129 35.2831 54.6369 35.0176 54.5423 34.8504C54.2194 34.2791 53.4943 34.0777 52.923 34.4006C52.3523 34.7234 52.1503 35.4485 52.4732 36.0192C53.0451 37.0312 54.2505 37.6592 55.6195 37.6592C56.9886 37.6592 58.194 37.0312 58.7659 36.0192C59.0888 35.4485 58.8868 34.7234 58.3161 34.4006C57.7442 34.0777 57.0197 34.2791 56.6968 34.8504Z" fill="white"/>
<path d="M25.4566 34.8504C25.362 35.0176 24.986 35.2831 24.3793 35.2831C23.7726 35.2831 23.3966 35.0176 23.302 34.8504C22.9792 34.2791 22.2541 34.0777 21.6828 34.4006C21.1121 34.7234 20.9101 35.4485 21.2329 36.0192C21.8048 37.0312 23.0103 37.6592 24.3793 37.6592C25.7483 37.6592 26.9538 37.0312 27.5257 36.0192C27.8486 35.4485 27.6465 34.7234 27.0758 34.4006C26.5039 34.0777 25.7795 34.2791 25.4566 34.8504Z" fill="white"/>
<path d="M72.5604 45.8002C72.0886 45.3448 71.3367 45.3583 70.8807 45.8301C70.4248 46.3019 70.4382 47.0544 70.91 47.5098C75.0092 51.4679 77.2491 55.7709 77.5806 60.3156H71.8958C71.5308 57.9144 70.2789 55.1611 70.2173 55.0256C69.9432 54.4293 69.2383 54.1675 68.6426 54.4409C68.0457 54.7144 67.7838 55.4193 68.0566 56.0156C68.4009 56.767 69.1779 58.6987 69.4879 60.3156H48.7207C48.4357 55.8295 46.532 51.5594 43.0481 47.6062C40.5951 44.8224 37.8448 42.7734 35.9222 41.521C35.9784 41.452 36.0303 41.3812 36.0852 41.3116L45.705 42.9535C46.2048 43.0383 46.7249 42.7802 46.9586 42.3309C47.1918 41.8817 47.1063 41.3074 46.7505 40.9473C44.4305 38.5986 43.1531 35.4877 43.1531 32.1875C43.1531 25.3131 48.7457 19.7198 55.6201 19.7198C62.4945 19.7198 68.0872 25.3131 68.0872 32.1875C68.0872 35.4877 66.8097 38.5986 64.4904 40.9473C63.9557 41.488 64.0759 42.4158 64.729 42.804C65.6171 43.3307 66.5137 43.924 67.3938 44.5654C67.9175 44.9469 68.6725 44.8279 69.054 44.3054C69.4403 43.775 69.3237 43.0316 68.7939 42.6453C68.255 42.2522 67.7094 41.8762 67.1631 41.5204C69.3011 38.8855 70.4639 35.6226 70.4639 32.1869C70.4639 24.0027 63.8049 17.3438 55.6201 17.3438C47.4353 17.3438 40.777 24.0027 40.777 32.1869C40.777 35.0244 41.5698 37.7441 43.0505 40.0897L37.4963 39.1418C38.6224 37.0239 39.223 34.6503 39.223 32.1875C39.223 30.0342 38.772 27.9572 37.8821 26.0138C37.6086 25.4169 36.9031 25.155 36.3074 25.4279C35.7104 25.7013 35.4486 26.4062 35.7214 27.0026C36.4685 28.6334 36.8469 30.3778 36.8469 32.1875C36.8469 34.7723 36.0602 37.2394 34.6057 39.3164C34.5935 39.3335 34.5813 39.35 34.5703 39.3677C34.1766 39.9237 33.7378 40.4529 33.2501 40.9473C32.7155 41.488 32.8357 42.4158 33.4888 42.8033C35.1813 43.8086 38.4418 45.9729 41.2653 49.1766C44.3494 52.677 46.0529 56.4185 46.3403 60.3156H40.6555C40.2905 57.9144 39.0387 55.1611 38.9771 55.0256C38.7036 54.4293 37.9987 54.1675 37.4023 54.4409C36.806 54.7144 36.5436 55.4193 36.817 56.0156C37.1606 56.767 37.9376 58.6987 38.2477 60.3156H10.5121C10.8221 58.6987 11.5991 56.767 11.9434 56.0156C12.2162 55.4193 11.9543 54.7144 11.358 54.4409C10.7617 54.1675 10.0562 54.4293 9.78271 55.0256C9.72107 55.1611 8.46924 57.9144 8.10425 60.3156H2.42065C2.52502 58.9111 2.81433 57.5177 3.2843 56.1597C3.49915 55.5396 3.17078 54.8627 2.55066 54.6484C1.93115 54.4336 1.25427 54.762 1.03943 55.3821C0.349731 57.373 0 59.4324 0 61.5039C0 62.16 0.532227 62.6917 1.18835 62.6917H78.8116C79.4678 62.6917 80 62.16 80 61.5039C80 55.9296 77.4274 50.4999 72.5604 45.8002Z" fill="white"/>
</g>
<defs>
<clipPath id="clip0">
<rect width="80" height="80" fill="white"/>
</clipPath>
</defs>
</svg>
