<svg width="126" height="90" viewBox="0 0 126 90" fill="none" xmlns="http://www.w3.org/2000/svg">
<path d="M8.38933 70.4358C6.70822 70.461 5.07136 71.0594 3.68577 72.1553C2.30018 73.2512 1.22809 74.7954 0.605101 76.5926C-0.0178889 78.3898 -0.163798 80.3592 0.185827 82.2518C0.535453 84.1445 1.36491 85.8753 2.56929 87.2253C3.77367 88.5754 5.29888 89.4841 6.95201 89.8364C8.60515 90.1888 10.312 89.9691 11.8566 89.205C13.4012 88.4409 14.7142 87.1668 15.6296 85.5438C16.545 83.9209 17.0216 82.0219 16.9992 80.0872C16.986 78.8023 16.7526 77.5331 16.3124 76.3523C15.8723 75.1714 15.234 74.1021 14.4342 73.2055C13.6345 72.309 12.6888 71.6029 11.6515 71.1276C10.6143 70.6523 9.50569 70.4173 8.38933 70.4358ZM8.55624 84.9597C7.73879 84.9735 6.93615 84.7079 6.2499 84.1966C5.56364 83.6852 5.02461 82.9511 4.70102 82.087C4.37743 81.223 4.28383 80.2679 4.43206 79.3426C4.58029 78.4173 4.96369 77.5634 5.53374 76.889C6.10379 76.2146 6.83486 75.7499 7.63445 75.5538C8.43403 75.3577 9.26619 75.4391 10.0256 75.7875C10.785 76.1359 11.4376 76.7357 11.9007 77.5111C12.3637 78.2865 12.6166 79.2026 12.6271 80.1434C12.6357 80.7684 12.5371 81.3893 12.3368 81.9704C12.1365 82.5515 11.8386 83.0814 11.46 83.5297C11.0814 83.978 10.6297 84.3359 10.1307 84.5829C9.63174 84.8299 9.0953 84.9611 8.55217 84.969L8.55624 84.9597Z" fill="#0F4E82"/>
<path d="M41.3893 41.0879C39.7082 41.1119 38.0714 41.6803 36.6858 42.7215C35.3002 43.7626 34.2281 45.2295 33.6051 46.9369C32.9821 48.6442 32.8362 50.5152 33.1858 52.3132C33.5355 54.1111 34.3649 55.7554 35.5693 57.0379C36.7737 58.3205 38.2989 59.1838 39.952 59.5185C41.6051 59.8533 43.312 59.6445 44.8566 58.9186C46.4012 58.1928 47.7142 56.9824 48.6296 55.4405C49.545 53.8987 50.0216 52.0947 49.9992 50.2567C49.986 49.0361 49.7526 47.8304 49.3124 46.7086C48.8723 45.5867 48.234 44.5709 47.4343 43.7192C46.6345 42.8675 45.6888 42.1966 44.6515 41.7451C43.6143 41.2936 42.5057 41.0703 41.3893 41.0879ZM41.5562 54.8856C40.7388 54.8987 39.9362 54.6464 39.2499 54.1607C38.5636 53.6749 38.0246 52.9774 37.701 52.1566C37.3774 51.3357 37.2838 50.4284 37.4321 49.5494C37.5803 48.6703 37.9637 47.8591 38.5337 47.2184C39.1038 46.5777 39.8349 46.1363 40.6344 45.95C41.434 45.7638 42.2662 45.841 43.0256 46.172C43.785 46.503 44.4376 47.0729 44.9007 47.8095C45.3637 48.5461 45.6166 49.4163 45.6271 50.3101C45.6363 50.9039 45.5382 51.4939 45.3384 52.0461C45.1386 52.5984 44.8411 53.1021 44.4629 53.5284C44.0847 53.9547 43.6333 54.2952 43.1345 54.5304C42.6357 54.7656 42.0994 54.8908 41.5562 54.8989V54.8856Z" fill="#0F4E82"/>
<path d="M85.2661 65.6918C84.2498 64.0735 82.8594 62.8558 81.2706 62.1928C79.6818 61.5297 77.966 61.4512 76.3403 61.967C74.7145 62.4828 73.2518 63.5698 72.1372 65.0905C71.0226 66.6113 70.3061 68.4974 70.0784 70.5104C69.8506 72.5235 70.1219 74.5729 70.8578 76.3995C71.5937 78.2262 72.7613 79.748 74.2128 80.7725C75.6643 81.797 77.3345 82.2781 79.0122 82.155C80.69 82.032 82.2998 81.3103 83.6382 80.0811C84.5278 79.2666 85.2758 78.2478 85.8392 77.0833C86.4027 75.9188 86.7705 74.6314 86.9218 73.2947C87.073 71.9581 87.0046 70.5985 86.7205 69.2939C86.4363 67.9893 85.9421 66.7652 85.2661 65.6918ZM75.1976 74.9059C74.7064 74.117 74.4196 73.1698 74.3736 72.184C74.3276 71.1982 74.5245 70.218 74.9393 69.3674C75.3541 68.5168 75.9682 67.8339 76.704 67.4051C77.4398 66.9763 78.2643 66.8209 79.0731 66.9584C79.882 67.0959 80.639 67.5202 81.2484 68.1777C81.8578 68.8352 82.2923 69.6963 82.4969 70.6523C82.7015 71.6082 82.667 72.616 82.3979 73.5482C82.1287 74.4805 81.637 75.2953 80.9847 75.8898C80.5516 76.2854 80.0581 76.5738 79.5326 76.7385C79.0071 76.9032 78.4599 76.9409 77.9223 76.8495C77.3847 76.7581 76.8673 76.5394 76.3998 76.2058C75.9322 75.8723 75.5237 75.4306 75.1976 74.9059Z" fill="#0F4E82"/>
<path d="M124.266 4.06141C123.25 2.44307 121.859 1.22537 120.271 0.562337C118.682 -0.100697 116.966 -0.17928 115.34 0.336521C113.715 0.852322 112.252 1.93933 111.137 3.46008C110.023 4.98083 109.306 6.86699 109.078 8.88001C108.851 10.893 109.122 12.9425 109.858 14.7691C110.594 16.5958 111.761 18.1176 113.213 19.1421C114.664 20.1665 116.335 20.6477 118.012 20.5246C119.69 20.4016 121.3 19.6798 122.638 18.4507C123.528 17.6361 124.276 16.6174 124.839 15.4529C125.403 14.2884 125.771 13.0009 125.922 11.6643C126.073 10.3277 126.005 8.96811 125.72 7.66349C125.436 6.35886 124.942 5.13481 124.266 4.06141ZM114.198 13.2755C113.706 12.4866 113.42 11.5394 113.374 10.5536C113.328 9.56773 113.524 8.58755 113.939 7.73694C114.354 6.88632 114.968 6.20346 115.704 5.77467C116.44 5.34589 117.264 5.19042 118.073 5.32794C118.882 5.46547 119.639 5.88979 120.248 6.54728C120.858 7.20477 121.292 8.06591 121.497 9.02183C121.702 9.97775 121.667 10.9855 121.398 11.9178C121.129 12.85 120.637 13.6649 119.985 14.2594C119.552 14.655 119.058 14.9434 118.533 15.108C118.007 15.2727 117.46 15.3104 116.922 15.219C116.385 15.1277 115.867 14.9089 115.4 14.5754C114.932 14.2419 114.524 13.8002 114.198 13.2755Z" fill="#0F4E82"/>
<path d="M35.4886 52.7595L10.4375 75.5583L12.8596 78.9609L37.9107 56.1621L35.4886 52.7595Z" fill="#0F4E82"/>
<path d="M73.2176 66.1061L47.2832 51.3574L45.5475 55.2596L71.4819 70.0083L73.2176 66.1061Z" fill="#0F4E82"/>
<path d="M112.604 13.5946L80.1904 65.6472L83.3489 68.1619L115.763 16.1092L112.604 13.5946Z" fill="#0F4E82"/>
</svg>
