<svg width="80" height="80" viewBox="0 0 80 80" fill="none" xmlns="http://www.w3.org/2000/svg">
<path d="M25.3665 77.1338C25.6009 77.3681 25.9188 77.4997 26.2503 77.4997C26.5817 77.4997 26.8996 77.3681 27.134 77.1338L32.134 72.1338C32.3684 71.8993 32.5 71.5815 32.5 71.25C32.5 70.9185 32.3684 70.6007 32.134 70.3662L31.769 70L35.519 66.2612H51.2503C51.5818 66.2612 51.8997 66.1294 52.134 65.895L68.384 49.645C68.6184 49.4106 68.75 49.0927 68.75 48.7612C68.75 48.4298 68.6184 48.1119 68.384 47.8775C66.8222 46.3196 64.7063 45.4447 62.5003 45.4447C60.2943 45.4447 58.1783 46.3196 56.6165 47.8775L51.9828 52.5125H47.5003V48.775C47.499 47.7778 47.1025 46.8219 46.3978 46.1164C45.693 45.411 44.7374 45.0136 43.7403 45.0112L29.944 45C29.7786 45.0007 29.615 45.0342 29.4627 45.0986C29.3104 45.1629 29.1723 45.2569 29.0565 45.375L21.6128 52.8837C21.3819 53.1166 21.2517 53.4308 21.2503 53.7587V57L20.0003 58.2412L19.6315 57.8662C19.3971 57.6319 19.0792 57.5003 18.7478 57.5003C18.4163 57.5003 18.0984 57.6319 17.864 57.8662L12.864 62.8662C12.6297 63.1007 12.498 63.4185 12.498 63.75C12.498 64.0815 12.6297 64.3993 12.864 64.6338L25.3665 77.1338ZM23.3753 58.3988C23.4932 58.2831 23.5871 58.1453 23.6515 57.9932C23.7159 57.841 23.7494 57.6777 23.7503 57.5125V54.2775L30.464 47.5L43.7378 47.5112C44.0726 47.5119 44.3936 47.6453 44.6302 47.8822C44.8669 48.1191 45 48.4402 45.0003 48.775V52.5125H35.0003V55.0125H52.5003C52.8318 55.0124 53.1497 54.8807 53.384 54.6462L58.384 49.6462C59.3232 48.7108 60.553 48.1232 61.8708 47.98C63.1886 47.8369 64.5159 48.1468 65.634 48.8588L50.7328 63.7625H35.0003C34.6694 63.7626 34.352 63.8938 34.1178 64.1275L30.0003 68.2338L21.7703 60L23.3753 58.3988ZM18.7503 60.5237L29.4828 71.25L26.2503 74.4825L19.2678 67.5L20.884 65.8838L19.1165 64.1162L17.5003 65.7325L15.5178 63.75L18.7503 60.5237Z" fill="white"/>
<path d="M39.9863 2.5H42.4863V5H39.9863V2.5Z" fill="white"/>
<path d="M33.8691 4.21045L36.1786 3.25317L37.1359 5.56264L34.8264 6.51991L33.8691 4.21045Z" fill="white"/>
<path d="M28.8584 8.146L30.6262 6.37823L32.3939 8.146L30.6262 9.91376L28.8584 8.146Z" fill="white"/>
<path d="M25.7539 13.6836L26.7112 11.3741L29.0207 12.3314L28.0634 14.6409L25.7539 13.6836Z" fill="white"/>
<path d="M53.4736 12.3262L55.7831 11.3689L56.7404 13.6784L54.4309 14.6356L53.4736 12.3262Z" fill="white"/>
<path d="M50.0703 8.14795L51.8381 6.38018L53.6059 8.14795L51.8381 9.91572L50.0703 8.14795Z" fill="white"/>
<path d="M45.3545 5.56177L46.3118 3.2523L48.6212 4.20958L47.664 6.51905L45.3545 5.56177Z" fill="white"/>
<path d="M34.9863 28.0936V30.2299C34.4042 30.4311 33.8812 30.774 33.4645 31.2277C33.0479 31.6813 32.7506 32.2315 32.5994 32.8286C32.4483 33.4257 32.4481 34.0511 32.5987 34.6483C32.7494 35.2455 33.0463 35.7959 33.4626 36.2499C32.9733 36.7855 32.6507 37.452 32.5342 38.168C32.4177 38.884 32.5123 39.6185 32.8066 40.2815C33.1009 40.9446 33.582 41.5075 34.1911 41.9015C34.8002 42.2955 35.5109 42.5034 36.2363 42.4999H46.2363C46.9616 42.5031 47.6721 42.295 48.2811 41.901C48.89 41.507 49.371 40.9442 49.6654 40.2813C49.9597 39.6184 50.0546 38.8842 49.9384 38.1683C49.8223 37.4523 49.5001 36.7857 49.0113 36.2499C49.4273 35.7957 49.7238 35.2452 49.8743 34.648C50.0247 34.0508 50.0242 33.4255 49.873 32.8285C49.7217 32.2314 49.4244 31.6814 49.0078 31.2278C48.5912 30.7742 48.0684 30.4313 47.4863 30.2299V28.0936C49.4931 26.7528 51.0155 24.8021 51.8286 22.5297C52.6418 20.2572 52.7025 17.7835 52.0019 15.4739C51.3013 13.1643 49.8766 11.1412 47.938 9.70345C45.9994 8.2657 43.6499 7.4895 41.2363 7.4895C38.8228 7.4895 36.4732 8.2657 34.5347 9.70345C32.5961 11.1412 31.1713 13.1643 30.4707 15.4739C29.7701 17.7835 29.8309 20.2572 30.644 22.5297C31.4571 24.8021 32.9795 26.7528 34.9863 28.0936ZM46.2363 39.9999H36.2363C35.9048 39.9999 35.5869 39.8682 35.3524 39.6338C35.118 39.3994 34.9863 39.0814 34.9863 38.7499C34.9863 38.4184 35.118 38.1004 35.3524 37.866C35.5869 37.6316 35.9048 37.4999 36.2363 37.4999H46.2363C46.5678 37.4999 46.8858 37.6316 47.1202 37.866C47.3546 38.1004 47.4863 38.4184 47.4863 38.7499C47.4863 39.0814 47.3546 39.3994 47.1202 39.6338C46.8858 39.8682 46.5678 39.9999 46.2363 39.9999ZM46.2363 34.9999H36.2363C35.9048 34.9999 35.5869 34.8682 35.3524 34.6338C35.118 34.3994 34.9863 34.0814 34.9863 33.7499C34.9863 33.4184 35.118 33.1004 35.3524 32.866C35.5869 32.6316 35.9048 32.4999 36.2363 32.4999H46.2363C46.5678 32.4999 46.8858 32.6316 47.1202 32.866C47.3546 33.1004 47.4863 33.4184 47.4863 33.7499C47.4863 34.0814 47.3546 34.3994 47.1202 34.6338C46.8858 34.8682 46.5678 34.9999 46.2363 34.9999ZM41.2363 9.9999C43.16 10.0028 45.0292 10.6396 46.5545 11.8118C48.0799 12.9839 49.1765 14.6261 49.6746 16.4842C50.1727 18.3423 50.0446 20.3128 49.3101 22.0908C48.5756 23.8687 47.2756 25.3551 45.6113 26.3199C45.4215 26.4295 45.2638 26.5871 45.1541 26.7769C45.0444 26.9667 44.9866 27.1819 44.9863 27.4011V29.9999H42.4863V25.5174L46.5001 21.5099C46.8627 21.1477 47.1504 20.7175 47.3467 20.2441C47.543 19.7706 47.644 19.2631 47.644 18.7505C47.644 18.238 47.543 17.7304 47.3467 17.257C47.1504 16.7835 46.8627 16.3534 46.5001 15.9911C45.8007 15.322 44.8823 14.9291 43.9153 14.8854C42.9483 14.8418 41.9982 15.1502 41.2413 15.7536C40.4844 15.1502 39.5344 14.8418 38.5674 14.8854C37.6004 14.9291 36.682 15.322 35.9826 15.9911C35.2521 16.7234 34.8418 17.7156 34.8418 18.7499C34.8418 19.7842 35.2521 20.7764 35.9826 21.5086L36.6076 22.1336L38.3751 20.3661L37.7501 19.7411C37.4883 19.4779 37.3414 19.1217 37.3414 18.7505C37.3414 18.3793 37.4883 18.0231 37.7501 17.7599C38.0171 17.5048 38.3721 17.3625 38.7413 17.3625C39.1106 17.3625 39.4656 17.5048 39.7326 17.7599L40.3576 18.3849C40.592 18.6192 40.9099 18.7509 41.2413 18.7509C41.5728 18.7509 41.8907 18.6192 42.1251 18.3849L42.7501 17.7599C43.0169 17.5046 43.372 17.362 43.7413 17.362C44.1107 17.362 44.4657 17.5046 44.7326 17.7599C44.8629 17.8898 44.9664 18.0442 45.0369 18.2142C45.1075 18.3842 45.1438 18.5665 45.1438 18.7505C45.1438 18.9346 45.1075 19.1168 45.0369 19.2868C44.9664 19.4568 44.8629 19.6112 44.7326 19.7411L40.3576 24.1161C40.1231 24.3505 39.9914 24.6684 39.9913 24.9999V29.9999H37.4913V27.4011C37.4911 27.1819 37.4332 26.9667 37.3235 26.7769C37.2138 26.5871 37.0562 26.4295 36.8663 26.3199C35.2024 25.3553 33.9026 23.8694 33.168 22.0919C32.4334 20.3145 32.3049 18.3445 32.8024 16.4866C33.2999 14.6288 34.3956 12.9866 35.9201 11.8141C37.4447 10.6415 39.313 10.0039 41.2363 9.9999Z" fill="white"/>
</svg>
