<svg width="80" height="80" viewBox="0 0 80 80" fill="none" xmlns="http://www.w3.org/2000/svg">
<path d="M6.88594 63.1141C6.59531 62.8234 6.19219 62.6562 5.78125 62.6562C5.37031 62.6562 4.96719 62.8233 4.67656 63.1141C4.38594 63.4047 4.21875 63.8078 4.21875 64.2188C4.21875 64.6297 4.38594 65.0328 4.67656 65.3233C4.96719 65.6141 5.37031 65.7812 5.78125 65.7812C6.19219 65.7812 6.59531 65.6141 6.88594 65.3233C7.17656 65.0328 7.34375 64.6297 7.34375 64.2188C7.34375 63.8078 7.17656 63.4047 6.88594 63.1141Z" fill="white"/>
<path d="M69.6292 18.1231C69.6286 18.1227 69.628 18.122 69.6272 18.1216L59.2106 11.0853C57.2134 9.73625 54.8344 9.23687 52.5567 9.57281C52.6584 9.08203 52.7117 8.57766 52.7117 8.06484C52.7117 6.09938 51.9463 4.25156 50.5564 2.86156L49.85 2.15516C48.4603 0.765312 46.6123 0 44.6469 0C42.6814 0 40.8334 0.765312 39.4434 2.15531C38.0536 3.54531 37.2883 5.39313 37.2883 7.35875C37.2883 9.32422 38.0537 11.172 39.4434 12.5619L40.1498 13.2684C41.035 14.1534 42.1063 14.7841 43.2748 15.1262L32.7619 23.0472C32.0928 23.5513 31.607 24.2133 31.3216 24.9448C30.565 24.792 29.7631 24.8348 28.9963 25.1087L18.812 28.7431C19.1841 27.8639 19.3898 26.898 19.3898 25.8848V24.8858C19.3898 20.8283 16.0887 17.5272 12.0312 17.5272C7.97375 17.5272 4.67266 20.8283 4.67266 24.8858V25.8848C4.67266 28.7081 6.27172 31.1637 8.61094 32.3973C5.96797 33.5142 4.21875 36.1247 4.21875 39.0191V57.6562C4.21875 58.5191 4.91828 59.2188 5.78125 59.2188C6.64422 59.2188 7.34375 58.5191 7.34375 57.6562V54.7969H13.5067C13.832 54.7969 14.1341 54.6972 14.3842 54.527L21.4497 49.7309C22.1442 49.2595 22.955 49.0105 23.7942 49.0105C26.0959 49.0105 27.9686 50.883 27.9686 53.1847V62.8681L23.5936 64.6189V56.7969C23.5936 56.2342 23.2911 55.7152 22.8019 55.4377C22.3127 55.1603 21.7119 55.1672 21.2291 55.4559L13.3125 60.1919C12.3294 60.78 11.7188 61.857 11.7188 63.0027V76.875H7.34375V70.3156C7.34375 69.4528 6.64422 68.7531 5.78125 68.7531C4.91828 68.7531 4.21875 69.4528 4.21875 70.3156V78.4375C4.21875 79.3003 4.91828 80 5.78125 80H13.2812C14.1442 80 14.8438 79.3003 14.8438 78.4375V63.0027C14.8438 62.95 14.8719 62.9005 14.9169 62.8736L20.4688 59.5523V78.4375C20.4688 79.3003 21.1683 80 22.0312 80H74.2188C75.0817 80 75.7812 79.3003 75.7812 78.4375V29.4878C75.7812 24.8848 73.4819 20.6389 69.6292 18.1231ZM42.3597 11.0589L41.6533 10.3522C40.8536 9.55266 40.4133 8.48953 40.4133 7.35875C40.4133 6.22781 40.8536 5.16469 41.6533 4.36516C42.4528 3.56531 43.5159 3.125 44.6469 3.125C45.7778 3.125 46.8408 3.56531 47.6405 4.36516L48.3469 5.07156C49.9975 6.72203 49.9975 9.40812 48.3469 11.0588C46.6961 12.7094 44.0102 12.7094 42.3597 11.0589ZM34.6425 25.543L50.1438 13.8636C52.2919 12.2453 55.2327 12.1695 57.4614 13.6748L66.1234 19.5259L58.4788 25.6755L52.4834 21.6256C52.0506 21.3331 51.5003 21.2763 51.0167 21.4744L35.8589 27.6816C35.2961 27.9116 34.6388 27.6927 34.3264 27.1719C34.325 27.1694 34.3234 27.167 34.322 27.1645C33.9997 26.6206 34.1373 25.9234 34.6425 25.543ZM7.79766 25.8848V24.8858C7.79766 22.5514 9.69688 20.6522 12.0312 20.6522C14.3656 20.6522 16.2648 22.5513 16.2648 24.8858V25.8848C16.2648 28.2192 14.3656 30.1186 12.0312 30.1186C9.69688 30.1186 7.79766 28.2194 7.79766 25.8848ZM16.7188 40.9895V49.1656L13.0267 51.6719H7.34375V47.448V39.0191C7.34375 37.305 8.42828 35.7666 10.0425 35.1905L30.0464 28.0517C30.6034 27.8531 31.2272 28.078 31.5287 28.5869C31.8602 29.1459 31.7002 29.8722 31.1647 30.2402L17.3962 39.7019C16.9722 39.9933 16.7188 40.4748 16.7188 40.9895ZM23.7944 45.8855C22.3862 45.8855 21.0247 46.2877 19.8438 47.0483V41.8116L32.9347 32.8155C33.6795 32.3036 34.217 31.5947 34.5242 30.8034C34.8139 30.8628 35.1098 30.8945 35.4078 30.8945C35.9572 30.8945 36.5122 30.7908 37.0433 30.5733L51.4273 24.6831L57.6361 28.877C59.0187 29.937 59.8439 31.6066 59.8439 33.3497V45.625H56.7709C56.4252 45.625 56.0892 45.7397 55.8155 45.9511L40.2839 57.9531L31.0938 61.6242V53.1847C31.0938 49.1598 27.8192 45.8855 23.7944 45.8855ZM72.6562 76.875H23.5938V67.9853L41.6459 60.7739C41.7806 60.7202 41.907 60.648 42.0217 60.5594L57.3042 48.75H72.6562V76.875ZM72.6562 45.625H69.5312V33.302C69.5312 32.4392 68.8317 31.7395 67.9688 31.7395C67.1058 31.7395 66.4062 32.4392 66.4062 33.302V45.625H62.9688V33.3497C62.9688 31.2852 62.2233 29.2875 60.918 27.7239L68.8013 21.3825C71.2328 23.3558 72.6562 26.3111 72.6562 29.4878V45.625Z" fill="white"/>
<path d="M66.719 55.052H63.0732C62.2103 55.052 61.5107 55.7517 61.5107 56.6145C61.5107 57.4773 62.2103 58.177 63.0732 58.177H65.1565V64.2187C65.1565 65.0815 65.8561 65.7812 66.719 65.7812C67.582 65.7812 68.2815 65.0815 68.2815 64.2187V56.6145C68.2815 55.7517 67.582 55.052 66.719 55.052Z" fill="white"/>
<path d="M67.8234 69.2111C67.5328 68.9204 67.1297 68.7532 66.7188 68.7532C66.3078 68.7532 65.9047 68.9204 65.6141 69.2111C65.3234 69.5016 65.1562 69.9047 65.1562 70.3157C65.1562 70.7266 65.3234 71.1297 65.6141 71.4204C65.9047 71.711 66.3078 71.8782 66.7188 71.8782C67.1297 71.8782 67.5328 71.7111 67.8234 71.4204C68.1141 71.1296 68.2812 70.7266 68.2812 70.3157C68.2812 69.9047 68.1141 69.5016 67.8234 69.2111Z" fill="white"/>
</svg>
