<svg width="91" height="90" viewBox="0 0 91 90" fill="none" xmlns="http://www.w3.org/2000/svg">
<g clip-path="url(#clip0)">
<path d="M61.4961 56.0742C60.5146 56.0742 59.7188 56.8612 59.7188 57.832V69.9609C59.7188 74.8072 55.7322 78.75 50.832 78.75H31.6424C30.6611 78.75 29.8658 79.5363 29.8651 80.5066L29.8626 84.0015L25.6204 79.8061C25.3458 79.1826 24.7173 78.75 23.9904 78.75H12.4414C7.54127 78.75 3.55469 74.8072 3.55469 69.9609V42.8906C3.55469 38.0443 7.54127 34.1016 12.4414 34.1016H30.3926C31.374 34.1016 32.1699 33.3146 32.1699 32.3437C32.1699 31.3729 31.374 30.5859 30.3926 30.5859H12.4414C5.58121 30.5859 0 36.1058 0 42.8906V69.9609C0 76.7457 5.58121 82.2656 12.4414 82.2656H23.0802L30.38 89.4851C30.72 89.8214 31.1744 90 31.6371 90C31.8658 90 32.0967 89.9562 32.3162 89.8664C32.9804 89.5946 33.4135 88.9541 33.4141 88.2434L33.4183 82.2656H50.832C57.6922 82.2656 63.2734 76.7457 63.2734 69.9609V57.832C63.2734 56.8612 62.4775 56.0742 61.4961 56.0742Z" fill="#0F4E82"/>
<path d="M65.1672 0H60.6689C46.4246 0 34.8359 11.4613 34.8359 25.5491C34.8359 39.6369 46.4246 51.098 60.6687 51.098H65.167C67.3903 51.098 69.5908 50.8187 71.7236 50.2668L78.3686 56.835C78.7086 57.1709 79.1629 57.3495 79.6254 57.3495C79.8545 57.3495 80.0855 57.3057 80.3054 57.2156C80.9694 56.9435 81.4023 56.3026 81.4023 55.5917V45.4217C84.2157 43.1684 86.5527 40.3219 88.1929 37.1421C90.0557 33.5304 91 29.63 91 25.5491C91 11.4613 79.4114 0 65.1672 0ZM78.5556 43.1604C78.11 43.4925 77.8477 44.0125 77.8477 44.5646V51.3497L73.4983 47.0505C73.1599 46.7162 72.706 46.536 72.2417 46.536C72.0676 46.536 71.8916 46.5615 71.7199 46.6137C69.6043 47.2567 67.3997 47.5826 65.1672 47.5826H60.6689C48.3845 47.5826 38.3906 37.6984 38.3906 25.5491C38.3906 13.3998 48.3846 3.51562 60.6689 3.51562H65.1672C77.4515 3.51562 87.4453 13.3998 87.4453 25.5491C87.4453 32.5331 84.2052 38.9522 78.5556 43.1604Z" fill="#0F4E82"/>
<path d="M70.9218 19.2342C70.6653 15.5542 67.6659 12.5877 63.9448 12.3341C61.8355 12.1908 59.8225 12.8945 58.2817 14.3171C56.7621 15.72 55.8906 17.7031 55.8906 19.7582C55.8906 20.729 56.6865 21.516 57.668 21.516C58.6494 21.516 59.4453 20.729 59.4453 19.7582C59.4453 18.658 59.8936 17.6383 60.7072 16.8872C61.5202 16.1368 62.5827 15.7653 63.7006 15.8416C65.6607 15.9752 67.2406 17.5377 67.3756 19.4761C67.5121 21.4337 66.2134 23.1638 64.2879 23.5899C62.7277 23.9351 61.6382 25.276 61.6382 26.8504V31.0736C61.6382 32.0444 62.4341 32.8314 63.4155 32.8314C64.3972 32.8314 65.1929 32.0444 65.1927 31.0736V26.9909C68.7741 26.1352 71.1768 22.8941 70.9218 19.2342Z" fill="#0F4E82"/>
<path d="M64.6726 36.784C64.342 36.4571 63.8835 36.269 63.416 36.269C62.9486 36.269 62.49 36.4571 62.1594 36.784C61.8289 37.111 61.6387 37.5645 61.6387 38.0268C61.6387 38.4909 61.829 38.9444 62.1594 39.2713C62.49 39.5983 62.9486 39.7846 63.416 39.7846C63.8835 39.7846 64.342 39.5983 64.6726 39.2713C65.0032 38.9426 65.1934 38.4909 65.1934 38.0268C65.1934 37.5645 65.003 37.111 64.6726 36.784Z" fill="#0F4E82"/>
<path d="M48.877 54.4922H11.375C10.3936 54.4922 9.59766 55.2792 9.59766 56.25C9.59766 57.2208 10.3936 58.0078 11.375 58.0078H48.877C49.8586 58.0078 50.6543 57.2208 50.6543 56.25C50.6543 55.2792 49.8584 54.4922 48.877 54.4922Z" fill="#0F4E82"/>
<path d="M50.1334 64.851C49.803 64.524 49.3444 64.3359 48.877 64.3359C48.4095 64.3359 47.951 64.524 47.6204 64.851C47.2896 65.1779 47.0996 65.6314 47.0996 66.0938C47.0996 66.5561 47.2898 67.0096 47.6204 67.3365C47.951 67.6635 48.4095 67.8516 48.877 67.8516C49.3444 67.8516 49.803 67.6635 50.1334 67.3365C50.4641 67.0096 50.6543 66.5578 50.6543 66.0938C50.6543 65.6314 50.4639 65.1779 50.1334 64.851Z" fill="#0F4E82"/>
<path d="M41.8861 64.3359H11.375C10.3936 64.3359 9.59766 65.1229 9.59766 66.0938C9.59766 67.0646 10.3936 67.8516 11.375 67.8516H41.8861C42.8678 67.8516 43.6635 67.0646 43.6635 66.0938C43.6635 65.1229 42.8676 64.3359 41.8861 64.3359Z" fill="#0F4E82"/>
<path d="M37.3242 44.6484H11.375C10.3936 44.6484 9.59766 45.4354 9.59766 46.4063C9.59766 47.3771 10.3936 48.1641 11.375 48.1641H37.3242C38.3058 48.1641 39.1016 47.3771 39.1016 46.4063C39.1016 45.4354 38.3057 44.6484 37.3242 44.6484Z" fill="#0F4E82"/>
</g>
<defs>
<clipPath id="clip0">
<rect width="91" height="90" fill="white"/>
</clipPath>
</defs>
</svg>
