<svg width="512" height="512" viewBox="0 0 512 512" fill="none" xmlns="http://www.w3.org/2000/svg">
<g clip-path="url(#clip0)">
<path d="M268.662 243.35C264.752 239.44 258.422 239.44 254.512 243.35C250.612 247.25 250.612 253.58 254.512 257.49C258.422 261.39 264.752 261.39 268.662 257.49C272.562 253.58 272.562 247.25 268.662 243.35Z" fill="#EEEEEE"/>
<path d="M395.933 116.071C376.393 96.5316 344.761 96.5306 325.22 116.071C305.731 135.56 305.73 167.28 325.223 186.785C344.719 206.269 376.439 206.277 395.933 186.783C415.471 167.245 415.475 135.612 395.933 116.071ZM381.791 172.64C370.098 184.334 351.064 184.334 339.365 172.642C327.67 160.94 327.669 141.906 339.363 130.213C351.086 118.49 370.066 118.488 381.791 130.213C393.514 141.935 393.516 160.916 381.791 172.64Z" fill="#EEEEEE"/>
<path d="M509.07 2.9291C507.106 0.966098 504.426 -0.097902 501.64 0.007098C499.379 0.088098 445.544 2.2521 381.549 24.8711C330.269 42.9771 287.526 68.9001 254.507 101.92C247.108 109.319 239.908 117.165 233.019 125.316C200.371 106.098 174.209 112.124 157.67 120.975C119.589 141.355 96.0181 196.691 96.0181 236.271C96.0211 240.315 98.4581 243.962 102.194 245.509C103.431 246.022 104.731 246.271 106.019 246.271C108.622 246.271 111.179 245.254 113.092 243.342C133.175 223.259 157.946 224.515 166.038 225.579L169.54 229.081C162.648 245.481 157.096 261.789 153.024 277.65C151.554 283.39 152.05 289.464 154.235 295.02C144.607 299.457 135.318 305.972 127.23 314.06C101.489 339.802 96.2621 402.536 96.0521 405.194C95.8221 408.111 96.8801 410.983 98.9491 413.052C100.832 414.934 103.379 415.981 106.019 415.981C106.281 415.981 106.544 415.971 106.807 415.95C109.465 415.741 172.201 410.514 197.942 384.773C206.027 376.688 212.541 367.4 216.978 357.774C222.86 360.087 228.914 360.372 234.358 358.977C250.212 354.906 266.518 349.356 282.92 342.463L286.422 345.965C287.485 354.058 288.741 378.829 268.659 398.91C265.8 401.77 264.944 406.071 266.492 409.807C268.039 413.544 271.685 415.98 275.73 415.98C315.31 415.98 370.645 392.409 391.025 354.328C399.876 337.791 405.902 311.629 386.684 278.98C394.831 272.094 402.678 264.894 410.08 257.492C443.1 224.472 469.022 181.729 487.128 130.453C509.748 66.4551 511.911 12.6191 511.992 10.3591C512.092 7.5841 511.033 4.8931 509.07 2.9291ZM118.376 214.762C124.588 184.699 142.631 151.71 167.111 138.608C183.47 129.854 201.351 130.712 220.363 141.119C204.166 162.421 190.085 185.371 178.348 209.606C178.199 209.514 176.399 207.251 173.055 206.497C171.68 206.186 145.221 200.495 118.376 214.762ZM183.8 370.63C170.05 384.38 137.795 391.632 117.408 394.593C120.37 374.205 127.623 341.951 141.372 328.202C149.072 320.502 158 314.664 166.974 311.376L200.626 345.028C197.338 354.002 191.501 362.93 183.8 370.63ZM229.39 339.603C226.496 340.344 223.144 339.256 220.652 336.768C207.715 323.831 202.654 318.77 201.066 317.183C198.154 314.271 191.013 307.13 175.24 291.356C172.746 288.857 171.658 285.506 172.397 282.617C175.6 270.143 179.789 257.345 184.883 244.424L267.578 327.119C254.655 332.214 241.859 336.402 229.39 339.603ZM373.394 344.891C360.292 369.37 327.304 387.414 297.242 393.625C306.827 375.588 308.94 352.627 305.438 338.704C304.625 335.47 302.515 333.844 302.397 333.653C326.63 321.916 349.579 307.835 370.883 291.638C381.29 310.652 382.147 328.535 373.394 344.891ZM395.94 243.35C386.929 252.36 377.226 261.065 367.1 269.222C342.758 288.822 315.966 305.424 287.382 318.64L193.362 224.622C206.578 196.036 223.18 169.244 242.778 144.905C250.942 134.772 259.646 125.068 268.653 116.062C298.278 86.4361 336.512 62.8581 382.324 45.8861L466.116 129.678C449.146 175.489 425.568 213.723 395.94 243.35ZM473.311 108.587L403.415 38.6911C441.496 26.8631 474.625 22.4341 491.161 20.8421C489.568 37.3811 485.138 70.5101 473.311 108.587Z" fill="#EEEEEE"/>
<path d="M240.371 413.049C236.464 409.144 230.132 409.146 226.228 413.051L197.948 441.341C194.044 445.247 194.045 451.579 197.95 455.483C201.857 459.387 208.189 459.387 212.093 455.481L240.373 427.191C244.277 423.285 244.276 416.953 240.371 413.049Z" fill="#EEEEEE"/>
<path d="M98.954 271.631C95.05 267.725 88.719 267.725 84.812 271.629L56.522 299.909C52.616 303.813 52.615 310.145 56.519 314.051C60.422 317.955 66.7531 317.959 70.6611 314.053L98.951 285.773C102.857 281.869 102.858 275.537 98.954 271.631Z" fill="#EEEEEE"/>
<path d="M169.663 427.2C165.76 423.295 159.427 423.295 155.521 427.199L87.7809 494.929C83.8749 498.834 83.8749 505.166 87.7799 509.071C91.6829 512.976 98.0159 512.978 101.922 509.072L169.662 441.342C173.568 437.437 173.568 431.105 169.663 427.2Z" fill="#EEEEEE"/>
<path d="M89.6629 427.2C85.7589 423.295 79.426 423.295 75.521 427.199L7.78094 494.929C3.87494 498.834 3.87494 505.166 7.77994 509.071C11.6829 512.976 18.0159 512.978 21.9219 509.072L89.6619 441.342C93.5679 437.437 93.5679 431.105 89.6629 427.2Z" fill="#EEEEEE"/>
<path d="M84.8021 342.338C80.8981 338.434 74.5651 338.434 70.6601 342.339L2.93009 410.079C-0.97491 413.985 -0.97491 420.316 2.93109 424.222C6.83609 428.127 13.1681 428.127 17.0731 424.221L84.8031 356.481C88.7081 352.575 88.7081 346.244 84.8021 342.338Z" fill="#EEEEEE"/>
<path d="M311.083 200.919C307.177 197.014 300.847 197.014 296.94 200.919L282.8 215.059C278.895 218.964 278.895 225.296 282.8 229.202C286.706 233.107 293.037 233.107 296.943 229.202L311.083 215.062C314.988 211.157 314.988 204.825 311.083 200.919Z" fill="#EEEEEE"/>
</g>
<defs>
<clipPath id="clip0">
<rect width="512.001" height="512.001" fill="white"/>
</clipPath>
</defs>
</svg>
