<svg width="81" height="90" viewBox="0 0 81 90" fill="none" xmlns="http://www.w3.org/2000/svg">
<path d="M79.1375 58.8242C81.0322 57.0666 81.0322 54.2171 79.1375 52.4603C77.2184 50.7605 74.1973 50.7605 72.2782 52.4603L70.7744 53.8553C68.3524 52.4771 65.6534 51.5719 62.8414 51.1941C62.3725 51.1296 61.9036 51.1011 61.4347 51.0666V49.4936H66.2849C67.1777 49.4936 67.9016 48.8221 67.9016 47.9938V41.9946C67.9016 41.1663 67.1777 40.4948 66.2849 40.4948H61.4362V10.4986C61.4362 8.01386 59.2645 5.99922 56.586 5.99922H38.8018V4.49942C38.8018 2.01463 36.6301 0 33.9516 0H25.8679C23.1894 0 21.0177 2.01463 21.0177 4.49942V5.99922H4.85023C2.17171 5.99922 0 8.01386 0 10.4986V71.9907C0 74.4755 2.17171 76.4901 4.85023 76.4901H39.8328C42.325 83.6625 49.0509 88.8591 57.1055 89.8353C65.16 90.8115 73.1 87.3923 77.4939 81.0547C81.8887 74.7164 81.9502 66.5964 77.6518 60.2024L79.1375 58.8242ZM74.566 54.5811C75.2054 54.0143 76.2119 54.0143 76.8513 54.5811C77.4829 55.1669 77.4829 56.116 76.8513 56.7019L75.7067 57.7638C75.0009 57.0058 74.2336 56.2991 73.411 55.6503L74.566 54.5811ZM58.2028 51.0564C57.1133 51.1296 56.0318 51.2834 54.9693 51.517V49.4936H58.2028V51.0564ZM43.7926 57.8927L42.509 56.6924C41.9114 56.1021 41.928 55.1779 42.5453 54.606C43.1626 54.0333 44.1589 54.0194 44.7952 54.5738L46.0709 55.7565C45.2538 56.4141 44.492 57.1274 43.7926 57.8927ZM48.6965 53.9586L47.0798 52.4588C45.8617 51.2893 44.0586 50.8198 42.3621 51.2314C40.6665 51.6437 39.3426 52.8718 38.8981 54.4449C38.4545 56.0186 38.9605 57.6913 40.2212 58.8213L41.8735 60.3474C40.4383 62.5342 39.4831 64.9618 39.0623 67.4913H9.70046V14.9981H51.7358V52.5079C50.6811 52.9136 49.6651 53.3984 48.6965 53.9586ZM64.6697 46.494H54.9693V43.4944H64.6697V46.494ZM24.2511 4.49942C24.2511 3.67116 24.9751 2.99961 25.8679 2.99961H33.9516C34.8444 2.99961 35.5684 3.67116 35.5684 4.49942V5.99922H24.2511V4.49942ZM4.85023 73.4905C3.95739 73.4905 3.23349 72.819 3.23349 71.9907V10.4986C3.23349 9.67038 3.95739 8.99884 4.85023 8.99884H56.586C57.4789 8.99884 58.2028 9.67038 58.2028 10.4986V40.4948H54.9693V14.9981C54.9693 13.3415 53.5215 11.9984 51.7358 11.9984H9.70046C7.91478 11.9984 6.46697 13.3415 6.46697 14.9981V67.4913C6.46697 69.1478 7.91478 70.4909 9.70046 70.4909H38.8224C38.8129 71.4949 38.8879 72.4975 39.0458 73.4905H4.85023ZM77.4189 72.8666C76.0532 81.5754 67.5582 87.757 58.1151 86.9126C48.672 86.069 41.6051 78.4967 42.0566 69.7058C42.5074 60.915 50.318 54.0011 59.8045 53.993H59.8306C64.9918 53.996 69.8973 56.0787 73.2729 59.7C76.6485 63.3221 78.1618 68.1255 77.4189 72.8636V72.8666ZM60.8505 57.0044C59.9576 56.9531 59.1887 57.5822 59.1327 58.4104C59.0774 59.2387 59.7556 59.9527 60.6484 60.004C65.4742 60.2852 69.5744 63.3793 70.8533 67.7044C72.133 72.0302 70.3086 76.6315 66.3125 79.158C62.3172 81.6838 57.0336 81.5761 53.1615 78.89L57.8112 74.5765C58.4404 74.8475 59.1256 74.9888 59.8195 74.9903C62.498 74.9903 64.6697 72.9757 64.6697 70.4909C64.6697 68.0061 62.498 65.9915 59.8195 65.9915C57.141 65.9915 54.9693 68.0061 54.9693 70.4909C54.9732 71.1837 55.1532 71.8655 55.4927 72.4828L49.6501 77.8998C49.0186 78.4857 49.0186 79.4348 49.6501 80.0207C54.2272 84.2667 61.2776 85.1975 66.9496 82.3048C72.6216 79.4121 75.552 73.3909 74.1397 67.5308C72.7266 61.6707 67.3111 57.3808 60.8505 57.0044ZM59.8195 68.9911C60.7123 68.9911 61.4362 69.6626 61.4362 70.4909C61.4362 71.3192 60.7123 71.9907 59.8195 71.9907C58.9267 71.9907 58.2028 71.3192 58.2028 70.4909C58.2028 69.6626 58.9267 68.9911 59.8195 68.9911ZM46.8856 26.9965H40.4186C39.5257 26.9965 38.8018 27.6681 38.8018 28.4963V44.9942H35.5684V32.9957C35.5684 32.1675 34.8444 31.4959 33.9516 31.4959H27.4846C26.5918 31.4959 25.8679 32.1675 25.8679 32.9957V44.9942H22.6344V37.4952C22.6344 36.6669 21.9105 35.9953 21.0177 35.9953H14.5507C13.6578 35.9953 12.9339 36.6669 12.9339 37.4952V46.494C12.9339 47.3223 13.6578 47.9938 14.5507 47.9938H46.8856C47.7784 47.9938 48.5023 47.3223 48.5023 46.494V28.4963C48.5023 27.6681 47.7784 26.9965 46.8856 26.9965ZM16.1674 44.9942V38.995H19.4009V44.9942H16.1674ZM29.1014 44.9942V34.4955H32.3349V44.9942H29.1014ZM42.0353 44.9942V29.9961H45.2688V44.9942H42.0353ZM14.5507 53.993H17.7842V56.9926H14.5507V53.993ZM21.0177 53.993H24.2511V56.9926H21.0177V53.993ZM27.4846 53.993H35.5684V56.9926H27.4846V53.993Z" fill="#0F4E82"/>
</svg>
