<svg width="80" height="80" viewBox="0 0 80 80" fill="none" xmlns="http://www.w3.org/2000/svg">
<g clip-path="url(#clip0)">
<path d="M78.8122 47.0189L69.6869 27.4736L73.626 28.6035C74.4911 28.8518 75.3938 28.3521 75.6414 27.4863C75.8897 26.6212 75.3899 25.7192 74.5248 25.4709L47.1357 17.6112C47.1414 17.4941 47.1446 17.3769 47.1446 17.2592C47.1452 14.0069 44.9497 11.1646 41.8025 10.3453C38.6552 9.52543 35.3521 10.9354 33.7664 13.7746L6.37464 5.91543C5.50954 5.66716 4.60688 6.16751 4.35861 7.03261C4.11099 7.89772 4.6107 8.79974 5.4758 9.048L10.8816 10.5993L1.09172 31.568C0.438599 31.7966 0.00063743 32.4128 8.57363e-07 33.1054C-0.00190887 38.3959 3.18668 43.1651 8.0762 45.185C12.9657 47.2055 18.5911 46.0774 22.324 42.3287C24.8111 39.904 26.216 36.5791 26.2223 33.1054C26.2223 32.3759 25.7366 31.7355 25.0345 31.5375L15.936 12.0501L32.865 16.9071C32.8592 17.0243 32.8561 17.1414 32.8561 17.2598C32.8612 20.5757 35.1433 23.4536 38.3707 24.2137V56.4937H33.8727C30.2786 56.4937 27.2892 59.378 27.2892 62.9727V63.9187C24.2649 64.5553 22.0935 67.2149 22.0744 70.3061V72.5875C22.1018 73.5074 22.8485 74.2433 23.769 74.2566H56.2317C57.1521 74.2433 57.8988 73.5074 57.9262 72.5875V70.3061C57.9071 67.2149 55.7358 64.5553 52.7114 63.9187V62.9727C52.7114 59.378 49.7214 56.4937 46.128 56.4937H41.6299V24.2137C43.583 23.7522 45.2527 22.4931 46.2343 20.7431L64.6796 26.0362L54.8694 47.0495C54.2156 47.278 53.7777 47.8942 53.777 48.5862C53.7758 53.8767 56.9643 58.6459 61.8539 60.6658C66.7434 62.6863 72.3681 61.5589 76.101 57.8101C78.5881 55.3848 79.9936 52.06 80 48.5862C79.9994 47.8567 79.5143 47.2169 78.8122 47.0189ZM13.0701 13.5371L21.4086 31.3974H4.73228L13.0701 13.5371ZM13.0701 42.8373C8.27035 42.8653 4.1651 39.3947 3.39484 34.6567H22.8199C21.9904 39.3909 17.8769 42.843 13.0701 42.8373ZM54.667 70.3061V70.9974H25.3337V70.3061C25.3337 68.509 26.8615 67.0863 28.6579 67.0863H51.3428C53.1392 67.0863 54.667 68.509 54.667 70.3061ZM49.4522 62.9727V63.827H30.5485V62.9727C30.5485 61.1757 32.0763 59.7529 33.8727 59.7529H46.128C47.9244 59.7529 49.4522 61.1757 49.4522 62.9727ZM40.0003 21.1442C38.3433 21.1454 36.8677 20.0964 36.3247 18.531C35.7818 16.9657 36.2904 15.2285 37.5915 14.203C38.8933 13.1775 40.7018 13.0896 42.0966 13.9846C43.4913 14.879 44.1654 16.5589 43.7765 18.1695C43.7351 18.2726 43.7045 18.3789 43.6848 18.4877C43.1545 20.0728 41.6713 21.1423 40.0003 21.1442ZM75.1862 46.8789H58.5099L66.8478 29.0186L75.1862 46.8789ZM66.8478 58.3187C62.048 58.3468 57.9428 54.8762 57.1725 50.1381H76.5975C75.7681 54.8723 71.6545 58.3245 66.8478 58.3187Z" fill="white"/>
</g>
<defs>
<clipPath id="clip0">
<rect width="80" height="80" fill="white"/>
</clipPath>
</defs>
</svg>
