<svg width="80" height="80" viewBox="0 0 80 80" fill="none" xmlns="http://www.w3.org/2000/svg">
<path d="M28.75 65H31.25V67.5H28.75V65Z" fill="white"/>
<path d="M28.75 60H31.25V62.5H28.75V60Z" fill="white"/>
<path d="M67.4441 47.4927L65.1941 47.5089L64.4429 45.2739L63.7404 45.1289C62.9104 44.9577 62.0904 44.9577 61.2604 45.1289L60.5529 45.2752L59.8166 47.5064L57.4241 47.4964L57.0679 48.1514C56.6641 48.8914 56.3554 49.8914 56.2591 50.7602L56.1816 51.4677L58.1404 52.9427L57.3891 55.3402L57.8591 55.8689C58.4291 56.5102 59.1016 57.0177 59.8566 57.3789L60.5416 57.7064L62.5004 56.2277L64.4604 57.7052L65.1454 57.3777C65.9004 57.0177 66.5729 56.5102 67.1429 55.8677L67.6129 55.3389L66.8616 52.9414L68.8204 51.4664L68.7429 50.7589C68.6629 50.0252 68.3454 49.1477 67.8016 48.1502L67.4441 47.4927ZM63.9491 52.0052L64.7841 54.6727C64.7541 54.6977 64.7216 54.7227 64.6891 54.7464L62.5004 53.0977L60.3116 54.7464C60.2791 54.7227 60.2466 54.6977 60.2166 54.6727L61.0516 52.0052L58.8729 50.3652C58.9054 50.2427 58.9429 50.1214 58.9829 50.0027L61.6229 50.0139L62.4504 47.5002C62.4854 47.5002 62.5204 47.4989 62.5554 47.5002L63.4029 50.0227L65.9329 50.0039C65.9929 50.1402 66.0466 50.2702 66.0904 50.3939L63.9491 52.0052Z" fill="white"/>
<path d="M62.5 40C56.2963 40 51.25 45.0475 51.25 51.25C51.25 57.4525 56.2963 62.5 62.5 62.5C68.7037 62.5 73.75 57.4525 73.75 51.25C73.75 45.0475 68.7037 40 62.5 40ZM62.5 60C57.6763 60 53.75 56.075 53.75 51.25C53.75 46.425 57.6763 42.5 62.5 42.5C67.3237 42.5 71.25 46.425 71.25 51.25C71.25 56.075 67.3237 60 62.5 60Z" fill="white"/>
<path d="M62.5 35C55.8012 35 50.0387 39.075 47.555 44.8763C46.9562 44.48 46.335 44.1238 45.6825 43.8275C45.7638 43.735 45.8312 43.6475 45.9212 43.5475C46.5887 42.8238 47.5 41.8312 47.5 39.9887C47.5 38.1462 46.5863 37.1562 45.9175 36.4337C45.345 35.815 45 35.4412 45 34.5762C45 33.7112 45.345 33.3375 45.9175 32.7187C46.5863 31.9962 47.5 31.0062 47.5 29.1637C47.5 27.3212 46.5863 26.3312 45.9175 25.6087C45.345 24.9887 45 24.6137 45 23.75V17.6962C45 8.6275 37.6225 1.25 28.5538 1.25C23.53 1.25 18.85 3.5 15.7113 7.4225L15.525 7.655C12.2513 8.66875 10 11.6925 10 15.1538V23.75C10 24.6137 9.655 24.9887 9.0825 25.6087C8.41375 26.3312 7.5 27.3212 7.5 29.1637C7.5 31.0062 8.41375 31.9962 9.0825 32.7187C9.655 33.3375 10 33.7125 10 34.5762C10 35.44 9.655 35.815 9.0825 36.4337C8.41375 37.1575 7.5 38.1475 7.5 39.9887C7.5 41.83 8.41125 42.8238 9.0775 43.5475C9.16875 43.6475 9.23625 43.735 9.3175 43.8275C4.4475 46.04 1.25 50.9263 1.25 56.3438V72.5H51.25V77.8512L62.5 75.0387L73.75 77.8512V62.9488C76.825 59.99 78.75 55.8437 78.75 51.25C78.75 42.29 71.46 35 62.5 35V35ZM10.9175 38.1312C11.5863 37.4087 12.5 36.4187 12.5 34.5762C12.5 32.7337 11.5863 31.7437 10.9175 31.0212C10.345 30.4025 10 30.0275 10 29.1637C10 28.3 10.345 27.925 10.9175 27.305C11.5863 26.5825 12.5 25.5925 12.5 23.75V15.1538C12.5 12.6938 14.1662 10.56 16.5525 9.9625L16.9625 9.86L17.6637 8.98375C20.325 5.6575 24.295 3.75 28.5538 3.75C36.2438 3.75 42.5 10.0062 42.5 17.6962V23.75C42.5 25.5925 43.4137 26.5825 44.0825 27.305C44.655 27.925 45 28.3 45 29.1637C45 30.0275 44.655 30.4025 44.0825 31.0212C43.4137 31.745 42.5 32.735 42.5 34.5762C42.5 36.4175 43.4137 37.4087 44.0825 38.1312C44.655 38.75 45 39.125 45 39.9887C45 40.8562 44.655 41.2338 44.0825 41.8563C43.8125 42.1513 43.5087 42.4925 43.2387 42.905L34.1687 39.7038C33.245 39.3775 32.6262 38.5362 32.5362 37.5738C37.1337 34.3175 40 28.9925 40 23.1413V17.5H36.5525C33.4663 17.5 30.5663 16.2988 28.3838 14.1163L27.5 13.2325L26.6162 14.1163C24.4337 16.2988 21.5338 17.5 18.4475 17.5H15V23.1413C15 28.9925 17.8663 34.3175 22.4638 37.575C22.3725 38.5362 21.755 39.3787 20.8313 39.705L11.7613 42.9063C11.4913 42.4938 11.1888 42.1525 10.9175 41.8575C10.345 41.2338 10 40.8575 10 39.9887C10 39.125 10.345 38.75 10.9175 38.1312V38.1312ZM27.5 54.8175C26.7537 54.115 26.05 53.3725 25.4037 52.5838L27.5 49.65L29.5963 52.5838C28.95 53.3725 28.2463 54.115 27.5 54.8175ZM27.5 37.4262C21.5013 35.2437 17.5 29.5563 17.5 23.1413V20H18.4475C21.7988 20 24.97 18.835 27.5 16.6963C30.03 18.835 33.2025 20 36.5525 20H37.5V23.1413C37.5 29.5563 33.4987 35.2437 27.5 37.4262ZM27.105 39.9362L27.5 40.0675L27.895 39.9362C28.7187 39.6612 29.5075 39.3237 30.2662 38.9425C30.415 39.3812 30.6225 39.795 30.8825 40.1737L27.5 45.2462L24.1175 40.1713C24.3775 39.7925 24.585 39.38 24.7325 38.9412C25.4912 39.3237 26.28 39.6612 27.105 39.9362V39.9362ZM21.6637 42.0612C21.8537 41.9937 22.0325 41.9063 22.2112 41.8188L25.9825 47.475L23.8512 50.4588C22.2712 48.0263 21.15 45.3112 20.5413 42.4575L21.6637 42.0612ZM31.15 50.46L29.0188 47.4762L32.79 41.82C32.9675 41.9075 33.1463 41.995 33.3363 42.0625L34.46 42.4587C33.8513 45.3125 32.73 48.0275 31.15 50.46V50.46ZM3.75 56.3438C3.75 51.5825 6.76625 47.3188 11.2563 45.735L18.165 43.2963C19.3025 48.325 21.9137 52.9363 25.6487 56.5013L23.75 58.1887V70H13.75V52.5H11.25V70H3.75V56.3438ZM43.75 70V53.75H41.25V70H26.25V59.3113L28.6888 57.1425C32.7863 53.5013 35.63 48.625 36.835 43.2963L43.7437 45.735C44.8225 46.1163 45.825 46.665 46.7413 47.3562C46.4325 48.6062 46.25 49.905 46.25 51.25C46.25 55.8437 48.175 59.99 51.25 62.9488V70H43.75ZM71.25 74.6488L62.5 72.4613L53.75 74.6488V64.9213C56.2788 66.545 59.2775 67.5 62.5 67.5C65.7225 67.5 68.7212 66.545 71.25 64.9213V74.6488ZM62.5 65C54.9187 65 48.75 58.8313 48.75 51.25C48.75 43.6687 54.9187 37.5 62.5 37.5C70.0813 37.5 76.25 43.6687 76.25 51.25C76.25 58.8313 70.0813 65 62.5 65Z" fill="white"/>
<path d="M75 1.25H51.25C49.1825 1.25 47.5 2.9325 47.5 5V21.25C47.5 23.3175 49.1825 25 51.25 25H58.75V28.8075C58.75 30.8437 60.4062 32.5 62.4425 32.5C63.68 32.5 64.8287 31.885 65.515 30.8562L69.4187 25H75C77.0675 25 78.75 23.3175 78.75 21.25V5C78.75 2.9325 77.0675 1.25 75 1.25ZM76.25 21.25C76.25 21.9387 75.69 22.5 75 22.5H68.0813L63.435 29.4688C63.2125 29.8013 62.8412 30 62.4425 30C61.785 30 61.25 29.465 61.25 28.8075V22.5H51.25C50.56 22.5 50 21.9387 50 21.25V5C50 4.31125 50.56 3.75 51.25 3.75H75C75.69 3.75 76.25 4.31125 76.25 5V21.25Z" fill="white"/>
<path d="M61.25 15.7325L58.3837 12.8662L56.6162 14.6337L61.25 19.2675L72.1337 8.38371L70.3662 6.61621L61.25 15.7325Z" fill="white"/>
</svg>
