<svg width="86" height="86" viewBox="0 0 86 86" fill="none" xmlns="http://www.w3.org/2000/svg">
<path d="M75.8747 39.8523C72.9483 38.3893 67.4616 38.3723 67.2295 38.3723C66.5338 38.3723 65.9697 38.9364 65.9697 39.6321C65.9697 40.3278 66.5338 40.8918 67.2295 40.8918C68.6453 40.892 72.756 41.11 74.7479 42.1059C74.9288 42.1965 75.121 42.2391 75.3103 42.2391C75.7724 42.2391 76.2173 41.9838 76.438 41.5426C76.7493 40.9202 76.497 40.1635 75.8747 39.8523Z" fill="white"/>
<path d="M82.1555 57.788L76.9527 56.3015C76.7281 56.2374 76.5712 56.0294 76.5712 55.7958V54.0591C76.9945 53.7659 77.3983 53.4376 77.7757 53.0713C79.6049 51.2962 80.6122 48.9153 80.6122 46.3668V43.9704L81.1153 42.9645C81.6674 41.8601 81.9592 40.6236 81.9592 39.3891V32.8971C81.9592 32.2014 81.3951 31.6373 80.6994 31.6373H68.5766C64.1684 31.6373 60.582 35.2238 60.582 39.632V39.707C60.582 40.7337 60.8247 41.7618 61.2837 42.6799L61.9289 43.9703V46.0279C61.9289 49.2888 63.5359 52.2147 65.9699 53.9753L65.9702 55.7954C65.9702 56.0761 65.9702 56.1923 64.93 56.4896L62.3913 57.2149L55.0476 54.5446C55.0739 54.198 54.957 53.8456 54.7042 53.5801L52.3575 51.1146V46.9759C52.6056 46.7715 52.8502 46.5615 53.0872 46.3395C56.0476 43.5646 57.7455 39.6469 57.7455 35.591V32.2857C58.6394 30.3404 59.0924 28.282 59.0924 26.162V12.6926C59.0924 11.9969 58.5284 11.4329 57.8326 11.4329H38.975C32.3385 11.4329 26.9395 16.832 26.9395 23.4683V26.1624C26.9395 28.2823 27.3925 30.3408 28.2864 32.286V35.1299C28.2864 39.8391 30.3803 44.0816 33.6744 46.8786V51.1148L31.3277 53.5802C31.0749 53.8458 30.958 54.1982 30.9844 54.5447L23.2334 57.3631C22.6718 57.5673 22.1499 57.844 21.676 58.1791L20.4589 57.5705C24.082 55.9935 25.2297 53.7754 25.2848 53.6652C25.4622 53.3107 25.4622 52.8931 25.2848 52.5385C24.3766 50.7221 24.2666 47.3928 24.1783 44.7177C24.1489 43.8271 24.121 42.9858 24.0677 42.2366C23.6382 36.1941 19.0446 31.6373 13.3824 31.6373C7.72018 31.6373 3.1264 36.194 2.69707 42.2366C2.64383 42.986 2.61595 43.8273 2.58655 44.7181C2.4982 47.393 2.38801 50.7219 1.47997 52.5383C1.3026 52.8929 1.3026 53.3105 1.47997 53.6651C1.53507 53.7753 2.68044 55.9888 6.31075 57.5677L2.93005 59.2579C1.1227 60.1623 0 61.9789 0 63.9994V73.3063C0 74.0021 0.564039 74.5661 1.25977 74.5661C1.95549 74.5661 2.51953 74.0021 2.51953 73.3063V63.9994C2.51953 62.9391 3.1086 61.9859 4.05678 61.5117L8.26658 59.4069L9.73093 60.7985C10.7549 61.7716 12.0684 62.2579 13.3824 62.2579C14.6961 62.2579 16.0103 61.7712 17.0339 60.7985L18.4981 59.4071L19.8707 60.0934C19.2244 61.1276 18.8575 62.3403 18.8575 63.6107V73.3067C18.8575 74.0024 19.4216 74.5664 20.1173 74.5664C20.813 74.5664 21.377 74.0024 21.377 73.3067V63.6107C21.377 61.8813 22.469 60.3222 24.0944 59.7311L32.2665 56.7596L35.6683 61.8626C36.1032 62.515 36.8001 62.9334 37.5803 63.0107C37.6673 63.0193 37.7538 63.0235 37.8402 63.0235C38.5285 63.0235 39.1878 62.7525 39.6806 62.2599L41.756 60.1844V73.3068C41.756 74.0026 42.3201 74.5666 43.0158 74.5666C43.7115 74.5666 44.2756 74.0026 44.2756 73.3068V60.1844L46.351 62.2599C46.8436 62.7527 47.5029 63.0236 48.1914 63.0236C48.2776 63.0236 48.3643 63.0194 48.4511 63.0109C49.2315 62.9336 49.9284 62.5152 50.3632 61.8628L53.7653 56.7599L61.9371 59.7314C63.5624 60.3225 64.6545 61.8816 64.6545 63.611V73.307C64.6545 74.0027 65.2186 74.5668 65.9143 74.5668C66.61 74.5668 67.1741 74.0027 67.1741 73.307V63.611C67.1741 61.8594 66.4782 60.2167 65.3108 59.0018L65.622 58.9129C65.936 58.8232 66.3643 58.7004 66.7943 58.4896L70.0107 61.7061V73.307C70.0107 74.0027 70.5748 74.5668 71.2705 74.5668C71.9662 74.5668 72.5303 74.0027 72.5303 73.307V61.7061L75.7243 58.512C75.8942 58.5983 76.0725 58.6712 76.2603 58.7248L81.4633 60.2113C82.6509 60.5506 83.4805 61.6503 83.4805 62.8856V73.307C83.4805 74.0027 84.0445 74.5668 84.7402 74.5668C85.436 74.5668 86 74.0027 86 73.307V62.8856C86 60.531 84.4191 58.4349 82.1555 57.788ZM8.08182 55.563C5.72538 54.715 4.54339 53.5846 4.03881 52.9673C4.38281 52.068 4.60587 51.038 4.75688 49.9508C5.45159 51.6165 6.61511 53.0386 8.08182 54.0531V55.563ZM15.2986 58.9724C14.2241 59.9933 12.5409 59.9931 11.4667 58.9722L10.2951 57.8589C10.4928 57.4885 10.6015 57.0686 10.6015 56.6287V55.286C11.4803 55.5606 12.4146 55.7087 13.3827 55.7087C14.3497 55.7087 15.2835 55.5599 16.1638 55.2868L16.1636 56.6285C16.1636 57.0686 16.2721 57.4887 16.47 57.8593L15.2986 58.9724ZM13.3831 53.1892C9.62125 53.1892 6.56103 50.1288 6.56103 46.3672C6.56103 45.6714 5.99699 45.1074 5.30126 45.1074C5.23071 45.1074 5.16185 45.1146 5.09449 45.1259C5.09819 45.0175 5.10172 44.909 5.10541 44.8017C5.13346 43.9355 5.1605 43.1173 5.21039 42.4155C5.3713 40.152 6.27582 38.0662 7.7573 36.542C9.25205 35.0041 11.2499 34.1572 13.3827 34.1572C15.5156 34.1572 17.5133 35.0041 19.0082 36.542C20.4897 38.0662 21.3942 40.152 21.5551 42.4155C21.6048 43.1171 21.632 43.9352 21.6606 44.8012C21.6631 44.8756 21.6656 44.951 21.6681 45.0259C20.2975 42.9142 18.1808 41.358 15.4457 40.4792C12.919 39.6674 10.7458 39.7176 10.6541 39.72C10.3242 39.7292 10.0111 39.8673 9.78216 40.1048L7.50921 42.4621C7.0263 42.9629 7.04075 43.7605 7.54163 44.2434C8.04251 44.7263 8.84003 44.7117 9.32294 44.211L11.2143 42.2496C12.8431 42.3292 18.0832 42.9386 20.1211 47.4262C19.6083 50.7332 16.766 53.1892 13.3831 53.1892ZM18.683 55.5672L18.6832 54.0647C20.1487 53.0557 21.3139 51.6363 22.0091 49.958C22.1601 51.0427 22.383 52.0704 22.7263 52.9677C22.2246 53.5791 21.0371 54.7196 18.683 55.5672ZM30.806 35.1297V32.0042C30.806 31.8145 30.7631 31.6272 30.6807 31.4564C29.8701 29.7777 29.459 27.9966 29.459 26.1624V23.4685C29.459 18.2213 33.728 13.9526 38.975 13.9526H56.5729V26.1625C56.5729 27.9968 56.1619 29.7779 55.3512 31.4566C55.2688 31.6274 55.2259 31.8147 55.2259 32.0043V35.5913C55.2259 39.0029 53.8545 42.1673 51.3642 44.5015C51.0533 44.7928 50.7306 45.0659 50.397 45.3204C50.3896 45.3254 50.3826 45.331 50.3753 45.3362C48.0424 47.1074 45.1849 47.9682 42.2008 47.7749C35.8111 47.3612 30.806 41.8068 30.806 35.1297ZM37.8991 60.4781C37.8904 60.4868 37.8701 60.5074 37.8289 60.5031C37.7879 60.4991 37.7718 60.475 37.7649 60.4646L33.847 54.5877L35.1078 53.263L41.0514 57.3256L37.8991 60.4781ZM43.016 55.6165L36.1939 50.9534V48.6018C37.9591 49.5561 39.9356 50.1528 42.0377 50.2889C42.3698 50.3104 42.6998 50.321 43.0289 50.321C45.4377 50.321 47.756 49.7452 49.838 48.6522V50.9534L43.016 55.6165ZM48.267 60.465C48.2601 60.4754 48.244 60.4994 48.203 60.5034C48.1618 60.5086 48.1417 60.487 48.1328 60.4784L44.9805 57.3261L50.9241 53.2633L52.185 54.5881L48.267 60.465ZM71.2705 59.402L68.4117 56.5434C68.4615 56.3168 68.4898 56.0687 68.4896 55.7951L68.4894 55.2635C69.2827 55.5238 70.1189 55.6783 70.9841 55.7042C71.0812 55.7072 71.1774 55.7086 71.2742 55.7086C72.2303 55.7086 73.1635 55.5641 74.0517 55.2885V55.7958C74.0517 56.047 74.0833 56.2933 74.1427 56.5299L71.2705 59.402ZM76.0211 51.2633C74.686 52.559 72.9221 53.2433 71.0599 53.1859C67.4143 53.0765 64.4484 49.8655 64.4484 46.0282V43.6731C64.4484 43.4774 64.4029 43.2846 64.3154 43.1097L63.5372 41.5534C63.2522 40.9831 63.1015 40.3448 63.1015 39.7072V39.6321C63.1015 36.6131 65.5577 34.157 68.5766 34.157H79.4396V39.3892C79.4396 40.2348 79.2398 41.0815 78.8617 41.8379L78.2257 43.1097C78.1382 43.2848 78.0927 43.4774 78.0927 43.6731V46.367C78.0927 48.2281 77.357 49.9669 76.0211 51.2633Z" fill="white"/>
<path d="M79.3525 63.9648C78.6568 63.9648 78.0928 64.5289 78.0928 65.2246V73.3064C78.0928 74.0022 78.6568 74.5662 79.3525 74.5662C80.0483 74.5662 80.6123 74.0022 80.6123 73.3064V65.2246C80.6123 64.5291 80.0483 63.9648 79.3525 63.9648Z" fill="white"/>
<path d="M6.64746 65.6301C5.95173 65.6301 5.3877 66.1942 5.3877 66.8899V73.3065C5.3877 74.0022 5.95173 74.5662 6.64746 74.5662C7.34319 74.5662 7.90723 74.0022 7.90723 73.3065V66.8899C7.90723 66.1943 7.34319 65.6301 6.64746 65.6301Z" fill="white"/>
<path d="M53.3354 26.6188C48.5707 21.8542 38.602 22.765 34.5368 23.3778C33.2564 23.5708 32.3271 24.6544 32.3271 25.9543V28.8564C32.3271 29.5522 32.8912 30.1162 33.5869 30.1162C34.2826 30.1162 34.8467 29.5522 34.8467 28.8564V25.9541C34.8467 25.9113 34.8749 25.8747 34.9125 25.8689C36.5363 25.6242 39.7584 25.2466 43.0968 25.4692C47.0253 25.7307 49.8707 26.7168 51.5539 28.4002C52.0459 28.8922 52.8435 28.8922 53.3354 28.4002C53.8273 27.9082 53.8273 27.1106 53.3354 26.6188Z" fill="white"/>
<path d="M28.1992 66.6589C27.5035 66.6589 26.9395 67.223 26.9395 67.9187V73.3066C26.9395 74.0024 27.5035 74.5664 28.1992 74.5664C28.8949 74.5664 29.459 74.0024 29.459 73.3066V67.9187C29.459 67.2231 28.8949 66.6589 28.1992 66.6589Z" fill="white"/>
<path d="M57.833 66.6589C57.1373 66.6589 56.5732 67.223 56.5732 67.9187V73.3066C56.5732 74.0024 57.1373 74.5664 57.833 74.5664C58.5287 74.5664 59.0928 74.0024 59.0928 73.3066V67.9187C59.0928 67.2231 58.5287 66.6589 57.833 66.6589Z" fill="white"/>
</svg>
