<svg width="80" height="80" viewBox="0 0 80 80" fill="none" xmlns="http://www.w3.org/2000/svg">
<path d="M37.8546 12.2583C36.5198 12.2583 35.2649 12.7783 34.3213 13.7225C33.3771 14.6661 32.8571 15.921 32.8577 17.2559C32.8577 20.0665 31.8427 22.724 29.9896 24.8157C30.1086 24.2419 30.1715 23.6481 30.1715 23.0396C30.1715 18.2172 26.2488 14.2938 21.4264 14.2938C16.604 14.2938 12.6807 18.2172 12.6807 23.0396C12.6807 23.6481 12.7435 24.2419 12.8625 24.8157C11.0803 22.7991 9.99512 20.1526 9.99512 17.2559C9.99512 14.5001 7.7533 12.2583 4.99756 12.2583C2.24182 12.2583 0 14.5001 0 17.2559C0 25.5725 4.76746 33.0573 12.2314 36.6071V52.6532C12.2314 52.6611 12.2302 52.6691 12.2302 52.6776V78.3972C12.2302 79.2596 12.9297 79.9585 13.7921 79.9585C14.6545 79.9585 15.3534 79.2596 15.3534 78.3972V54.2395H29.483V72.1503C29.483 73.0127 30.1825 73.7122 31.0449 73.7122C31.9073 73.7122 32.6068 73.0127 32.6068 72.1503V35.5261C34.0448 34.6436 35.3748 33.595 36.5698 32.3999C40.6213 28.3484 42.8522 22.9706 42.8522 17.2559C42.8522 14.5001 40.6104 12.2583 37.8546 12.2583ZM21.4264 17.417C24.5264 17.417 27.0483 19.939 27.0483 23.0396C27.0483 26.1395 24.5264 28.6615 21.4264 28.6615C18.3258 28.6615 15.8038 26.1395 15.8038 23.0396C15.8038 19.939 18.3258 17.417 21.4264 17.417ZM34.3616 30.191C33.1519 31.4001 31.781 32.4347 30.2863 33.266C29.7906 33.5413 29.483 34.0637 29.483 34.6307V51.1157H15.3546V35.5945C15.3546 34.9646 14.9762 34.3964 14.3951 34.1534C7.54761 31.2927 3.12317 24.66 3.12317 17.2559C3.12317 16.2225 3.96362 15.3821 4.99695 15.3821C6.03027 15.3821 6.87134 16.2231 6.87134 17.2559C6.87134 25.2814 13.4009 31.8103 21.4258 31.8103H21.4264C25.3076 31.8103 28.9606 30.2954 31.7133 27.5433C34.4653 24.7919 35.9808 21.1383 35.9808 17.2559C35.9808 16.7554 36.1755 16.2848 36.5295 15.9308C36.8835 15.5768 37.3541 15.3821 37.8546 15.3821C38.8879 15.3821 39.7284 16.2225 39.729 17.2559C39.729 22.1362 37.8223 26.7297 34.3616 30.191Z" fill="white"/>
<path d="M31.0453 76.8359C30.6327 76.8359 30.2317 77.0026 29.9412 77.2931C29.6506 77.5836 29.4834 77.9852 29.4834 78.3972C29.4834 78.808 29.6506 79.2108 29.9412 79.5013C30.2317 79.7919 30.6345 79.9591 31.0453 79.9591C31.4561 79.9591 31.8589 79.7919 32.1494 79.5013C32.4399 79.2108 32.6072 78.808 32.6072 78.3972C32.6072 77.9865 32.4399 77.5836 32.1494 77.2931C31.8589 77.0026 31.4561 76.8359 31.0453 76.8359Z" fill="white"/>
<path d="M22.4369 60.5811C21.5745 60.5811 20.875 61.2805 20.875 62.1429V78.4381C20.875 79.3005 21.5745 80 22.4369 80C23.2993 80 23.9982 79.3005 23.9982 78.4381V62.1429C23.9982 61.2805 23.2993 60.5811 22.4369 60.5811Z" fill="white"/>
<path d="M74.9617 33.6274C73.6268 33.6274 72.3713 34.1475 71.4277 35.0911C70.4835 36.0353 69.9641 37.2902 69.9641 38.625C69.9641 41.4357 68.9497 44.0931 67.0967 46.1848C67.2151 45.6111 67.278 45.0172 67.278 44.4087C67.278 39.5863 63.3552 35.663 58.5328 35.663C53.7104 35.663 49.7871 39.5863 49.7871 44.4087C49.7871 45.0172 49.85 45.6111 49.969 46.1848C48.1868 44.1682 47.1016 41.5217 47.1016 38.625C47.1016 35.8693 44.8597 33.6274 42.104 33.6274C39.3483 33.6274 37.1064 35.8693 37.1064 38.625C37.1064 40.5293 37.3579 42.4189 37.8541 44.2427C38.08 45.0746 38.9375 45.5665 39.7706 45.3395C40.6031 45.113 41.0939 44.2549 40.8674 43.423C40.4445 41.8666 40.2296 40.2522 40.2296 38.625C40.2296 37.5917 41.0707 36.7506 42.104 36.7506C43.1373 36.7512 43.9778 37.5917 43.9778 38.625C43.9778 46.6505 50.5073 53.1794 58.5322 53.1794H58.5328C62.4141 53.1794 66.067 51.6639 68.8197 48.9125C71.5718 46.161 73.0873 42.5074 73.0873 38.6244C73.0873 38.1245 73.282 37.6539 73.636 37.2999C73.99 36.9459 74.4606 36.7506 74.9611 36.7506C75.9944 36.7506 76.8348 37.5917 76.8354 38.625C76.8348 43.5054 74.9287 48.0989 71.4674 51.5602C70.2589 52.7693 68.8875 53.8038 67.3927 54.6345C66.8971 54.9104 66.5895 55.4329 66.5895 55.9999V72.4849H52.4611V56.9636C52.4611 56.3337 52.0826 55.7655 51.5016 55.5226C49.9781 54.886 48.5444 54.0431 47.2407 53.0183C46.5626 52.4849 45.5812 52.6027 45.0477 53.2808C44.5149 53.9583 44.6321 54.9403 45.3102 55.4738C46.559 56.4558 47.9103 57.2944 49.3379 57.9756V74.0223C49.3373 74.0303 49.3367 74.0382 49.3367 74.0468V78.3973C49.3367 79.2598 50.0355 79.9586 50.8979 79.9586C51.7604 79.9586 52.4598 79.2598 52.4598 78.3973V75.608H66.5895V78.3973C66.5895 79.2598 67.2889 79.9586 68.1514 79.9586C69.0138 79.9586 69.7126 79.2598 69.7126 78.3973V56.8953C71.1512 56.0127 72.4812 54.9635 73.6763 53.7684C77.7272 49.7175 79.9586 44.3391 79.9586 38.6244C79.9586 35.8693 77.7168 33.6274 74.9617 33.6274ZM58.5328 38.7861C61.6328 38.7861 64.1548 41.3081 64.1548 44.4087C64.1548 47.5087 61.6328 50.0306 58.5328 50.0306C55.4329 50.0306 52.9109 47.5087 52.9109 44.4087C52.9109 41.3081 55.4329 38.7861 58.5328 38.7861Z" fill="white"/>
<path d="M43.3543 48.8397C42.8709 48.125 41.8998 47.9376 41.1857 48.4198C40.471 48.9032 40.283 49.8737 40.7658 50.5884L40.7835 50.6146C41.0844 51.0657 41.5794 51.3098 42.0842 51.3098C42.3814 51.3098 42.6829 51.225 42.949 51.0474C43.6668 50.5689 43.8603 49.5996 43.3818 48.8819L43.3543 48.8397Z" fill="white"/>
<path d="M69.9642 20.2723C70.8267 20.2723 71.5261 19.5735 71.5261 18.7111V16.5541C71.5261 15.6917 70.8267 14.9922 69.9642 14.9922C69.1018 14.9922 68.4023 15.6917 68.4023 16.5541V18.7111C68.4023 19.5735 69.1018 20.2723 69.9642 20.2723Z" fill="white"/>
<path d="M69.9642 30.6093C70.8267 30.6093 71.5261 29.9098 71.5261 29.0474V26.8904C71.5261 26.0286 70.8267 25.3291 69.9642 25.3291C69.1018 25.3291 68.4023 26.0286 68.4023 26.8904V29.0474C68.4023 29.9098 69.1018 30.6093 69.9642 30.6093Z" fill="white"/>
<path d="M74.0541 24.3622H76.2111C77.0735 24.3622 77.7723 23.6633 77.7723 22.8009C77.7723 21.9385 77.0735 21.239 76.2111 21.239H74.0541C73.1917 21.239 72.4922 21.9385 72.4922 22.8009C72.4922 23.6633 73.1917 24.3622 74.0541 24.3622Z" fill="white"/>
<path d="M63.7172 24.3622H65.8741C66.7366 24.3622 67.436 23.6633 67.436 22.8009C67.436 21.9385 66.7366 21.239 65.8741 21.239H63.7172C62.8547 21.239 62.1553 21.9385 62.1553 22.8009C62.1553 23.6633 62.8547 24.3622 63.7172 24.3622Z" fill="white"/>
<path d="M53.722 5.28015C54.5845 5.28015 55.2833 4.58069 55.2833 3.71826V1.56189C55.2833 0.699463 54.5845 0 53.722 0C52.8596 0 52.1602 0.699463 52.1602 1.56189V3.71826C52.1602 4.58069 52.859 5.28015 53.722 5.28015Z" fill="white"/>
<path d="M53.722 15.6172C54.5845 15.6172 55.2833 14.9177 55.2833 14.0553V11.8983C55.2833 11.0359 54.5845 10.3364 53.722 10.3364C52.8596 10.3364 52.1602 11.0359 52.1602 11.8983V14.0553C52.1602 14.9177 52.859 15.6172 53.722 15.6172Z" fill="white"/>
<path d="M57.8123 9.37024H59.9692C60.8317 9.37024 61.5311 8.67078 61.5311 7.80835C61.5311 6.94592 60.8317 6.24707 59.9692 6.24707H57.8123C56.9498 6.24707 56.251 6.94592 56.251 7.80835C56.251 8.67078 56.9498 9.37024 57.8123 9.37024Z" fill="white"/>
<path d="M47.476 9.37024H49.6329C50.4954 9.37024 51.1948 8.67078 51.1948 7.80835C51.1948 6.94592 50.4954 6.24707 49.6329 6.24707H47.476C46.6135 6.24707 45.9141 6.94592 45.9141 7.80835C45.9141 8.67078 46.6135 9.37024 47.476 9.37024Z" fill="white"/>
</svg>
